<svg width="66" height="38" viewBox="0 0 66 38" fill="none" xmlns="http://www.w3.org/2000/svg">
<g clip-path="url(#clip0)">
<path d="M0 24.4238V13.2558H11.108V24.4238H0ZM7.20828 22.1249L7.03201 22.1016C6.21911 21.9928 6.13249 21.896 6.13128 21.0801C6.13128 19.9894 6.13128 18.8986 6.13128 17.8075C6.13128 17.2128 6.13128 16.6174 6.14885 16.0227C6.16096 15.6222 6.30331 15.474 6.69765 15.3993C6.86301 15.3676 7.0302 15.3461 7.20889 15.3186V15.0478H3.66835C3.67562 15.1554 3.68107 15.2391 3.68713 15.3257L3.9161 15.3628C4.7084 15.4877 4.75141 15.511 4.75928 16.2953C4.77624 17.8912 4.76898 19.4877 4.76837 21.0843C4.76837 21.2427 4.74838 21.4011 4.73445 21.5589C4.71022 21.8189 4.55757 21.9773 4.31043 22.037C4.13598 22.0789 3.95365 22.0885 3.77496 22.1142C3.74511 22.1221 3.71626 22.1333 3.68895 22.1476V22.4148H7.20828V22.1249Z" fill="#20275F"/>
<path d="M11.1133 11.1847H0.00463867V0H11.1133V11.1847ZM8.47164 2.08129C8.28992 2.11237 8.08337 2.08607 7.981 2.17573C7.64239 2.47459 7.2844 2.47101 6.88219 2.3676C6.47998 2.26419 6.08261 2.14764 5.67616 2.11476C4.89924 2.04602 4.11975 2.21549 3.44404 2.60006C2.76834 2.98463 2.22934 3.56557 1.9006 4.26359C1.20097 5.76448 1.48082 7.57022 2.61234 8.68678C3.6639 9.72323 4.95291 9.97428 6.36792 9.70769C7.39767 9.51403 8.18513 8.94738 8.77512 8.10877C8.57947 7.88642 8.44923 7.92467 8.26872 8.13507C8.03813 8.40987 7.77218 8.65381 7.47763 8.86071C6.10503 9.80273 4.38836 9.43513 3.63362 7.99281C2.87099 6.53137 2.89583 5.01493 3.66814 3.56485C4.36898 2.24985 6.00023 2.01076 7.08753 3.04184C7.45703 3.3921 7.73143 3.84697 8.01431 4.27674C8.14031 4.46861 8.24692 4.5511 8.46983 4.45188L8.47164 2.08129Z" fill="#20275F"/>
<path d="M11.1153 26.4268V37.5971H0.00366211V26.4268H11.1153ZM1.97352 35.4722H2.30183C3.59811 35.4722 4.895 35.4812 6.19128 35.4662C6.57389 35.4634 6.95523 35.4224 7.32946 35.3437C9.35807 34.9068 10.5429 33.1674 10.2001 31.1542C9.89173 29.3425 8.45613 28.1058 6.57592 28.0753C5.10882 28.052 3.64112 28.0699 2.17342 28.0699C2.11284 28.0699 2.05651 28.0783 1.98806 28.0831V28.3688C2.11829 28.3921 2.22672 28.4124 2.33515 28.4286C2.93362 28.5302 3.04507 28.6575 3.04507 29.2481C3.04507 30.9241 3.04507 32.6003 3.04507 34.2768C3.04507 34.9086 2.90575 35.0574 2.27033 35.1387C2.20067 35.1476 2.1298 35.1476 2.06075 35.1572C2.03078 35.1662 2.00223 35.1793 1.97594 35.1961L1.97352 35.4722Z" fill="#20275F"/>
<path d="M44.8628 35.1967V35.4358H42.2957V35.2063C42.942 35.0867 42.962 35.0616 42.962 34.4083C42.962 33.755 42.9547 33.1184 42.962 32.4734C42.968 32.0598 42.8548 31.7322 42.4295 31.5703C42.4007 31.5557 42.3752 31.5357 42.3544 31.5112C42.3336 31.4868 42.3179 31.4585 42.3084 31.428C42.3005 31.4011 42.3689 31.3288 42.4174 31.3144C42.9529 31.1477 43.4908 30.9881 44.0287 30.8297C44.0781 30.8254 44.1279 30.8282 44.1765 30.838C44.1862 31.0431 44.1952 31.2445 44.2061 31.4824C45.2765 30.7896 46.3232 30.3933 47.2791 31.4782C47.7849 31.266 48.264 31.0138 48.7746 30.8709C49.0648 30.7896 49.4167 30.8416 49.7226 30.9122C50.2557 31.0359 50.5894 31.4949 50.6046 32.0903C50.6245 32.8936 50.6149 33.6976 50.6179 34.5015C50.6179 34.9971 50.6609 35.0395 51.1431 35.1764C51.2151 35.1967 51.26 35.3115 51.3175 35.3826L51.2569 35.4561H48.7619V35.2063C49.3743 35.0999 49.4209 35.0449 49.4209 34.4292C49.4209 33.7048 49.4264 32.9803 49.4167 32.2559C49.4016 31.2612 48.8503 30.9624 47.9744 31.4441C47.5789 31.6623 47.3457 31.9146 47.3887 32.4238C47.4493 33.1333 47.4014 33.8518 47.4051 34.5661C47.4051 35.0114 47.479 35.0802 47.9193 35.177C47.9902 35.1925 48.0405 35.3091 48.1489 35.44H45.5818C45.5212 35.2045 45.5212 35.1955 45.7405 35.1716C46.0119 35.1423 46.1796 35.0066 46.1796 34.7371C46.1796 33.7759 46.196 32.8129 46.1439 31.8542C46.1166 31.3503 45.7066 31.1369 45.2044 31.2726C45.0799 31.3084 44.9583 31.3537 44.841 31.4083C44.3988 31.6061 44.1292 31.8751 44.1807 32.4286C44.2413 33.0861 44.1946 33.7568 44.1952 34.4215C44.1934 35.0509 44.2274 35.0909 44.8628 35.1967ZM49.4864 35.174C49.8007 35.1603 49.928 35.0246 49.9401 34.5386C49.9588 33.8064 49.9528 33.0736 49.9485 32.3407C49.9496 32.1331 49.9312 31.9258 49.8934 31.7215C49.8195 31.3473 49.4948 31.1447 49.0678 31.2128C49.5082 31.4029 49.5839 31.7568 49.5821 32.153C49.5784 32.9152 49.5887 33.6779 49.576 34.44C49.5724 34.6874 49.5173 34.9337 49.4888 35.174H49.4864ZM42.7306 31.5505C43.0807 31.7591 43.1225 32.0885 43.1231 32.4274C43.1231 33.1011 43.1322 33.7753 43.1231 34.4489C43.1189 34.6839 43.0662 34.9182 43.0359 35.1477C43.3539 35.1178 43.4847 35.0282 43.492 34.6833C43.5108 33.8213 43.5174 32.9582 43.492 32.0969C43.4744 31.6641 43.1661 31.4609 42.7306 31.5505ZM45.9077 31.1847C46.2517 31.4758 46.3087 31.5631 46.3274 31.997C46.3513 32.5609 46.3614 33.1248 46.3577 33.6886C46.3577 34.1812 46.3244 34.6731 46.3062 35.1716C46.5485 35.1716 46.6897 34.9827 46.6927 34.7215C46.7054 33.7616 46.7169 32.8016 46.6927 31.8422C46.6782 31.3969 46.3638 31.1602 45.9077 31.1847Z" fill="#20275F"/>
<path d="M36.2119 38V37.7478C36.2967 37.7268 36.3826 37.7106 36.4693 37.6993C36.7407 37.679 36.8624 37.5308 36.8624 37.2708C36.8624 35.584 36.8624 33.8974 36.8624 32.211C36.8624 31.8368 36.6807 31.5738 36.3372 31.413C36.2664 31.3802 36.2161 31.3037 36.1555 31.2475C36.224 31.2044 36.287 31.1375 36.3609 31.1219C36.906 31.009 37.4585 30.9068 38.0375 30.795C38.0521 30.9904 38.0636 31.1429 38.0757 31.3037C38.3998 31.1614 38.696 30.9833 39.0176 30.8978C40.2969 30.5589 41.5551 31.5218 41.6829 32.8751C41.87 34.8984 40.0183 35.948 38.4119 35.4585C38.3089 35.4268 38.2041 35.3987 38.0757 35.3628C38.0757 36.0317 38.0684 36.6736 38.0757 37.3156C38.0799 37.5768 38.2574 37.7023 38.5064 37.7244C38.6354 37.7358 38.7668 37.7244 38.9304 37.7244C38.9401 37.8201 38.9486 37.8996 38.9583 37.9982L36.2119 38ZM38.0593 33.2899C38.0593 33.7262 38.0454 34.1632 38.0678 34.5983C38.0797 34.7393 38.1445 34.8709 38.2495 34.9671C38.911 35.5111 39.7003 35.361 40.0825 34.5995C40.4829 33.8028 40.4847 32.9647 40.151 32.1488C39.8172 31.3329 38.9825 31.1064 38.2453 31.6187C38.1948 31.6595 38.1532 31.7099 38.1227 31.7669C38.0922 31.8238 38.0736 31.8862 38.0678 31.9504C38.0472 32.3969 38.0593 32.8434 38.0593 33.2899ZM36.545 31.3652C36.989 31.6109 37.0338 31.9629 37.0296 32.3437C37.0229 33.7717 37.0296 35.1996 37.0247 36.627C37.0247 36.994 36.9945 37.3604 36.9781 37.7376C37.175 37.7215 37.3082 37.5953 37.3416 37.3748C37.369 37.2085 37.3838 37.0405 37.3858 36.8721C37.3886 35.365 37.3886 33.8579 37.3858 32.3509C37.3855 32.2022 37.3721 32.0538 37.3458 31.9074C37.2761 31.5093 37.0569 31.3461 36.542 31.3652H36.545ZM39.1854 31.1458C39.8166 31.2696 40.2236 31.6551 40.3787 32.2409C40.6398 33.2277 40.6858 34.2038 39.9547 35.0556C39.9498 35.0616 39.965 35.0837 39.9783 35.1154C40.3001 34.9677 40.5521 34.7036 40.6822 34.3778C41.0268 33.5087 40.9947 32.6444 40.5417 31.8255C40.2582 31.321 39.802 31.0598 39.1824 31.1458H39.1854Z" fill="#20275F"/>
<path d="M20.0789 9.24029H17.5954C17.5294 9.07652 17.5257 8.98327 17.7577 8.95279C18.163 8.89899 18.229 8.81172 18.232 8.40766C18.2375 7.68321 18.2284 6.95877 18.2356 6.23432C18.2399 5.81591 18.1006 5.49852 17.6905 5.33773C17.5578 5.28513 17.4888 5.16858 17.6444 5.11777C18.2047 4.93845 18.7766 4.78842 19.3447 4.63002C19.3587 4.62584 19.3793 4.64317 19.4193 4.65991C19.4296 4.84281 19.4405 5.03588 19.4532 5.26899C19.6773 5.13391 19.8693 5.01615 20.0625 4.90079C20.4938 4.64258 20.9712 4.58221 21.4557 4.6354C22.2305 4.7161 22.643 5.17814 22.6545 5.9773C22.6666 6.73103 22.6581 7.48537 22.6587 8.2391C22.6587 8.85058 22.6908 8.88883 23.3081 8.99403C23.3117 9.06516 23.316 9.14107 23.3214 9.23312H20.8179C20.747 9.06217 20.7743 8.97191 20.9784 8.95279C21.291 8.9241 21.4261 8.74059 21.4236 8.42918C21.4164 7.5559 21.4303 6.68262 21.4176 5.80994C21.4085 5.20743 20.9845 4.88226 20.4072 5.07055C20.0934 5.17276 19.8148 5.38794 19.5343 5.57324C19.4701 5.61568 19.4368 5.74478 19.4362 5.83385C19.4296 6.6874 19.4265 7.54036 19.4362 8.39391C19.4405 8.79439 19.5319 8.87209 19.9396 8.96594C20.0238 8.98506 20.088 9.08548 20.1613 9.15243L20.0789 9.24029ZM21.1492 4.94742C21.5787 5.21161 21.592 5.59535 21.5896 5.99045C21.5842 6.77347 21.5926 7.5565 21.5842 8.33952C21.5842 8.53976 21.5351 8.7394 21.5097 8.93725C21.7913 8.95279 21.9428 8.83922 21.9494 8.48536C21.9664 7.53438 21.9718 6.5828 21.9494 5.63181C21.9409 5.19428 21.6714 4.9791 21.1492 4.94742ZM18.3277 8.94143C18.5912 8.89421 18.7384 8.72087 18.7426 8.47162C18.756 7.60133 18.7626 6.73044 18.7426 5.86074C18.7342 5.48119 18.4071 5.24987 17.9461 5.30904C18.447 5.55232 18.398 5.96654 18.398 6.35985C18.398 6.98268 18.404 7.60611 18.3943 8.22894C18.3919 8.46026 18.3538 8.69098 18.3277 8.94143Z" fill="#20275F"/>
<path d="M22.2033 22.3987C22.1294 22.2074 22.1852 22.1321 22.3784 22.1124C22.674 22.0831 22.8127 21.9097 22.8109 21.6091C22.8048 20.7262 22.8188 19.8428 22.8048 18.96C22.7957 18.3742 22.3741 18.0466 21.8132 18.2277C21.4904 18.3317 21.2033 18.5535 20.9143 18.7436C20.8537 18.7848 20.8247 18.9169 20.8241 19.0072C20.8176 19.8408 20.8176 20.6744 20.8241 21.5081C20.8271 21.9534 20.904 22.0245 21.3408 22.1291C21.4207 22.1482 21.4783 22.2582 21.5455 22.3264L21.4849 22.3969C21.4243 22.4023 21.368 22.4118 21.3093 22.4124H18.9808C18.9117 22.2212 18.9396 22.1405 19.1565 22.1136C19.5423 22.064 19.6156 21.9713 19.6186 21.5882C19.6247 20.844 19.6186 20.0998 19.6186 19.3557C19.6186 18.9606 19.4727 18.6653 19.0898 18.5033C19.033 18.4722 18.9863 18.4258 18.9554 18.3694C18.9469 18.3557 18.9996 18.2791 19.0359 18.2678C19.6065 18.0885 20.1789 17.9175 20.7926 17.7298C20.8089 17.994 20.8216 18.1943 20.8362 18.4268C21.0736 18.2833 21.2741 18.156 21.4801 18.0383C21.9156 17.7884 22.3929 17.7334 22.8799 17.7992C23.6317 17.9008 24.0254 18.3473 24.0393 19.1172C24.0532 19.887 24.0436 20.6653 24.0448 21.4393C24.0448 22.0006 24.1053 22.0658 24.6784 22.1405C24.6904 22.1828 24.6995 22.226 24.7056 22.2696C24.705 22.3124 24.7003 22.355 24.6917 22.3969L22.2033 22.3987ZM22.8963 22.0998C23.1761 22.11 23.3282 22.0048 23.3342 21.673C23.353 20.7023 23.3597 19.7304 23.3342 18.7603C23.3239 18.3419 23.0405 18.1327 22.5983 18.1154C22.9556 18.5039 22.9744 18.5511 22.975 19.1249C22.975 19.9181 22.9805 20.7107 22.972 21.5039C22.9702 21.7053 22.9229 21.9044 22.8969 22.1016L22.8963 22.0998ZM19.4551 18.4417C19.5665 18.6509 19.7531 18.8416 19.758 19.0395C19.7882 20.0592 19.7719 21.0795 19.7719 22.0927C20.0045 22.0568 20.1323 21.8536 20.1353 21.5852C20.1444 20.7442 20.139 19.9032 20.139 19.0628C20.1396 18.7137 19.7719 18.3551 19.4551 18.4435V18.4417Z" fill="#20275F"/>
<path d="M59.1279 35.4453H56.6443C56.5838 35.2797 56.5795 35.1865 56.8109 35.1566C57.2131 35.104 57.2804 35.0149 57.2834 34.6097C57.2888 33.8852 57.2792 33.1608 57.2864 32.4369C57.2913 32.0185 57.1495 31.7011 56.7376 31.5403C56.6038 31.4871 56.5383 31.3736 56.6952 31.3198C57.261 31.1261 57.8376 30.9611 58.4555 30.777C58.4743 31.0347 58.4882 31.2343 58.5052 31.471C58.7275 31.3365 58.9195 31.2188 59.1109 31.1034C59.5428 30.8458 60.0195 30.7854 60.5041 30.8392C61.2776 30.9235 61.6913 31.3855 61.704 32.1835C61.7162 32.9372 61.7077 33.6916 61.7077 34.4453C61.7077 35.0538 61.7392 35.0902 62.3546 35.199V35.4381H59.8687C59.7972 35.2636 59.8293 35.1757 60.0316 35.1572C60.3442 35.1279 60.4774 34.942 60.475 34.6312C60.4671 33.7585 60.4817 32.8846 60.4683 32.0119C60.4593 31.4106 60.0346 31.0867 59.4568 31.2755C59.143 31.3778 58.8607 31.5893 58.5857 31.7806C58.5118 31.832 58.4882 31.9898 58.487 32.0992C58.4791 32.9032 58.4797 33.7071 58.487 34.5104C58.487 34.9886 58.5476 35.0484 59.0249 35.1733C59.0994 35.1925 59.146 35.306 59.2102 35.376L59.1279 35.4453ZM60.5622 35.1464C60.8415 35.1536 60.9911 35.049 60.9972 34.7167C61.0159 33.746 61.0226 32.7746 60.9972 31.8039C60.9869 31.3855 60.6997 31.1751 60.2164 31.162C60.6052 31.4082 60.6404 31.7639 60.6404 32.1428C60.6337 32.936 60.6404 33.7286 60.6349 34.5218C60.6222 34.7312 60.5979 34.9397 60.5622 35.1464ZM57.032 31.5242C57.4736 31.7567 57.456 32.1482 57.4512 32.5403C57.4457 33.1632 57.4554 33.7866 57.4463 34.41C57.4463 34.6491 57.4064 34.8912 57.3858 35.147C57.6535 35.104 57.7952 34.9175 57.7983 34.6485C57.8098 33.798 57.8037 32.9474 57.8043 32.0962C57.8025 31.7687 57.4288 31.3807 57.032 31.5236V31.5242Z" fill="#20275F"/>
<path d="M15.2454 22.4148H12.7619C12.7013 22.2355 12.7056 22.1447 12.9327 22.116C13.3313 22.0652 13.3985 21.9737 13.4016 21.5661C13.407 20.8518 13.3967 20.1375 13.4058 19.4232C13.4106 18.997 13.2804 18.6647 12.8522 18.4961C12.7159 18.4429 12.6589 18.3288 12.8164 18.2756C13.3834 18.0843 13.9601 17.9229 14.5731 17.7376C14.5918 17.994 14.6064 18.1949 14.6233 18.4286C14.8462 18.2935 15.0389 18.1757 15.2333 18.0598C15.6652 17.8028 16.1419 17.743 16.6265 17.798C17.3994 17.8847 17.8107 18.3467 17.8229 19.1453C17.8344 19.8894 17.8265 20.6336 17.8265 21.3778C17.8265 22.0179 17.8465 22.0419 18.4746 22.1602V22.3993H15.9881C15.916 22.22 15.9566 22.1351 16.1559 22.1166C16.4702 22.0867 16.598 21.8972 16.5956 21.5876C16.5884 20.7245 16.6017 19.8613 16.5908 18.9982C16.5823 18.3628 16.1522 18.0389 15.5441 18.2439C15.2412 18.3461 14.9716 18.5583 14.7021 18.7418C14.6385 18.7848 14.6088 18.9139 14.6076 19.0036C14.6007 19.8472 14.6007 20.6906 14.6076 21.5338C14.6112 21.957 14.6954 22.0317 15.1176 22.1315C15.1994 22.1506 15.26 22.2564 15.3308 22.3222L15.2454 22.4148ZM16.3079 18.1052C16.6889 18.3503 16.7622 18.6551 16.7604 18.9988C16.7561 19.7818 16.7646 20.5649 16.7561 21.3479C16.7561 21.6037 16.7131 21.8589 16.6901 22.1124C16.993 22.0945 17.1172 21.9875 17.1232 21.6276C17.139 20.6964 17.1444 19.7645 17.1269 18.8332C17.1184 18.37 16.867 18.1542 16.3079 18.1034V18.1052ZM13.4736 22.11C13.7904 22.0568 13.917 21.8566 13.9195 21.584C13.9279 20.743 13.9237 19.902 13.9225 19.0616C13.9225 18.7065 13.5385 18.3527 13.2616 18.4399C13.3628 18.679 13.5421 18.9181 13.5524 19.165C13.5881 19.9946 13.5675 20.8261 13.5584 21.6569C13.5566 21.7956 13.5082 21.9367 13.4736 22.1064V22.11Z" fill="#20275F"/>
<path d="M55.3349 22.3999H52.8241V22.1494C52.9029 22.1375 52.9804 22.1249 53.0573 22.1142C53.3372 22.0753 53.4813 21.9319 53.4813 21.636C53.4735 20.8524 53.4759 20.0687 53.4759 19.2845C53.4759 18.9038 53.2942 18.6491 52.9447 18.4961C52.8908 18.4728 52.8562 18.4071 52.8132 18.361C52.8544 18.3246 52.8896 18.2702 52.9344 18.2552C53.4412 18.0958 53.9492 17.9408 54.4584 17.7902C54.5245 17.7819 54.5915 17.7819 54.6577 17.7902C54.6698 17.997 54.6813 18.1901 54.6964 18.4363C54.8309 18.3503 54.9387 18.2869 55.0387 18.2176C55.4755 17.9098 56.0047 17.7561 56.5409 17.7812C57.3944 17.8183 57.8856 18.2839 57.9007 19.1297C57.9153 19.893 57.905 20.6575 57.9056 21.4214C57.9056 22.006 57.9534 22.0604 58.5362 22.1464C58.5498 22.1701 58.5596 22.1957 58.5652 22.2224C58.5652 22.2785 58.5598 22.3347 58.5555 22.4017H56.0666C56.006 22.2409 56.006 22.1512 56.218 22.1142C56.5966 22.0472 56.6669 21.9522 56.6687 21.5702C56.6741 20.7173 56.6784 19.8637 56.6687 19.0102C56.6608 18.3586 56.2283 18.0335 55.6056 18.2451C55.3113 18.3455 55.0472 18.5439 54.7903 18.7316C54.7158 18.7854 54.6861 18.939 54.6849 19.0478C54.6765 19.8613 54.6771 20.6748 54.6849 21.4883C54.6849 21.951 54.7576 22.0185 55.2125 22.1303C55.2894 22.1488 55.3446 22.2546 55.41 22.3204L55.3349 22.3999ZM56.7505 22.1213C57.0485 22.1429 57.1884 21.9504 57.1933 21.694C57.2096 20.7131 57.2193 19.7316 57.1933 18.7513C57.1824 18.3359 56.8765 18.116 56.4609 18.1279C56.7995 18.471 56.8335 18.5463 56.8353 19.0478C56.8353 19.8906 56.8401 20.7328 56.8316 21.5756C56.831 21.7478 56.782 21.9193 56.7505 22.1213ZM53.1924 18.4752C53.6455 18.6975 53.6534 19.0532 53.6485 19.419C53.6431 19.8936 53.6528 20.3688 53.6485 20.8434C53.6425 21.2618 53.6225 21.6802 53.6086 22.0986C53.8339 22.0687 53.9871 21.8978 53.9914 21.6521C54.0071 20.7723 54.0083 19.892 53.995 19.0114C53.9871 18.6766 53.6189 18.3664 53.1924 18.4734V18.4752Z" fill="#20275F"/>
<path d="M41.598 9.23967H38.8934C38.8177 9.05199 38.8661 8.97966 39.0715 8.94559C39.4991 8.87386 39.5736 8.77165 39.5742 8.34786C39.5742 7.33611 39.5742 6.32435 39.5742 5.3126C39.5742 5.22593 39.5646 5.13926 39.5579 5.02748H38.831C38.8231 4.90793 38.8165 4.81648 38.8074 4.68618H39.5791C39.5791 4.3377 39.5688 4.0233 39.5791 3.71009C39.6142 2.80094 40.1243 2.08964 40.9208 1.85713C41.4157 1.71128 41.9142 1.68857 42.3837 1.94559C42.7738 2.16018 42.8653 2.59353 42.6005 2.90196C42.4346 3.09562 42.2214 3.16914 41.9797 3.08128C41.8733 3.04715 41.7809 2.97998 41.7164 2.88982C41.6519 2.79965 41.6187 2.69132 41.6217 2.58098C41.6217 2.53137 41.6429 2.4698 41.6217 2.43453C41.5399 2.30244 41.463 2.1022 41.3479 2.0759C41.2328 2.0496 41.0165 2.14762 40.9238 2.25522C40.8312 2.36281 40.7815 2.56544 40.7779 2.72682C40.7621 3.36042 40.7712 3.9952 40.7712 4.67004H41.7355V5.01194H40.7839C40.7785 5.13507 40.7694 5.23908 40.7694 5.34308C40.7694 6.31499 40.7694 7.28709 40.7694 8.2594C40.7694 8.84876 40.8578 8.93722 41.466 8.96711C41.5048 8.96711 41.5435 8.97548 41.5986 8.98205L41.598 9.23967ZM39.6154 8.96591C39.9577 8.95934 40.0867 8.82067 40.0885 8.33651C40.0946 6.97847 40.0982 5.62103 40.0885 4.26358C40.0837 3.57022 40.1461 2.89837 40.5198 2.29108C40.5253 2.28152 40.5077 2.2588 40.4968 2.23131C39.9516 2.64972 39.7336 3.20979 39.7336 3.86908C39.7336 5.2863 39.7396 6.70291 39.7275 8.12013C39.7263 8.40584 39.6548 8.69096 39.6154 8.96591ZM41.7059 2.09204C41.7374 2.27135 41.7392 2.43155 41.7991 2.57022C41.8591 2.70889 41.9579 2.88821 42.0778 2.92348C42.1977 2.95874 42.374 2.84697 42.5254 2.79915L42.5182 2.69335C41.9984 2.82425 42.0875 2.18528 41.7071 2.09562L41.7059 2.09204Z" fill="#20275F"/>
<path d="M27.6352 17.783C28.9926 17.78 30.0187 18.7926 30.0193 20.1363C30.0199 21.48 28.9684 22.5344 27.6261 22.5302C26.2504 22.5302 25.2364 21.5422 25.2261 20.1943C25.2159 18.8464 26.2716 17.786 27.6352 17.783ZM28.7727 20.315C28.7122 19.7053 28.6643 19.1148 28.3675 18.5744C28.1985 18.2672 27.955 18.0598 27.58 18.0681C27.4069 18.0656 27.2372 18.1159 27.0942 18.2122C26.9511 18.3085 26.8418 18.4461 26.7811 18.6061C26.6663 18.8795 26.5919 19.1678 26.56 19.4621C26.4843 20.1991 26.5351 20.9283 26.8677 21.6103C27.0415 21.9689 27.2917 22.2588 27.7345 22.2415C28.1773 22.2242 28.4105 21.9014 28.522 21.5278C28.6443 21.1333 28.6952 20.7197 28.7727 20.315ZM26.9452 22.2355C26.2183 21.7006 25.7755 21.0723 25.7434 20.1997C25.7113 19.327 26.1202 18.6868 26.7732 18.1476C25.9143 18.419 25.3322 19.3616 25.3951 20.3126C25.4557 21.2505 26.0869 22.0628 26.9452 22.2355ZM28.3384 18.2307C28.7527 18.7771 28.8527 19.4047 28.8787 20.0556C28.9048 20.7065 28.8733 21.3503 28.4711 21.9857C29.516 21.4633 29.4996 18.7508 28.339 18.2307H28.3384Z" fill="#20275F"/>
<path d="M49.8582 17.783C51.2102 17.783 52.2351 18.8039 52.2302 20.1476C52.2254 21.4913 51.172 22.5338 49.8255 22.5302C48.4547 22.5272 47.4407 21.5302 47.437 20.1829C47.4334 18.8356 48.4898 17.7836 49.8582 17.783ZM51.003 20.315L50.9297 20.2977C50.9249 19.7089 50.8752 19.1285 50.5923 18.5947C50.4239 18.2773 50.1762 18.0568 49.7867 18.0681C49.6085 18.0673 49.4346 18.122 49.2897 18.2242C49.1447 18.3265 49.0361 18.4712 48.9792 18.6378C48.8676 18.9124 48.7966 19.2015 48.7684 19.4961C48.7079 20.2732 48.7484 21.0436 49.1567 21.7442C49.3312 22.043 49.5807 22.2588 49.9533 22.2427C50.3258 22.2265 50.5729 21.9797 50.6801 21.6575C50.8213 21.2194 50.8988 20.7633 51.003 20.315ZM49.0955 22.2146C48.4292 21.7041 47.9919 21.0789 47.9537 20.214C47.9156 19.3371 48.3275 18.6916 48.9835 18.1536C48.1912 18.3544 47.6 19.257 47.5994 20.2128C47.6024 21.1518 48.2263 22.0048 49.0967 22.2146H49.0955ZM50.731 22.0042C51.3913 21.4573 51.4749 20.7723 51.4488 20.0634C51.4137 19.1148 51.0727 18.4495 50.5814 18.2445C51.2386 19.4262 51.272 20.6569 50.7335 22.0042H50.731Z" fill="#20275F"/>
<path d="M44.6233 9.36759C43.2567 9.36222 42.2427 8.35564 42.2463 7.00896C42.25 5.64494 43.3155 4.61147 44.7087 4.61804C46.0341 4.62701 47.0499 5.66227 47.0396 6.99401C47.0287 8.33771 45.9753 9.37357 44.6233 9.36759ZM45.8099 7.16736C45.7354 6.55289 45.6888 5.96233 45.3956 5.42079C45.2296 5.11356 44.9886 4.90077 44.6136 4.90555C44.4353 4.9013 44.2602 4.95261 44.1132 5.05219C43.9662 5.15178 43.8547 5.29456 43.7946 5.46024C43.681 5.73433 43.6083 6.02327 43.579 6.31798C43.5111 7.09503 43.5554 7.8649 43.957 8.56783C44.1345 8.87865 44.3913 9.10579 44.7753 9.07949C45.1497 9.05618 45.3883 8.80573 45.4925 8.48176C45.6325 8.05438 45.7076 7.60669 45.8099 7.16736ZM43.9079 9.0508C43.2361 8.54392 42.803 7.91511 42.7643 7.0508C42.7255 6.17393 43.138 5.52898 43.794 4.99103C43.0029 5.19306 42.4117 6.09682 42.4117 7.05319C42.4117 7.98983 43.0356 8.84279 43.9079 9.0508ZM45.3708 5.04602C46.0528 6.27016 46.0837 7.50687 45.567 8.77285C46.4963 8.38493 46.5635 5.65271 45.3696 5.04363L45.3708 5.04602Z" fill="#20275F"/>
<path d="M33.3203 30.8267C34.6723 30.8267 35.6972 31.8476 35.6923 33.1913C35.6875 34.535 34.6341 35.5768 33.2876 35.5738C31.9168 35.5702 30.9028 34.5738 30.8992 33.2265C30.8955 31.8793 31.9519 30.8267 33.3203 30.8267ZM34.4712 33.2977C34.35 32.7848 34.2489 32.2307 34.0768 31.7005C33.9611 31.3419 33.6752 31.1028 33.2579 31.1118C32.8218 31.1213 32.531 31.3706 32.405 31.7537C32.0737 32.7741 32.1203 33.786 32.6025 34.7549C32.766 35.0831 33.0404 35.3144 33.439 35.2845C33.8255 35.2558 34.0599 34.9856 34.1659 34.6539C34.2961 34.2343 34.3621 33.7938 34.4712 33.2977ZM32.4674 31.1686C31.5855 31.434 30.9604 32.4836 31.0742 33.4399C31.1845 34.3622 31.8792 35.2122 32.5565 35.2528C31.03 33.8087 31.0003 32.8069 32.4674 31.1686ZM34.1962 35.0418C34.8497 34.511 34.9333 33.8362 34.9152 33.1387C34.8897 32.1823 34.5475 31.5021 34.0423 31.2857C34.7086 32.4758 34.7353 33.7119 34.1962 35.0418Z" fill="#20275F"/>
<path d="M40.3549 21.8368C40.3482 21.9892 40.3791 22.1046 40.3349 22.153C40.0611 22.4548 39.7291 22.6371 39.2972 22.5857C38.9338 22.5427 38.7284 22.3263 38.6309 21.9701C38.4492 22.0825 38.2996 22.1823 38.1463 22.266C37.7284 22.4895 37.288 22.6073 36.8137 22.4871C36.1201 22.3114 35.839 21.5846 36.2685 21.0143C36.4394 20.7967 36.65 20.6124 36.8894 20.471C37.3595 20.1859 37.8501 19.933 38.3432 19.6826C38.5304 19.587 38.6055 19.465 38.5855 19.2612C38.5661 19.0341 38.5776 18.8045 38.557 18.578C38.534 18.3252 38.3892 18.1178 38.136 18.1046C37.8828 18.0915 37.6381 18.1716 37.397 18.2397C37.3637 18.2493 37.348 18.4346 37.3764 18.5218C37.4782 18.8386 37.4212 19.0544 37.1644 19.2146C36.9173 19.3682 36.5181 19.3628 36.3576 19.1548C36.2691 19.0412 36.2067 18.8267 36.2564 18.7083C36.34 18.5084 36.4808 18.3368 36.6616 18.2146C37.3661 17.7729 38.1354 17.6491 38.9405 17.9002C39.499 18.0741 39.7885 18.4848 39.7952 19.0616C39.8006 19.9151 39.7952 20.7687 39.7952 21.6222C39.8 22.0382 39.8891 22.0884 40.3549 21.8368ZM38.5819 19.9641L38.4922 19.8918C38.196 20.1309 37.8786 20.3532 37.609 20.621C37.3613 20.8667 37.3213 21.2008 37.3891 21.5361C37.4146 21.6579 37.4838 21.7666 37.5839 21.842C37.6841 21.9175 37.8085 21.9547 37.9343 21.9468C38.2305 21.9306 38.5722 21.6898 38.5764 21.4686C38.5885 20.9695 38.5819 20.4674 38.5819 19.9641ZM38.6333 18.1417C38.6709 18.4668 38.7321 18.7914 38.7412 19.1172C38.7642 19.948 38.7569 20.78 38.7787 21.6109C38.7863 21.798 38.8314 21.9819 38.9114 22.1518C39.0398 22.4262 39.3499 22.4943 39.5941 22.3311C39.2336 22.141 39.17 22.055 39.1204 21.6455C39.1071 21.5077 39.1021 21.3692 39.1052 21.2307C39.1016 20.4292 39.1052 19.627 39.0949 18.8249C39.0883 18.3987 38.9489 18.2307 38.6333 18.1429V18.1417ZM36.9772 20.6569C36.4151 20.9115 36.1183 21.416 36.2818 21.8374C36.4345 22.2319 36.9482 22.4477 37.42 22.3156C36.4405 21.9563 36.3897 21.7651 36.9772 20.6581V20.6569ZM37.0215 18.2271L36.9657 18.1602C36.7925 18.3114 36.5883 18.4399 36.4527 18.6193C36.2643 18.8685 36.4278 19.1423 36.7464 19.1447C36.8494 19.1447 36.9524 19.1046 37.0796 19.0771C36.6701 18.783 36.6677 18.7143 37.0215 18.2307V18.2271Z" fill="#20275F"/>
<path d="M56.2126 32.7185H52.9604C52.9743 33.416 53.1791 33.9928 53.78 34.3575C54.5305 34.8129 55.2531 34.7024 55.9303 34.1781C56.1181 34.2469 56.1448 34.3425 56.0394 34.5129C55.5257 35.3497 54.4336 35.7681 53.4402 35.5015C52.5176 35.2535 51.9119 34.4376 51.884 33.437C51.8622 32.6061 52.1348 31.8978 52.7708 31.3449C53.7152 30.5248 55.2283 30.6874 55.8255 31.6886C55.9988 31.9785 56.0709 32.327 56.2126 32.7185ZM54.8194 32.3598C54.8873 31.6868 54.545 31.1943 54.0102 31.171C53.465 31.1465 53.0119 31.6754 53.0034 32.3598H54.8194ZM55.3937 34.8602C55.2767 34.9104 55.1604 34.9642 55.0423 35.0108C53.9344 35.4507 52.7551 34.9558 52.468 33.8865C52.3692 33.5035 52.3529 33.1044 52.4201 32.7149C52.4922 32.2965 52.7012 31.9062 52.8381 31.5368C51.9513 32.1548 51.7477 33.8034 52.4782 34.6767C53.2318 35.5679 54.631 35.6707 55.3973 34.859L55.3937 34.8602ZM54.5396 31.2074C54.9799 31.4764 54.9842 31.9289 55.0242 32.3539H55.3646C55.3767 31.6856 55.1423 31.3521 54.5396 31.2074Z" fill="#20275F"/>
<path d="M27.1412 34.1733C27.3472 34.254 27.3429 34.3622 27.2418 34.5224C26.7118 35.3592 25.6251 35.7687 24.6371 35.4949C23.7055 35.2367 23.1088 34.419 23.0937 33.3933C23.081 32.5732 23.362 31.8769 23.9914 31.3365C24.9309 30.5296 26.4289 30.6892 27.0261 31.676C27.2079 31.9719 27.2787 32.3299 27.4211 32.7167H24.1689C24.1864 33.425 24.396 34.0048 25.0024 34.3652C25.7535 34.8129 26.4773 34.7011 27.1412 34.1733ZM26.0321 32.3586C26.1024 31.6886 25.7589 31.1936 25.2241 31.1697C24.6789 31.1446 24.227 31.6712 24.2155 32.3586H26.0321ZM26.613 34.8583C26.4973 34.9073 26.3816 34.9581 26.2647 35.0054C25.0387 35.4973 23.8115 34.8619 23.6049 33.6091C23.4991 32.9757 23.6281 32.3259 23.9684 31.7788C24.0192 31.6939 24.0653 31.6061 24.1137 31.5194C23.124 32.2899 22.955 33.8392 23.7249 34.7125C24.479 35.5696 25.8044 35.6551 26.613 34.8583ZM25.7014 31.2014C26.1823 31.4746 26.1981 31.9187 26.232 32.3562H26.5676C26.6118 31.8278 26.3653 31.2612 25.7014 31.2014Z" fill="#20275F"/>
<path d="M31.7704 6.51524H28.5158C28.5298 7.21279 28.7339 7.7902 29.3354 8.15421C30.0853 8.60849 30.8085 8.50209 31.4839 7.9749C31.6735 8.04363 31.7002 8.13867 31.5948 8.30962C31.0811 9.14644 29.9884 9.56485 28.9962 9.29886C28.0755 9.0526 27.4655 8.2373 27.4394 7.2361C27.4176 6.40586 27.6902 5.69695 28.3256 5.14405C29.27 4.32337 30.7831 4.48655 31.381 5.48715C31.5536 5.77227 31.6263 6.12074 31.7704 6.51524ZM30.3851 6.15661C30.4324 5.45547 30.0956 4.98207 29.5601 4.96115C29.015 4.94202 28.5498 5.49492 28.5691 6.15242L30.3851 6.15661ZM30.9533 8.65272C30.8364 8.70293 30.7207 8.75672 30.602 8.80394C29.3863 9.28631 28.179 8.66408 27.9567 7.422C27.858 6.91095 27.9243 6.38221 28.1463 5.91034C28.242 5.70831 28.3486 5.51225 28.4698 5.27794C27.5091 5.94441 27.3025 7.59594 28.0355 8.46922C28.7866 9.36163 30.184 9.46443 30.9533 8.65272ZM30.1313 4.98924C30.2482 5.16019 30.4045 5.32397 30.4814 5.51823C30.5584 5.71249 30.5566 5.93664 30.5893 6.14824H30.9182C30.937 5.48715 30.7013 5.15063 30.1313 4.98924Z" fill="#20275F"/>
<path d="M17.1619 32.7167H13.9079C13.9249 33.4226 14.1332 34.0012 14.7378 34.3634C15.4901 34.8141 16.2134 34.6981 16.8821 34.1745C17.082 34.2516 17.085 34.3538 16.9832 34.5194C16.4569 35.3562 15.3696 35.768 14.3786 35.4961C13.4566 35.2426 12.8551 34.4309 12.8315 33.4267C12.8121 32.5953 13.0884 31.8882 13.7262 31.3389C14.6645 30.5308 16.1631 30.6874 16.7622 31.673C16.9427 31.9689 17.0172 32.3269 17.1619 32.7167ZM15.7724 32.358C15.8402 31.685 15.4974 31.1925 14.9625 31.1692C14.4276 31.1458 13.9642 31.6736 13.9558 32.358H15.7724ZM13.8049 31.5003C13.0993 32.1279 12.8757 32.9247 13.0338 33.8242C13.1774 34.6419 13.8243 35.2378 14.6481 35.3885C15.2442 35.4979 16.1055 35.2384 16.3702 34.8505C16.2291 34.9103 16.1128 34.9653 15.9947 35.0125C14.8868 35.4518 13.7074 34.9563 13.4203 33.887C13.3221 33.504 13.3058 33.105 13.3724 32.7155C13.4476 32.2977 13.6541 31.905 13.8049 31.5003ZM15.4968 31.2014C15.8426 31.569 15.8426 31.569 15.9874 32.3479H16.3206C16.3012 31.6384 16.0686 31.321 15.4968 31.2014Z" fill="#20275F"/>
<path d="M17.1597 6.51165H13.9063C13.9251 7.21937 14.1347 7.79916 14.741 8.15959C15.4939 8.60789 16.2172 8.49073 16.8829 7.96772C17.0876 8.04901 17.081 8.1578 16.9804 8.31679C16.4498 9.15361 15.3625 9.56306 14.3757 9.2887C13.4435 9.02988 12.8481 8.21279 12.8329 7.18649C12.8202 6.36581 13.1013 5.67005 13.7312 5.1303C14.6713 4.32337 16.1687 4.48356 16.766 5.47041C16.9441 5.76629 17.0174 6.12492 17.1597 6.51165ZM15.7738 6.15302C15.8344 5.4728 15.4951 4.98565 14.9597 4.96354C14.4242 4.94142 13.9578 5.47699 13.9578 6.15302H15.7738ZM13.8057 5.2887C13.094 5.93066 12.865 6.73461 13.0419 7.64674C13.2006 8.46384 13.8572 9.052 14.6774 9.18709C15.268 9.28392 16.1191 9.01913 16.3638 8.64375C16.2257 8.70353 16.1094 8.75792 15.9906 8.80454C14.8833 9.24268 13.7028 8.74477 13.4175 7.67723C13.3194 7.29418 13.3035 6.89514 13.3708 6.50568C13.4471 6.08966 13.6543 5.69755 13.8057 5.2887ZM16.3117 6.1566C16.328 5.46384 16.0482 5.08069 15.4394 4.99462C15.9307 5.26957 15.9307 5.72206 15.9725 6.1566H16.3117Z" fill="#20275F"/>
<path d="M29.7326 27.942V28.2815C29.7326 30.2449 29.7326 32.2085 29.7326 34.1722C29.7326 34.281 29.7326 34.3904 29.7326 34.4992C29.7562 35.0658 29.8246 35.1364 30.4267 35.1884C30.4316 35.2655 30.4358 35.3468 30.4419 35.443H27.8372C27.8332 35.3633 27.8289 35.2836 27.8245 35.2039C28.4859 35.0969 28.5332 35.0419 28.5338 34.3964C28.5338 32.8494 28.5283 31.3025 28.5368 29.7555C28.5368 29.2839 28.4435 28.89 27.9384 28.7047C27.7954 28.6521 27.7421 28.5057 27.8996 28.4513C28.4744 28.2522 29.062 28.0885 29.6453 27.9133C29.6611 27.9085 29.6811 27.9247 29.7326 27.942ZM28.1619 28.6515C28.6047 28.8046 28.6743 29.1596 28.6937 29.5422C28.6992 29.6509 28.6967 29.7603 28.6967 29.8691C28.6967 31.2869 28.7022 32.7048 28.6931 34.1226C28.6931 34.4663 28.6434 34.8094 28.6162 35.1549C28.8458 35.1453 28.9972 35.0066 29.0251 34.7401C29.0455 34.583 29.0578 34.425 29.062 34.2667C29.0652 33.1166 29.0652 31.9666 29.062 30.8165C29.062 30.3114 29.0681 29.8046 29.0323 29.3013C28.9929 28.7508 28.7416 28.5714 28.1619 28.6515Z" fill="#20275F"/>
<path d="M62.1983 19.3736C62.0639 19.2875 61.956 19.2403 61.8737 19.162C61.6041 18.8972 61.3739 18.5834 61.0729 18.364C60.8524 18.2032 60.5495 18.1201 60.2721 18.0789C60.0141 18.0406 59.8063 18.2092 59.7306 18.4632C59.6512 18.7262 59.7645 18.9307 60.0086 19.0556C60.2666 19.1883 60.5283 19.3132 60.79 19.4393C61.1534 19.6127 61.5169 19.7717 61.8737 19.957C62.8307 20.4585 62.8822 21.6037 61.9778 22.2002C61.4127 22.5732 60.7906 22.587 60.1503 22.4638C59.1042 22.263 59.1006 22.263 59.1091 21.2235C59.1091 21.0795 59.1254 20.8476 59.2078 20.8093C59.4229 20.7083 59.4537 20.9671 59.5646 21.0777C59.8935 21.4058 60.2 21.7651 60.5695 22.0406C60.8609 22.257 61.2322 22.269 61.555 22.0257C61.8779 21.7824 61.8779 21.373 61.5205 21.1697C61.1631 20.9665 60.7876 20.8027 60.4229 20.6163C60.1388 20.471 59.8414 20.3419 59.581 20.162C59.1654 19.8739 58.9546 19.462 59.0303 18.9528C59.1091 18.422 59.4459 18.0837 59.9432 17.9026C60.4314 17.7233 60.9305 17.7561 61.4291 17.8625C61.5078 17.8793 61.5847 17.9026 61.6617 17.9253C62.1844 18.0801 62.1856 18.0801 62.1977 18.6222C62.2026 18.8386 62.1983 19.0562 62.1983 19.3736ZM59.4386 18.4698C59.1896 18.7747 59.1478 19.0365 59.2018 19.321C59.2293 19.4732 59.2917 19.6172 59.3842 19.742C59.4767 19.8668 59.5968 19.9692 59.7354 20.0412C60.2345 20.3132 60.7452 20.5642 61.2552 20.8183C61.6508 21.0149 62.033 21.2152 61.9463 21.7794C62.2165 21.5403 62.2656 21.2229 62.0396 20.9731C61.8618 20.7882 61.6522 20.6358 61.4206 20.523C61.0123 20.3138 60.5792 20.1524 60.1679 19.9498C59.5894 19.6653 59.229 19.2469 59.4386 18.4698ZM60.8475 18.0299C61.1795 18.2845 61.5036 18.5344 61.8246 18.7812C61.8725 18.2714 61.9015 18.1554 60.8475 18.0311V18.0299ZM59.3156 21.3048C59.249 21.9289 59.3726 22.0538 60.0237 22.0765L59.3156 21.3048Z" fill="#20275F"/>
<path d="M33.7551 17.8559H35.6826C35.6166 17.9916 35.5942 18.144 35.51 18.1937C35.1047 18.4327 34.8806 18.7974 34.7013 19.202C34.2474 20.2269 33.7961 21.253 33.3474 22.2803C33.2802 22.4334 33.2227 22.5434 33.0106 22.5416C32.7986 22.5398 32.7647 22.416 32.7078 22.2803C32.2232 21.1506 31.7386 20.0203 31.2455 18.893C31.0934 18.5457 30.9426 18.1841 30.4756 18.1243V17.8547H33.0858V18.107C33.0355 18.113 32.9888 18.1201 32.941 18.1243C32.5091 18.1626 32.3528 18.3706 32.5079 18.7555C32.8247 19.5409 33.1615 20.318 33.4898 21.0986L33.6031 21.1112C33.8617 20.4214 34.1482 19.7406 34.3663 19.0382C34.4669 18.7113 34.3106 18.4023 33.9901 18.1984C33.8993 18.1405 33.8563 18.0084 33.7551 17.8559ZM31.071 18.1339L32.9307 22.3814C33.1609 22.1781 33.1463 21.9845 33.0518 21.7645C32.6823 20.9193 32.3249 20.0699 31.9554 19.2241C31.8409 18.9611 31.7234 18.6975 31.5829 18.4471C31.466 18.2409 31.2885 18.1022 31.071 18.1339ZM35.0193 18.1488H34.3057L34.5614 18.7412L35.0193 18.1488Z" fill="#20275F"/>
<path d="M20.529 34.1447C20.8064 33.4429 21.2286 32.7956 21.3394 32.0323C21.3867 31.7101 21.2546 31.4346 20.9584 31.2463C20.8663 31.1865 20.8191 31.0586 20.7095 30.902H22.6509C22.583 31.0389 22.5606 31.1859 22.4782 31.2337C22.0839 31.4645 21.8561 31.8153 21.6805 32.2128C21.2237 33.2489 20.7674 34.2836 20.3115 35.3168C20.2461 35.4669 20.1988 35.587 19.9802 35.5858C19.7615 35.5846 19.7221 35.4454 19.6603 35.3025C19.1757 34.1823 18.6972 33.0604 18.2066 31.9432C18.0642 31.6175 17.9328 31.2768 17.516 31.1752C17.4585 31.1614 17.4324 31.0191 17.3743 30.8996H20.0498C20.0534 30.9791 20.0571 31.0532 20.0613 31.1447L19.8499 31.1698C19.4822 31.2146 19.3266 31.4304 19.4604 31.7633C19.7797 32.5601 20.1177 33.3497 20.4484 34.1417L20.529 34.1447ZM19.896 35.4304C20.1104 35.2224 20.1128 35.0377 20.0171 34.8237C19.5931 33.8512 19.1788 32.8745 18.7535 31.902C18.6748 31.7227 18.5888 31.532 18.4579 31.3903C18.3483 31.2708 18.1678 31.2188 18.0115 31.1327C18.6512 32.5894 19.2654 33.9917 19.896 35.4304ZM21.9827 31.1907H21.2686C21.3552 31.3945 21.4345 31.5798 21.5224 31.7884L21.9827 31.1907Z" fill="#20275F"/>
<path d="M34.103 4.61269V5.39392C34.2586 5.24031 34.3453 5.14168 34.4452 5.06039C34.6142 4.92411 34.7772 4.76511 34.9704 4.67665C35.1116 4.60706 35.2741 4.59215 35.4259 4.63485C35.5777 4.67755 35.7078 4.77477 35.7906 4.90737C35.9481 5.15603 35.9002 5.55591 35.6894 5.76153C35.4786 5.96714 35.1679 5.9534 34.8535 5.77707C34.7124 5.69817 34.5179 5.61269 34.3798 5.64915C34.1423 5.71251 34.0975 5.93606 34.1024 6.17814C34.1157 6.91096 34.1024 7.64497 34.1102 8.37838C34.1151 8.847 34.2217 8.94383 34.7014 8.96415C34.9649 8.97491 34.9649 8.97491 34.9631 9.23014H32.1646V8.98388C32.2712 8.97371 32.37 8.96953 32.4675 8.95279C32.7382 8.90617 32.903 8.75973 32.9036 8.47461C32.9036 7.69159 32.9085 6.90916 32.9036 6.12614C32.9006 5.73881 32.6662 5.51466 32.3251 5.37061C32.2621 5.33228 32.2049 5.28517 32.1555 5.23074C32.2197 5.18173 32.2767 5.1112 32.3487 5.08729C32.8055 4.93905 33.2646 4.79759 33.7262 4.6629C33.8503 4.63653 33.9763 4.61975 34.103 4.61269ZM32.5638 5.32997C33.0974 5.58221 33.0678 6.02811 33.0653 6.46565C33.0611 7.05979 33.0714 7.65513 33.0605 8.24927C33.0563 8.47581 33.0084 8.70175 32.9805 8.93307C33.241 8.91932 33.4046 8.74717 33.41 8.46863C33.4227 7.61627 33.4149 6.76392 33.41 5.91156C33.4045 5.82238 33.384 5.73472 33.3494 5.65214C33.2422 5.35507 32.9811 5.23313 32.565 5.33116L32.5638 5.32997ZM35.6306 5.50928C35.4356 5.43397 35.2484 5.37898 35.0776 5.29231C34.8274 5.16619 34.7638 5.16798 34.5536 5.38376C35.3405 5.84879 35.4356 5.85776 35.6319 5.50869L35.6306 5.50928Z" fill="#20275F"/>
<path d="M50.415 8.9743V9.23431H47.6286V8.98207C47.7365 8.97131 47.8364 8.96892 47.9315 8.95039C48.1865 8.90257 48.3555 8.76688 48.3555 8.49193C48.3555 7.68918 48.3622 6.88643 48.3555 6.08368C48.3507 5.72086 48.1132 5.51763 47.8001 5.37477C47.7302 5.33124 47.6666 5.27856 47.6111 5.21817C47.6783 5.17155 47.7389 5.1052 47.8134 5.08129C48.2612 4.93664 48.7111 4.79836 49.163 4.66647C49.2904 4.63766 49.4194 4.6163 49.5494 4.60251V5.38493C49.7669 5.17812 49.905 5.00837 50.0794 4.89121C50.2548 4.76646 50.4538 4.67783 50.6645 4.6306C50.9498 4.5792 51.1746 4.72982 51.2824 4.99821C51.3382 5.12168 51.3554 5.25876 51.3319 5.39195C51.3084 5.52513 51.2452 5.64838 51.1503 5.74596C50.9529 5.96055 50.707 5.948 50.4574 5.84817C50.3841 5.81889 50.3235 5.75433 50.249 5.73281C50.1079 5.69157 49.9177 5.60072 49.825 5.6563C49.7548 5.70338 49.6955 5.76466 49.6511 5.83608C49.6067 5.9075 49.5783 5.98742 49.5676 6.07053C49.5421 6.82247 49.5518 7.57681 49.5573 8.32994C49.5609 8.85654 49.6572 8.9468 50.1915 8.96473C50.2557 8.96593 50.3157 8.97011 50.415 8.9743ZM48.0181 5.31978C48.4421 5.55887 48.5312 5.89181 48.5197 6.28272C48.5082 6.67364 48.5324 7.07651 48.513 7.4722C48.4888 7.96294 48.6245 8.46623 48.3773 8.95039C48.768 8.84997 48.868 8.73819 48.871 8.36342C48.8771 7.59055 48.874 6.81709 48.871 6.04423C48.8685 5.93553 48.8516 5.82761 48.8207 5.72325C48.7196 5.36999 48.4791 5.2361 48.0181 5.31978ZM49.9807 5.36999C50.8008 5.85236 50.9498 5.86252 51.071 5.50269C50.8965 5.43873 50.7076 5.39868 50.5555 5.30663C50.3429 5.17752 50.1685 5.17872 49.9807 5.3688V5.36999Z" fill="#20275F"/>
<path d="M26.7002 8.44054C26.7468 8.49434 26.7971 8.55232 26.8558 8.61986C26.4088 9.06338 25.9418 9.41544 25.273 9.36583C24.8369 9.33355 24.5322 9.10163 24.4377 8.68083C24.3918 8.46781 24.3685 8.25067 24.3681 8.03289C24.3602 7.15004 24.365 6.2672 24.3644 5.38435V5.03647L23.8356 5.01316C23.7302 4.83384 23.8187 4.73522 23.9525 4.61388C24.3856 4.21997 24.8006 3.80575 25.2294 3.40766C25.2985 3.3437 25.4069 3.32099 25.5511 3.25464V4.66767H26.8607C26.8704 4.78722 26.8776 4.88106 26.8886 5.01435H25.562V5.63838C25.562 6.46206 25.562 7.28513 25.562 8.1088C25.5599 8.23733 25.5712 8.36573 25.5959 8.49195C25.6716 8.82966 25.8836 8.93845 26.195 8.78304C26.3713 8.69517 26.5245 8.56188 26.7002 8.44054ZM25.6347 9.15303C24.8932 9.01257 24.8799 8.47043 24.8811 7.91514C24.8844 6.78622 24.8844 5.65711 24.8811 4.5278C24.8811 4.41902 24.8708 4.30963 24.8648 4.18471C24.5922 4.29588 24.5147 4.4501 24.5177 4.69218C24.5304 5.76152 24.5207 6.83145 24.5256 7.90139C24.5231 8.10887 24.5413 8.31609 24.5801 8.52004C24.6994 9.09266 24.9914 9.27318 25.6347 9.15303Z" fill="#20275F"/>
<path d="M44.0152 17.8344V18.1709H42.7176C42.7116 18.3006 42.7025 18.4047 42.7019 18.5087C42.7019 19.4214 42.6989 20.3341 42.7019 21.2468C42.7019 21.5098 42.6528 21.8224 42.9405 21.9641C43.2434 22.1153 43.4657 21.8762 43.6856 21.7065C43.7256 21.676 43.7632 21.6437 43.8334 21.5869L44.0351 21.7501C43.559 22.2086 43.1144 22.5624 42.4668 22.5313C41.9822 22.508 41.6703 22.2773 41.5709 21.8093C41.5302 21.6055 41.5099 21.3983 41.5104 21.1906C41.5037 20.3078 41.5104 19.425 41.5104 18.5421V18.1949H40.8652C40.9591 18.0155 40.9955 17.8834 41.0815 17.798C41.5055 17.3796 41.9368 16.9689 42.3742 16.5649C42.4426 16.5015 42.5559 16.4836 42.6976 16.422V17.8344H44.0152ZM42.0234 17.3341C41.7593 17.4537 41.6557 17.5905 41.66 17.8398C41.6739 18.9289 41.66 20.0185 41.6685 21.1082C41.667 21.3155 41.6873 21.5224 41.729 21.7256C41.846 22.2636 42.1864 22.4584 42.8133 22.3042C42.0755 22.1847 42.0198 21.6898 42.021 21.1542C42.021 20.0352 42.021 18.9157 42.021 17.7968L42.0234 17.3341Z" fill="#20275F"/>
<path d="M64.6751 31.2212C64.6751 32.3616 64.6642 33.4429 64.6866 34.523C64.6903 34.6933 64.8078 34.948 64.9398 35.006C65.0719 35.0639 65.3093 34.951 65.485 34.8792C65.6007 34.832 65.6909 34.7256 65.8036 34.6402L65.9665 34.8308C65.5195 35.2737 65.0525 35.6264 64.3832 35.5768C63.9477 35.5439 63.6424 35.312 63.5485 34.8912C63.5026 34.6782 63.4792 34.461 63.4788 34.2433C63.4716 33.3604 63.4788 32.4776 63.4788 31.5941V31.2457H62.9634C62.8422 31.0442 62.9337 30.9438 63.0669 30.8225C63.5 30.4286 63.9149 30.0144 64.3432 29.6157C64.4122 29.5517 64.5213 29.5302 64.6654 29.4644V30.8769H65.9744C65.9841 30.9964 65.9914 31.0903 66.0023 31.2242L64.6751 31.2212ZM64.7151 35.3706C64.3595 35.2552 64.0761 35.0717 64.0252 34.6754C64.0054 34.5184 63.9953 34.3603 63.9949 34.202C63.9925 33.0524 63.9925 31.9034 63.9949 30.7549V30.3885C63.6387 30.5768 63.6375 30.5768 63.6369 30.8769C63.6369 31.3124 63.6369 31.7482 63.6369 32.1841C63.6369 32.9468 63.6236 33.7101 63.6515 34.4716C63.6769 35.2008 63.9907 35.456 64.7151 35.3706Z" fill="#20275F"/>
<path d="M46.2596 17.7956V21.3712C46.2596 22.0144 46.2783 22.0371 46.9126 22.1542C46.9162 22.2254 46.9198 22.3013 46.9247 22.3933H44.4823C44.4775 22.3216 44.472 22.2481 44.4666 22.1775C45.0535 21.957 45.0614 21.9462 45.062 21.3156C45.062 20.6701 45.0554 20.0251 45.062 19.3802C45.0675 19 44.9524 18.7006 44.5865 18.5266C44.4436 18.4579 44.3872 18.3473 44.5714 18.2821C45.0602 18.1028 45.5569 17.9468 46.053 17.7866C46.1075 17.7723 46.1723 17.7914 46.2596 17.7956ZM45.1305 22.116C45.3728 22.0969 45.5545 21.9689 45.5545 21.6976C45.5624 20.7872 45.5696 19.8763 45.549 18.9659C45.5406 18.5965 45.2504 18.4077 44.8324 18.4674C45.2256 18.7466 45.2328 19.1387 45.2274 19.5434C45.2189 20.1668 45.2334 20.7908 45.2207 21.4137C45.2177 21.6408 45.1638 21.8697 45.1305 22.116Z" fill="#20275F"/>
<path d="M45.5993 16.6933C45.5014 16.6906 45.4051 16.6686 45.3159 16.6287C45.2268 16.5887 45.1466 16.5316 45.0801 16.4607C45.0136 16.3898 44.9621 16.3064 44.9286 16.2156C44.8951 16.1248 44.8804 16.0284 44.8852 15.9318C44.8855 15.8376 44.9047 15.7444 44.9418 15.6576C44.9789 15.5708 45.033 15.4922 45.1012 15.4262C45.1693 15.3602 45.25 15.3082 45.3386 15.2732C45.4273 15.2382 45.522 15.2209 45.6175 15.2223C45.7156 15.2223 45.8127 15.2416 45.9032 15.2792C45.9936 15.3167 46.0756 15.3717 46.1442 15.4409C46.2128 15.5101 46.2667 15.5922 46.3028 15.6822C46.3388 15.7723 46.3562 15.8685 46.3541 15.9653C46.3517 16.1606 46.2708 16.3469 46.1293 16.4834C45.9878 16.6199 45.7972 16.6954 45.5993 16.6933ZM45.646 16.514C45.2825 15.9976 45.2825 15.9366 45.6145 15.4184C45.2547 15.4369 45.0723 15.5899 45.0511 15.8888C45.0257 16.2451 45.1995 16.4375 45.646 16.5116V16.514Z" fill="#20275F"/>
<path d="M4.60669 22.0974C4.98164 21.8798 4.96468 21.5672 4.96529 21.2606C4.96953 19.5547 4.98467 17.8482 4.96892 16.1422C4.96892 15.8745 4.82718 15.6085 4.75631 15.3604C5.11491 15.3688 5.27785 15.5308 5.27967 15.9904C5.28451 17.3987 5.27967 18.8075 5.27967 20.2164C5.27967 20.6232 5.27967 21.0301 5.27967 21.4369C5.28088 21.9366 5.20032 22.0233 4.60669 22.0974Z" fill="#20275F"/>
<path d="M3.922 2.61447C1.19195 4.3694 1.45969 8.30843 4.56106 9.47341C3.16786 9.34968 1.85644 7.86612 1.7359 6.30246C1.59113 4.42798 2.70084 2.99821 3.922 2.61447Z" fill="#20275F"/>
<path d="M7.16455 2.72684L7.78422 2.64316V3.33951L7.16455 2.72684Z" fill="#20275F"/>
<path d="M4.4341 31.7764C4.4341 30.8649 4.41835 29.9533 4.44137 29.0424C4.45166 28.6276 4.63339 28.4447 5.05377 28.4076C6.9782 28.2313 8.3605 29.1518 8.65731 31.0777C8.76587 31.7356 8.73514 32.4087 8.56706 33.0543C8.24238 34.2683 7.15326 35.0968 5.80973 35.1464C5.50924 35.1541 5.20865 35.1357 4.91142 35.0914C4.63581 35.0543 4.44864 34.8888 4.43955 34.5971C4.41896 33.8941 4.40926 33.1912 4.39715 32.4889C4.39291 32.2498 4.39715 32.0107 4.39715 31.7752L4.4341 31.7764Z" fill="#20275F"/>
<path d="M3.07935 35.1207C3.12962 34.8649 3.23017 34.5828 3.2326 34.306C3.24794 32.5925 3.24794 30.8781 3.2326 29.1626C3.2326 28.9265 3.14053 28.6916 3.08904 28.4453C3.31074 28.4232 3.45248 28.5804 3.50215 28.8231C3.54718 29.0467 3.57111 29.2741 3.57363 29.5021C3.57968 31.098 3.57968 32.6938 3.57363 34.2893C3.57363 34.8876 3.44642 35.0598 3.07935 35.1207Z" fill="#20275F"/>
<path d="M7.17928 28.5194C7.87951 28.6551 8.38409 29.0478 8.72633 29.645C9.19336 30.4603 9.28967 31.3503 9.23394 32.2648C9.1982 32.8452 9.06615 33.4005 8.77055 33.9121C8.40711 34.5368 7.88133 34.9426 7.14233 35.0819C8.48828 34.3879 8.93774 33.2236 8.91048 31.8225C8.88383 30.4483 8.51614 29.2367 7.17928 28.5194Z" fill="#20275F"/>
</g>
<defs>
<clipPath id="clip0">
<rect width="66" height="38" fill="white"/>
</clipPath>
</defs>
</svg>
