<svg width="71" height="19" viewBox="0 0 71 19" fill="none" xmlns="http://www.w3.org/2000/svg">
<path d="M45.0073 0H42.1025C41.8193 0 41.5898 0.229505 41.5898 0.512613V2.60578C41.5898 2.88889 41.8193 3.11839 42.1025 3.11839H45.0073C45.2904 3.11839 45.5199 2.88889 45.5199 2.60578V0.512613C45.5199 0.229505 45.2904 0 45.0073 0Z" fill="#262C6B"/>
<path d="M52.9955 0H50.0907C49.8076 0 49.5781 0.229505 49.5781 0.512613V2.60578C49.5781 2.88889 49.8076 3.11839 50.0907 3.11839H52.9955C53.2787 3.11839 53.5082 2.88889 53.5082 2.60578V0.512613C53.5082 0.229505 53.2787 0 52.9955 0Z" fill="#262C6B"/>
<path d="M36.8085 0H33.9036C33.7677 0 33.6373 0.0540073 33.5412 0.150141C33.445 0.246274 33.391 0.376659 33.391 0.512613V8.62898H24.7193V0.512613C24.7193 0.376659 24.6653 0.246274 24.5692 0.150141C24.4731 0.0540073 24.3427 0 24.2067 0L21.3019 0C21.166 0 21.0356 0.0540073 20.9394 0.150141C20.8433 0.246274 20.7893 0.376659 20.7893 0.512613V17.9414C20.7893 18.0774 20.8433 18.2078 20.9394 18.3039C21.0356 18.4001 21.166 18.4541 21.3019 18.4541H24.2067C24.3427 18.4541 24.4731 18.4001 24.5692 18.3039C24.6653 18.2078 24.7193 18.0774 24.7193 17.9414V11.8755H33.391V17.9414C33.391 18.0774 33.445 18.2078 33.5412 18.3039C33.6373 18.4001 33.7677 18.4541 33.9036 18.4541H36.8085C36.9444 18.4541 37.0748 18.4001 37.1709 18.3039C37.2671 18.2078 37.3211 18.0774 37.3211 17.9414V0.512613C37.3211 0.376659 37.2671 0.246274 37.1709 0.150141C37.0748 0.0540073 36.9444 0 36.8085 0V0Z" fill="#262C6B"/>
<path d="M45.0112 4.1875H42.1064C41.8233 4.1875 41.5938 4.417 41.5938 4.70011V17.9426C41.5938 18.2257 41.8233 18.4552 42.1064 18.4552H45.0112C45.2943 18.4552 45.5238 18.2257 45.5238 17.9426V4.70011C45.5238 4.417 45.2943 4.1875 45.0112 4.1875Z" fill="#262C6B"/>
<path d="M52.9955 4.1875H50.0907C49.8076 4.1875 49.5781 4.417 49.5781 4.70011V17.9426C49.5781 18.2257 49.8076 18.4552 50.0907 18.4552H52.9955C53.2787 18.4552 53.5082 18.2257 53.5082 17.9426V4.70011C53.5082 4.417 53.2787 4.1875 52.9955 4.1875Z" fill="#262C6B"/>
<path d="M69.4893 15.1221H61.6292V0.512613C61.6292 0.376659 61.5752 0.246274 61.4791 0.150141C61.383 0.0540073 61.2526 0 61.1166 0L58.2118 0C58.0759 0 57.9455 0.0540073 57.8494 0.150141C57.7532 0.246274 57.6992 0.376659 57.6992 0.512613V17.9414C57.6992 18.0774 57.7532 18.2078 57.8494 18.3039C57.9455 18.4001 58.0759 18.4541 58.2118 18.4541H69.4893C69.6253 18.4541 69.7556 18.4001 69.8518 18.3039C69.9479 18.2078 70.0019 18.0774 70.0019 17.9414V15.6347C70.0019 15.4987 69.9479 15.3684 69.8518 15.2722C69.7556 15.1761 69.6253 15.1221 69.4893 15.1221Z" fill="#262C6B"/>
<path d="M10.4207 10.0755C10.4207 10.0755 12.5565 15.478 11.8303 17.3375C11.1131 19.1962 8.19165 16.7395 8.19165 16.7395C8.19165 16.7395 8.99517 15.0192 9.38433 13.9043C9.90292 12.4433 9.79912 12.4865 10.4215 10.0751" fill="#005BA6"/>
<path d="M10.1328 8.72656C10.1328 8.72656 15.8813 10.9479 16.8147 12.8497C17.7481 14.7515 13.739 15.2615 13.739 15.2615C13.739 15.2615 12.9701 13.3943 12.3819 12.2965C11.604 10.8355 11.5609 10.9569 10.1345 8.72656" fill="#1380C1"/>
<path d="M9.625 7.75772C9.625 7.75772 15.0271 5.63123 16.887 6.33992C18.7542 7.05758 16.289 9.97904 16.289 9.97904C16.289 9.97904 14.5606 9.17509 13.4564 8.78636C11.9869 8.27631 12.0386 8.38012 9.62714 7.75772" fill="#16A9E1"/>
<path d="M7.98047 8.13861C7.98047 8.13861 10.2018 2.39905 12.1036 1.45713C14.0054 0.523319 14.515 4.54263 14.515 4.54263C14.515 4.54263 12.6568 5.31155 11.5504 5.89977C10.0809 6.66869 10.2018 6.71141 7.98047 8.13861Z" fill="#F17733"/>
<path d="M7.10717 8.57809C7.10717 8.57809 4.97128 3.17557 5.69748 1.31607C6.41471 -0.551121 9.33661 1.91412 9.33661 1.91412C9.33661 1.91412 8.52497 3.63436 8.13496 4.7493C7.62491 6.21879 7.72871 6.1671 7.10631 8.57851" fill="#EB2E66"/>
<path d="M7.43074 10.1979C7.43074 10.1979 1.69119 7.97654 0.757803 6.07475C-0.175579 4.17295 3.8433 3.67188 3.8433 3.67188C3.8433 3.67188 4.61222 5.5301 5.1919 6.63649C5.96082 8.08889 6.00354 7.96757 7.43074 10.1979Z" fill="#E42F8F"/>
<path d="M7.95719 11.0695C7.95719 11.0695 2.55468 13.2054 0.69518 12.4792C-1.16347 11.762 1.29323 8.84009 1.29323 8.84009C1.29323 8.84009 3.01347 9.64404 4.1284 10.0332C5.59789 10.5518 5.54621 10.448 7.95762 11.0704" fill="#603B92"/>
<path d="M9.56505 10.7061C9.56505 10.7061 7.34373 16.4457 5.44193 17.3791C3.54014 18.3125 3.03906 14.3034 3.03906 14.3034C3.03906 14.3034 4.89728 13.5345 6.00367 12.9548C7.45608 12.1769 7.33476 12.1338 9.56505 10.7074" fill="#272C65"/>
</svg>
