<svg width="105" height="32" viewBox="0 0 105 32" fill="none" xmlns="http://www.w3.org/2000/svg">
<path fill-rule="evenodd" clip-rule="evenodd" d="M0 16C0 7.16 7.55279 0 16.869 0C26.1934 0 33.7441 7.16 33.7441 16C33.7441 24.84 26.1934 32 16.869 32C15.0294 32 13.2609 31.72 11.6046 31.208C12.8038 24.604 17.2004 19.218 23.0104 16.933C23.3669 17.3225 23.8046 17.6338 24.2945 17.8464C24.7843 18.059 25.3151 18.1679 25.8516 18.166C27.9218 18.166 29.5987 16.573 29.5987 14.606C29.5987 12.641 27.9218 11.048 25.8516 11.048C23.7804 11.048 22.1046 12.636 22.0994 14.599C14.6846 16.714 8.67691 21.623 5.62882 27.932C4.66205 27.1138 3.79635 26.1892 3.04912 25.177C3.22412 19.033 6.42868 13.664 11.2268 10.5C11.5826 10.8785 12.0159 11.1806 12.499 11.3867C12.9821 11.5929 13.5043 11.6985 14.0319 11.697C16.1041 11.697 17.7821 10.099 17.7821 8.137C17.7821 6.17 16.1041 4.578 14.0319 4.578C11.9576 4.578 10.2797 6.17 10.2797 8.138C10.2797 8.24 10.2869 8.345 10.2951 8.443C5.82647 9.93 2.15765 12.872 0.0113235 16.62C0.00102941 16.418 0 16.207 0 16Z" fill="#FCCF00"/>
<path fill-rule="evenodd" clip-rule="evenodd" d="M99.6251 20.4877V8.03969C99.6251 7.87569 99.5387 7.80469 99.3318 7.80469H95.8956C95.6948 7.80469 95.6084 7.87569 95.6084 8.03969V21.3817C95.6084 23.7817 96.7479 24.1947 99.3709 24.1947C99.4512 24.1947 99.517 24.1877 99.5768 24.1367C99.6365 24.0927 99.6251 23.9677 99.6251 23.9677V20.4877ZM45.7951 20.4857V8.04069C45.7951 7.87769 45.7025 7.80469 45.5007 7.80469H42.0687C41.8669 7.80469 41.7773 7.87769 41.7773 8.04069V21.3807C41.7773 23.7807 42.9169 24.1947 45.5337 24.1947C45.6212 24.1947 45.6809 24.1887 45.7447 24.1377C45.7993 24.0917 45.7951 23.9697 45.7951 23.9697V20.4857ZM54.3681 24.1947C54.1993 24.1947 54.1272 24.1247 54.1272 23.9597V15.2047C54.1272 15.1107 54.0788 15.0647 53.9841 15.0647H53.2635C53.0957 15.0647 53.0268 14.9967 53.0268 14.8307V12.8937C53.0268 12.7327 53.0957 12.6597 53.2635 12.6597H53.9841C54.0788 12.6597 54.1272 12.6137 54.1272 12.5217V11.7057C54.1272 8.97369 55.4243 7.80469 58.2037 7.80469H60.0144C60.1832 7.80469 60.2573 7.87569 60.2573 8.03969V10.1477C60.2573 10.3137 60.1832 10.3807 60.0144 10.3807H58.7812C57.7229 10.3807 57.4635 10.6377 57.4635 11.5967V12.5217C57.4635 12.6137 57.5109 12.6597 57.6045 12.6597H59.1353C59.3031 12.6597 59.3762 12.7327 59.3762 12.8937V14.8307C59.3762 14.9967 59.3031 15.0657 59.1353 15.0657H57.6045C57.5109 15.0657 57.4635 15.1107 57.4635 15.2047V23.9597C57.4635 24.1247 57.3884 24.1947 57.2226 24.1947H54.3681ZM47.6893 10.1457C47.4895 10.1457 47.401 10.0827 47.401 9.93369V8.01969C47.401 7.86969 47.4895 7.80469 47.6893 7.80469H51.1326C51.3313 7.80469 51.4188 7.86969 51.4188 8.01969V9.93369C51.4188 10.0837 51.3313 10.1457 51.1326 10.1457H47.6893ZM47.6893 24.1947C47.4895 24.1947 47.401 24.1237 47.401 23.9557V12.7237C47.401 12.5607 47.4895 12.4877 47.6893 12.4877H51.1326C51.3313 12.4877 51.4188 12.5607 51.4188 12.7237V23.9557C51.4188 24.1237 51.3313 24.1957 51.1326 24.1957H47.6893V24.1947ZM73.4369 21.0267C73.2001 20.3537 73.1116 19.4507 73.1116 18.3397C73.1116 17.2297 73.1991 16.3267 73.4369 15.6577C74.0998 13.5977 75.9209 12.4877 78.3822 12.4877C80.2701 12.4877 81.8554 13.3227 82.7057 14.5927C82.7757 14.7097 82.7757 14.8247 82.6594 14.9187L80.6006 16.2347C80.4596 16.3267 80.3401 16.3067 80.2485 16.1897C79.7719 15.5427 79.1594 15.2177 78.4265 15.2177C77.5031 15.2177 76.9142 15.6127 76.6528 16.4207C76.5107 16.8127 76.4418 17.4637 76.4418 18.3407C76.4418 19.2207 76.5107 19.8657 76.6528 20.2627C76.9142 21.0707 77.5031 21.4637 78.4265 21.4637C79.1594 21.4637 79.7719 21.1417 80.2485 20.4937C80.3412 20.3787 80.4596 20.3537 80.6006 20.4477L82.6594 21.7667C82.7757 21.8567 82.7757 21.9727 82.7057 22.0917C81.8554 23.3587 80.2701 24.1947 78.3822 24.1947C75.9209 24.1947 74.0998 23.0837 73.4369 21.0267ZM91.2406 17.1617C91.3435 17.1617 91.3888 17.1147 91.3919 17.0237C91.3919 16.7217 91.3445 16.4437 91.2653 16.1897C90.9647 15.3797 90.3419 14.9647 89.2785 14.9647C88.3356 14.9647 87.4719 15.3807 87.1682 16.1897C87.0931 16.4447 87.0447 16.7217 87.0447 17.0237C87.0447 17.1137 87.0931 17.1617 87.1919 17.1617H91.2406ZM83.9565 21.0047C83.6806 20.2147 83.557 19.3347 83.557 18.3397C83.557 17.3017 83.6518 16.3977 83.9318 15.6577C84.641 13.6447 86.5876 12.4877 89.191 12.4877C91.8448 12.4877 93.7688 13.6697 94.4801 15.6357C94.7529 16.4207 94.8054 17.5757 94.8054 19.0837C94.8054 19.2437 94.7045 19.3117 94.5234 19.3117H87.2588C87.1579 19.3117 87.1075 19.3617 87.1075 19.4507C87.1343 19.6827 87.1198 19.8907 87.1919 20.0747C87.5193 21.0707 88.3798 21.5557 89.7253 21.5577C90.7043 21.5597 91.4856 21.2747 91.9766 20.9627C92.4265 20.6757 92.4193 20.5757 92.6704 20.7627L94.5532 21.9977C94.7231 22.1107 94.7045 22.2057 94.5769 22.3197C93.2891 23.5707 91.569 24.1947 89.3681 24.1947C86.6123 24.1947 84.6657 23.0367 83.9565 21.0047ZM67.9409 17.1617C68.0438 17.1617 68.0932 17.1147 68.0932 17.0237C68.0932 16.7217 68.0438 16.4437 67.9656 16.1897C67.665 15.3797 67.0432 14.9647 65.9829 14.9647C65.0328 14.9647 64.1732 15.3807 63.8726 16.1897C63.7881 16.4601 63.7451 16.7411 63.745 17.0237C63.745 17.1137 63.7923 17.1617 63.8973 17.1617H67.9409ZM60.6568 21.0047C60.3809 20.2147 60.2573 19.3347 60.2573 18.3397C60.2573 17.3017 60.3531 16.3977 60.6331 15.6577C61.3413 13.6447 63.289 12.4877 65.8934 12.4877C68.5451 12.4877 70.4712 13.6697 71.1773 15.6357C71.4543 16.4207 71.5047 17.5757 71.5047 19.0837C71.5047 19.2437 71.4048 19.3117 71.2288 19.3117H63.9601C63.8593 19.3117 63.8119 19.3617 63.8119 19.4507C63.8315 19.6827 63.8222 19.8907 63.8973 20.0747C64.2237 21.0707 65.0812 21.5557 66.4256 21.5577C67.4097 21.5597 68.189 21.2747 68.682 20.9627C69.1288 20.6757 69.1237 20.5757 69.3718 20.7627L71.2556 21.9977C71.4223 22.1107 71.4069 22.2057 71.2823 22.3197C69.9894 23.5707 68.2734 24.1947 66.0735 24.1947C63.3137 24.1947 61.364 23.0367 60.6568 21.0047ZM104.446 20.4877V8.03969C104.446 7.87569 104.358 7.80469 104.154 7.80469H100.716C100.516 7.80469 100.428 7.87569 100.428 8.03969V21.3817C100.428 23.7817 101.568 24.1947 104.185 24.1947C104.267 24.1947 104.332 24.1877 104.395 24.1367C104.451 24.0927 104.445 23.9677 104.445 23.9677V20.4877H104.446Z" fill="#004D9E"/>
</svg>
