<svg width="147" height="32" viewBox="0 0 147 32" fill="none" xmlns="http://www.w3.org/2000/svg">
<path d="M51.5458 17.8705L50.6755 20.3228H50.6029C50.4579 19.7698 50.1919 18.9283 49.7568 17.9186L45.0908 6.25831H40.5215V24.8426H43.5435V13.3747C43.5435 12.6534 43.5435 11.836 43.5193 10.8263C43.4951 10.3214 43.4468 9.93671 43.4226 9.64821H43.4951C43.6402 10.3695 43.8094 10.8984 43.9303 11.235L49.5392 24.7945H51.6667L57.2272 11.1148C57.3481 10.8022 57.469 10.1771 57.5898 9.64821H57.6624C57.5898 11.0186 57.5415 12.2447 57.5173 12.99V24.7705H60.7327V6.21023H56.3327L51.5458 17.8705ZM63.7789 11.4513H66.9218V24.7705H63.7789V11.4513ZM65.3746 5.82556C64.8427 5.82556 64.4075 6.01789 64.0449 6.35448C63.6822 6.69106 63.4888 7.12382 63.4888 7.65274C63.4888 8.15761 63.6822 8.59037 64.0449 8.92695C64.4075 9.26354 64.8427 9.43183 65.3746 9.43183C65.9064 9.43183 66.3658 9.23949 66.7042 8.92695C67.0669 8.59037 67.2603 8.15761 67.2603 7.65274C67.2603 7.14786 67.0669 6.7151 66.7042 6.35448C66.39 6.01789 65.9306 5.82556 65.3746 5.82556ZM78.067 11.3311C77.4868 11.2109 76.8824 11.1388 76.3022 11.1388C74.8758 11.1388 73.5703 11.4513 72.4823 12.0764C71.3944 12.7015 70.5241 13.567 69.968 14.6489C69.3878 15.7548 69.0977 17.029 69.0977 18.4956C69.0977 19.7698 69.3878 20.8998 69.9438 21.9336C70.4999 22.9433 71.2735 23.7607 72.3131 24.3137C73.3043 24.8667 74.4648 25.1552 75.7703 25.1552C77.2692 25.1552 78.5506 24.8426 79.566 24.2656L79.5901 24.2416V21.3566L79.4693 21.4527C79.0099 21.7893 78.478 22.0778 77.9462 22.2461C77.3901 22.4384 76.8824 22.5346 76.4472 22.5346C75.1901 22.5346 74.1989 22.174 73.4977 21.3806C72.7725 20.6113 72.4098 19.5534 72.4098 18.2311C72.4098 16.8608 72.7725 15.7789 73.5219 14.9855C74.2714 14.1921 75.2626 13.7834 76.4714 13.7834C77.4868 13.7834 78.5264 14.12 79.4693 14.7932L79.5901 14.8893V11.836L79.566 11.812C79.155 11.6437 78.6956 11.4513 78.067 11.3311ZM88.4386 11.235C87.665 11.235 86.9397 11.4754 86.3111 11.9803C85.7792 12.413 85.4166 13.0381 85.1023 13.7834H85.0781V11.4513H81.9352V24.7705H85.0781V17.9667C85.0781 16.8127 85.3199 15.851 85.8518 15.1538C86.3836 14.4325 87.0606 14.0719 87.8825 14.0719C88.1727 14.0719 88.4628 14.144 88.8254 14.1921C89.1639 14.2883 89.4056 14.3844 89.5749 14.5047L89.6958 14.6008V11.4754L89.6232 11.4513C89.4057 11.3071 88.9705 11.235 88.4386 11.235ZM96.997 11.1628C94.7969 11.1628 93.0321 11.812 91.7991 13.0862C90.5419 14.3604 89.9375 16.1155 89.9375 18.3273C89.9375 20.3949 90.5661 22.0778 91.7749 23.304C92.9837 24.506 94.6277 25.1311 96.6827 25.1311C98.8343 25.1311 100.551 24.482 101.784 23.1837C103.041 21.8855 103.645 20.1545 103.645 18.0148C103.645 15.8991 103.065 14.2162 101.881 12.99C100.744 11.7639 99.0761 11.1628 96.997 11.1628ZM99.5113 21.4047C98.931 22.1499 98.0124 22.5106 96.8761 22.5106C95.7398 22.5106 94.8211 22.1499 94.1683 21.3566C93.5156 20.6113 93.2013 19.5294 93.2013 18.159C93.2013 16.7405 93.5398 15.6587 94.1683 14.8893C94.8211 14.12 95.7156 13.7353 96.8519 13.7353C97.964 13.7353 98.8343 14.0959 99.4629 14.8412C100.092 15.5865 100.43 16.6684 100.43 18.0869C100.382 19.5294 100.116 20.6594 99.5113 21.4047ZM110.656 16.981C109.665 16.5722 109.037 16.2597 108.747 15.9952C108.505 15.7548 108.384 15.4182 108.384 14.9855C108.384 14.6249 108.529 14.2642 108.892 14.0238C109.254 13.7834 109.665 13.6632 110.27 13.6632C110.802 13.6632 111.358 13.7594 111.889 13.9036C112.421 14.0479 112.905 14.2642 113.292 14.5527L113.413 14.6489V11.7158L113.34 11.6918C112.977 11.5475 112.494 11.4033 111.914 11.283C111.333 11.1869 110.802 11.1388 110.366 11.1388C108.867 11.1388 107.634 11.4994 106.667 12.2928C105.7 13.0381 105.241 14.0479 105.241 15.2259C105.241 15.851 105.338 16.404 105.555 16.8607C105.773 17.3175 106.087 17.7503 106.522 18.1109C106.958 18.4475 107.586 18.8322 108.456 19.1928C109.182 19.5053 109.738 19.7458 110.076 19.9381C110.415 20.1304 110.632 20.3468 110.802 20.5151C110.922 20.7074 110.995 20.9479 110.995 21.2604C110.995 22.1499 110.318 22.5827 108.94 22.5827C108.408 22.5827 107.852 22.4865 107.199 22.2702C106.547 22.0538 105.942 21.7412 105.434 21.3806L105.314 21.2844V24.3378L105.386 24.3618C105.845 24.5782 106.401 24.7224 107.078 24.8907C107.755 25.0109 108.36 25.1071 108.892 25.1071C110.511 25.1071 111.841 24.7465 112.784 23.9531C113.751 23.1837 114.259 22.198 114.259 20.9238C114.259 20.0343 114.017 19.2409 113.485 18.6398C112.784 18.0628 111.914 17.4618 110.656 16.981ZM122.551 11.1628C120.351 11.1628 118.586 11.812 117.353 13.0862C116.12 14.3604 115.492 16.1155 115.492 18.3273C115.492 20.3949 116.12 22.0778 117.329 23.304C118.538 24.506 120.182 25.1311 122.237 25.1311C124.389 25.1311 126.105 24.482 127.338 23.1837C128.595 21.8855 129.2 20.1545 129.2 18.0148C129.2 15.8991 128.619 14.2162 127.435 12.99C126.298 11.7639 124.63 11.1628 122.551 11.1628ZM125.041 21.4047C124.461 22.1499 123.542 22.5106 122.406 22.5106C121.246 22.5106 120.351 22.1499 119.698 21.3566C119.046 20.6113 118.731 19.5294 118.731 18.159C118.731 16.7405 119.07 15.6587 119.698 14.8893C120.351 14.12 121.246 13.7353 122.382 13.7353C123.47 13.7353 124.364 14.0959 124.993 14.8412C125.622 15.5865 125.96 16.6684 125.96 18.0869C125.96 19.5294 125.646 20.6594 125.041 21.4047ZM146.002 14.0238V11.4513H142.835V7.50848L142.738 7.53253L139.74 8.42207L139.668 8.44611V11.4513H134.929V9.76841C134.929 8.99908 135.123 8.39803 135.461 8.01336C135.8 7.62869 136.307 7.43636 136.936 7.43636C137.371 7.43636 137.83 7.53253 138.338 7.7489L138.459 7.82103V5.1043L138.387 5.08026C137.951 4.93601 137.371 4.83984 136.622 4.83984C135.679 4.83984 134.857 5.05622 134.107 5.41685C133.358 5.82556 132.802 6.37852 132.391 7.12382C131.98 7.84507 131.762 8.66249 131.762 9.60012V11.4513H129.562V13.9998H131.762V24.7705H134.929V14.0238H139.668V20.8757C139.668 23.6886 140.998 25.1071 143.657 25.1071C144.092 25.1071 144.551 25.035 144.987 24.9628C145.446 24.8667 145.784 24.7465 145.978 24.6503L146.002 24.6263V22.0538L145.881 22.1499C145.688 22.2702 145.518 22.3663 145.228 22.4384C144.987 22.5106 144.769 22.5346 144.6 22.5346C143.971 22.5346 143.536 22.3904 143.222 22.0297C142.932 21.6932 142.787 21.1402 142.787 20.3228V14.0238H146.002Z" fill="#737373"/>
<path d="M0.00195312 0H14.8219V14.7376H0.00195312V0Z" fill="#F25022"/>
<path d="M16.3691 0H31.1891V14.7376H16.3691V0Z" fill="#7FBA00"/>
<path d="M0.00195312 16.2734H14.8219V31.0111H0.00195312V16.2734Z" fill="#00A4EF"/>
<path d="M16.3691 16.2734H31.1891V31.0111H16.3691V16.2734Z" fill="#FFB900"/>
</svg>
