<svg width="202" height="28" viewBox="0 0 202 28" fill="none" xmlns="http://www.w3.org/2000/svg">
<g clip-path="url(#clip0)">
<path d="M21.7891 8.85607L21.7905 8.85397L21.7819 8.84837H21.7812C21.6333 8.76157 21.4089 8.71397 21.2581 8.77767C20.2965 8.68807 19.3781 8.69857 18.4041 8.70837H18.3753L18.3363 8.71047C17.8494 8.71537 17.3451 8.72027 16.8408 8.71397C12.7633 8.63207 12.7633 8.63207 12.7633 8.63207C11.8088 8.60617 10.7599 8.61457 9.73257 8.65237C8.97219 8.65797 8.23344 8.67687 7.48099 8.69787C6.6968 8.71817 4.82469 8.72377 3.70792 8.72727C3.11202 8.72937 2.80037 8.72937 2.75924 8.73217C2.62722 8.73917 2.46779 8.91697 2.46418 9.06117C2.46202 9.14167 2.51107 9.23407 2.65392 9.24737C2.75852 9.25787 3.4345 9.26067 4.66454 9.25787L5.91838 9.25227C6.2524 9.24947 6.40751 9.25647 6.48037 9.24947L6.48831 9.24737C7.41102 9.15917 8.33877 9.16407 9.23479 9.16897H9.24633H9.30332C9.88263 9.17317 10.4836 9.17457 11.0874 9.15147C11.2115 9.17877 11.3442 9.15287 11.4719 9.12977L11.4914 9.12557C11.5491 9.11577 11.6068 9.10317 11.6631 9.09967C11.8002 9.13817 11.9575 9.13607 12.1227 9.13327C12.2821 9.13047 12.4459 9.12627 12.5952 9.16057V9.16407H12.6205V9.15917C12.751 9.11647 12.8701 9.13957 12.9949 9.16407C12.9992 9.16407 13.0194 9.16687 13.0194 9.16687C13.0786 9.17877 13.1356 9.18787 13.1904 9.18927C14.3555 9.15847 15.6447 9.19977 17.2513 9.31877L18.0124 9.39857H18.0218C18.6963 9.33417 19.3954 9.38457 20.0721 9.43077C20.075 9.43287 20.0901 9.43287 20.0901 9.43287C20.5966 9.46927 21.077 9.50357 21.5539 9.49377L21.5553 9.49867L21.5842 9.48817V9.48117L21.836 9.28727H21.8374L21.8482 9.27467L21.8461 9.27257C21.9327 9.14587 21.9081 8.96037 21.7891 8.85607Z" fill="#E2B900"/>
<path d="M15.0419 17.2627L15.0614 17.2487L15.0607 17.1997L15.0441 15.6583V15.6555V15.6506C15.0138 15.4182 15.0087 15.1641 15.003 14.8932C14.9972 14.5873 14.9893 14.2702 14.9474 13.9944C14.9402 13.5926 14.8572 13.1649 14.7786 12.7512L14.7252 12.4705L14.7194 12.4425L14.7 12.4229C14.6379 12.3606 14.6156 12.2857 14.591 12.1933C14.5708 12.1177 14.5492 12.0414 14.5009 11.9672C14.3948 11.7782 14.2267 11.5948 14.0781 11.4345L14.0687 11.4254C14.0312 11.3778 13.9886 11.3512 13.9504 11.3267C13.9288 11.3127 13.9078 11.3008 13.8833 11.2805L13.8501 11.2525L13.8292 11.2574L13.8025 11.2371C13.6683 11.1314 13.5428 11.0915 13.3963 11.0446L13.3949 11.0432C13.3531 10.9865 13.2723 10.9774 13.2167 10.9753V10.9375L13.1417 10.9277L12.7896 10.8752L12.737 10.8689L12.7059 10.9081C12.6915 10.9256 12.6872 10.9291 12.6136 10.9032C12.5804 10.8927 12.5429 10.8787 12.5011 10.8738L12.4599 10.8724L12.4405 10.8899C12.4289 10.8836 12.4159 10.8745 12.4001 10.8654L12.2522 10.8241L12.2406 10.8899C12.1771 10.8899 12.1201 10.9004 12.0732 10.9263H11.9997H11.8402L11.6245 10.9284L11.6498 11.0075L11.6469 11.0117C11.5502 10.9872 11.4781 11.0446 11.4377 11.0768C11.4305 11.0845 11.4232 11.0894 11.4182 11.0922C11.341 11.1062 11.2977 11.1363 11.2652 11.1601C11.2414 11.1755 11.2357 11.1825 11.2147 11.1825L11.1787 11.186L11.1541 11.2133C11.1217 11.2518 11.0207 11.2966 10.9666 11.3197L10.8461 11.3708L10.8728 11.3953C10.8533 11.4023 10.8331 11.4163 10.8165 11.4317H10.7884H10.7011V11.5178V11.5199C10.6953 11.5178 10.6917 11.5178 10.6881 11.5178L10.6217 11.4919C10.6181 11.4884 10.5763 11.5444 10.5763 11.5444C10.5056 11.6389 10.4154 11.7327 10.318 11.8328C10.2076 11.9469 10.0915 12.068 10.0006 12.1975L9.97461 12.2374L9.9912 12.2759C9.97028 12.2878 9.91473 12.3207 9.90608 12.3865C9.86207 12.4306 9.85269 12.4915 9.84547 12.5328C9.84331 12.5468 9.84115 12.5643 9.83682 12.5734C9.78992 12.6273 9.78055 12.6826 9.77189 12.7239C9.7654 12.7561 9.76251 12.7757 9.74953 12.7932L9.69181 12.8625L9.71778 12.8814C9.70191 12.9227 9.70119 12.9661 9.70119 12.992C9.70119 13.0046 9.69902 13.0186 9.69902 13.0263L9.66223 13.0508L9.67089 13.1061C9.68676 13.2139 9.67233 13.314 9.65718 13.419C9.64275 13.5233 9.63049 13.6283 9.64059 13.7424C9.59658 13.8082 9.60668 13.8824 9.61534 13.9314C9.6175 13.9468 9.61967 13.9699 9.61967 13.9797L9.5634 14.0224L9.60307 14.0882C9.63265 14.1386 9.61029 14.2163 9.58648 14.2926C9.56412 14.3647 9.53815 14.455 9.56412 14.5313C9.55763 14.5376 9.55113 14.5453 9.54464 14.5537C9.53526 14.5656 9.52588 14.5887 9.52805 14.6181C9.52805 14.6762 9.52227 14.6951 9.52083 14.6993L9.47899 14.784L9.47177 14.8162L9.54752 14.8687C9.53959 14.9163 9.54536 14.9639 9.55257 15.0031C9.56123 15.0605 9.56412 15.0829 9.54536 15.106L9.49847 15.1907L9.54536 15.2446C9.54536 15.2481 9.54536 15.253 9.54536 15.2586C9.5432 15.2943 9.53815 15.3643 9.58865 15.4126C9.58937 15.4224 9.59081 15.4315 9.5937 15.4406L9.5064 15.4609L9.56484 15.5778C9.5634 15.5869 9.55907 15.5974 9.55762 15.6086C9.54825 15.6408 9.53237 15.7101 9.57061 15.7689C9.54247 15.8361 9.55907 15.904 9.57133 15.9474C9.57422 15.9593 9.57855 15.9768 9.58071 15.9873C9.49847 16.0699 9.5367 16.1805 9.55979 16.24C9.52227 16.2967 9.53237 16.3618 9.53887 16.4038L9.42993 16.4423L9.54247 16.5529C9.53742 16.5774 9.53743 16.6047 9.55402 16.6376C9.56773 16.6544 9.58432 16.6691 9.60091 16.6761L9.567 16.6859C9.567 16.6901 9.57061 16.6929 9.57278 16.6964H9.57061L9.61101 16.7965L9.60885 16.8077C9.59875 16.8658 9.61462 16.9232 9.64347 16.968C9.63337 16.9799 9.6276 16.996 9.624 17.0149L9.57999 17.0576L9.624 17.1185C9.65574 17.1626 9.64492 17.2242 9.61967 17.3194C9.59658 17.402 9.57205 17.5091 9.62039 17.6015L9.55907 17.6596L9.63698 17.7149C9.63482 17.7184 9.63265 17.7212 9.63121 17.7254C9.61245 17.7611 9.57494 17.8269 9.61967 17.8997L9.61606 17.8934C9.63265 17.9256 9.62544 17.983 9.61678 18.0418C9.60668 18.1279 9.5937 18.2336 9.64059 18.3379L9.6276 18.4436L9.62977 18.4296C9.61606 18.4695 9.6276 18.5059 9.63987 18.5318L9.60524 18.5451L9.62977 18.6193C9.65502 18.6942 9.65502 18.7873 9.65502 18.8839C9.65502 19.0708 9.65718 19.2822 9.8296 19.4411L9.8664 19.4747L9.91473 19.4607C10.0439 19.425 10.0496 19.3011 10.054 19.2332C10.0554 19.2178 10.0554 19.2052 10.0576 19.1947L10.0605 19.1744L10.0532 19.1569C10.002 18.9889 10.0244 18.7642 10.0431 18.5689C10.0482 18.515 10.0532 18.466 10.0569 18.4184L10.0597 18.3939L10.0482 18.3736C10.0128 18.3043 10.0215 18.2364 10.0316 18.1594C10.0403 18.088 10.0482 18.0089 10.0237 17.9256C10.0525 17.5637 10.0352 17.1388 10.0193 16.7615C10.0128 16.6019 10.0056 16.4507 10.0056 16.3121L10.0049 16.3079L10.0035 16.3044C9.98038 16.1245 9.98687 15.9348 9.99265 15.7514C9.99842 15.5848 10.0027 15.414 9.98687 15.2565C10.0287 15.0773 10.0251 14.9128 10.0215 14.7357C10.0208 14.658 10.0193 14.5768 10.0215 14.4921L10.0229 14.4711L10.0172 14.4599C10.0569 14.4123 10.0655 14.364 10.046 14.3171C10.0641 14.252 10.0677 14.189 10.0677 14.1323C10.0698 14.0875 10.0713 14.0448 10.0814 14.0042L10.0864 13.9839L10.0799 13.9629C10.0677 13.923 10.0778 13.8817 10.0893 13.8348C10.103 13.7781 10.1189 13.7116 10.0936 13.6444C10.1629 13.51 10.1788 13.3434 10.1918 13.1831L10.1983 13.1271C10.2026 13.0921 10.1896 13.0599 10.1615 13.0305C10.1615 13.0263 10.1615 13.0249 10.1615 13.0249C10.1615 12.9542 10.2004 12.8968 10.248 12.8226C10.2993 12.7442 10.3577 12.6546 10.3728 12.53L10.3757 12.5097L10.3743 12.5055C10.3793 12.5006 10.388 12.4936 10.3938 12.488C10.4255 12.4621 10.4753 12.4222 10.4738 12.3585C10.4738 12.3459 10.4724 12.3361 10.4681 12.3235C10.5294 12.2696 10.5669 12.2094 10.6001 12.1541C10.6506 12.0708 10.6881 12.0134 10.7855 11.9861L10.8338 11.9721L10.8454 11.9259C10.8598 11.872 10.9074 11.8426 10.9839 11.7957C11.0416 11.7607 11.1036 11.7208 11.1505 11.662C11.2133 11.669 11.253 11.6515 11.2761 11.6298C11.3525 11.6102 11.411 11.5675 11.46 11.5297C11.5416 11.4653 11.5682 11.4492 11.6224 11.4758L11.6786 11.5003L11.7147 11.4667C11.7161 11.4667 11.7197 11.4632 11.7212 11.4632C11.7464 11.4583 11.7912 11.4457 11.8171 11.4044C11.8402 11.4009 11.864 11.3939 11.8821 11.3876C11.9261 11.3715 11.9383 11.3694 11.9542 11.3785C11.9694 11.389 11.9997 11.3988 12.0379 11.3904L12.0401 11.3953L12.105 11.389L12.1908 11.3771C12.4441 11.3456 12.6641 11.319 12.8639 11.4219L12.9346 11.4583L12.9772 11.3953C12.9866 11.4058 12.9952 11.4163 13.0032 11.4247C13.0544 11.4807 13.1446 11.5752 13.2737 11.5549C13.3011 11.5787 13.3321 11.5983 13.3624 11.613C13.374 11.6179 13.3877 11.6284 13.3978 11.6354V11.6396L13.4165 11.6613C13.4569 11.7138 13.5414 11.7397 13.6099 11.7411C13.7599 11.8937 13.9122 12.1009 13.9122 12.1926V12.2787H13.9771C13.9771 12.2801 13.9785 12.2822 13.9785 12.2843C14.0038 12.397 14.037 12.5363 14.1272 12.628C14.1019 12.6847 14.1235 12.754 14.1344 12.7834C14.1358 12.7925 14.1394 12.8044 14.1416 12.8142L14.1199 12.8786L14.1784 12.9353L14.1906 12.9444C14.1863 13.0011 14.2152 13.0571 14.2346 13.0942C14.239 13.1047 14.2455 13.1173 14.2498 13.1278L14.2354 13.1586C14.1567 13.3063 14.2621 13.3882 14.314 13.4267C14.3212 13.4323 14.3277 13.4372 14.3306 13.4407C14.2916 13.4701 14.2924 13.5009 14.2851 13.5534L14.2924 13.6192L14.3198 13.6626C14.3198 13.6626 14.3198 13.6626 14.3212 13.6626C14.3212 13.6661 14.3227 13.6675 14.3248 13.6717C14.3299 13.6857 14.3349 13.7011 14.345 13.7214L14.3147 13.7494L14.2938 13.8278L14.3385 13.888L14.3717 13.9055C14.3717 13.9405 14.3869 13.9713 14.3948 13.9923C14.3977 13.9965 14.3999 14.0014 14.402 14.0042L14.3926 14.0427C14.3638 14.1827 14.3277 14.364 14.4164 14.5131C14.4136 14.5152 14.4107 14.5166 14.4092 14.518C14.3674 14.574 14.3775 14.6349 14.3861 14.6797C14.3861 14.693 14.3919 14.7182 14.3905 14.7266L14.3667 14.8141C14.3667 14.8176 14.3941 14.8246 14.4222 14.8295C14.4186 14.8386 14.415 14.847 14.4128 14.8568L14.3934 14.959H14.428C14.4237 14.9933 14.4222 15.0248 14.4215 15.0556C14.4201 15.1053 14.4164 15.1389 14.3999 15.1662L14.3926 15.1781L14.3883 15.1921C14.3623 15.2845 14.3999 15.372 14.4258 15.4413C14.4316 15.4546 14.4359 15.4672 14.4417 15.4812C14.4258 15.4966 14.4107 15.5211 14.4128 15.5533C14.4128 15.5624 14.4157 15.5666 14.4157 15.5736L14.3991 15.5932L14.4157 15.6415C14.4251 15.6709 14.4431 15.6884 14.4655 15.6982L14.4504 15.7045C14.4482 15.7045 14.4482 15.7696 14.4482 15.7696V15.7955L14.3919 15.8095L14.4186 15.8648C14.4056 15.8907 14.3919 15.9292 14.4063 15.9705L14.3667 16.0356C14.3688 16.0335 14.3739 16.0748 14.4078 16.0909C14.3732 16.2092 14.4597 16.2939 14.5138 16.345C14.5348 16.3653 14.5499 16.3821 14.5593 16.3954H14.5153L14.5477 16.5046L14.5499 16.5081C14.5427 16.5151 14.534 16.5214 14.5254 16.5326L14.4525 16.5669L14.4749 16.6635L14.4706 16.6845C14.4525 16.7342 14.4662 16.7692 14.4814 16.7881C14.4835 16.793 14.4871 16.7951 14.4915 16.7986C14.4641 16.8231 14.4352 16.8609 14.428 16.9176L14.4215 16.9988L14.4886 17.0079C14.4835 17.0254 14.4778 17.0422 14.4734 17.0576C14.4641 17.0884 14.4583 17.1143 14.4431 17.136H14.4446C14.4417 17.1395 14.4388 17.1423 14.4381 17.1465L14.5571 17.2095C14.5391 17.241 14.5304 17.2697 14.5225 17.2928C14.5182 17.3047 14.5131 17.3201 14.5088 17.3292C14.5066 17.3292 14.5052 17.3292 14.4994 17.3292H14.4006L14.4063 17.4419C14.4121 17.4573 14.4157 17.4776 14.4157 17.4986C14.4193 17.5189 14.4237 17.5434 14.4273 17.5679V17.6792C14.4273 17.6946 14.4273 17.7163 14.433 17.7422L14.4193 17.7478L14.4294 17.8101C14.4338 17.8409 14.433 17.8724 14.4294 17.9039C14.428 17.9193 14.4251 17.9417 14.4251 17.9613L14.3465 18.0019L14.4446 18.1055L14.4431 18.1118C14.4316 18.1363 14.4157 18.1713 14.4157 18.2105H14.3479L14.4662 18.3505C14.4778 18.3624 14.4864 18.3946 14.4922 18.4177C14.4936 18.4198 14.4944 18.4233 14.4944 18.4268C14.4439 18.4716 14.4381 18.5409 14.4345 18.578C14.4323 18.5934 14.4309 18.6165 14.4251 18.6256L14.4273 18.6221L14.4576 18.6599C14.4345 18.6781 14.4186 18.6956 14.4121 18.7117C14.4006 18.739 14.3984 18.7691 14.402 18.7929H14.2859L14.3818 18.8853L14.2916 18.9147L14.3659 18.9749V19.2031C14.3659 19.2451 14.3861 19.2794 14.4222 19.2976C14.4237 19.299 14.4265 19.3004 14.4265 19.3004C14.4734 19.3298 14.5275 19.3277 14.5679 19.32V19.4117L14.6812 19.3795C14.7656 19.3571 14.8277 19.3522 14.8933 19.3662L14.9885 19.383L15.0008 19.2913C15.0448 18.949 15.0369 18.6165 15.0275 18.2973C15.0181 17.9837 15.0109 17.6883 15.0513 17.3971C15.0845 17.3418 15.0571 17.2886 15.0419 17.2627Z" fill="#006935"/>
<path d="M8.27484 17.2627L8.29576 17.2487L8.29431 17.1997L8.27628 15.6583V15.6555V15.6506C8.24742 15.4182 8.24237 15.1641 8.2366 14.8932C8.22939 14.5873 8.22361 14.2702 8.17961 13.9944C8.17311 13.5926 8.09087 13.1649 8.01151 12.7512L7.95813 12.4705L7.95308 12.4425L7.93288 12.4229C7.86867 12.3606 7.84847 12.2857 7.82394 12.1933C7.80374 12.1177 7.7821 12.0414 7.73304 11.9672C7.62916 11.7782 7.45746 11.5948 7.31029 11.4345L7.30235 11.4254C7.26484 11.3778 7.22011 11.3512 7.18259 11.3267C7.16095 11.3127 7.14075 11.3008 7.11766 11.2805L7.08448 11.2525L7.06211 11.2574L7.0347 11.2371C6.90124 11.1314 6.77715 11.0915 6.6307 11.0446L6.62781 11.0432C6.58597 10.9865 6.50734 10.9774 6.45179 10.9753V10.9375L6.37459 10.9277L6.02254 10.8752L5.96987 10.8689L5.93957 10.9081C5.92586 10.9256 5.92298 10.9291 5.84795 10.9032C5.81332 10.8927 5.77725 10.8787 5.73541 10.8738L5.69429 10.8724L5.67409 10.8899C5.66326 10.8836 5.651 10.8745 5.63441 10.8654L5.48651 10.8241L5.47497 10.8899C5.41004 10.8899 5.35377 10.9004 5.30832 10.9263H5.23257H5.0753L4.85887 10.9284L4.88412 11.0075L4.87979 11.0117C4.78456 10.9872 4.71242 11.0446 4.67202 11.0768C4.66481 11.0845 4.65687 11.0894 4.6511 11.0922C4.57463 11.1062 4.53062 11.1363 4.50032 11.1601C4.47724 11.1755 4.46858 11.1825 4.44838 11.1825L4.41158 11.186L4.3885 11.2133C4.35459 11.2518 4.25431 11.2966 4.19949 11.3197L4.08117 11.3708L4.10642 11.3953C4.08694 11.4023 4.06891 11.4163 4.05087 11.4317H4.02418H3.93544V11.5178V11.5199C3.93039 11.5178 3.92606 11.5178 3.92173 11.5178L3.85753 11.4919C3.85248 11.4884 3.81063 11.5444 3.81063 11.5444C3.7421 11.6389 3.65048 11.7327 3.55381 11.8328C3.44126 11.9469 3.32583 12.068 3.23566 12.1975L3.20752 12.2374L3.22628 12.2759C3.20463 12.2878 3.15053 12.3207 3.14259 12.3865C3.09714 12.4306 3.08776 12.4915 3.08055 12.5328C3.07838 12.5468 3.0755 12.5643 3.07333 12.5734C3.025 12.6273 3.01418 12.6826 3.00696 12.7239C3.00191 12.7561 2.99831 12.7757 2.98388 12.7932L2.92905 12.8625L2.95358 12.8814C2.93698 12.9227 2.93482 12.9661 2.93482 12.992C2.93482 13.0046 2.93482 13.0186 2.9341 13.0263L2.89586 13.0508L2.90596 13.1061C2.92111 13.2139 2.90741 13.314 2.89081 13.419C2.87566 13.5233 2.86196 13.6283 2.87494 13.7424C2.83238 13.8082 2.84103 13.8824 2.84897 13.9314C2.85258 13.9468 2.85618 13.9699 2.85402 13.9797L2.79703 14.0224L2.83743 14.0882C2.86773 14.1386 2.8432 14.2163 2.82083 14.2926C2.79919 14.3647 2.7725 14.455 2.79991 14.5313C2.79342 14.5376 2.78548 14.5453 2.77899 14.5537C2.77106 14.5656 2.7624 14.5887 2.76384 14.6181C2.76384 14.6762 2.75807 14.6951 2.75446 14.6993L2.71334 14.784L2.70613 14.8162L2.7826 14.8687C2.77394 14.9163 2.78043 14.9639 2.78693 15.0031C2.79558 15.0605 2.79847 15.0829 2.78043 15.106L2.73354 15.1907L2.78043 15.2446C2.78043 15.2481 2.78043 15.253 2.77827 15.2586C2.77683 15.2943 2.77394 15.3643 2.82228 15.4126C2.82372 15.4224 2.82588 15.4315 2.82733 15.4406L2.74076 15.4609L2.79847 15.5778C2.79703 15.5869 2.79342 15.5974 2.79126 15.6086C2.78188 15.6408 2.76673 15.7101 2.8028 15.7689C2.77683 15.8361 2.79342 15.904 2.80352 15.9474C2.80713 15.9593 2.81146 15.9768 2.8129 15.9873C2.73354 16.0699 2.77178 16.1805 2.79342 16.24C2.75591 16.2967 2.76528 16.3618 2.77322 16.4038L2.66284 16.4423L2.77394 16.5529C2.76961 16.5774 2.76961 16.6047 2.78765 16.6376C2.80136 16.6544 2.81795 16.6691 2.83526 16.6761L2.80063 16.6859C2.80136 16.6901 2.8028 16.6929 2.8028 16.6964L2.84248 16.7965L2.84176 16.8077C2.83238 16.8658 2.84536 16.9232 2.87422 16.968C2.86412 16.9799 2.85763 16.996 2.85546 17.0149L2.8129 17.0576L2.85546 17.1185C2.88937 17.1626 2.87566 17.2242 2.85186 17.3194C2.83021 17.402 2.80136 17.5091 2.85402 17.6015L2.79126 17.6596L2.86845 17.7149C2.86701 17.7184 2.8634 17.7212 2.86123 17.7254C2.84248 17.7611 2.80785 17.8269 2.85113 17.8997L2.84825 17.8934C2.86268 17.9256 2.85763 17.983 2.84969 18.0418C2.83815 18.1279 2.82444 18.2336 2.87278 18.3379L2.85763 18.4436L2.86123 18.4296C2.84825 18.4695 2.85763 18.5059 2.87206 18.5318L2.83598 18.5451L2.86123 18.6193C2.88648 18.6942 2.88793 18.7873 2.88793 18.8839C2.88793 19.0708 2.88793 19.2822 3.06107 19.4411L3.09858 19.4747L3.14836 19.4607C3.27678 19.425 3.28255 19.3011 3.28688 19.2332C3.28688 19.2178 3.2876 19.2052 3.28904 19.1947L3.29121 19.1744L3.28688 19.1569C3.23421 18.9889 3.2573 18.7642 3.27678 18.5689C3.28111 18.515 3.28688 18.466 3.28976 18.4184L3.29193 18.3939L3.28183 18.3736C3.24576 18.3043 3.25441 18.2364 3.26523 18.1594C3.27461 18.088 3.28399 18.0089 3.25658 17.9256C3.28616 17.5637 3.26812 17.1388 3.25369 16.7615C3.24792 16.6019 3.23998 16.4507 3.23854 16.3121V16.3079L3.2371 16.3044C3.21618 16.1245 3.22123 15.9348 3.227 15.7514C3.23205 15.5848 3.2371 15.414 3.22123 15.2565C3.26235 15.0773 3.26018 14.9128 3.2573 14.7357C3.25586 14.658 3.25441 14.5768 3.2573 14.4921V14.4711L3.25297 14.4599C3.29121 14.4123 3.30131 14.364 3.28111 14.3171C3.29986 14.252 3.30203 14.189 3.30347 14.1323C3.30491 14.0875 3.30636 14.0448 3.31646 14.0042L3.32078 13.9839L3.31429 13.9629C3.30419 13.923 3.31429 13.8817 3.32583 13.8348C3.33954 13.7781 3.35325 13.7116 3.32944 13.6444C3.3987 13.51 3.41313 13.3434 3.42683 13.1831L3.43405 13.1271C3.43838 13.0921 3.42683 13.0599 3.39726 13.0305C3.39726 13.0263 3.39726 13.0249 3.39726 13.0249C3.39726 12.9542 3.43405 12.8968 3.48166 12.8226C3.53505 12.7442 3.59421 12.6546 3.60863 12.53L3.61152 12.5097L3.6108 12.5055C3.61585 12.5006 3.62451 12.4936 3.631 12.488C3.66346 12.4621 3.7118 12.4222 3.71036 12.3585C3.70891 12.3459 3.70891 12.3361 3.70459 12.3235C3.76591 12.2696 3.80342 12.2094 3.83805 12.1541C3.88783 12.0708 3.9239 12.0134 4.02129 11.9861L4.06963 11.9721L4.08333 11.9259C4.09704 11.872 4.14393 11.8426 4.21969 11.7957C4.27812 11.7607 4.34088 11.7208 4.38778 11.662C4.45126 11.669 4.4895 11.6515 4.51186 11.6298C4.58906 11.6102 4.64749 11.5675 4.69799 11.5297C4.77735 11.4653 4.80549 11.4492 4.85887 11.4758L4.91586 11.5003L4.95121 11.4667C4.95338 11.4667 4.95843 11.4632 4.95843 11.4632C4.98512 11.4583 5.02913 11.4457 5.0551 11.4044C5.07963 11.4009 5.10127 11.3939 5.12003 11.3876C5.16548 11.3715 5.17558 11.3694 5.19073 11.3785C5.20732 11.389 5.23762 11.3988 5.27369 11.3904L5.27586 11.3953L5.34151 11.389L5.42736 11.3771C5.68202 11.3456 5.90061 11.319 6.10045 11.4219L6.17259 11.4583L6.21444 11.3953C6.22237 11.4058 6.23103 11.4163 6.24041 11.4247C6.29163 11.4807 6.38036 11.5752 6.50878 11.5549C6.53836 11.5787 6.56866 11.5983 6.59824 11.613C6.60906 11.6179 6.62421 11.6284 6.63359 11.6354V11.6396L6.65234 11.6613C6.69202 11.7138 6.77715 11.7397 6.84496 11.7411C6.99358 11.8937 7.14652 12.1009 7.14652 12.1926V12.2787H7.21145C7.21145 12.2801 7.21145 12.2822 7.21145 12.2843C7.2367 12.397 7.27061 12.5363 7.36223 12.628C7.33481 12.6847 7.3579 12.754 7.368 12.7834C7.37161 12.7925 7.37521 12.8044 7.37666 12.8142L7.35501 12.8786L7.41345 12.9353L7.42716 12.9444C7.42283 13.0011 7.45024 13.0571 7.47044 13.0942C7.47477 13.1047 7.48054 13.1173 7.48415 13.1278L7.47044 13.1586C7.39253 13.3063 7.49786 13.3882 7.54908 13.4267C7.55846 13.4323 7.56206 13.4372 7.56928 13.4407C7.52816 13.4701 7.5296 13.5009 7.52311 13.5534L7.5296 13.6192L7.55629 13.6626C7.55774 13.6626 7.55774 13.6626 7.55774 13.6626C7.55918 13.6661 7.55918 13.6675 7.56134 13.6717C7.56567 13.6857 7.57144 13.7011 7.58226 13.7214L7.55196 13.7494L7.53104 13.8278L7.57505 13.888L7.60968 13.9055C7.60896 13.9405 7.62266 13.9713 7.63421 13.9923C7.63493 13.9965 7.63637 14.0014 7.63926 14.0042L7.6306 14.0427C7.6003 14.1827 7.56423 14.364 7.65369 14.5131C7.65152 14.5152 7.64936 14.5166 7.64647 14.518C7.60319 14.574 7.61617 14.6349 7.62122 14.6797C7.62411 14.693 7.62771 14.7182 7.62771 14.7266L7.60246 14.8141C7.60246 14.8176 7.63349 14.8246 7.65801 14.8295C7.65657 14.8386 7.65224 14.847 7.6508 14.8568L7.62988 14.959H7.66739C7.66162 14.9933 7.65801 15.0248 7.65801 15.0556C7.65801 15.1053 7.65657 15.1389 7.63709 15.1662L7.62916 15.1781L7.62411 15.1921C7.59886 15.2845 7.63421 15.372 7.66162 15.4413C7.66811 15.4546 7.67244 15.4672 7.67749 15.4812C7.66162 15.4966 7.64791 15.5211 7.64936 15.5533C7.64936 15.5624 7.65152 15.5666 7.65513 15.5736L7.63493 15.5932L7.65152 15.6415C7.6609 15.6709 7.67821 15.6884 7.70058 15.6982L7.68687 15.7045C7.68399 15.7045 7.68399 15.7696 7.68399 15.7696V15.7955L7.62627 15.8095L7.65513 15.8648C7.64142 15.8907 7.62627 15.9292 7.64142 15.9705L7.60391 16.0356C7.60463 16.0335 7.60968 16.0748 7.64359 16.0909C7.60896 16.2092 7.69553 16.2939 7.74819 16.345C7.77128 16.3653 7.78643 16.3821 7.79436 16.3954H7.75036L7.78282 16.5046L7.78499 16.5081C7.77633 16.5151 7.76839 16.5214 7.75974 16.5326L7.68759 16.5669L7.71068 16.6635L7.70419 16.6845C7.68759 16.7342 7.7013 16.7692 7.71429 16.7881C7.71934 16.793 7.72222 16.7951 7.72583 16.7986C7.69914 16.8231 7.67028 16.8609 7.66451 16.9176L7.65513 16.9988L7.72439 17.0079C7.71861 17.0254 7.71284 17.0422 7.70924 17.0576C7.69986 17.0884 7.69264 17.1143 7.67677 17.136H7.67821C7.67605 17.1395 7.67316 17.1423 7.67172 17.1465L7.79004 17.2095C7.772 17.241 7.76406 17.2697 7.75757 17.2928C7.75396 17.3047 7.74819 17.3201 7.74242 17.3292C7.74242 17.3292 7.74098 17.3292 7.73521 17.3292H7.63565L7.64142 17.4419C7.64719 17.4573 7.65008 17.4776 7.65152 17.4986C7.65441 17.5189 7.65657 17.5434 7.66306 17.5679V17.6792C7.66306 17.6946 7.66379 17.7163 7.66811 17.7422L7.65441 17.7478L7.66379 17.8101C7.66811 17.8409 7.66595 17.8724 7.66379 17.9039C7.66306 17.9193 7.6609 17.9417 7.6609 17.9613L7.58082 18.0019L7.67894 18.1055C7.67821 18.109 7.67677 18.1104 7.67677 18.1104C7.66595 18.1363 7.65152 18.1713 7.65152 18.2105H7.58299L7.70202 18.3505C7.7114 18.3624 7.72078 18.3946 7.72727 18.4177C7.72871 18.4198 7.72871 18.4233 7.72871 18.4268C7.68254 18.4716 7.67316 18.5409 7.67028 18.578C7.66667 18.5934 7.66523 18.6165 7.66162 18.6256C7.66162 18.6256 7.66162 18.6221 7.66379 18.6221L7.69336 18.6599C7.671 18.6781 7.65585 18.6956 7.64791 18.7117C7.63565 18.739 7.63421 18.7691 7.63781 18.7929H7.52166L7.61761 18.8853L7.52744 18.9147L7.60174 18.9749V19.2031C7.60174 19.2451 7.62122 19.2794 7.65801 19.2976C7.65874 19.299 7.6609 19.3004 7.6609 19.3004C7.70924 19.3298 7.7619 19.3277 7.80374 19.32V19.411L7.91629 19.3788C7.99997 19.3564 8.06418 19.3515 8.12983 19.3655L8.22361 19.3823L8.2366 19.2906C8.28205 18.9483 8.27195 18.6158 8.26257 18.2966C8.25464 17.983 8.24598 17.6876 8.28999 17.3964C8.31812 17.3418 8.29143 17.2886 8.27484 17.2627Z" fill="#004587"/>
<path d="M21.6928 17.3775L21.713 17.3642V17.3173L21.6942 15.7759V15.7703V15.7668C21.6661 15.5358 21.6589 15.2789 21.6531 15.008C21.6474 14.7014 21.6409 14.3878 21.5969 14.1085C21.5896 13.7088 21.5081 13.2804 21.4273 12.866L21.3739 12.5846L21.3696 12.5573L21.3508 12.5384C21.2859 12.4775 21.265 12.4005 21.2397 12.3081C21.221 12.2339 21.1986 12.1562 21.151 12.0834C21.0428 11.8937 20.874 11.711 20.7254 11.5486L20.7182 11.5409C20.6814 11.4919 20.6366 11.466 20.5984 11.4422C20.5782 11.4289 20.5573 11.4163 20.5335 11.3953L20.5003 11.3673L20.4786 11.3729L20.4527 11.3519C20.3185 11.2462 20.193 11.207 20.0472 11.1594H20.0436C20.0003 11.1013 19.9231 11.0929 19.8654 11.0901V11.0523L19.7911 11.0418L19.4383 10.9893L19.3871 10.983L19.3547 11.0243C19.3417 11.0397 19.3388 11.0425 19.263 11.0173C19.2313 11.0075 19.1916 10.9935 19.1512 10.9893L19.1115 10.9844L19.0892 11.0047C19.0791 10.9977 19.0654 10.9893 19.0495 10.9809L18.903 10.9375L18.8915 11.0033C18.8258 11.0033 18.7689 11.0166 18.7227 11.0397H18.6505H18.4911L18.2747 11.0418L18.3006 11.1216C18.2992 11.1237 18.2978 11.1251 18.2963 11.1272C18.1996 11.1027 18.1275 11.1594 18.0864 11.193C18.0806 11.1979 18.0727 11.2049 18.0669 11.2084C17.9904 11.221 17.9471 11.2518 17.9168 11.2763C17.8938 11.2917 17.8865 11.2966 17.8649 11.298L17.8303 11.3022L17.805 11.3274C17.7726 11.3673 17.6723 11.4093 17.6167 11.4331L17.4977 11.4856L17.5244 11.5094C17.5042 11.5185 17.484 11.5304 17.4674 11.5479H17.4407H17.3534V11.6326V11.6361C17.3476 11.6361 17.3433 11.634 17.3397 11.6326L17.2748 11.606C17.2697 11.6025 17.2286 11.6599 17.2286 11.6599C17.1579 11.7537 17.0684 11.8482 16.9711 11.9448C16.86 12.0631 16.7445 12.1821 16.6529 12.3137L16.6262 12.3515L16.6435 12.3921C16.6219 12.404 16.5678 12.4369 16.5577 12.4992C16.5137 12.5468 16.505 12.6077 16.4964 12.6497C16.4956 12.6609 16.492 12.6791 16.4891 12.6854C16.4422 12.7428 16.4321 12.7981 16.4242 12.8394C16.4192 12.873 16.4148 12.8898 16.3997 12.9073L16.3456 12.9759L16.3694 12.9948C16.3528 13.0347 16.3528 13.0795 16.3528 13.1054C16.3528 13.118 16.3513 13.132 16.3499 13.1418L16.3146 13.1642L16.321 13.2195C16.3369 13.3266 16.3225 13.4274 16.3073 13.5345C16.2936 13.636 16.2814 13.7396 16.2922 13.8579C16.2496 13.9202 16.2597 13.9965 16.2662 14.0441C16.2684 14.0595 16.2734 14.084 16.2713 14.0931L16.2143 14.1358L16.2547 14.2009C16.285 14.2513 16.2619 14.329 16.2381 14.4067C16.2172 14.4774 16.1912 14.5698 16.2172 14.6454C16.2099 14.651 16.2035 14.6573 16.1984 14.6664C16.1883 14.6776 16.1796 14.7021 16.1811 14.7301C16.1811 14.7882 16.1753 14.8085 16.1739 14.8127L16.1335 14.8946L16.1255 14.9282L16.2013 14.9807C16.1934 15.0311 16.1998 15.0773 16.2063 15.1158C16.215 15.1725 16.2179 15.1949 16.2013 15.2194L16.153 15.3013L16.1998 15.3566C16.1998 15.3601 16.1998 15.3643 16.1998 15.3706C16.197 15.4091 16.1934 15.4763 16.2417 15.5246C16.2439 15.5351 16.2453 15.5435 16.2475 15.5519L16.1609 15.5736L16.2179 15.6905C16.2164 15.6989 16.2128 15.7094 16.2107 15.7199C16.2035 15.7521 16.1861 15.8214 16.2222 15.8816C16.1955 15.9495 16.2114 16.0153 16.2237 16.0587C16.228 16.0727 16.2309 16.0881 16.233 16.1007C16.1508 16.1833 16.1912 16.2946 16.2128 16.3513C16.176 16.408 16.184 16.4759 16.1926 16.5158L16.0808 16.5515L16.1941 16.6642C16.189 16.6887 16.189 16.7181 16.2078 16.7468C16.22 16.7657 16.2366 16.779 16.254 16.7867L16.2208 16.7972C16.2215 16.8007 16.2237 16.8042 16.2244 16.8091H16.2237L16.2648 16.9092L16.2633 16.919C16.254 16.9785 16.2684 17.0338 16.2965 17.0786C16.2871 17.0905 16.2806 17.1059 16.2792 17.1269L16.2352 17.1682L16.2785 17.2284C16.3102 17.2753 16.298 17.3341 16.2742 17.4307C16.2525 17.514 16.2265 17.619 16.2763 17.7114L16.2143 17.7695L16.2929 17.8248C16.2893 17.8297 16.2879 17.8339 16.2864 17.8353C16.2662 17.871 16.2294 17.9403 16.2749 18.0096L16.272 18.0033C16.2886 18.0362 16.2806 18.0929 16.272 18.1538C16.2619 18.2399 16.2503 18.3449 16.2972 18.4471L16.2821 18.5535L16.2857 18.5409C16.272 18.5822 16.2835 18.6151 16.2965 18.641L16.2612 18.6571L16.2864 18.7306C16.3109 18.8048 16.3109 18.8986 16.3109 18.9966C16.3109 19.1814 16.3109 19.3928 16.4848 19.5517L16.5216 19.5867L16.5721 19.5741C16.6998 19.5356 16.7063 19.411 16.7113 19.3438C16.7121 19.3298 16.7121 19.3158 16.7135 19.306L16.7149 19.2878L16.7106 19.2689C16.6572 19.0995 16.6789 18.8769 16.6991 18.6795C16.7041 18.6277 16.7092 18.578 16.7135 18.529L16.7149 18.5059L16.7034 18.4849C16.6688 18.4156 16.6774 18.3477 16.6875 18.2707C16.6969 18.2 16.7041 18.1202 16.6796 18.0369C16.7099 17.675 16.6911 17.2501 16.676 16.8728C16.6695 16.7139 16.6644 16.5634 16.6608 16.4255V16.4206L16.6601 16.4143C16.637 16.2386 16.6442 16.0482 16.6486 15.8613C16.6543 15.6975 16.658 15.5267 16.6435 15.3692C16.6832 15.1893 16.681 15.0248 16.6767 14.8519C16.6767 14.7721 16.6753 14.6902 16.6767 14.6048L16.6789 14.5845L16.6717 14.5726C16.7128 14.5257 16.72 14.4788 16.7012 14.4305C16.7207 14.3626 16.7236 14.3024 16.7258 14.2457C16.7272 14.2002 16.7294 14.1568 16.7373 14.1169L16.7424 14.0966L16.7373 14.0756C16.7265 14.0385 16.7359 13.9937 16.7474 13.9475C16.7611 13.8901 16.7741 13.8229 16.7503 13.7578C16.8196 13.6227 16.834 13.4568 16.8477 13.2958L16.8542 13.2419C16.8585 13.2069 16.8455 13.1726 16.8174 13.1432V13.1383C16.8174 13.0662 16.8549 13.0095 16.9032 12.9367C16.9559 12.8576 17.0143 12.7673 17.0309 12.6441L17.0317 12.6238L17.0309 12.621C17.036 12.614 17.0454 12.6084 17.0511 12.6028C17.0829 12.5748 17.1312 12.5356 17.1305 12.4712C17.1305 12.4593 17.129 12.4488 17.1247 12.4369C17.1846 12.3837 17.2236 12.3221 17.2567 12.2668C17.308 12.1856 17.344 12.1261 17.4414 12.0995L17.4898 12.0855L17.5013 12.0386C17.5157 11.9847 17.5633 11.9553 17.6405 11.9105C17.6975 11.8741 17.7596 11.8363 17.8065 11.7782C17.8707 11.7831 17.9089 11.7663 17.9306 11.7432C18.0092 11.7243 18.0669 11.6809 18.116 11.6431C18.1982 11.5773 18.2249 11.5647 18.2797 11.5892L18.3353 11.6151L18.3699 11.5787C18.3735 11.5787 18.3757 11.5766 18.3793 11.5766C18.4038 11.5717 18.4471 11.5591 18.4752 11.5199C18.4983 11.5143 18.5207 11.5073 18.5387 11.501C18.5842 11.4856 18.5943 11.4835 18.6109 11.494C18.6275 11.5031 18.6556 11.5136 18.6917 11.5045L18.696 11.5122L18.7609 11.5031L18.8468 11.4912C19.1014 11.4597 19.3215 11.4324 19.5191 11.536L19.5898 11.5745L19.6331 11.5143C19.6439 11.5227 19.6526 11.5332 19.6598 11.5402C19.711 11.5948 19.7998 11.69 19.9304 11.6697C19.957 11.6942 19.9902 11.7131 20.0184 11.7285C20.0285 11.7348 20.0458 11.7439 20.0552 11.7509V11.7544L20.0718 11.7761C20.1122 11.8286 20.1994 11.8545 20.2658 11.8566C20.4144 12.0092 20.5674 12.2164 20.5674 12.3074V12.3935H20.633L20.6345 12.3998C20.6597 12.5125 20.6915 12.6518 20.7824 12.7435C20.7571 12.8002 20.778 12.8695 20.7889 12.901C20.7917 12.9087 20.7953 12.9199 20.799 12.9304L20.7773 12.9941L20.8343 13.0515L20.8495 13.0585C20.8437 13.1173 20.8711 13.1726 20.8913 13.2125C20.8949 13.2209 20.9014 13.2328 20.9064 13.244L20.8935 13.2748C20.8134 13.4239 20.9187 13.5051 20.9692 13.5429C20.9779 13.5492 20.9844 13.5534 20.9901 13.5597C20.9505 13.5891 20.9505 13.6199 20.944 13.6717L20.9512 13.7354L20.9779 13.7788H20.98C20.9815 13.7823 20.9836 13.7851 20.9836 13.7879C20.988 13.8005 20.993 13.8194 21.0046 13.8376L20.9728 13.8649L20.9519 13.9433L20.9959 14.0035L21.032 14.021C21.0305 14.056 21.0435 14.0868 21.0529 14.1085C21.0543 14.112 21.0579 14.1162 21.0601 14.1211L21.0515 14.1596C21.0212 14.2996 20.9851 14.4816 21.076 14.6293C21.0731 14.6314 21.0702 14.6328 21.0702 14.6328C21.0262 14.6895 21.0385 14.7525 21.0442 14.7973C21.0457 14.8106 21.0522 14.8344 21.0486 14.8435L21.0262 14.931C21.0262 14.9352 21.0551 14.9415 21.0818 14.9471C21.0774 14.9555 21.0738 14.966 21.0731 14.9744L21.0529 15.0773H21.089C21.0818 15.1109 21.0818 15.1445 21.0796 15.1718C21.0781 15.2236 21.0774 15.2586 21.0594 15.2859L21.0507 15.2957L21.0464 15.3097C21.0197 15.4021 21.0558 15.4896 21.0839 15.5603C21.089 15.5743 21.094 15.5862 21.0991 15.5988C21.0839 15.6142 21.0688 15.6387 21.0717 15.6709C21.0717 15.68 21.0745 15.6849 21.076 15.6919L21.0587 15.7108L21.0731 15.7612C21.0832 15.7906 21.1005 15.8081 21.1236 15.8186L21.1084 15.8221C21.1041 15.8221 21.1041 15.8879 21.1041 15.8879V15.911L21.0493 15.9292L21.0767 15.9845C21.063 16.0083 21.0486 16.0468 21.063 16.0902L21.024 16.156C21.024 16.156 21.0327 16.1938 21.0666 16.2113C21.0313 16.3275 21.1178 16.4115 21.1705 16.464C21.1914 16.4864 21.2066 16.4997 21.2167 16.5137H21.1719L21.2037 16.6243L21.2058 16.6264C21.1986 16.6355 21.19 16.6418 21.1813 16.6509L21.1092 16.6859L21.1323 16.7804L21.1236 16.8049C21.1084 16.8525 21.1222 16.8875 21.1373 16.9085C21.1402 16.9127 21.1431 16.9148 21.1474 16.9176C21.1207 16.9435 21.0904 16.982 21.0861 17.0373L21.0767 17.1178L21.1445 17.1269C21.1387 17.1458 21.133 17.1605 21.1286 17.1773C21.12 17.2102 21.1149 17.2361 21.0991 17.255H21.0998C21.0976 17.2599 21.0947 17.262 21.0947 17.2655L21.2102 17.3285C21.195 17.36 21.1842 17.3915 21.1784 17.4132C21.1741 17.4258 21.169 17.4391 21.1647 17.4482C21.1647 17.4482 21.1604 17.4482 21.1561 17.4482H21.0572L21.0623 17.5609C21.0688 17.5784 21.0702 17.5952 21.0724 17.619C21.0745 17.64 21.0774 17.6624 21.0832 17.6883V17.7982C21.0832 17.8122 21.0846 17.8367 21.0882 17.8605L21.0753 17.8675L21.0854 17.9277C21.0897 17.9585 21.0868 17.9907 21.0854 18.0215C21.0839 18.039 21.0832 18.0572 21.0839 18.0796L21.0024 18.1202L21.0998 18.2238C21.0998 18.2259 21.0991 18.228 21.0983 18.2301C21.0868 18.256 21.0738 18.2903 21.0738 18.3288H21.0031L21.1214 18.4709C21.1323 18.4814 21.1416 18.5143 21.1474 18.5367C21.1496 18.5395 21.1496 18.5409 21.1517 18.5444C21.102 18.5892 21.094 18.6585 21.0897 18.6949C21.089 18.7103 21.0861 18.7348 21.0825 18.7411L21.0832 18.7397L21.1135 18.7782C21.0904 18.7957 21.0753 18.8139 21.0688 18.8321C21.0558 18.8601 21.0558 18.8881 21.0579 18.9112H20.9418L21.037 19.005L20.9483 19.033L21.0219 19.0932V19.3242C21.0219 19.3641 21.0428 19.3998 21.0774 19.4152C21.0774 19.4152 21.0832 19.4166 21.0846 19.4187C21.1301 19.4488 21.1813 19.4488 21.2246 19.4376V19.5328L21.3386 19.4992C21.4223 19.4754 21.4843 19.4712 21.5492 19.4838L21.6452 19.5034L21.656 19.4117C21.7015 19.0694 21.6928 18.7355 21.6849 18.4156C21.6762 18.1027 21.6683 17.8066 21.7087 17.5147C21.7361 17.4573 21.7087 17.4055 21.6928 17.3775Z" fill="#ED6B06"/>
<path d="M23.0756 24.5733H1.28341V3.42843H23.0756V24.5733ZM-0.000732422 2.17963V25.82H24.3648V2.17963H-0.000732422Z" fill="#ED6B06"/>
<path d="M188.84 12.2738C188.84 8.9397 188.84 8.3258 188.885 7.623C188.929 6.8558 189.11 6.4834 189.722 6.3728C189.994 6.3294 190.128 6.3077 190.354 6.3077C190.535 6.3077 190.67 6.2636 190.67 6.1096C190.67 5.9556 190.512 5.9108 190.198 5.9108C189.428 5.9108 188.003 5.9766 187.461 5.9766C186.919 5.9766 185.496 5.9108 184.296 5.9108C183.958 5.9108 183.8 5.9556 183.8 6.1096C183.8 6.2636 183.935 6.3077 184.184 6.3077C184.499 6.3077 184.884 6.3301 185.065 6.3728C185.81 6.5268 185.992 6.8775 186.036 7.623C186.081 8.3258 186.081 8.939 186.081 12.2738V16.1343C186.081 18.1524 186.081 19.887 185.968 20.8068C185.878 21.4431 185.764 21.9261 185.314 22.0136C185.109 22.0563 184.838 22.0997 184.498 22.0997C184.227 22.0997 184.138 22.1655 184.138 22.2761C184.138 22.4301 184.296 22.4966 184.589 22.4966C185.495 22.4966 186.919 22.4308 187.438 22.4308C188.003 22.4308 189.427 22.4966 190.693 22.4966C190.942 22.4966 191.123 22.4308 191.123 22.2761C191.123 22.1662 191.011 22.0997 190.83 22.0997C190.536 22.0997 190.039 22.0563 189.722 22.0136C189.155 21.9254 188.953 21.4424 188.908 20.8292C188.841 19.8856 188.841 18.1517 188.841 16.1336V14.1379H188.954L189.204 14.4662C189.677 15.1025 194.128 20.1705 195.126 21.0266C196.096 21.8596 196.708 22.3426 197.929 22.4539C198.404 22.4966 198.809 22.4966 199.488 22.4966H201.455C201.886 22.4966 202 22.4308 202 22.2761C202 22.1473 201.862 22.0997 201.702 22.0997C201.432 22.0997 200.98 22.0346 200.302 21.7728C199.081 21.3115 198.066 20.3259 197.069 19.4026C196.189 18.5892 191.758 13.9636 190.943 12.9311C191.71 12.1422 195.126 8.8529 195.826 8.1935C196.798 7.273 197.567 6.8124 198.268 6.5492C198.696 6.3952 199.263 6.307 199.578 6.307C199.803 6.307 199.917 6.2629 199.917 6.1089C199.917 5.9549 199.76 5.9101 199.534 5.9101C198.831 5.9101 197.587 5.9759 196.887 5.9759C196.278 5.9759 195.033 5.9101 194.559 5.9101C194.31 5.9101 194.198 5.9549 194.198 6.1089C194.198 6.2412 194.288 6.2839 194.492 6.3287C194.717 6.3721 194.808 6.5254 194.808 6.7662C194.808 7.14 194.311 7.6881 193.679 8.4133C193.023 9.1588 189.722 12.4257 188.955 13.2384H188.841L188.84 12.2738Z" fill="#006935"/>
<path d="M171.179 12.8828C171.111 12.8828 171.043 12.8387 171.043 12.7295V12.2689C171.043 8.93689 171.043 8.323 171.088 7.6209C171.134 6.8537 171.315 6.4813 171.925 6.3714C172.196 6.3273 172.399 6.3056 172.58 6.3056C172.851 6.3056 172.987 6.2615 172.987 6.1082C172.987 5.9549 172.829 5.9108 172.513 5.9108C171.631 5.9108 170.208 5.9766 169.665 5.9766C169.055 5.9766 167.631 5.9108 166.411 5.9108C166.095 5.9108 165.937 5.9542 165.937 6.1082C165.937 6.2615 166.072 6.3056 166.321 6.3056C166.637 6.3056 167.02 6.328 167.202 6.3714C167.947 6.5247 168.128 6.8754 168.173 7.6209C168.219 8.3223 168.219 8.93619 168.219 12.2689V16.128C168.219 18.144 168.219 19.8765 168.105 20.7977C168.015 21.4333 167.902 21.9156 167.45 22.0031C167.246 22.0472 166.976 22.0906 166.637 22.0906C166.366 22.0906 166.275 22.1564 166.275 22.2663C166.275 22.4196 166.433 22.4861 166.727 22.4861C167.631 22.4861 169.054 22.4203 169.574 22.4203C170.207 22.4203 171.63 22.4861 173.099 22.4861C173.37 22.4861 173.551 22.4203 173.551 22.2663C173.551 22.1564 173.438 22.0906 173.189 22.0906C172.85 22.0906 172.353 22.0472 172.037 22.0031C171.359 21.9156 171.224 21.4326 171.156 20.8187C171.043 19.8765 171.043 18.144 171.043 16.1273V14.1981C171.043 14.0882 171.111 14.0672 171.179 14.0672H179.81C179.877 14.0672 179.945 14.1106 179.945 14.1981V16.1273C179.945 18.1433 179.945 19.8758 179.832 20.797C179.742 21.4326 179.629 21.9149 179.176 22.0024C178.973 22.0465 178.702 22.0899 178.363 22.0899C178.092 22.0899 178.002 22.1557 178.002 22.2656C178.002 22.4189 178.16 22.4854 178.477 22.4854C179.358 22.4854 180.782 22.4196 181.301 22.4196C181.934 22.4196 183.358 22.4854 184.826 22.4854C185.097 22.4854 185.278 22.4196 185.278 22.2656C185.278 22.1557 185.165 22.0899 184.916 22.0899C184.577 22.0899 184.08 22.0465 183.764 22.0024C183.086 21.9149 182.95 21.4319 182.882 20.818C182.77 19.8758 182.77 18.1433 182.77 16.1266V12.2682C182.77 8.9362 182.77 8.3223 182.815 7.6202C182.86 6.853 183.042 6.4806 183.651 6.3707C183.923 6.3266 184.125 6.3049 184.307 6.3049C184.578 6.3049 184.713 6.2608 184.713 6.1075C184.713 5.9542 184.555 5.9101 184.239 5.9101C183.358 5.9101 181.934 5.9759 181.392 5.9759C180.782 5.9759 179.358 5.9101 178.138 5.9101C177.822 5.9101 177.664 5.9535 177.664 6.1075C177.664 6.2608 177.799 6.3049 178.047 6.3049C178.364 6.3049 178.749 6.3273 178.928 6.3707C179.674 6.524 179.855 6.8747 179.9 7.6202C179.945 8.32159 179.945 8.9355 179.945 12.2682V12.7288C179.945 12.8387 179.877 12.8821 179.81 12.8821L171.179 12.8828Z" fill="#006935"/>
<path d="M148.651 13.388C148.001 13.2109 146.569 13.0555 145.828 13.0233C145.284 12.9995 144.971 12.9652 144.769 12.9225C144.736 12.9148 144.706 12.9036 144.681 12.8847V12.4787C144.681 9.65631 144.681 8.13451 145.158 7.73831C145.544 7.40791 146.345 7.35051 148.118 7.35051C149.322 7.35051 150.208 7.37221 150.777 7.96791C151.049 8.25421 151.322 8.87161 151.368 9.29091C151.39 9.48901 151.435 9.62131 151.618 9.62131C151.777 9.62131 151.8 9.51141 151.8 9.24611C151.8 9.00321 151.64 7.34981 151.459 6.71001C151.323 6.22491 151.209 6.11501 150.027 6.11501C148.391 6.11501 147 6.06111 145.977 6.08351C145.853 6.08911 145.732 6.09401 145.614 6.09821V6.08351C144.926 6.09681 144.143 6.14581 143.191 6.14581C142.741 6.14581 141.321 6.08001 140.127 6.08001C139.79 6.08001 139.632 6.12271 139.632 6.27741C139.632 6.43001 139.767 6.47271 140.015 6.47271C140.331 6.47271 140.714 6.49581 140.895 6.54061C141.636 6.69111 141.817 7.04181 141.862 7.78591C141.907 8.48451 141.907 9.09701 141.907 12.4192V16.265C141.907 18.2768 141.907 20.0023 141.795 20.9207C141.706 21.5549 141.592 22.0365 141.142 22.1247C140.939 22.1681 140.668 22.2108 140.331 22.2108C140.061 22.2108 139.97 22.2766 139.97 22.3858C139.97 22.5384 140.127 22.6035 140.421 22.6035C140.871 22.6035 141.457 22.5601 141.975 22.5601C142.515 22.5384 143.012 22.5384 143.259 22.5384C143.598 22.5384 144.272 22.5601 144.948 22.6035C145.602 22.6259 146.256 22.6693 146.525 22.6693C150.67 22.6693 152.541 20.2445 152.541 17.9044C152.541 15.3487 150.497 13.9984 148.651 13.388ZM147.043 21.6865C146.525 21.6865 146.006 21.6641 145.398 21.4233C144.677 21.1398 144.611 20.7674 144.611 19.3254V14.1461C144.611 14.0355 144.655 13.9921 144.746 13.9921C145.082 13.9921 145.308 13.9921 145.714 14.0138C146.592 14.0579 147.11 14.2119 147.584 14.5388C149.296 15.6952 149.768 17.5313 149.768 18.8879C149.769 21.1622 148.055 21.6865 147.043 21.6865Z" fill="#006935"/>
<path d="M173.46 22.1362L167.602 22.1789V21.9878C167.553 22.013 167.5 22.0256 167.444 22.0256C166.58 22.0256 166.331 21.4859 165.549 19.6729C164.1 16.3402 160.484 7.38721 159.936 6.17971C159.711 5.67501 159.576 5.48041 159.373 5.48041C159.147 5.48041 159.009 5.72191 158.735 6.35611L153.064 20.1377C152.611 21.229 152.18 21.9752 151.141 22.1089C150.958 22.1313 150.943 22.1495 150.735 22.1495C150.553 22.1495 150.468 22.1971 150.468 22.3266C150.468 22.5016 150.603 22.5436 150.898 22.5436C152.068 22.5436 153.018 22.4806 153.266 22.4806C153.971 22.4806 154.939 22.5436 155.662 22.5436C155.914 22.5436 156.045 22.5023 156.045 22.3266C156.045 22.1971 155.98 22.1495 155.711 22.1495H155.369C154.669 22.1495 154.463 21.8674 154.463 21.4726C154.463 21.2087 154.583 20.683 154.803 20.1384L156.027 16.9975C156.071 16.8659 156.115 16.8197 156.229 16.8197H161.269C161.38 16.8197 161.453 16.8666 161.501 16.9737L163.309 21.6238C163.418 21.8884 163.264 22.0893 163.103 22.1327C162.876 22.1509 162.786 22.1978 162.786 22.328C162.786 22.482 163.058 22.482 163.465 22.503C165.274 22.5443 166.924 22.5443 167.738 22.5443C168.246 22.5443 171.516 22.531 172.982 22.531C173.301 22.531 173.551 22.4442 173.551 22.2692C173.551 22.2069 173.518 22.1642 173.46 22.1362ZM160.844 15.7291H156.684C156.591 15.7291 156.57 15.6577 156.591 15.5695L158.669 10.1739C158.697 10.0857 158.736 9.97371 158.806 9.97371C158.872 9.97371 158.897 10.0864 158.919 10.1739L160.955 15.5905C160.975 15.6577 160.955 15.7291 160.844 15.7291Z" fill="#006935"/>
<path d="M52.1094 12.2514C52.1094 8.9523 52.1094 8.3447 52.0647 7.6503C52.0199 6.9125 51.841 6.5653 51.103 6.4134C50.9241 6.37 50.5439 6.3483 50.2308 6.3483C49.9848 6.3483 49.8506 6.3049 49.8506 6.153C49.8506 6.0011 50.0071 5.9577 50.3426 5.9577C51.5286 5.9577 52.9376 6.0228 53.5638 6.0228C54.4807 6.0228 55.7778 5.9577 56.8073 5.9577C59.6036 5.9577 60.6107 6.8691 60.9685 7.1946C61.4605 7.6503 62.0867 8.6268 62.0867 9.7776C62.0867 12.8597 59.7601 15.0297 56.5837 15.0297C56.4719 15.0297 56.2258 15.0297 56.114 15.0087C56.0022 14.987 55.8457 14.9653 55.8457 14.8134C55.8457 14.6398 56.0022 14.5747 56.4719 14.5747C57.725 14.5747 59.4694 13.2069 59.4694 10.9935C59.4694 10.2767 59.4023 8.8228 58.1492 7.7378C57.3433 7.0217 56.4264 6.8915 55.912 6.8915C55.5766 6.8915 55.2411 6.9132 55.0398 6.9783C54.928 7.0217 54.8609 7.1519 54.8609 7.3906V16.0727C54.8609 18.0698 54.8609 19.7848 54.9727 20.7179C55.0398 21.3255 55.174 21.8029 55.8449 21.8897C56.158 21.9331 56.6508 21.9765 56.9862 21.9765C57.2322 21.9765 57.3441 22.0416 57.3441 22.1501C57.3441 22.302 57.1652 22.3671 56.9191 22.3671C55.4424 22.3671 54.0334 22.302 53.452 22.302C52.9376 22.302 51.5279 22.3671 50.6333 22.3671C50.3426 22.3671 50.1861 22.302 50.1861 22.1501C50.1861 22.0416 50.2755 21.9765 50.5439 21.9765C50.8793 21.9765 51.1477 21.9331 51.3497 21.8897C51.797 21.8029 51.9088 21.3255 51.9983 20.6962C52.1101 19.7848 52.1101 18.0698 52.1101 16.0727L52.1094 12.2514Z" fill="#006935"/>
<path d="M64.0947 16.7021C63.9829 16.7021 63.9382 16.7462 63.8934 16.8757L62.6851 19.9795C62.4614 20.522 62.3496 21.0435 62.3496 21.3039C62.3496 21.6945 62.5509 21.9766 63.2442 21.9766H63.5796C63.848 21.9766 63.9151 22.02 63.9151 22.1502C63.9151 22.3238 63.7809 22.3672 63.5349 22.3672C62.8192 22.3672 61.8576 22.3021 61.1636 22.3021C60.9175 22.3021 60.1067 22.3672 58.9437 22.3672C58.653 22.3672 58.5188 22.3238 58.5188 22.1502C58.5188 22.02 58.6097 22.0004 58.7872 21.9766C59.0772 21.9374 59.1479 21.9108 59.3254 21.8821C60.1485 21.7519 60.515 21.0652 60.9623 19.9795L66.5772 6.34841C66.8455 5.71911 66.9797 5.48041 67.2034 5.48041C67.4046 5.48041 67.5388 5.67571 67.7625 6.17481C68.2992 7.36831 71.8789 16.2247 73.3103 19.5238C74.1601 21.4768 74.8087 21.7813 75.279 21.8898C75.6145 21.9549 75.9507 21.9766 76.2191 21.9766C76.3972 21.9766 76.5098 21.9983 76.5098 22.1502C76.5098 22.3238 76.3085 22.3672 75.481 22.3672C74.6752 22.3672 73.0426 22.3672 71.2527 22.3238C70.8502 22.3021 70.5818 22.3021 70.5818 22.1502C70.5818 22.02 70.6713 21.9766 70.8949 21.9549C71.0515 21.9115 71.208 21.7162 71.0962 21.4558L69.307 16.8547C69.2623 16.7462 69.1952 16.7021 69.0834 16.7021H64.0947ZM68.6585 15.6164C68.7703 15.6164 68.7927 15.5513 68.7703 15.4862L66.7568 10.1249C66.7344 10.0381 66.7121 9.92961 66.645 9.92961C66.5779 9.92961 66.5332 10.0381 66.5108 10.1249L64.4525 15.4652C64.4302 15.5513 64.4525 15.6164 64.542 15.6164H68.6585Z" fill="#006935"/>
<path d="M77.3206 12.2507C77.3206 8.95157 77.3206 8.34397 77.2758 7.64957C77.2311 6.91177 77.0522 6.56457 76.3142 6.41267C76.1353 6.36927 75.7551 6.34757 75.442 6.34757C75.196 6.34757 75.0618 6.30417 75.0618 6.15227C75.0618 6.00037 75.2183 5.95697 75.5538 5.95697C76.7391 5.95697 78.1488 6.02207 78.596 6.02207C79.6926 6.02207 80.5648 5.95697 81.3252 5.95697C85.3739 5.95697 86.0902 8.06257 86.0902 9.21267C86.0902 10.9928 85.0384 12.0561 83.8084 13.0109C85.643 13.6192 87.8794 15.1599 87.8794 17.6995C87.8794 20.0221 86.0232 22.4315 81.9067 22.4315C81.6383 22.4315 80.9897 22.3881 80.3412 22.3664C79.6703 22.323 78.9993 22.3013 78.6639 22.3013C78.4179 22.3013 77.9258 22.3013 77.3884 22.323C76.874 22.323 76.2925 22.3664 75.8452 22.3664C75.5545 22.3664 75.398 22.3013 75.398 22.1494C75.398 22.0409 75.4874 21.9758 75.7558 21.9758C76.0912 21.9758 76.3603 21.9324 76.5609 21.889C77.0082 21.8022 77.12 21.3248 77.2095 20.6955C77.3213 19.7841 77.3213 18.0691 77.3213 16.072L77.3206 12.2507ZM80.0043 12.6203C80.0043 12.7939 80.0714 12.8366 80.1608 12.859C80.3621 12.9024 80.6976 12.9241 81.2119 12.9241C81.9507 12.9241 82.4427 12.8366 82.8229 12.5118C83.4044 12.0554 83.7398 11.2742 83.7398 10.2109C83.7398 8.75697 82.8669 6.84667 80.9436 6.84667C80.6305 6.84667 80.4292 6.84667 80.2056 6.89007C80.049 6.93347 80.0043 7.02027 80.0043 7.25897V12.6203ZM82.9571 14.3563C82.4874 14.0308 81.9731 13.8789 81.1001 13.8348C80.6976 13.8131 80.4739 13.8131 80.1385 13.8131C80.049 13.8131 80.0043 13.8565 80.0043 13.965V19.1093C80.0043 20.5422 80.0714 20.9111 80.787 21.1932C81.3909 21.4319 81.9052 21.4536 82.4203 21.4536C83.4267 21.4536 85.1271 20.9328 85.1271 18.6753C85.1271 17.3299 84.6575 15.5064 82.9571 14.3563Z" fill="#006935"/>
<path d="M104.606 13.2062H104.718C105.477 12.4033 108.744 9.16857 109.393 8.43077C110.019 7.71467 110.511 7.17217 110.511 6.80327C110.511 6.56457 110.421 6.41267 110.198 6.36927C109.996 6.32587 109.907 6.28247 109.907 6.15227C109.907 6.00037 110.019 5.95697 110.265 5.95697C110.734 5.95697 111.964 6.02207 112.569 6.02207C113.262 6.02207 114.493 5.95697 115.186 5.95697C115.41 5.95697 115.567 6.00037 115.567 6.15227C115.567 6.30417 115.455 6.34757 115.23 6.34757C114.917 6.34757 114.358 6.43437 113.933 6.58627C113.24 6.84667 112.479 7.30307 111.517 8.21447C110.824 8.86547 107.445 12.1212 106.685 12.9031C107.491 13.923 111.875 18.5031 112.747 19.306C113.731 20.2174 114.738 21.1939 115.946 21.6503C116.617 21.9107 117.064 21.9758 117.333 21.9758C117.49 21.9758 117.624 22.0192 117.624 22.1494C117.624 22.3013 117.512 22.3664 117.087 22.3664H115.141C114.47 22.3664 114.067 22.3664 113.598 22.323C112.39 22.2145 111.786 21.7364 110.824 20.9118C109.839 20.0648 105.433 15.0514 104.963 14.4221L104.717 14.0959H104.605V16.0713C104.605 18.0684 104.605 19.7834 104.672 20.7165C104.718 21.3241 104.918 21.8015 105.477 21.8883C105.791 21.9317 106.283 21.9751 106.574 21.9751C106.753 21.9751 106.865 22.0402 106.865 22.1487C106.865 22.3006 106.686 22.3657 106.44 22.3657C105.187 22.3657 103.778 22.3006 103.219 22.3006C102.705 22.3006 101.295 22.3657 100.4 22.3657C100.109 22.3657 99.9526 22.3006 99.9526 22.1487C99.9526 22.0402 100.041 21.9751 100.31 21.9751C100.646 21.9751 100.915 21.9317 101.116 21.8883C101.563 21.8015 101.675 21.3241 101.764 20.6948C101.876 19.7834 101.876 18.0684 101.876 16.0713V12.2507C101.876 8.95157 101.876 8.34397 101.831 7.64957C101.787 6.91177 101.608 6.56457 100.87 6.41267C100.691 6.36927 100.31 6.34757 99.9966 6.34757C99.7506 6.34757 99.6165 6.30417 99.6165 6.15227C99.6165 6.00037 99.773 5.95697 100.108 5.95697C101.294 5.95697 102.703 6.02207 103.24 6.02207C103.778 6.02207 105.187 5.95697 105.947 5.95697C106.26 5.95697 106.417 6.00037 106.417 6.15227C106.417 6.30417 106.283 6.34757 106.104 6.34757C105.88 6.34757 105.746 6.36927 105.477 6.41267C104.874 6.52047 104.695 6.89007 104.65 7.64957C104.605 8.34397 104.605 8.95157 104.605 12.2507V13.2062H104.606Z" fill="#006935"/>
<path d="M118.809 20.3033C116.617 18.4364 116.034 16.0053 116.034 13.9004C116.034 12.4241 116.505 9.86278 118.652 7.95318C120.262 6.52028 122.388 5.65228 125.721 5.65228C127.107 5.65228 127.935 5.73908 128.965 5.86928C129.814 5.97778 130.531 6.17308 131.202 6.23818C131.448 6.25988 131.537 6.36838 131.537 6.49858C131.537 6.67218 131.47 6.93258 131.425 7.69208C131.381 8.40818 131.403 9.60238 131.358 10.0364C131.336 10.3619 131.291 10.5355 131.09 10.5355C130.911 10.5355 130.866 10.3619 130.866 10.0581C130.844 9.38538 130.553 8.62588 129.993 8.06098C129.255 7.30148 127.51 6.71558 125.453 6.71558C123.507 6.71558 122.231 7.19298 121.247 8.06098C119.613 9.51488 119.189 11.5778 119.189 13.6827C119.189 18.8487 123.237 21.41 126.235 21.41C128.225 21.41 129.434 21.1923 130.328 20.1941C130.708 19.7818 130.999 19.1525 131.089 18.7619C131.156 18.4147 131.201 18.3279 131.38 18.3279C131.536 18.3279 131.581 18.4798 131.581 18.6534C131.581 18.9138 131.313 20.8024 131.089 21.5402C130.977 21.9091 130.888 22.0176 130.508 22.1695C129.613 22.5167 127.913 22.6686 126.481 22.6686C123.417 22.6693 120.845 22.0183 118.809 20.3033Z" fill="#006935"/>
<path d="M49.0184 21.9758C48.683 21.9758 48.1909 21.9324 47.8778 21.889C47.2069 21.8022 47.0504 21.4116 46.9826 20.825C46.8931 19.8919 46.8931 18.1769 46.8931 16.0713V12.2507C46.8931 8.95157 46.8931 8.34397 46.9378 7.64957C46.9825 6.89007 47.1615 6.52047 47.7653 6.41267C48.0337 6.36927 48.2126 6.34757 48.4362 6.34757C48.6599 6.34757 48.7941 6.30417 48.7941 6.13057C48.7941 6.00037 48.6151 5.95697 48.3244 5.95697C47.4746 5.95697 32.7726 5.95697 31.9227 5.95697C31.5649 5.95697 31.386 6.00037 31.386 6.13057C31.386 6.30417 31.5202 6.34757 31.7438 6.34757C32.0122 6.34757 32.3036 6.36927 32.5496 6.43437C33.0417 6.54287 33.2653 6.91177 33.31 7.65027C33.3548 8.34467 33.3548 8.95227 33.3548 12.2514V16.072C33.3548 18.1776 33.3548 19.8926 33.2429 20.804C33.1758 21.4333 33.0417 21.8022 32.5944 21.8897C32.3931 21.9331 32.124 21.9765 31.7885 21.9765C31.5202 21.9765 31.4307 22.0416 31.4307 22.1501C31.4307 22.302 31.5873 22.3671 31.878 22.3671C32.7726 22.3671 34.1822 22.302 34.6966 22.302C35.3012 22.302 36.7101 22.3671 38.1869 22.3671C38.4329 22.3671 38.6118 22.302 38.6118 22.1501C38.6118 22.0416 38.5 21.9765 38.254 21.9765C37.9185 21.9765 37.4265 21.9331 37.1127 21.8897C36.4418 21.8029 36.2852 21.4123 36.2181 20.8257C36.1287 19.8926 36.1287 18.1776 36.1287 16.072V12.2514C36.1287 8.95227 36.1395 8.50357 36.1842 7.80917C36.2289 7.04967 36.4079 6.80187 37.0117 6.69337C37.1632 6.66887 37.2858 6.65207 37.4041 6.64157H42.8473C43.0125 6.65417 43.1763 6.67587 43.3242 6.71577C43.8162 6.82427 44.0398 7.07207 44.0846 7.80987C44.1293 8.50427 44.1185 8.95297 44.1185 12.2521V16.0727C44.1185 18.1783 44.1185 19.8933 44.0067 20.8047C43.9396 21.434 43.8054 21.8029 43.3581 21.8904C43.1568 21.9338 42.8884 21.9772 42.5523 21.9772C42.2839 21.9772 42.1944 22.0423 42.1944 22.1508C42.1944 22.3027 42.351 22.3678 42.6417 22.3678C43.5363 22.3678 44.946 22.3027 45.4603 22.3027C46.0649 22.3027 47.4738 22.3678 48.9506 22.3678C49.1966 22.3678 49.3755 22.3027 49.3755 22.1508C49.3763 22.0409 49.2644 21.9758 49.0184 21.9758Z" fill="#006935"/>
<path d="M90.1177 12.2692C90.1177 8.97574 90.1177 8.36954 90.073 7.67584C90.0283 6.93944 89.8501 6.59224 89.1128 6.44104C88.9346 6.39764 88.5544 6.37594 88.242 6.37594C87.9967 6.37594 87.8625 6.33184 87.8625 6.18064C87.8625 6.02874 88.0191 5.98534 88.3538 5.98534C88.957 5.98534 89.6041 6.00634 90.1632 6.00634C90.7439 6.02804 91.2569 6.05044 91.57 6.05044C92.2842 6.05044 96.7282 6.05044 97.1524 6.02874C97.5766 5.98604 97.9344 5.94194 98.1126 5.89854C98.2244 5.87754 98.3579 5.81244 98.4697 5.81244C98.5815 5.81244 98.6039 5.89854 98.6039 6.00704C98.6039 6.15894 98.4921 6.41864 98.4257 7.41544C98.4033 7.63244 98.3586 8.58584 98.3139 8.84484C98.2915 8.95334 98.2468 9.08354 98.0902 9.08354C97.9344 9.08354 97.889 8.97504 97.889 8.77974C97.889 8.62854 97.8673 8.26034 97.7548 7.99994C97.5982 7.60934 97.3753 7.34964 96.2585 7.22014C95.8791 7.17674 93.5344 7.13404 93.0871 7.13404C92.9753 7.13404 92.9313 7.19914 92.9313 7.35034V12.832C92.9313 12.9839 92.9537 13.07 93.0871 13.07C93.5784 13.07 96.1467 13.07 96.6604 13.0266C97.1957 12.9832 97.5311 12.9188 97.7324 12.7018C97.8882 12.5289 97.9777 12.4204 98.0895 12.4204C98.179 12.4204 98.2461 12.4631 98.2461 12.5933C98.2461 12.7235 98.1566 13.07 98.0672 14.1753C98.0448 14.6086 97.9777 15.4745 97.9777 15.6271C97.9777 15.8 97.9777 16.0387 97.7764 16.0387C97.6206 16.0387 97.5759 15.9526 97.5759 15.8434C97.5535 15.6271 97.5535 15.3443 97.4857 15.0629C97.3746 14.6303 97.0615 14.3055 96.2355 14.2173C95.8113 14.1746 93.6001 14.1522 93.064 14.1522C92.9529 14.1522 92.9306 14.2397 92.9306 14.3699V16.0835C92.9306 16.8206 92.9082 18.8135 92.9306 19.4407C92.9753 20.9366 93.3324 21.2614 95.61 21.2614C96.1907 21.2614 97.1286 21.2614 97.7093 21.001C98.2901 20.7413 98.5577 20.2856 98.7143 19.398C98.759 19.1593 98.8037 19.0732 98.9596 19.0732C99.1385 19.0732 99.1385 19.2454 99.1385 19.4631C99.1385 19.9608 98.9596 21.435 98.8477 21.8676C98.6912 22.4318 98.4899 22.4318 97.6422 22.4318C95.9671 22.4318 94.7392 22.3884 93.779 22.3667C92.8188 22.3233 92.1262 22.3016 91.4567 22.3016C91.2114 22.3016 90.7201 22.3016 90.1841 22.3233C89.6705 22.3233 89.0897 22.3667 88.6439 22.3667C88.3531 22.3667 88.1966 22.3016 88.1966 22.149C88.1966 22.0419 88.286 21.9761 88.5537 21.9761C88.8891 21.9761 89.1561 21.9327 89.3573 21.8907C89.8039 21.8032 89.9157 21.3272 90.0052 20.6979C90.1163 19.7886 90.1163 18.0771 90.1163 16.0835L90.1177 12.2692Z" fill="#006935"/>
</g>
<defs>
<clipPath id="clip0">
<rect width="202" height="28" fill="white"/>
</clipPath>
</defs>
</svg>
