<svg width="44" height="44" viewBox="0 0 44 44" fill="none" xmlns="http://www.w3.org/2000/svg">
<path d="M22.0457 0C34.1206 0 44 9.9 44 22C44 34.1917 34.1206 44 22.0457 44C9.92516 44 0 34.1458 0 22C0 9.9 9.92516 0 22.0457 0Z" fill="#D13239"/>
<path d="M38.7411 14.3008H38.9698C38.8783 14.9424 38.6039 15.4008 38.1922 15.6758C37.6891 15.9508 37.1403 16.1341 36.2712 16.1341H35.4937C32.6579 15.9508 32.0633 18.9758 32.3835 21.1758C32.6122 22.5508 33.1153 24.0174 33.9386 25.0258C34.6704 25.8049 35.7681 26.3091 36.6829 25.53C37.4604 24.8883 37.6891 23.4216 37.6891 22.5508C37.6891 21.0383 37.1403 18.7008 35.265 18.7008C34.7161 18.7008 34.213 18.9299 33.8014 19.4799C33.4812 19.8924 33.344 20.6716 33.344 21.4508H32.9781C32.7494 19.6174 33.6184 18.1049 35.5394 18.0591C37.8263 18.0591 39.1985 19.8924 39.1985 22.1841C39.1985 24.4758 37.7806 26.6299 35.448 26.6299C34.213 26.6299 33.2525 26.1716 32.5207 25.2549C31.7889 24.3841 31.4688 22.9633 31.4688 21.1299C31.4688 18.8383 31.8347 17.5091 32.5207 16.4091C33.2525 15.3549 34.213 14.8508 35.5852 14.8508H36.7286C37.4604 14.9424 37.9636 14.8508 38.238 14.8049C38.4667 14.6674 38.6954 14.5299 38.7411 14.3008Z" fill="white"/>
<path d="M22.6875 18.1484L25.4775 24.3359L28.0389 18.6526L28.2676 18.1484H30.3715V18.4234H30.1886C29.9141 18.4234 29.594 18.7443 29.594 19.0651V23.7859V25.6651C29.594 26.0318 29.9141 26.3068 30.1886 26.3068H30.3715V26.5359H28.9536H27.4443V26.3068H27.673C27.9474 26.3068 28.2676 26.0318 28.2676 25.6651V23.7859V19.5693L25.1574 26.5359H24.9744L21.91 19.4318V25.6193C21.91 25.9859 22.1844 26.2609 22.4588 26.2609H22.6875V26.4901H21.2696H20.5378V26.2609H20.7665C21.0867 26.2609 21.3611 25.9859 21.3611 25.6193V19.0651C21.3611 18.7443 21.1782 18.4234 20.7208 18.4234C20.3549 18.4234 19.9432 18.7901 19.7145 19.2943L16.7873 25.8026C16.5129 26.3526 16.147 26.5359 15.6439 26.5359H14.9578L14.8206 25.6651C15.1407 25.8943 15.3694 26.0318 15.4609 26.0776C15.8268 26.2609 16.1012 26.0318 16.1927 25.7568L16.5586 24.9318L13.9058 19.4318C13.5856 18.8359 13.357 18.5609 12.9453 18.4693V18.1943H14.4547H15.5981V18.4693H15.3694C15.1407 18.4693 15.0493 18.7901 15.2322 19.1109L17.2447 23.4193L19.1199 19.2484C19.3486 18.8359 19.1657 18.5151 18.8455 18.4693V18.1484H22.6875Z" fill="white"/>
<path d="M10.5174 23.7859V19.0651V18.7443H6.76688V19.0651V23.7859V25.6651C6.76688 26.0318 7.0413 26.3068 7.31573 26.3068H7.54442V26.5359H6.12654H4.61719V26.3068H4.84588C5.16604 26.3068 5.44047 26.0318 5.44047 25.6651V23.7859V19.0651C5.44047 18.6984 5.16604 18.4234 4.84588 18.4234H4.61719V18.1484H6.12654H6.35523H7.59016H9.78559H10.8833H11.2949H12.7128V18.4234H12.4841C12.164 18.4234 11.8895 18.7443 11.8895 19.0651V23.7859V25.6651C11.8895 26.0318 12.164 26.3068 12.4841 26.3068H12.7128V26.5359H11.2949H9.78559V26.3068H10.0143C10.2887 26.3068 10.5631 26.0318 10.5631 25.6651V23.7859H10.5174Z" fill="white"/>
</svg>
