<svg width="73" height="56" viewBox="0 0 73 56" fill="none" xmlns="http://www.w3.org/2000/svg">
<g clip-path="url(#clip0)">
<path opacity="0.9" d="M33.9015 0.851861C30.9068 -0.561818 21.8994 -1.4286 13.3645 8.54454C4.82955 18.5177 -1.25023 33.885 0.88221 37.2257C3.01465 40.5664 14.2397 36.0958 19.0828 38.2395C23.926 40.3833 43.3891 60.763 52.936 54.9664C61.2954 49.8869 55.3137 34.9994 46.8924 25.1372C40.002 17.0705 43.6085 5.43342 33.9015 0.851861Z" fill="#CCE6C9"/>
<path opacity="0.9" d="M33.5677 4.00772C30.888 2.77978 22.8539 1.9646 15.2767 10.6685C7.69958 19.3725 2.33233 32.8076 4.24533 35.7433C6.15833 38.679 15.7518 34.0329 20.0786 35.9264C24.4054 37.8199 42.2446 56.5176 50.7383 51.4743C58.176 47.0553 50.6195 34.4173 43.9821 26.6679C37.8739 19.5324 41.1113 7.45679 33.5677 4.00772Z" fill="#A5D5AE"/>
<path opacity="0.9" d="M33.3642 6.38987C31.1052 5.05874 23.8121 4.56859 17.0507 12.3412C10.2894 20.1139 5.50042 32.107 7.20689 34.7279C8.91336 37.3489 17.469 33.1982 21.3285 34.8879C25.1881 36.5776 41.0936 53.2657 48.6682 48.7615C55.303 44.8146 47.6613 32.9428 41.7416 26.0266C36.2892 19.6599 39.8105 10.2027 33.3642 6.38987Z" fill="#78C69C"/>
<path opacity="0.9" d="M33.1188 9.13619C31.0948 8.10431 24.8576 7.55741 19.0076 14.2492C13.1575 20.9409 9.03206 31.2752 10.5088 33.5247C11.9855 35.7742 19.3871 32.2142 22.7277 33.6744C26.0684 35.1345 39.844 49.5241 46.3963 45.6493C52.1327 42.257 44.8834 32.2504 39.7563 26.2887C35.0344 20.7965 38.3312 11.7907 33.1188 9.13619Z" fill="#35BA8D"/>
<path opacity="0.9" d="M32.4063 11.9907C30.7541 11.2658 27.0468 11.0878 22.1288 16.2214C17.2107 21.355 13.4957 29.4501 14.5749 31.3024C15.654 33.1546 21.6744 30.5646 24.2638 31.8441C26.8532 33.1236 37.1721 45.0728 42.5393 42.2094C47.2353 39.6993 42.2063 31.0521 37.7452 26.1842C33.013 21.0222 36.3666 13.7294 32.4063 11.9907Z" fill="#27AC89"/>
<path d="M24.524 33.116H23.969V25.1602H28.3242V25.6761H24.524V29.0452H28.1151V29.5611H24.524V33.1108V33.116Z" fill="#262424"/>
<path d="M33.0141 33.1188L32.8773 32.1849H32.8334C32.5909 32.518 32.278 32.7937 31.9169 32.9923C31.5698 33.1577 31.1886 33.239 30.8042 33.2297C30.3119 33.2601 29.8266 33.1003 29.4488 32.7834C29.2842 32.6246 29.1556 32.4324 29.0719 32.2196C28.9881 32.0069 28.9512 31.7786 28.9635 31.5503C28.9551 31.2832 29.0173 31.0186 29.1437 30.7831C29.2702 30.5476 29.4564 30.3496 29.6838 30.2088C30.164 29.8907 30.8593 29.7187 31.7697 29.6929L32.8953 29.6594V29.2673C32.9275 28.8191 32.8084 28.3732 32.5571 28.0006C32.4187 27.8487 32.2468 27.731 32.0551 27.6567C31.8633 27.5824 31.657 27.5535 31.4522 27.5724C30.8557 27.5849 30.271 27.7415 29.7483 28.029L29.5469 27.5621C30.1471 27.2691 30.805 27.1131 31.4729 27.1055C32.1217 27.1055 32.6071 27.2774 32.9289 27.6214C33.2508 27.9654 33.4108 28.4908 33.4091 29.1976V33.1291H33.0115L33.0141 33.1188ZM30.8378 32.737C31.1121 32.7611 31.3884 32.7248 31.6472 32.6306C31.906 32.5364 32.1409 32.3866 32.3354 32.1917C32.5299 31.9969 32.6792 31.7617 32.7729 31.5029C32.8665 31.2441 32.9021 30.9679 32.8773 30.6938V30.1134L31.8446 30.1573C31.0133 30.1968 30.4213 30.3267 30.0684 30.5468C29.8939 30.6538 29.752 30.8066 29.6583 30.9885C29.5645 31.1704 29.5224 31.3745 29.5366 31.5787C29.5274 31.7384 29.5531 31.8982 29.6119 32.047C29.6708 32.1958 29.7614 32.33 29.8774 32.4403C30.1489 32.6562 30.4917 32.7621 30.8378 32.737Z" fill="#262424"/>
<path d="M37.657 27.095C37.9271 27.0964 38.1966 27.1215 38.4624 27.1698L38.3592 27.6857C38.1058 27.6228 37.8457 27.5916 37.5847 27.5928C37.3413 27.5906 37.1011 27.648 36.8851 27.76C36.6691 27.872 36.4838 28.0351 36.3455 28.2352C36.0085 28.7065 35.8377 29.2764 35.8601 29.8552V33.116H35.3206V27.2085H35.7775L35.8317 28.2739H35.8705C36.0507 27.9105 36.3165 27.5963 36.6449 27.3581C36.9493 27.1735 37.3011 27.082 37.657 27.095Z" fill="#262424"/>
<path d="M47.0478 33.1175V29.248C47.0478 28.6718 46.935 28.2513 46.7096 27.9865C46.5777 27.8479 46.4166 27.7404 46.238 27.6717C46.0594 27.603 45.8677 27.5748 45.6769 27.5892C45.0711 27.5892 44.6236 27.756 44.3344 28.0897C44.0453 28.4233 43.8999 28.947 43.8981 29.6607V33.1227H43.3483V29.0777C43.3483 28.0819 42.8913 27.5832 41.9774 27.5815C41.3578 27.5815 40.906 27.762 40.622 28.1232C40.338 28.4844 40.1961 29.0614 40.1961 29.8542V33.1149H39.6565V27.2074H40.1031L40.2167 28.0174H40.2503C40.4108 27.7271 40.6532 27.4902 40.9473 27.3364C41.2538 27.1731 41.5965 27.0897 41.9438 27.0939C42.8749 27.0939 43.4773 27.4439 43.751 28.1438H43.7716C43.9532 27.8192 44.2213 27.5513 44.5461 27.3699C44.8856 27.1853 45.2672 27.0919 45.6537 27.0991C46.2991 27.0991 46.7836 27.271 47.1071 27.615C47.4307 27.959 47.5925 28.5059 47.5925 29.2557V33.1252H47.0581L47.0478 33.1175Z" fill="#262424"/>
<path d="M49.4221 25.5667C49.4221 25.2228 49.5366 25.0508 49.7655 25.0508C49.8165 25.0502 49.8669 25.0623 49.912 25.0862C49.9571 25.1101 49.9955 25.1449 50.0236 25.1875C50.0941 25.3038 50.1275 25.4388 50.1192 25.5745C50.1265 25.7101 50.0932 25.8448 50.0236 25.9614C49.9963 26.0051 49.9582 26.0411 49.913 26.066C49.8679 26.0908 49.817 26.1037 49.7655 26.1033C49.5366 26.0964 49.4221 25.9176 49.4221 25.5667ZM50.0365 33.1175H49.4918V27.2074H50.0314V33.1175H50.0365Z" fill="#262424"/>
<path d="M56.1401 33.1213V29.293C56.1401 28.6979 56.0153 28.268 55.7657 28.0031C55.6109 27.8579 55.4273 27.7467 55.2267 27.677C55.0261 27.6072 54.8131 27.5803 54.6014 27.5981C53.8941 27.5981 53.3777 27.777 53.0524 28.1347C52.7271 28.4924 52.5628 29.0711 52.5593 29.8708V33.1316H52.0198V27.2112H52.4767L52.58 28.0212H52.6136C52.9974 27.4055 53.6806 27.0977 54.6634 27.0977C56.0058 27.0977 56.6771 27.8174 56.6771 29.2569V33.1264H56.1453L56.1401 33.1213Z" fill="#262424"/>
<path d="M63.2032 27.2091V27.5831L61.9795 27.6605C62.2946 28.0347 62.4682 28.5077 62.47 28.9968C62.4796 29.2544 62.4338 29.5111 62.3359 29.7496C62.2379 29.9881 62.09 30.2029 61.902 30.3795C61.4816 30.7474 60.9343 30.9371 60.3763 30.9084C60.1872 30.9133 59.998 30.9021 59.8109 30.8748C59.6193 30.9683 59.4516 31.1042 59.3204 31.2721C59.2128 31.411 59.1538 31.5814 59.1526 31.7571C59.1471 31.8389 59.1643 31.9206 59.202 31.9933C59.2398 32.0661 59.2968 32.1271 59.3668 32.1698C59.5919 32.274 59.8397 32.3192 60.0871 32.3014H61.1198C61.6404 32.2677 62.1579 32.4045 62.5939 32.6909C62.7669 32.8265 62.9043 33.0021 62.9942 33.2025C63.0842 33.4029 63.124 33.6222 63.1102 33.8415C63.1209 34.1272 63.0564 34.4107 62.9232 34.6637C62.79 34.9167 62.5928 35.1304 62.3512 35.2835C61.8452 35.6275 61.1241 35.7995 60.1878 35.7995C59.5819 35.8361 58.9792 35.6866 58.4607 35.3713C58.2651 35.2404 58.1062 35.0617 57.9991 34.8522C57.892 34.6427 57.8403 34.4093 57.8488 34.1743C57.8363 33.8007 57.9717 33.4373 58.2257 33.163C58.5059 32.8791 58.8662 32.6873 59.2584 32.6135C59.0906 32.5453 58.9436 32.4341 58.8324 32.2911C58.7268 32.1536 58.6704 31.9846 58.6724 31.8113C58.6724 31.4157 58.9245 31.0717 59.4288 30.7794C59.0965 30.6484 58.8145 30.4153 58.6233 30.1138C58.4298 29.8047 58.3294 29.4465 58.3342 29.0819C58.3225 28.8188 58.3666 28.5561 58.4636 28.3111C58.5606 28.0662 58.7083 27.8445 58.897 27.6605C59.313 27.2879 59.8597 27.095 60.4176 27.1239C60.7229 27.1123 61.0281 27.1506 61.3211 27.2374H63.2135L63.2032 27.2091ZM58.4168 34.1175C58.4168 34.9293 59.0192 35.3351 60.2239 35.3351C61.7729 35.3351 62.5474 34.8407 62.5474 33.8518C62.5599 33.7022 62.5329 33.552 62.469 33.4162C62.4051 33.2804 62.3066 33.1637 62.1834 33.0779C61.8198 32.8909 61.4115 32.8078 61.0036 32.838H60.0355C58.9563 32.8397 58.4168 33.2662 58.4168 34.1175ZM58.8686 29.051C58.857 29.2476 58.8881 29.4444 58.9599 29.6279C59.0316 29.8114 59.1423 29.9771 59.2842 30.1138C59.6077 30.3578 60.0019 30.4898 60.4072 30.4898C60.8125 30.4898 61.2068 30.3578 61.5302 30.1138C61.6681 29.9702 61.7745 29.7995 61.8425 29.6125C61.9105 29.4254 61.9387 29.2263 61.9252 29.0277C61.9409 28.8211 61.9129 28.6136 61.8431 28.4185C61.7732 28.2234 61.6631 28.0451 61.5199 27.8953C61.2051 27.6281 60.7989 27.4931 60.3866 27.5186C60.1833 27.5073 59.9799 27.5373 59.7886 27.607C59.5973 27.6766 59.4222 27.7843 59.2739 27.9236C59.1337 28.0745 59.0254 28.2521 58.9558 28.4459C58.8861 28.6396 58.8565 28.8455 58.8686 29.051Z" fill="#262424"/>
<path opacity="0.9" d="M71.5946 33.0469H66.8108C66.1949 33.0469 65.6956 33.5458 65.6956 34.1613C65.6956 34.7768 66.1949 35.2757 66.8108 35.2757H71.5946C72.2106 35.2757 72.7099 34.7768 72.7099 34.1613C72.7099 33.5458 72.2106 33.0469 71.5946 33.0469Z" fill="#40C097"/>
<path d="M26.3984 16.084C26.0666 16.07 25.7378 16.1515 25.451 16.3188C25.3306 16.3922 25.2326 16.4971 25.1676 16.6221C25.1025 16.7472 25.0729 16.8875 25.0818 17.0282C25.075 17.171 25.1055 17.3131 25.1702 17.4407C25.2349 17.5682 25.3316 17.6767 25.451 17.7557C25.9458 18.014 26.4767 18.1966 27.0258 18.2974C27.6833 18.4267 28.3019 18.7066 28.8329 19.1152C29.0431 19.3118 29.2069 19.5527 29.3122 19.8204C29.4176 20.0881 29.462 20.376 29.4422 20.663C29.4499 20.9808 29.384 21.2961 29.2496 21.5843C29.1153 21.8724 28.9161 22.1257 28.6677 22.3243C28.0892 22.7702 27.3709 22.996 26.6411 22.9615C25.434 22.9681 24.2694 22.5163 23.3831 21.6974L24.2118 20.7017C24.8778 21.3381 25.7561 21.7057 26.6772 21.7336C27.036 21.7529 27.3915 21.6571 27.6918 21.4601C27.8098 21.3795 27.9059 21.2708 27.9712 21.1438C28.0366 21.0167 28.0692 20.8754 28.0662 20.7326C28.0714 20.595 28.0416 20.4582 27.9798 20.3351C27.918 20.212 27.826 20.1065 27.7125 20.0284C27.3373 19.8051 26.9257 19.6496 26.4965 19.5692C26.0527 19.4702 25.6156 19.3436 25.1876 19.19C24.9006 19.0809 24.6323 18.9277 24.3925 18.7359C23.9295 18.392 23.698 17.8545 23.698 17.1236C23.6815 16.8011 23.745 16.4796 23.8828 16.1875C24.0207 15.8954 24.2285 15.6419 24.488 15.4494C25.0571 15.0441 25.7439 14.8374 26.4423 14.8612C26.9495 14.8661 27.4526 14.9532 27.9319 15.1192C28.3977 15.2683 28.8312 15.5037 29.2098 15.8131L28.5051 16.8089C28.2299 16.5752 27.9102 16.3997 27.5653 16.293C27.1905 16.1599 26.7962 16.0893 26.3984 16.084Z" fill="#262424"/>
<path d="M45.1612 16.6541L46.2093 19.0274L47.6215 19.0352L45.866 15.0547H44.4564L42.7112 19.0094L44.1182 19.0171L45.1612 16.6541Z" fill="#262424"/>
<path d="M41.0078 22.8755H42.4174L43.2022 21.0981L43.5972 20.2029L42.1876 20.1952L41.0078 22.8755Z" fill="#262424"/>
<path d="M46.7378 20.2192L47.1225 21.0963L47.9073 22.8737H49.3194L48.15 20.2269L46.7378 20.2192Z" fill="#262424"/>
<path d="M48.1867 20.2257L50.8768 20.2463L50.8691 19.0493L47.6213 19.0312L48.148 20.2257H48.1867Z" fill="#262424"/>
<path d="M46.211 19.0259L44.1199 19.0156L43.7404 19.8772L43.5984 20.2023L44.9305 20.21L46.7377 20.2203L46.5854 19.8772L46.211 19.0259Z" fill="#262424"/>
<path d="M35.5085 19.9665L33.1463 15.0547H31.0862V22.8764H32.408V16.7676L35.129 22.1953H35.8674L39.4714 15.0547H37.8733L35.5085 19.9665Z" fill="#262424"/>
<path d="M39.2898 20.2096L38.5979 20.207V22.8744H39.9197V20.2122L39.2898 20.2096Z" fill="#262424"/>
<path d="M39.2937 15.0598L38.6018 15.0547V18.932H39.9236V15.065L39.2937 15.0598Z" fill="#262424"/>
<path d="M47.6233 19.0312L46.2112 19.0234L46.5855 19.8747L46.7378 20.2178L48.15 20.2256L47.6233 19.0312Z" fill="#262424"/>
<path d="M51.7283 16.2504H53.4089C54.118 16.2504 54.6111 16.3459 54.8882 16.5368C55.1653 16.7277 55.303 17.0785 55.3013 17.5893C55.3203 17.7932 55.294 17.9988 55.2244 18.1914C55.1548 18.3841 55.0435 18.559 54.8986 18.7037C54.6301 18.9342 54.1223 19.0494 53.3754 19.0494H52.6164L55.3349 22.8777H57.0155L54.9657 20.04C56.093 19.6961 56.6567 18.8826 56.6567 17.5996C56.6567 16.7122 56.3985 16.0664 55.8822 15.6623C55.3658 15.2581 54.5104 15.0569 53.316 15.0586H50.4065V22.8829H51.7283V16.2504Z" fill="#262424"/>
<path d="M61.4016 16.2607V22.875H60.0746V16.2607H57.6995V15.0508H63.7689V16.2607H61.3938H61.4016Z" fill="#262424"/>
</g>
<defs>
<clipPath id="clip0">
<rect x="0.453369" width="72.2581" height="56" fill="white"/>
</clipPath>
</defs>
</svg>
