<svg width="95" height="36" viewBox="0 0 95 36" fill="none" xmlns="http://www.w3.org/2000/svg">
<path d="M85.5409 14.3073C85.4931 14.2998 85.4442 14.3024 85.3975 14.3149C85.3507 14.3274 85.3071 14.3495 85.2694 14.3799C85.2317 14.4103 85.2009 14.4482 85.1787 14.4913C85.1566 14.5343 85.1437 14.5815 85.141 14.6298C85.141 14.6298 84.6331 15.8207 83.7355 16.2803C83.3267 16.4898 83.154 16.6003 82.2234 16.5736H77.541C75.0094 16.3933 74.7479 13.7449 74.7479 13.7449C74.7479 13.4224 74.7136 12.9933 74.7136 12.8092V9.80273C74.7821 7.09463 76.8833 6.47252 76.8833 6.47252C77.2093 6.39827 77.5433 6.36585 77.8775 6.37603H82.5611C84.6852 6.44586 85.2451 8.76291 85.2451 8.76291C85.2759 8.84438 85.3295 8.91524 85.3995 8.96703C85.4695 9.01882 85.553 9.04933 85.6399 9.05493H94.1464C94.2334 9.05426 94.3165 9.01914 94.3777 8.95727C94.4389 8.8954 94.473 8.81182 94.4727 8.72483V7.81451C94.3457 1.51973 88.6261 -0.00507817 87.439 0.0241231C87.119 0.0241231 86.6772 0 86.4931 0H73.2662C69.239 0.0177747 66.9549 2.98742 66.1436 5.02389C65.8851 5.65773 65.725 6.32735 65.6688 7.00957C65.6523 7.37776 65.6218 7.96813 65.6218 8.15223V15.1351C65.9875 21.7968 71.7668 22.9141 72.6352 22.9433C72.9272 22.9535 73.416 22.9712 73.5976 22.9712H86.8219C92.8628 22.6487 94.4219 17.3544 94.4473 15.6608C94.4473 15.1694 94.4638 14.979 94.4638 14.7974V14.6476C94.4644 14.6041 94.4565 14.5609 94.4405 14.5204C94.4245 14.4799 94.4006 14.443 94.3703 14.4118C94.34 14.3805 94.3039 14.3556 94.2639 14.3383C94.224 14.321 94.181 14.3118 94.1375 14.3112L85.5409 14.3073Z" fill="#373F5F"/>
<path d="M33.9195 0.595403C34.0122 0.435431 33.9386 0.311007 33.7583 0.311007H0.839578C0.752921 0.310669 0.669661 0.344683 0.608029 0.405601C0.546398 0.466519 0.511416 0.549377 0.510745 0.636031V6.96889C0.510577 7.01218 0.51896 7.05508 0.53541 7.09512C0.551861 7.13516 0.576056 7.17156 0.606607 7.20223C0.637159 7.2329 0.673466 7.25724 0.713445 7.27384C0.753423 7.29045 0.796288 7.29899 0.839578 7.29899H8.91182C8.955 7.29916 8.99773 7.30783 9.03756 7.32451C9.07739 7.34119 9.11355 7.36555 9.14396 7.3962C9.17438 7.42686 9.19846 7.4632 9.21483 7.50316C9.2312 7.54312 9.23955 7.58591 9.23938 7.62909V22.2995C9.23971 22.387 9.2746 22.4708 9.33643 22.5326C9.39827 22.5944 9.48204 22.6293 9.56948 22.6296H22.2758C22.3633 22.6293 22.447 22.5944 22.5089 22.5326C22.5707 22.4708 22.6056 22.387 22.6059 22.2995V7.63417C22.6056 7.59105 22.6138 7.54829 22.63 7.50833C22.6462 7.46838 22.6702 7.43203 22.7005 7.40136C22.7308 7.37069 22.7669 7.34631 22.8067 7.32961C22.8464 7.31292 22.8891 7.30424 22.9322 7.30407H29.5965C29.6954 7.29767 29.7916 7.26872 29.8776 7.21942C29.9637 7.17013 30.0373 7.10181 30.0929 7.01968L33.9195 0.595403Z" fill="#373F5F"/>
<path d="M39.2318 0.316142C39.0246 0.325975 38.8285 0.41292 38.6821 0.559908C38.6821 0.559908 32.8418 6.36334 32.8609 14.4305C32.8672 19.4138 34.905 22.3694 34.905 22.3694C35.0408 22.5235 35.232 22.6175 35.4369 22.631H43.7618C43.9421 22.631 43.9954 22.5167 43.8812 22.3771C43.8812 22.3771 41.1959 18.9554 41.2442 14.3035C41.2835 10.1316 43.7466 7.51108 43.7466 7.51108C43.8114 7.4338 43.8914 7.37062 43.9816 7.32542C44.0718 7.28022 44.1702 7.25396 44.271 7.24826H49.5031C49.5462 7.24826 49.5889 7.25678 49.6287 7.27332C49.6685 7.28986 49.7047 7.3141 49.7351 7.34465C49.7656 7.37521 49.7897 7.41147 49.806 7.45135C49.8224 7.49124 49.8308 7.53397 49.8306 7.5771V22.3047C49.8306 22.348 49.8392 22.391 49.8557 22.431C49.8723 22.4711 49.8967 22.5074 49.9273 22.5381C49.958 22.5688 49.9943 22.5931 50.0344 22.6097C50.0744 22.6262 50.1174 22.6348 50.1607 22.6348H61.9974C62.0409 22.635 62.084 22.6265 62.1243 22.61C62.1646 22.5935 62.2012 22.5693 62.2321 22.5386C62.263 22.508 62.2875 22.4715 62.3043 22.4314C62.3211 22.3913 62.3299 22.3482 62.33 22.3047V0.641164C62.3287 0.554057 62.293 0.47101 62.2307 0.410127C62.1683 0.349244 62.0845 0.315461 61.9974 0.316142H39.2318Z" fill="#373F5F"/>
<path d="M41.2439 14.3073C41.2431 15.184 41.3303 16.0585 41.5042 16.9177H58.5006L60.7338 13.4034H41.2833C41.2591 13.6954 41.2439 13.9976 41.2439 14.3061" fill="#C64D4F"/>
<path d="M41.8419 10.8109C41.597 11.5083 41.4243 12.2289 41.3264 12.9616H61.0157L62.3831 10.8109H41.8419Z" fill="#C64D4F"/>
<path d="M0.472678 26.2545C0.472676 26.1677 0.50697 26.0844 0.56809 26.0228C0.62921 25.9612 0.712199 25.9263 0.79897 25.9256H94.102C94.189 25.9263 94.2723 25.9612 94.3338 26.0227C94.3953 26.0842 94.4302 26.1675 94.4309 26.2545V34.9932C94.431 35.0365 94.4227 35.0794 94.4062 35.1195C94.3897 35.1595 94.3656 35.1959 94.335 35.2266C94.3045 35.2573 94.2681 35.2816 94.2282 35.2982C94.1882 35.3148 94.1453 35.3233 94.102 35.3233H0.79897C0.755798 35.3234 0.713055 35.3148 0.673217 35.2982C0.633379 35.2815 0.597238 35.2571 0.566889 35.2264C0.536539 35.1957 0.512586 35.1593 0.496414 35.1193C0.480242 35.0793 0.472175 35.0364 0.472678 34.9932V26.2545Z" fill="#373F5F"/>
<path d="M9.157 28.8318H7.74391V33.669H6.81074V28.8318H5.39258V28.0548H9.27761L9.157 28.8318Z" fill="white"/>
<path d="M15.7755 31.4129C15.5216 30.5661 15.2956 29.7624 15.1102 28.9816C14.8741 29.8234 14.629 30.6321 14.3992 31.4129H15.7755ZM16.4408 33.669L15.985 32.1925H14.1694L13.7175 33.6703H12.75L14.5884 28.0548H15.665L17.4578 33.669H16.4408Z" fill="white"/>
<path d="M24.1613 33.7503C23.8225 33.7607 23.4859 33.6927 23.1776 33.5518C22.8693 33.4109 22.5977 33.2008 22.3838 32.9378C21.9623 32.4299 21.7389 31.743 21.7389 30.9597C21.7228 30.371 21.8538 29.7876 22.1197 29.2622C22.3111 28.8768 22.6059 28.5522 22.9711 28.3246C23.3363 28.097 23.7576 27.9755 24.188 27.9735C24.7352 27.9735 25.2519 28.1348 25.5845 28.4128L25.1529 29.0197C24.8786 28.8092 24.5413 28.6974 24.1956 28.7023C23.9649 28.7006 23.7384 28.763 23.5411 28.8824C23.3438 29.0019 23.1836 29.1738 23.0783 29.379C22.8828 29.718 22.785 30.189 22.785 30.848C22.785 31.5069 22.8574 31.9094 23.0034 32.2268C23.1075 32.4696 23.2827 32.6753 23.5059 32.8167C23.7291 32.9581 23.9899 33.0286 24.254 33.019C24.6212 33.0302 24.9793 32.9039 25.2582 32.6648L25.6975 33.2552C25.2568 33.5906 24.7149 33.7657 24.1613 33.7516" fill="white"/>
<path d="M34.5148 28.6211L34.2609 28.6871C34.1435 28.7009 34.033 28.7495 33.9435 28.8267C33.8584 28.9325 33.7996 29.0569 33.7721 29.1898L33.6274 29.7726C33.5728 30.01 33.5233 30.2436 33.296 30.4557C33.1819 30.5591 33.0468 30.6366 32.8999 30.6829V30.6994C33.0282 30.7437 33.1471 30.8118 33.2503 30.9C33.4296 31.0759 33.5533 31.3006 33.6058 31.5463L33.8597 32.4464C33.8852 32.5924 33.9497 32.7289 34.0463 32.8413C34.1456 32.9234 34.2625 32.9816 34.3879 33.0114L34.6316 33.0838L34.4602 33.7465L34.153 33.7097C33.8851 33.6856 33.5182 33.6361 33.2643 33.3961C33.0535 33.1815 33.0103 32.9009 32.9646 32.6648L32.778 31.8015C32.7374 31.6351 32.6739 31.3926 32.5164 31.253C32.3608 31.1286 32.1642 31.067 31.9654 31.0803H31.4309V33.6703H30.499V28.0548H31.4309V30.3185H32.0467C32.2525 30.3366 32.4571 30.2722 32.6155 30.1395C32.7602 29.9935 32.7996 29.7713 32.8402 29.6126L32.9951 28.927C33.0308 28.6907 33.135 28.47 33.2947 28.2922C33.4864 28.103 33.6934 28.0789 34.0184 28.0319L34.3498 27.9837L34.5288 28.6185L34.5148 28.6211Z" fill="white"/>
<path d="M41.2832 28.687C40.3158 28.687 39.9577 29.4488 39.9577 30.7895C39.9577 32.2331 40.3259 33.0355 41.3061 33.0355C42.1415 33.0355 42.5757 32.4184 42.5757 30.9089C42.5757 29.544 42.2926 28.687 41.2896 28.687H41.2832ZM41.3124 33.7503C39.714 33.7503 38.9255 32.5149 38.9255 30.8555C38.9255 29.012 39.8663 27.9722 41.2718 27.9722C42.8537 27.9722 43.6142 29.2279 43.6142 30.8606C43.6142 32.614 42.7687 33.7503 41.3111 33.7503" fill="white"/>
<path d="M53.1264 33.669L52.8649 30.189C52.8433 29.831 52.8255 29.3841 52.8255 29.2165C52.7861 29.4006 52.7125 29.7561 52.6071 30.1141L51.5826 33.669H50.789L49.8559 30.2677C49.7505 29.8957 49.6426 29.3917 49.6096 29.2063C49.6096 29.3929 49.5791 29.9313 49.5575 30.2753L49.3036 33.669H48.3882L48.896 28.0548H50.1377L50.9973 31.2288C51.0828 31.5441 51.1519 31.8636 51.2042 32.1861C51.2321 32.016 51.3045 31.6326 51.4112 31.2453L52.2999 28.0497H53.5416L54.0393 33.6639L53.1264 33.669Z" fill="white"/>
<path d="M60.8023 32.9022C61.2251 32.9022 61.4701 32.7752 61.5984 32.6483C61.6827 32.5593 61.7479 32.4541 61.79 32.339C61.8322 32.224 61.8503 32.1015 61.8434 31.9792C61.8517 31.8569 61.8342 31.7342 61.7919 31.6192C61.7497 31.5041 61.6838 31.3992 61.5984 31.3114C61.3762 31.1057 61.0562 31.0663 60.8023 31.0663H60.0088V32.8971L60.8023 32.9022ZM62.4528 28.056L62.3259 28.8178H60.005V30.3045H60.7807C61.2048 30.3045 61.9234 30.3045 62.4236 30.7921C62.8185 31.1819 62.8769 31.7075 62.8769 32.0261C62.8879 32.2289 62.8586 32.4319 62.7906 32.6232C62.7226 32.8146 62.6173 32.9905 62.4808 33.1409C62.0148 33.6246 61.2848 33.6627 60.7427 33.6627H59.0706V28.0548L62.4528 28.056Z" fill="white"/>
<path d="M70.1875 31.4129C69.9335 30.5661 69.7075 29.7624 69.5235 28.9816C69.286 29.8234 69.0448 30.6321 68.8061 31.4129H70.1875ZM70.8489 33.669L70.3944 32.1912H68.5776L68.1231 33.669H67.1594L69.0016 28.0548H70.0808L71.8735 33.669H70.8489Z" fill="white"/>
<path d="M79.2486 33.669V31.0701H77.3341V33.669H76.4009V28.0548H77.3341V30.3096H79.2486V28.0548H80.1793V33.669H79.2486Z" fill="white"/>
<path d="M89.4057 28.6211L89.1442 28.6871C89.0279 28.7009 88.9186 28.7496 88.8306 28.8267C88.7428 28.9308 88.6837 29.056 88.6592 29.1898L88.5093 29.7726C88.4548 30.01 88.4052 30.2436 88.1754 30.4557C88.0633 30.5605 87.9287 30.6382 87.7819 30.6829V30.6994C87.9112 30.7433 88.0309 30.8114 88.1348 30.9C88.3152 31.0747 88.4383 31.3001 88.4878 31.5463L88.7417 32.4464C88.7664 32.593 88.8314 32.7297 88.9296 32.8413C89.0283 32.9244 89.1454 32.9827 89.2711 33.0114L89.5136 33.0838L89.3422 33.7465L89.035 33.7097C88.7671 33.6856 88.3938 33.6361 88.1462 33.3961C87.9355 33.1815 87.8923 32.9009 87.8441 32.6648L87.6587 31.8015C87.6181 31.6351 87.5546 31.3926 87.4048 31.253C87.2487 31.1285 87.0517 31.0669 86.8525 31.0803H86.3167V33.6703H85.3835V28.0548H86.3167V30.3185H86.9312C87.0333 30.3276 87.1363 30.3165 87.2341 30.2858C87.3319 30.2551 87.4227 30.2054 87.5013 30.1395C87.6231 29.9877 87.7012 29.8055 87.7273 29.6126L87.8847 28.927C87.9175 28.6898 88.0221 28.4683 88.1843 28.2922C88.371 28.103 88.5805 28.0789 88.9029 28.0319L89.2394 27.9837L89.4184 28.6185L89.4057 28.6211Z" fill="white"/>
</svg>
