<svg width="76" height="24" viewBox="0 0 76 24" fill="none" xmlns="http://www.w3.org/2000/svg">
<g clip-path="url(#clip0)">
<path d="M35.27 6.18407C33.0398 6.18407 31.0032 6.14903 28.9634 6.19144C24.6663 6.2804 21.0148 9.55956 20.4298 13.8067C19.8453 18.0612 22.4687 22.2236 26.6199 23.4252C29.4461 24.2434 32.3434 23.7885 35.221 23.7963V18.265C33.6551 18.265 32.2117 18.265 30.7706 18.265C30.2334 18.265 29.6938 18.2866 29.1589 18.2484C27.2801 18.1147 25.9624 16.8121 25.9253 15.0785C25.8867 13.2849 27.2397 11.8288 29.1731 11.755C31.1877 11.6781 33.2073 11.738 35.2705 11.738L35.27 6.18407Z" fill="#FCFCFC"/>
<path d="M63.5369 1.2723e-05V6.15362C64.8499 6.15362 66.0144 6.14256 67.1788 6.15362C71.9113 6.20709 75.6982 9.80937 75.984 14.5207C76.2593 19.0449 73.0124 23.0376 68.4597 23.7755C63.9259 24.5103 59.605 21.5851 58.5241 17.0282C58.4011 16.504 58.3386 15.9673 58.3378 15.4287C58.3236 10.7893 58.3456 -0.00183105 58.3456 -0.00183105L63.5369 1.2723e-05ZM63.8456 11.6965C63.8456 12.9217 63.8163 13.9339 63.8516 14.9438C63.919 16.8512 65.2739 18.253 67.048 18.2995C68.7598 18.3456 70.2596 16.9803 70.3853 15.261C70.5229 13.3881 69.2126 11.8624 67.2403 11.7117C66.1882 11.6296 65.1248 11.6965 63.8456 11.6965Z" fill="#0497AA"/>
<path d="M50.1043 18.1903C50.1043 18.1903 50.1502 16.1492 50.1043 15.1291C50.0166 13.2291 48.8196 11.879 47.0955 11.7269C45.4718 11.5835 43.9238 12.7917 43.6031 14.452C43.2824 16.1123 44.3111 17.6325 46.1375 18.205C46.3394 18.2682 46.5426 18.3267 46.8363 18.4147V23.7617C46.8363 23.7617 45.0231 23.7304 44.1918 23.4768C39.9057 22.1696 37.3195 17.8012 38.1407 13.3402C38.9519 8.94695 42.9246 5.9001 47.4956 6.16376C51.9 6.41959 55.4598 10.0749 55.6878 14.6451C55.7465 15.8238 55.719 17.0107 55.6878 18.1944L50.1043 18.1903Z" fill="#0497AA"/>
<path d="M35.27 6.18407V11.7361C33.2054 11.7361 31.1867 11.6762 29.1726 11.7532C27.2392 11.8269 25.8863 13.2831 25.9248 15.0766C25.962 16.8102 27.2796 18.1128 29.1584 18.2465C29.6933 18.2848 30.2329 18.2626 30.7701 18.2631C32.2131 18.2631 33.6564 18.2631 35.2205 18.2631V23.953C32.3452 23.9456 29.4474 24.2457 26.6212 23.4252C22.4701 22.2235 19.8467 18.0612 20.4312 13.8067C21.0148 9.55956 24.6663 6.2804 28.9648 6.19144C31.0009 6.14903 33.0398 6.18407 35.27 6.18407Z" fill="#0497AA"/>
<path d="M50.1042 18.1903L55.6878 18.1921V23.7594H50.1042V18.1903Z" fill="#EB733C"/>
<path d="M17.6976 6.18406H12.0829C12.0829 9.19541 12.1246 12.1763 12.0668 15.0803C12.0329 16.8065 10.8024 18.0898 9.21772 18.2539C8.97494 18.277 8.73052 18.2768 8.48777 18.2534C6.90309 18.0893 5.6726 16.8061 5.63819 15.0798C5.58084 12.1791 5.62259 9.19633 5.62259 6.18359H0.00647219C0.00647219 8.38368 -0.0118796 10.6548 0.0138129 12.8419C0.027118 14.0243 0.00647218 15.2227 0.189991 16.3838C0.823129 20.3894 3.83971 23.2611 7.8372 23.7765C8.17382 23.8196 8.51271 23.8426 8.85206 23.8451C9.1914 23.8426 9.53029 23.8196 9.86691 23.7765C13.8639 23.2611 16.881 20.3894 17.5141 16.3838C17.6976 15.2227 17.6765 14.0243 17.6903 12.8419C17.716 10.6538 17.6976 8.38414 17.6976 6.18406Z" fill="#0497AA"/>
</g>
<defs>
<clipPath id="clip0">
<rect width="76" height="24" fill="white"/>
</clipPath>
</defs>
</svg>
