<svg width="38" height="40" viewBox="0 0 38 40" fill="none" xmlns="http://www.w3.org/2000/svg">
<path d="M24.6248 13.5349L30.3999 0H24.986L19.2109 13.5349L24.986 27.0703H30.3999L24.6248 13.5349Z" fill="#404142"/>
<path d="M7.29804 0L16.141 20.7254L13.0731 27.0703L1.52295 0H7.29804Z" fill="#404142"/>
<path d="M1.77555 39.2262L2.96305 35.8438H3.56136L2.02285 39.9464H1.53851L0 35.8438H0.595459L1.77555 39.2262Z" fill="#404142"/>
<path d="M6.96468 38.8701H5.2256L4.83528 39.9425H4.27344L5.8581 35.8398H6.33674L7.92027 39.9425H7.35843L6.96468 38.8701ZM5.39085 38.428H6.80228L6.09685 36.5105L5.39085 38.428Z" fill="#404142"/>
<path d="M10.4748 38.1148C10.0052 37.9815 9.66336 37.8176 9.4491 37.6231C9.34649 37.5338 9.26462 37.4232 9.20921 37.299C9.1538 37.1748 9.12618 37.04 9.1283 36.904C9.12621 36.749 9.1606 36.5958 9.22871 36.4566C9.29681 36.3174 9.39671 36.1962 9.52033 36.1028C9.78207 35.8912 10.1219 35.7854 10.5397 35.7854C10.803 35.7808 11.0639 35.8367 11.3021 35.949C11.5138 36.0479 11.6936 36.204 11.8213 36.3997C11.9419 36.5864 12.0057 36.8042 12.0047 37.0265H11.4531C11.4531 36.778 11.3734 36.5826 11.2138 36.4401C11.0543 36.2977 10.8302 36.2268 10.5414 36.2276C10.2713 36.2276 10.0609 36.2865 9.91009 36.4042C9.83547 36.4614 9.77579 36.5358 9.7361 36.621C9.69642 36.7063 9.67791 36.7998 9.68216 36.8937C9.68184 36.9768 9.70119 37.0588 9.73862 37.133C9.77606 37.2071 9.83052 37.2714 9.89755 37.3205C10.0408 37.4345 10.2848 37.5403 10.6298 37.6379C10.912 37.7087 11.1841 37.8152 11.4395 37.9547C11.6148 38.0522 11.7637 38.1911 11.8731 38.3593C11.9697 38.5239 12.0184 38.7121 12.0138 38.9029C12.018 39.0578 11.9844 39.2114 11.9159 39.3504C11.8474 39.4893 11.746 39.6096 11.6207 39.7006C11.357 39.8993 11.0064 39.9986 10.5688 39.9986C10.2945 40.0006 10.0229 39.9455 9.77105 39.8368C9.54405 39.7438 9.34695 39.5903 9.20123 39.3929C9.06764 39.2068 8.99715 38.9827 9.00009 38.7536H9.55053C9.54614 38.8667 9.56913 38.9791 9.61755 39.0814C9.66596 39.1837 9.73837 39.2728 9.8286 39.3411C10.014 39.4847 10.2609 39.5565 10.5694 39.5565C10.8585 39.5565 11.0797 39.4982 11.2332 39.3815C11.3077 39.3271 11.3677 39.2553 11.408 39.1724C11.4484 39.0895 11.4678 38.9979 11.4645 38.9057C11.469 38.8165 11.4518 38.7276 11.4145 38.6464C11.3772 38.5653 11.3209 38.4944 11.2503 38.4396C11.1075 38.3302 10.849 38.222 10.4748 38.1148Z" fill="#404142"/>
<path d="M14.0705 39.9425H13.5234V35.8398H14.0705V39.9425Z" fill="#404142"/>
<path d="M16.3936 39.5009H18.3606V39.9425H15.8438V35.8398H16.3936V39.5009Z" fill="#404142"/>
<path d="M23.0235 38.0365L22.5163 38.5573V39.9425H21.9688V35.8398H22.5163V37.8678L24.3608 35.8398H25.0218L23.3887 37.6507L25.15 39.9425H24.4947L23.0235 38.0365Z" fill="#404142"/>
<path d="M26.9923 39.9425H26.4453V35.8398H26.9923V39.9425Z" fill="#404142"/>
<path d="M29.9843 38.1148C29.5148 37.9815 29.1729 37.8176 28.9586 37.6231C28.8559 37.5339 28.774 37.4233 28.7186 37.2991C28.6632 37.1748 28.6356 37.04 28.6378 36.904C28.6356 36.749 28.6699 36.5957 28.7381 36.4565C28.8062 36.3173 28.9061 36.1961 29.0299 36.1028C29.2908 35.8912 29.6305 35.7854 30.0487 35.7854C30.312 35.7808 30.5729 35.8367 30.8111 35.949C31.0229 36.0477 31.2027 36.2038 31.3302 36.3997C31.4512 36.5862 31.515 36.8041 31.5137 37.0265H30.9638C30.9638 36.778 30.884 36.5826 30.7245 36.4401C30.565 36.2977 30.3397 36.2265 30.0487 36.2265C29.779 36.2265 29.5685 36.2853 29.4173 36.4031C29.3428 36.4604 29.2832 36.5348 29.2436 36.62C29.2039 36.7052 29.1853 36.7987 29.1894 36.8926C29.1895 36.9753 29.209 37.0568 29.2464 37.1306C29.2838 37.2043 29.3381 37.2682 29.4048 37.3171C29.5484 37.4311 29.7927 37.5368 30.1376 37.6345C30.4197 37.7052 30.6916 37.8117 30.9467 37.9513C31.1222 38.0486 31.2711 38.1876 31.3804 38.3559C31.4771 38.5204 31.5259 38.7087 31.5211 38.8995C31.5252 39.0544 31.4916 39.2079 31.4231 39.3469C31.3546 39.4859 31.2533 39.6061 31.1279 39.6972C30.8658 39.8967 30.5152 39.9966 30.076 39.9969C29.8018 39.9989 29.5301 39.9438 29.2783 39.8351C29.0514 39.742 28.8543 39.5884 28.7085 39.3912C28.5751 39.205 28.5048 38.981 28.5079 38.7519H29.0578C29.0535 38.865 29.0765 38.9774 29.1249 39.0797C29.1733 39.1819 29.2457 39.271 29.3359 39.3394C29.5212 39.483 29.7682 39.5548 30.0766 39.5548C30.3653 39.5548 30.5868 39.4964 30.741 39.3798C30.8149 39.3251 30.8743 39.2531 30.914 39.1702C30.9538 39.0873 30.9726 38.9959 30.969 38.904C30.9734 38.8149 30.9564 38.726 30.9192 38.6448C30.882 38.5637 30.8257 38.4927 30.7553 38.4379C30.6159 38.3297 30.3589 38.222 29.9843 38.1148Z" fill="#404142"/>
<path d="M33.5867 39.9425H33.0391V35.8398H33.5867V39.9425Z" fill="#404142"/>
<path d="M35.902 39.5009H37.8684V39.9425H35.3516V35.8398H35.902V39.5009Z" fill="#404142"/>
</svg>
