<svg width="175" height="35" viewBox="0 0 175 35" fill="none" xmlns="http://www.w3.org/2000/svg">
<g clip-path="url(#clip0)">
<path d="M0.0424418 31.1267C0.0301187 30.956 0.00727587 30.785 0.0069753 30.6143C0.00487136 27.5571 -0.00895455 24.4997 0.00937981 21.4428C0.0301187 17.9423 0.450907 14.5031 1.78932 11.2347C4.10035 5.59278 8.3416 2.21041 14.1894 0.74554C16.2503 0.227997 18.3513 0.00258562 20.4723 0.00258562C71.7422 -0.00102095 123.012 -0.00202278 174.281 -0.000419857H174.943C174.962 0.095455 174.984 0.153761 174.984 0.212068C174.977 5.30696 175.052 10.404 174.931 15.4964C174.838 19.3927 173.921 23.1243 171.862 26.5001C170.75 28.3238 169.362 29.9047 167.605 31.1421C167.386 31.137 167.167 31.1273 166.947 31.1273C111.312 31.1267 55.6773 31.1265 0.0424418 31.1267ZM35.3764 17.0328C36.178 19.0931 36.9234 21.0515 37.7018 22.9966C38.333 24.5766 39.8241 25.5236 41.5066 25.4665C43.1318 25.4115 44.4711 24.3692 45.0061 22.736C45.1669 22.2455 45.3127 21.7499 45.4654 21.2567C46.4707 18.0152 47.4758 14.7738 48.4809 11.5325C48.7586 10.6357 48.5783 9.8795 47.9781 9.39441C46.9613 8.57422 45.5171 9.02834 45.1164 10.3087C44.1735 13.3236 43.2362 16.3403 42.3046 19.3588C42.0867 20.0609 41.8784 20.7665 41.6434 21.4626C41.5893 21.6222 41.4387 21.749 41.3326 21.8909C41.204 21.7523 41.0741 21.6147 40.9473 21.4743C40.9299 21.4483 40.9172 21.4194 40.9097 21.389C39.9648 18.9545 39.0285 16.5162 38.0694 14.0872C37.8407 13.508 37.5996 12.915 37.2531 12.4041C36.3264 11.0378 34.4819 11.0327 33.5261 12.374C33.2661 12.7392 33.0608 13.1555 32.8949 13.5735C31.8679 16.1778 30.8628 18.7904 29.8376 21.3953C29.7642 21.5822 29.5902 21.7298 29.4631 21.8957C29.332 21.7211 29.1986 21.548 29.0723 21.3703C29.0471 21.3346 29.0477 21.2802 29.0339 21.2357C27.905 17.5907 26.7749 13.946 25.6438 10.3018C25.327 9.28561 24.3556 8.76897 23.3896 9.06952C22.4236 9.37007 21.9168 10.3481 22.2291 11.3609C23.4079 15.1875 24.5944 19.0114 25.7884 22.8328C26.2233 24.2153 27.1938 25.083 28.6098 25.3739C30.1126 25.6832 31.4501 25.2742 32.3843 24.0515C32.8952 23.3843 33.2087 22.553 33.5336 21.7638C34.1642 20.2319 34.7392 18.6786 35.3764 17.0328ZM64.2106 23.207C64.2374 23.4703 64.247 23.6999 64.2863 23.9244C64.4312 24.7551 65.0405 25.3271 65.8306 25.3872C66.7407 25.4563 67.3563 25.0436 67.6238 24.1447C67.7167 23.8333 67.781 23.4991 67.7792 23.1757C67.7675 20.8258 67.8429 18.4683 67.6818 16.1276C67.4885 13.3139 66.0939 11.1752 63.4868 9.96275C61.2699 8.93067 58.9237 8.7831 56.5438 9.22009C51.5957 10.128 48.6883 14.7986 50.0808 19.5689C51.7781 25.3824 58.7845 26.9082 62.9978 24.1261C63.4087 23.8547 63.7856 23.5325 64.2109 23.207H64.2106ZM107.504 25.4118C108.454 25.4368 109.732 25.2201 110.947 24.7206C113.863 23.5184 115.662 21.3818 116.027 18.2236C116.374 15.222 115.383 12.6869 112.934 10.8334C109.794 8.4558 104.718 8.43506 101.491 10.697C97.2359 13.6778 97.1421 19.9701 100.737 23.1418C102.562 24.7542 104.735 25.4124 107.505 25.4118H107.504ZM91.0764 12.3822L91.0819 12.4723C91.5823 12.4979 92.0836 12.555 92.5847 12.5405C93.2204 12.5222 93.8726 12.5213 94.4845 12.3743C95.1031 12.2259 95.4088 11.7035 95.449 11.067C95.4899 10.4256 95.2245 9.92698 94.6429 9.65078C94.3084 9.49179 93.9375 9.32559 93.5786 9.31567C91.3734 9.25556 89.1652 9.1696 86.9626 9.23993C86.1343 9.26638 85.2738 9.59097 84.5064 9.94802C82.7845 10.7493 82.08 12.2184 82.1118 14.0706C82.1437 15.9515 83.064 17.2264 84.7869 17.9477C86.3143 18.5861 87.9458 18.6798 89.5571 18.9068C90.5405 19.0453 91.5351 19.2425 92.4656 19.5776C93.3631 19.9007 93.383 20.9337 92.5615 21.4437C92.28 21.6129 91.9727 21.7347 91.6517 21.8043C90.1041 22.1521 88.5364 22.0502 86.9723 21.9603C85.9095 21.9002 84.8491 21.7593 83.7863 21.7454C82.5356 21.7292 81.8026 22.6492 82.1124 23.7717C82.3343 24.5736 82.9718 24.8877 83.7265 25.0064C86.1054 25.3806 88.5015 25.3905 90.8964 25.2691C92.1407 25.2059 93.3448 24.8994 94.4262 24.24C95.929 23.3227 96.5996 21.9513 96.5524 20.2144C96.5055 18.489 95.5404 17.416 94.0394 16.7362C93.8828 16.6653 93.722 16.6028 93.5615 16.5405C91.9829 15.9313 90.3154 15.7492 88.6596 15.4991C87.8598 15.3789 87.0666 15.1806 86.2885 14.9582C85.7712 14.8109 85.5112 14.4003 85.5091 13.8509C85.507 13.3307 85.7496 13.001 86.3294 12.7762C86.5611 12.686 86.8078 12.5958 87.0507 12.5829C88.3924 12.5045 89.7347 12.4477 91.0764 12.3822ZM143.935 9.09026L143.933 9.12783C143.839 9.12302 143.745 9.1155 143.652 9.1137C142.137 9.08695 140.654 9.21979 139.243 9.84944C135.994 11.2978 136.112 15.8078 138.186 17.2168C138.884 17.6913 139.689 18.107 140.503 18.2936C141.962 18.6278 143.47 18.7424 144.948 19.0005C145.682 19.1289 146.43 19.2924 147.11 19.5839C147.983 19.9584 148.001 20.9231 147.187 21.4311C146.893 21.6094 146.572 21.7373 146.237 21.8094C144.674 22.1542 143.09 22.0499 141.51 21.9537C140.479 21.8906 139.45 21.7632 138.418 21.7433C137.25 21.7229 136.568 22.4628 136.677 23.5226C136.756 24.304 137.347 24.851 138.321 25.0037C140.716 25.3797 143.13 25.4262 145.537 25.2477C146.547 25.1729 147.586 24.897 148.517 24.4942C150.334 23.7089 151.217 22.2344 151.166 20.2361C151.119 18.3504 150.008 17.2802 148.371 16.6184C148.212 16.5538 148.054 16.4735 147.888 16.4381C146.342 16.1225 144.792 15.8216 143.248 15.5031C142.468 15.3426 141.679 15.2025 140.924 14.9621C140.307 14.7658 140.13 14.3889 140.142 13.7734C140.153 13.2099 140.498 12.9153 140.976 12.7678C141.391 12.6397 141.827 12.5084 142.255 12.5042C143.866 12.4877 145.478 12.5273 147.089 12.5342C147.651 12.5369 148.22 12.5574 148.772 12.4807C149.477 12.3831 149.971 11.8412 150.042 11.216C150.133 10.4244 149.837 9.87709 149.098 9.56633C148.785 9.43468 148.444 9.32288 148.109 9.30064C146.719 9.21288 145.326 9.15848 143.935 9.09026ZM118.408 19.4231H118.411C118.411 20.8029 118.39 22.183 118.418 23.5622C118.44 24.6409 119.129 25.3851 120.081 25.4401C121.034 25.4951 121.768 24.8227 121.918 23.7432C121.946 23.5258 121.959 23.3068 121.958 23.0877C121.969 20.7362 121.95 18.3841 121.995 16.0335C122.031 14.2002 123.133 12.9078 124.934 12.6025C125.751 12.47 126.58 12.4349 127.406 12.4982C129.72 12.6665 130.948 14.0277 130.952 16.3374C130.956 18.5482 130.949 20.759 130.957 22.9699C130.953 23.2987 130.982 23.6272 131.042 23.9506C131.31 25.2949 132.741 25.8981 133.777 25.1032C134.329 24.6794 134.526 24.0717 134.529 23.4015C134.535 20.8143 134.578 18.2263 134.517 15.6407C134.462 13.2706 133.395 11.403 131.298 10.2609C128.646 8.81826 125.831 8.76567 123.009 9.67452C120.016 10.6384 118.41 12.9457 118.41 16.0837L118.408 19.4231ZM73.9173 9.78422C73.9173 9.29794 73.9341 8.87567 73.914 8.4552C73.859 7.29779 73.1734 6.56175 72.1773 6.57046C71.2245 6.57858 70.5134 7.29328 70.447 8.37555C70.4019 9.11009 70.4229 9.84824 70.4235 10.5852C70.4266 13.9718 70.3935 17.3589 70.4536 20.7437C70.4837 22.4661 71.2029 23.8995 72.8413 24.6568C74.8088 25.5669 76.8526 25.5257 78.8919 24.8973C79.4152 24.7356 79.8201 24.3818 79.9499 23.7979C80.215 22.6083 79.3788 21.759 78.0434 21.8578C77.3566 21.9086 76.6677 22.0015 75.9819 21.9859C74.6879 21.9558 74.1076 21.3965 73.9492 20.118C73.9257 19.8998 73.9157 19.6804 73.9191 19.461C73.9171 17.4695 73.9171 15.4783 73.9191 13.4873V13.022C75.1694 13.022 76.3449 13.0356 77.5201 13.0142C77.9226 13.007 78.3374 12.9592 78.7224 12.8456C79.3761 12.6518 79.7082 12.1589 79.7377 11.4742C79.7663 10.813 79.4564 10.2606 78.8255 10.0316C78.4136 9.88556 77.9813 9.80534 77.5445 9.79384C76.3561 9.76379 75.1664 9.78422 73.9173 9.78422Z" fill="#01A0AF"/>
<path d="M35.3766 17.0332C34.7391 18.679 34.1641 20.2323 33.5338 21.7629C33.2089 22.5522 32.8942 23.3835 32.3845 24.0507C31.4503 25.2745 30.1131 25.6836 28.61 25.3731C27.1941 25.0822 26.2235 24.2145 25.7886 22.832C24.5864 19.0138 23.4003 15.1901 22.2306 11.3607C21.9189 10.3478 22.4286 9.36986 23.391 9.06931C24.3534 8.76876 25.3273 9.2854 25.6452 10.3016C26.7804 13.9442 27.9102 17.5888 29.0347 21.2355C29.0485 21.2803 29.0479 21.3344 29.0732 21.3701C29.2 21.5478 29.3335 21.7209 29.4639 21.8955C29.591 21.7296 29.7645 21.582 29.8384 21.3951C30.8636 18.7902 31.8687 16.1776 32.8957 13.5733C33.0607 13.155 33.266 12.739 33.5269 12.3738C34.4821 11.0328 36.3267 11.0379 37.2539 12.4039C37.6004 12.9148 37.8415 13.5081 38.0702 14.087C39.0293 16.516 39.9656 18.954 40.9105 21.3888C40.918 21.4192 40.9307 21.4481 40.9481 21.4741C41.075 21.6145 41.2048 21.7521 41.3334 21.8907C41.4395 21.7488 41.5901 21.622 41.6442 21.4624C41.8802 20.7663 42.0885 20.0606 42.3055 19.3586C43.242 16.3417 44.1792 13.325 45.1169 10.3085C45.5176 9.02813 46.9618 8.574 47.9786 9.3942C48.5797 9.87808 48.7601 10.6355 48.4814 11.5323C47.4772 14.774 46.4722 18.0154 45.4665 21.2565C45.3138 21.7497 45.168 22.2453 45.0072 22.7358C44.4722 24.369 43.1329 25.4107 41.5078 25.4663C39.8246 25.5234 38.3353 24.5764 37.7029 22.9964C36.9239 21.0519 36.1785 19.0935 35.3766 17.0332Z" fill="#FCFDFD"/>
<path d="M64.211 23.2074C63.7857 23.5317 63.4088 23.8551 62.9979 24.1265C58.7846 26.9086 51.7782 25.3828 50.0809 19.5693C48.6884 14.799 51.5957 10.1285 56.5451 9.2205C58.9238 8.78351 61.27 8.93108 63.4881 9.96316C66.094 11.1756 67.4886 13.3143 67.6822 16.128C67.8433 18.4687 67.7679 20.8262 67.7796 23.1761C67.7814 23.4995 67.7171 23.8337 67.6242 24.1451C67.3567 25.044 66.7411 25.4567 65.831 25.3876C65.0409 25.3275 64.4316 24.7564 64.2867 23.9248C64.2474 23.7003 64.2377 23.4707 64.211 23.2074ZM58.6752 22.1356C58.7849 22.1356 58.8946 22.1377 59.0043 22.1356C61.6448 22.0713 64.1316 20.5268 64.3712 17.5974C64.5443 15.4812 63.6712 13.5589 61.4726 12.761C59.9905 12.2233 58.4669 12.1247 56.9458 12.5187C55.1376 12.9873 53.8289 14.0698 53.3661 15.9353C52.9179 17.7428 53.2621 19.4013 54.6612 20.7195C55.7796 21.7717 57.1673 22.1447 58.6752 22.1356Z" fill="#FCFDFD"/>
<path d="M107.505 25.4122C104.735 25.4122 102.563 24.7546 100.737 23.1434C97.1423 19.9705 97.236 13.6782 101.492 10.6959C104.72 8.43396 109.795 8.4547 112.936 10.8323C115.384 12.6858 116.376 15.2203 116.028 18.2225C115.663 21.3807 113.864 23.5167 110.949 24.7195C109.733 25.2205 108.455 25.4372 107.505 25.4122ZM107.137 22.1804C107.738 22.087 108.356 22.0518 108.938 21.8895C110.875 21.3503 112.209 20.1544 112.563 18.123C112.909 16.134 112.29 14.4449 110.579 13.2962C109.022 12.2512 107.273 12.0874 105.481 12.5148C101.325 13.5066 100.672 17.9472 102.716 20.3035C103.875 21.6427 105.415 22.1077 107.137 22.1804Z" fill="#FCFDFD"/>
<path d="M91.0764 12.3826C89.7347 12.4475 88.3924 12.5043 87.0516 12.5843C86.8075 12.5987 86.5607 12.6874 86.3302 12.7775C85.751 13.0023 85.5079 13.332 85.51 13.8523C85.5121 14.4017 85.7721 14.8122 86.2893 14.9595C87.0684 15.181 87.8607 15.3788 88.6605 15.5005C90.3169 15.7505 91.9838 15.9327 93.5624 16.5419C93.7229 16.6041 93.8837 16.6666 94.0403 16.7375C95.5413 17.4174 96.5049 18.4903 96.5533 20.2158C96.6004 21.9526 95.9314 23.324 94.4271 24.2413C93.345 24.9007 92.1428 25.2073 90.8973 25.2704C88.5024 25.3906 86.1063 25.3819 83.7273 25.0077C82.9726 24.889 82.3351 24.5749 82.1133 23.7731C81.8028 22.6505 82.5365 21.7293 83.7871 21.7468C84.8499 21.7606 85.9103 21.9004 86.9731 21.9617C88.536 22.0518 90.105 22.1534 91.6526 21.8057C91.9735 21.736 92.2809 21.6142 92.5624 21.445C93.3838 20.9341 93.364 19.902 92.4665 19.5789C91.5348 19.2438 90.5414 19.0466 89.558 18.9081C87.9466 18.6812 86.3152 18.5874 84.7877 17.949C83.0637 17.2277 82.1428 15.9525 82.1127 14.072C82.0809 12.2197 82.7854 10.7506 84.5073 9.94936C85.2746 9.59231 86.1352 9.26772 86.9635 9.24127C89.166 9.17094 91.3743 9.256 93.5795 9.31701C93.9384 9.32693 94.3093 9.49313 94.6438 9.65212C95.2254 9.92832 95.4908 10.4269 95.4499 11.0683C95.4096 11.7049 95.1039 12.2272 94.4854 12.3757C93.8734 12.5227 93.2212 12.5236 92.5855 12.5419C92.086 12.5563 91.5846 12.4992 91.0827 12.4737L91.0764 12.3826Z" fill="#FBFDFD"/>
<path d="M143.935 9.0907C145.326 9.15892 146.719 9.21332 148.109 9.30559C148.444 9.32783 148.786 9.43963 149.099 9.57127C149.837 9.88204 150.134 10.4293 150.043 11.221C149.971 11.8461 149.477 12.388 148.773 12.4857C148.22 12.5623 147.651 12.5419 147.089 12.5392C145.478 12.5314 143.867 12.4917 142.256 12.5091C141.827 12.5133 141.391 12.6447 140.976 12.7727C140.499 12.9203 140.153 13.2148 140.143 13.7784C140.131 14.3939 140.308 14.7702 140.924 14.967C141.68 15.2075 142.469 15.3469 143.248 15.508C144.793 15.8266 146.342 16.1274 147.888 16.443C148.055 16.477 148.212 16.5572 148.371 16.6233C150.007 17.2845 151.118 18.3554 151.167 20.241C151.217 22.2394 150.334 23.7139 148.518 24.4992C147.586 24.9019 146.547 25.1778 145.537 25.2527C143.133 25.4312 140.716 25.3846 138.322 25.0086C137.348 24.856 136.757 24.3096 136.677 23.5275C136.569 22.4678 137.251 21.7279 138.418 21.7483C139.45 21.7666 140.479 21.8941 141.511 21.9587C143.09 22.0558 144.673 22.1591 146.237 21.8144C146.573 21.7408 146.893 21.6113 147.186 21.4315C148 20.9236 147.982 19.9588 147.109 19.5843C146.429 19.2928 145.681 19.1293 144.947 19.001C143.469 18.7428 141.961 18.6283 140.502 18.2941C139.687 18.1074 138.883 17.693 138.185 17.2172C136.111 15.8083 135.994 11.2982 139.242 9.84988C140.654 9.21873 142.136 9.08739 143.651 9.11414C143.744 9.11594 143.838 9.12346 143.932 9.12827L143.935 9.0907Z" fill="#FCFDFD"/>
<path d="M118.409 19.4235V16.0839C118.409 12.9458 120.014 10.6385 123.007 9.67466C125.829 8.76581 128.644 8.8172 131.297 10.261C133.394 11.4031 134.46 13.271 134.516 15.6408C134.576 18.2256 134.533 20.8145 134.527 23.4016C134.525 24.0718 134.329 24.6795 133.776 25.1033C132.74 25.8982 131.311 25.295 131.04 23.9507C130.98 23.6273 130.952 23.2989 130.955 22.97C130.948 20.7592 130.955 18.5483 130.951 16.3375C130.947 14.0278 129.718 12.6666 127.404 12.4983C126.579 12.4351 125.749 12.4701 124.932 12.6026C123.132 12.9065 122.029 14.2009 121.993 16.0337C121.948 18.3842 121.967 20.7363 121.956 23.0878C121.957 23.3069 121.944 23.5259 121.916 23.7433C121.766 24.8229 121.034 25.4949 120.079 25.4402C119.125 25.3855 118.438 24.6411 118.416 23.5624C118.389 22.1832 118.41 20.8031 118.41 19.4232L118.409 19.4235Z" fill="#FCFDFD"/>
<path d="M73.9175 9.78464C75.1666 9.78464 76.3562 9.7642 77.5447 9.79546C77.9815 9.80696 78.4138 9.88718 78.8257 10.0332C79.4569 10.261 79.7664 10.8125 79.7379 11.4758C79.7078 12.1605 79.3772 12.6534 78.7226 12.8472C78.3382 12.9608 77.9234 13.0086 77.5203 13.0158C76.3451 13.0372 75.1696 13.0236 73.9193 13.0236V13.488C73.9193 15.4792 73.9193 17.4704 73.9193 19.4617C73.9159 19.6811 73.9259 19.9005 73.9493 20.1187C74.1077 21.3972 74.6881 21.9577 75.982 21.9866C76.6679 22.0022 77.3568 21.9093 78.0436 21.8585C79.3802 21.7597 80.2152 22.6099 79.9501 23.7986C79.8202 24.3826 79.4154 24.7363 78.8921 24.898C76.8528 25.5291 74.8089 25.5691 72.8415 24.6576C71.2031 23.9002 70.4847 22.4669 70.4538 20.7444C70.3937 17.359 70.4258 13.9719 70.4237 10.5859C70.4237 9.84926 70.4021 9.11081 70.4472 8.37627C70.5136 7.2943 71.2247 6.5793 72.1775 6.57118C73.1736 6.56247 73.8592 7.29851 73.9142 8.45592C73.9343 8.87608 73.9175 9.29835 73.9175 9.78464Z" fill="#FCFDFD"/>
<path d="M58.6751 22.1356C57.1666 22.1447 55.7795 21.7717 54.6611 20.718C53.262 19.3998 52.9178 17.7425 53.3659 15.9339C53.8288 14.0684 55.1375 12.9858 56.9457 12.5172C58.4665 12.1232 59.9904 12.2218 61.4724 12.7595C63.6711 13.5574 64.5442 15.4797 64.3711 17.5959C64.1306 20.5262 61.6447 22.0707 59.0042 22.1341C58.8945 22.1378 58.7848 22.1356 58.6751 22.1356Z" fill="#01A0AF"/>
<path d="M107.137 22.1804C105.415 22.1074 103.874 21.6425 102.714 20.3038C100.67 17.9475 101.324 13.5072 105.479 12.5151C107.271 12.0874 109.02 12.2512 110.577 13.2966C112.291 14.4452 112.909 16.1343 112.561 18.1234C112.207 20.1548 110.874 21.3506 108.937 21.8898C108.356 22.0521 107.738 22.0873 107.137 22.1804Z" fill="#01A0AF"/>
<path d="M0.0439453 31.1271V35H0.717809C52.0771 35 103.437 35 154.796 35C157.127 35 159.418 34.6971 161.658 34.0494C163.809 33.4279 165.827 32.5277 167.606 31.1428L167.627 31.1274L0.0439453 31.1271Z" fill="#EC3024"/>
</g>
<defs>
<clipPath id="clip0">
<rect width="175" height="35" fill="white"/>
</clipPath>
</defs>
</svg>
