<svg width="114" height="22" viewBox="0 0 114 22" fill="none" xmlns="http://www.w3.org/2000/svg">
<path d="M16.9351 0H0V1.7551H7.44178V21.551H9.45307V1.7551H16.9351V0Z" fill="white"/>
<path d="M21.4001 6.4082C17.4982 6.4082 14.7629 9.67351 14.7629 14.3266C14.7629 18.9796 17.3776 22 21.4404 22C24.8596 22 27.0318 19.9184 27.6351 16.6531H25.9054C25.3423 19.1837 23.7735 20.5307 21.4806 20.5307C17.9809 20.5307 16.573 17.6735 16.573 14.5715H27.796V14.0409C27.7558 10.0409 25.6641 6.4082 21.4001 6.4082ZM16.573 13.1429C16.8948 10.4082 18.1821 7.91841 21.3599 7.91841C24.055 7.91841 25.825 9.87759 26.0261 13.1429H16.573Z" fill="white"/>
<path d="M32.1002 10.3266V6.81639H30.451V21.5511H32.2209V15.5511C32.2209 13.6735 32.3416 12.8164 32.5427 11.9184C33.1059 9.79598 34.9965 8.40822 37.1687 8.40822C37.2894 8.40822 37.4503 8.44904 37.6514 8.44904V6.6123C34.6747 6.65312 33.307 7.67353 32.1002 10.3266Z" fill="white"/>
<path d="M42.4383 10.4898V6.97964H40.789V21.7143H42.5589V15.6735C42.5589 13.796 42.6796 12.9388 42.8807 12.0409C43.4439 9.91841 45.3345 8.53066 47.5067 8.53066C47.6274 8.53066 47.7883 8.57148 47.9894 8.57148V6.73474C45.0127 6.81637 43.645 7.79597 42.4383 10.4898Z" fill="white"/>
<path d="M60.7812 8.6531C59.5744 7.22453 57.8447 6.4082 55.7128 6.4082C51.489 6.4082 48.7939 9.46943 48.7939 14.2041C48.7939 18.9796 51.489 22 55.7128 22C57.885 22 59.6147 21.2245 60.7812 19.796V21.5511H62.5109V6.898H60.7812V8.6531ZM55.7128 20.4898C52.5349 20.4898 50.5638 18.0409 50.5638 14.2041C50.5638 10.4082 52.5751 7.91841 55.6323 7.91841C58.7297 7.91841 60.7008 10.3674 60.7008 14.2041C60.741 18.0409 58.8102 20.4898 55.7128 20.4898Z" fill="white"/>
<path d="M70.7974 13.1429C68.0621 12.5306 66.6542 12.2041 66.6542 10.3673C66.6542 8.89795 67.9414 7.91836 70.0332 7.91836C72.3663 7.91836 73.7741 8.89795 73.9753 11.1429H75.705C75.705 7.99999 73.4121 6.44897 70.2343 6.44897C66.9358 6.44897 64.8843 8.04081 64.8843 10.6122C64.8843 13.8367 68.1023 14.2041 70.4756 14.7755C72.0042 15.1429 74.458 15.5918 74.458 17.6735C74.458 19.3877 72.8892 20.5306 70.5159 20.5306C67.8207 20.5306 66.2117 19.2245 66.2117 16.7347H64.482C64.5624 20.1224 66.6944 22 70.4354 22C73.8948 22 76.1877 20.1633 76.1877 17.4694C76.1877 14.4082 73.1305 13.6735 70.7974 13.1429Z" fill="white"/>
<path d="M84.9972 6.4082C80.7735 6.4082 78.0783 9.46943 78.0783 14.2041C78.0783 18.9796 80.7735 22 84.9972 22C89.2209 22 91.8356 19.0204 91.8356 14.2858C91.8356 9.42861 89.1807 6.4082 84.9972 6.4082ZM85.0374 20.4898C81.8596 20.4898 79.8885 18.0409 79.8885 14.2041C79.8885 10.4082 81.8998 7.91841 84.957 7.91841C88.0543 7.91841 90.0254 10.3674 90.0254 14.2041C90.0656 18.0409 88.0946 20.4898 85.0374 20.4898Z" fill="white"/>
<path d="M96.2604 4.73464V6.44893H93.7262V7.95913H96.2604V21.551H98.0706V7.95913H101.208V6.44893H98.0706V4.93873C98.0706 3.18362 98.0304 2.04077 100.203 2.04077C100.605 2.04077 100.806 2.04077 101.409 2.1224V0.612195C100.766 0.530562 100.524 0.489746 100.001 0.489746C97.1856 0.489746 96.2604 1.95913 96.2604 4.73464Z" fill="white"/>
<path d="M105.915 7.95912H108.972V6.44891H105.915V1.83667H104.104V6.44891H102.174V7.95912H104.104V16.6122C104.104 18.8571 104.145 19.3061 104.265 19.9183C104.627 21.3877 106.076 21.6326 107.363 21.6326C108.006 21.6326 108.288 21.5918 108.972 21.5101V19.9183C108.449 19.9591 108.087 19.9999 107.765 19.9999C105.834 19.9999 105.874 19.0203 105.874 17.4693V7.95912H105.915Z" fill="white"/>
<path d="M114 7.18369C114 6.44899 113.397 5.87756 112.713 5.87756C111.989 5.87756 111.426 6.48981 111.426 7.18369C111.426 7.87756 111.989 8.48981 112.713 8.48981C113.437 8.48981 114 7.91838 114 7.18369Z" fill="white"/>
</svg>
