<svg width="66" height="33" viewBox="0 0 66 33" fill="none" xmlns="http://www.w3.org/2000/svg">
<path d="M0.0970459 0.265625V32.74H32.9191L65.0459 0.269281H0.0970459V0.265625Z" fill="url(#paint0_linear)"/>
<path fill-rule="evenodd" clip-rule="evenodd" d="M38.4903 15.9313H37.0683V11.0491H38.4903C40.3887 11.0491 41.8998 11.6363 41.8998 13.459C41.8998 15.3413 40.3887 15.9313 38.4903 15.9313ZM23.1857 19.4216C22.4331 19.4216 21.7272 19.2926 21.1171 19.0772L23.1652 13.0131H23.2091L25.2149 19.0937C24.6106 19.2967 23.923 19.4216 23.1879 19.4216H23.1857ZM38.1133 7.08279H31.656V21.4973L26.015 7.08279H20.4236L15.6039 19.1341C15.0946 16.0966 11.7429 15.045 9.10794 14.2609C7.37106 13.7361 5.52237 12.9651 5.53918 12.111C5.55379 11.4127 6.53221 10.7651 8.462 10.8619C9.76265 10.9236 10.9099 11.0224 13.1875 12.0562L15.4307 8.38753C13.3526 7.39079 10.4729 6.76518 8.1171 6.76038H8.10249C5.35431 6.76038 3.06428 7.60139 1.64379 8.97816C0.656612 9.94128 0.122467 11.1596 0.098354 12.5158C0.0618188 14.3734 0.790331 15.6919 2.31531 16.7462C3.60574 17.6339 5.25201 18.2053 6.70611 18.6334C8.49999 19.1527 9.96432 19.6061 9.94752 20.5726C9.93291 20.9245 9.79334 21.2545 9.52225 21.5152C9.07579 21.9508 8.38966 22.112 7.44047 22.1319C5.61079 22.1662 4.25387 21.8986 2.09245 20.6995L0.098354 24.4196C2.2532 25.5714 4.80409 26.245 7.40759 26.245H7.74445C10.0096 26.2039 11.8393 25.5968 13.3015 24.4937L13.5382 24.2996L12.8923 25.9295H18.7562L19.7412 23.1176C20.7714 23.4448 21.945 23.6287 23.1872 23.6287C24.3994 23.6287 25.5429 23.4572 26.555 23.1444L27.502 25.9295H37.0698V20.1055H39.1574C44.1993 20.1055 47.1849 17.6963 47.1849 13.6531C47.1849 9.15308 44.2855 7.08896 38.1125 7.08896" fill="#191919"/>
<defs>
<linearGradient id="paint0_linear" x1="32.5487" y1="0.283173" x2="32.5487" y2="32.7412" gradientUnits="userSpaceOnUse">
<stop stop-color="#D6D6D6"/>
<stop offset="0.219864" stop-color="white"/>
<stop offset="0.794312" stop-color="white"/>
<stop offset="1" stop-color="#D6D6D6"/>
</linearGradient>
</defs>
</svg>
