<svg width="147" height="33" viewBox="0 0 147 33" fill="none" xmlns="http://www.w3.org/2000/svg">
<g clip-path="url(#clip0)">
<path d="M51.8888 19.007L51.0127 21.6163H50.9397C50.7936 21.0279 50.5259 20.1325 50.0878 19.0581L45.3907 6.65115H40.7908V26.4256H43.833V14.2232C43.833 13.4558 43.833 12.586 43.8087 11.5116C43.7844 10.9744 43.7357 10.5651 43.7114 10.2581H43.7844C43.9304 11.0256 44.1008 11.5884 44.2225 11.9465L49.8688 26.3744H52.0105L57.6082 11.8186C57.7299 11.486 57.8516 10.8209 57.9733 10.2581H58.0463C57.9733 11.7163 57.9246 13.0209 57.9003 13.8139V26.3488H61.1372V6.59998H56.7077L51.8888 19.007ZM64.2037 12.1767H67.3676V26.3488H64.2037V12.1767ZM65.81 6.19068C65.2746 6.19068 64.8365 6.39533 64.4714 6.75347C64.1064 7.11161 63.9117 7.57208 63.9117 8.13487C63.9117 8.67208 64.1064 9.13254 64.4714 9.49068C64.8365 9.84882 65.2746 10.0279 65.81 10.0279C66.3454 10.0279 66.8079 9.82324 67.1486 9.49068C67.5137 9.13254 67.7084 8.67208 67.7084 8.13487C67.7084 7.59766 67.5137 7.13719 67.1486 6.75347C66.8322 6.39533 66.3698 6.19068 65.81 6.19068ZM78.5873 12.0488C78.0032 11.9209 77.3948 11.8442 76.8107 11.8442C75.3748 11.8442 74.0605 12.1767 72.9653 12.8418C71.8701 13.507 70.994 14.4279 70.4342 15.5791C69.8501 16.7558 69.558 18.1116 69.558 19.6721C69.558 21.0279 69.8501 22.2302 70.4098 23.3302C70.9696 24.4046 71.7484 25.2744 72.795 25.8628C73.7928 26.4511 74.961 26.7581 76.2752 26.7581C77.7842 26.7581 79.0741 26.4256 80.0963 25.8116L80.1206 25.786V22.7163L79.9989 22.8186C79.5365 23.1767 79.0011 23.4837 78.4656 23.6628C77.9059 23.8674 77.3948 23.9697 76.9567 23.9697C75.6911 23.9697 74.6933 23.586 73.9875 22.7418C73.2574 21.9232 72.8923 20.7977 72.8923 19.3907C72.8923 17.9325 73.2574 16.7814 74.0118 15.9372C74.7663 15.093 75.7641 14.6581 76.981 14.6581C78.0032 14.6581 79.0498 15.0163 79.9989 15.7325L80.1206 15.8349V12.586L80.0963 12.5604C79.6825 12.3814 79.2201 12.1767 78.5873 12.0488ZM89.0282 11.9465C88.2494 11.9465 87.5193 12.2023 86.8865 12.7395C86.3511 13.2 85.986 13.8651 85.6696 14.6581H85.6453V12.1767H82.4814V26.3488H85.6453V19.1093C85.6453 17.8814 85.8887 16.8581 86.4241 16.1163C86.9595 15.3488 87.641 14.9651 88.4684 14.9651C88.7605 14.9651 89.0526 15.0418 89.4176 15.093C89.7583 15.1953 90.0017 15.2977 90.1721 15.4256L90.2938 15.5279V12.2023L90.2208 12.1767C90.0017 12.0232 89.5636 11.9465 89.0282 11.9465ZM97.6438 11.8698C95.429 11.8698 93.6524 12.5605 92.4112 13.9163C91.1456 15.2721 90.5372 17.1395 90.5372 19.493C90.5372 21.693 91.1699 23.4837 92.3868 24.7884C93.6037 26.0674 95.2587 26.7325 97.3274 26.7325C99.4934 26.7325 101.221 26.0418 102.463 24.6604C103.728 23.2791 104.337 21.4372 104.337 19.1604C104.337 16.9093 103.753 15.1186 102.56 13.8139C101.416 12.5093 99.7368 11.8698 97.6438 11.8698ZM100.175 22.7674C99.5908 23.5604 98.666 23.9442 97.5221 23.9442C96.3782 23.9442 95.4534 23.5604 94.7963 22.7163C94.1391 21.9232 93.8228 20.7721 93.8228 19.3139C93.8228 17.8046 94.1635 16.6535 94.7963 15.8349C95.4534 15.0163 96.3539 14.607 97.4977 14.607C98.6173 14.607 99.4934 14.9907 100.126 15.7837C100.759 16.5767 101.1 17.7279 101.1 19.2372C101.051 20.7721 100.783 21.9744 100.175 22.7674ZM111.395 18.0604C110.397 17.6256 109.764 17.293 109.472 17.0116C109.229 16.7558 109.107 16.3977 109.107 15.9372C109.107 15.5535 109.253 15.1698 109.618 14.9139C109.983 14.6581 110.397 14.5302 111.005 14.5302C111.541 14.5302 112.1 14.6325 112.636 14.786C113.171 14.9395 113.658 15.1698 114.047 15.4767L114.169 15.5791V12.4581L114.096 12.4325C113.731 12.2791 113.244 12.1256 112.66 11.9977C112.076 11.8953 111.541 11.8442 111.103 11.8442C109.594 11.8442 108.352 12.2279 107.379 13.0721C106.405 13.8651 105.943 14.9395 105.943 16.193C105.943 16.8581 106.04 17.4465 106.259 17.9325C106.478 18.4186 106.795 18.8791 107.233 19.2628C107.671 19.6209 108.304 20.0302 109.18 20.4139C109.91 20.7465 110.47 21.0023 110.81 21.207C111.151 21.4116 111.37 21.6418 111.541 21.8209C111.662 22.0256 111.735 22.2814 111.735 22.6139C111.735 23.5604 111.054 24.0209 109.667 24.0209C109.131 24.0209 108.571 23.9186 107.914 23.6884C107.257 23.4581 106.649 23.1256 106.138 22.7418L106.016 22.6395V25.8884L106.089 25.9139C106.551 26.1442 107.111 26.2977 107.793 26.4767C108.474 26.6046 109.083 26.707 109.618 26.707C111.249 26.707 112.587 26.3232 113.536 25.4791C114.51 24.6604 115.021 23.6116 115.021 22.2558C115.021 21.3093 114.778 20.4651 114.242 19.8256C113.536 19.2116 112.66 18.5721 111.395 18.0604ZM123.369 11.8698C121.154 11.8698 119.377 12.5605 118.136 13.9163C116.895 15.2721 116.262 17.1395 116.262 19.493C116.262 21.693 116.895 23.4837 118.112 24.7884C119.329 26.0674 120.984 26.7325 123.052 26.7325C125.218 26.7325 126.946 26.0418 128.188 24.6604C129.453 23.2791 130.062 21.4372 130.062 19.1604C130.062 16.9093 129.478 15.1186 128.285 13.8139C127.141 12.5093 125.462 11.8698 123.369 11.8698ZM125.876 22.7674C125.291 23.5604 124.367 23.9442 123.223 23.9442C122.055 23.9442 121.154 23.5604 120.497 22.7163C119.84 21.9232 119.523 20.7721 119.523 19.3139C119.523 17.8046 119.864 16.6535 120.497 15.8349C121.154 15.0163 122.055 14.607 123.198 14.607C124.294 14.607 125.194 14.9907 125.827 15.7837C126.46 16.5767 126.8 17.7279 126.8 19.2372C126.8 20.7721 126.484 21.9744 125.876 22.7674ZM146.976 14.9139V12.1767H143.788V7.98138L143.691 8.00696L140.673 8.95347L140.6 8.97905V12.1767H135.83V10.386C135.83 9.56743 136.024 8.92789 136.365 8.51859C136.706 8.10929 137.217 7.90464 137.85 7.90464C138.288 7.90464 138.75 8.00696 139.261 8.23719L139.383 8.31394V5.42324L139.31 5.39766C138.872 5.24417 138.288 5.14185 137.533 5.14185C136.584 5.14185 135.757 5.37208 135.002 5.7558C134.248 6.19068 133.688 6.77905 133.274 7.57208C132.86 8.33952 132.641 9.20929 132.641 10.207V12.1767H130.427V14.8884H132.641V26.3488H135.83V14.9139H140.6V22.2046C140.6 25.1977 141.938 26.707 144.616 26.707C145.054 26.707 145.516 26.6302 145.954 26.5535C146.417 26.4511 146.757 26.3232 146.952 26.2209L146.976 26.1953V23.4581L146.855 23.5604C146.66 23.6884 146.49 23.7907 146.198 23.8674C145.954 23.9442 145.735 23.9697 145.565 23.9697C144.932 23.9697 144.494 23.8163 144.178 23.4325C143.885 23.0744 143.739 22.486 143.739 21.6163V14.9139H146.976Z" fill="white"/>
<path d="M0 0H14.919V15.6814H0V0Z" fill="white"/>
<path d="M16.4759 0H31.395V15.6814H16.4759V0Z" fill="white"/>
<path d="M0 17.3187H14.919V33.0001H0V17.3187Z" fill="white"/>
<path d="M16.4759 17.3187H31.395V33.0001H16.4759V17.3187Z" fill="white"/>
</g>
<defs>
<clipPath id="clip0">
<rect width="147" height="33" fill="white"/>
</clipPath>
</defs>
</svg>
