<svg width="60" height="33" viewBox="0 0 60 33" fill="none" xmlns="http://www.w3.org/2000/svg">
<g clip-path="url(#clip0)">
<path d="M46.9113 33H34.446C32.2998 32.9835 30.1792 32.5214 28.2133 31.6418C25.7808 30.5817 23.6405 28.9275 21.9806 26.8244C20.2509 24.6312 19.1186 22.0104 18.698 19.227C18.2533 16.4866 18.4944 13.6759 19.3989 11.0563C20.3034 8.43672 21.8419 6.09339 23.8712 4.24436C25.6068 2.62822 27.6716 1.4251 29.9169 0.721527C33.2189 -0.316412 36.7612 -0.234515 40.0138 0.954967C42.396 1.83421 44.5449 3.26813 46.2902 5.14307C48.0356 7.01801 49.3294 9.28244 50.0692 11.7569C50.4463 12.9823 50.6697 14.2516 50.7341 15.5344C50.7341 15.6829 50.7341 15.7254 50.5471 15.7254H47.7839C47.6385 15.7254 47.5969 15.7254 47.5762 15.5344C47.4536 13.6934 46.9509 11.8997 46.1011 10.2714C45.324 8.77293 44.265 7.44595 42.9848 6.36654C40.4009 4.15019 37.077 3.04248 33.7107 3.27594C30.3444 3.5094 27.1976 5.06587 24.9307 7.61863C23.6843 9.02575 22.749 10.6905 22.1883 12.4997C21.7112 14.0853 21.5211 15.7466 21.6274 17.4019C21.7006 19.1592 22.1173 20.8838 22.8532 22.4739C23.8135 24.4557 25.2414 26.1623 27.0083 27.4399C28.8148 28.7143 30.9102 29.496 33.0956 29.7106C33.5734 29.7106 34.0305 29.7106 34.5083 29.7106H59.7299C60 29.7106 60 29.7106 60 29.9653V32.5968C60 32.8514 60 32.8514 59.7299 32.8514L46.9113 33Z" fill="white"/>
<path d="M43.0263 15.7254H40.1593C40.0139 15.7254 39.9308 15.7254 39.91 15.5131C39.7432 14.6258 39.3649 13.7941 38.8084 13.0917C38.252 12.3894 37.5346 11.8379 36.7198 11.4863C35.905 11.1346 35.0178 10.9936 34.1369 11.0757C33.256 11.1577 32.4085 11.4603 31.6694 11.9567C30.9303 12.4531 30.3224 13.128 29.8995 13.9216C29.4766 14.7152 29.2518 15.6031 29.2449 16.5066C29.238 17.4101 29.4493 18.3015 29.86 19.1017C30.2708 19.9019 30.8683 20.5864 31.5998 21.0945C32.4664 21.6878 33.4858 22.0053 34.5291 22.007H59.7507C59.9377 22.007 60 22.007 60 22.2405C60 23.1106 60 23.9807 60 24.872C60 25.1479 60 25.1479 59.7299 25.1479H36.025C35.3186 25.1479 34.6122 25.1479 33.9474 25.1479C32.8898 25.0815 31.8572 24.7925 30.9142 24.299C29.8727 23.7936 28.9476 23.0692 28.1993 22.1732C27.451 21.2771 26.8965 20.2298 26.572 19.0996C26.0996 17.6477 26.0201 16.0924 26.3419 14.5981C26.6637 13.1038 27.3749 11.7262 28.4003 10.6109C29.5842 9.25106 31.1778 8.33266 32.9294 8.0006C34.8183 7.59381 36.7869 7.87143 38.4973 8.78581C40.2973 9.72474 41.7006 11.3016 42.4446 13.2212C42.7522 13.9651 42.9483 14.752 43.0263 15.5556V15.7254Z" fill="white"/>
<path d="M13.8573 16.5106C13.8573 21.9009 13.8573 27.3125 13.8573 32.7029C13.8573 33.0212 13.8573 33 13.5872 33H11.011C10.7617 33 10.7617 33 10.7617 32.7453V7.57617C10.7617 6.17553 10.7617 4.77488 10.7617 3.3318C10.7617 3.1408 10.7617 3.09836 10.5124 3.09836H4.86146C4.61215 3.09836 4.61215 3.09836 4.61215 2.84369C4.61215 1.95238 4.61215 1.08228 4.61215 0.19096C4.61215 -3.67425e-05 4.61215 -0.0424805 4.86146 -0.0424805H13.608C13.8365 -0.0424805 13.8573 -0.0424805 13.8573 0.212182V16.5106Z" fill="white"/>
<path d="M7.68698 19.6727V32.7241C7.68698 33 7.68698 33 7.4169 33H4.8615C4.61219 33 4.61219 33 4.61219 32.7454V9.80452C4.61219 9.42253 4.61219 9.42253 4.259 9.42253H0.228532C0 9.44375 0 9.38008 0 9.18909V6.49391C0 6.36658 0 6.36658 0.228532 6.36658H7.45845C7.66621 6.36658 7.70776 6.36658 7.70776 6.62124C7.69391 10.9364 7.68698 15.2868 7.68698 19.6727Z" fill="white"/>
</g>
<defs>
<clipPath id="clip0">
<rect width="60" height="33" fill="white"/>
</clipPath>
</defs>
</svg>
