<svg width="110" height="22" viewBox="0 0 110 22" fill="none" xmlns="http://www.w3.org/2000/svg">
<g clip-path="url(#clip0)">
<path d="M47.2643 15.9057C47.1921 13.4577 47.4385 11.0601 48.2302 8.7335C49.076 6.24633 50.3579 4.05501 52.2923 2.31446C53.5832 1.1488 55.0582 0.287393 56.7796 0.0475425C57.4906 -0.04211 58.2113 -0.00071638 58.9082 0.169801C60.0546 0.444183 60.5502 1.2524 60.6233 2.51791C60.654 3.06201 60.5782 3.6117 60.5511 4.14647C60.8589 3.72276 61.1315 3.24866 61.4944 2.86695C62.6781 1.62878 64.175 0.760065 65.8138 0.360188C68.3342 -0.280036 70.8049 -0.0551173 73.1925 0.976147C73.7783 1.23 74.2974 1.6481 74.839 1.98501C75.3048 1.6117 75.7607 1.1656 76.2833 0.836157C77.4297 0.117538 78.7062 -0.0551173 80.0024 0.199666C81.4404 0.479647 81.8403 1.40452 82.0832 2.48245C82.1788 2.90429 82.1915 3.34572 82.2492 3.84596C82.5823 3.34666 82.8694 2.85855 83.2124 2.41618C84.0303 1.36159 84.9718 0.488046 86.3069 0.168868C87.3118 -0.088499 88.37 -0.00741136 89.3273 0.400319C90.4719 0.894953 91.0551 1.90382 91.2708 3.12827C91.4044 3.88609 91.4577 4.65883 91.5524 5.47638C91.6753 5.36409 91.7919 5.24476 91.9018 5.11894C92.6573 4.15767 93.598 3.47171 94.7823 3.25986C95.5758 3.11894 96.4072 3.08721 97.1762 3.41292C98.4671 3.95515 98.9753 5.05921 99.1396 6.40685C99.4104 8.61777 98.9004 10.7363 98.4418 12.8604C98.1864 14.0429 97.8822 15.2141 97.6402 16.3994C97.5675 16.8116 97.5529 17.2325 97.5969 17.649C97.6475 18.2426 98.1331 18.5132 98.6341 18.2034C99.1041 17.9076 99.5441 17.5637 99.9475 17.1768C100.56 16.5991 101.13 15.9738 101.719 15.3691C101.843 15.2286 101.976 15.0962 102.116 14.9724C102.477 14.685 102.77 14.8026 102.89 15.2524C102.989 15.6196 103.016 16.0034 102.969 16.3814C102.923 16.7594 102.804 17.124 102.62 17.454C101.494 19.5762 99.8148 21.0088 97.5211 21.5669C96.6527 21.7788 95.7283 21.8553 94.9249 21.272C94.1585 20.712 93.7261 19.9579 93.7126 18.9649C93.6954 17.7517 94.0322 16.6075 94.3228 15.453C94.7742 13.6574 95.2364 11.8637 95.6453 10.0569C95.7816 9.45492 95.7762 8.81562 95.8159 8.19033C95.8148 8.01966 95.7843 7.85057 95.7256 7.69103C95.5703 7.1824 95.2652 7.03214 94.7498 7.17493C94.0592 7.36159 93.5411 7.81889 93.1051 8.36859C91.3827 10.5431 90.3266 13.0471 89.7489 15.775C89.6255 16.3679 89.55 16.9704 89.5232 17.5762C89.4988 18.031 89.5374 18.487 89.6378 18.9304C89.9141 20.083 89.349 20.8259 88.5546 21.4689C87.9534 21.9579 87.2366 22.0625 86.5163 21.9355C86.2771 21.8936 85.9855 21.6173 85.8844 21.3756C85.6159 20.7324 85.516 20.0275 85.5946 19.3317C85.8131 17.3196 86.4594 15.4213 86.9631 13.4866C87.4398 11.6565 87.8884 9.82262 88.152 7.94768C88.2729 7.08907 88.3127 6.21646 88.1718 5.34386C88.0048 4.20993 87.2628 3.73303 86.1913 4.10634C85.5856 4.31912 85.0982 4.7251 84.6748 5.2076C83.6466 6.38259 82.9931 7.78343 82.4515 9.244C81.788 11.0349 81.3068 12.8838 80.9087 14.7503C80.8156 15.2504 80.8226 15.765 80.9295 16.2622C81.1111 17.208 81.2407 18.1636 81.3177 19.1245C81.4007 20.2538 80.9015 21.0405 79.8589 21.4764C79.2785 21.719 78.7369 21.9999 78.0743 21.9775C77.5191 21.9589 77.2248 21.6565 77.0271 21.2113C76.8845 20.8884 76.8267 20.5263 76.7121 20.1138C76.2996 20.3686 75.8807 20.6196 75.4691 20.8828C74.6702 21.3943 73.7819 21.6378 72.8639 21.706C71.5099 21.8077 70.3661 20.9388 70.0601 19.5594C69.8155 18.4563 69.6693 17.328 69.4923 16.209C69.3289 15.1824 69.1872 14.1511 69.0247 13.1245C69.0109 12.9936 68.959 12.8701 68.8761 12.7702C68.7931 12.6703 68.6829 12.5986 68.5598 12.5646C68.195 12.4387 67.856 12.2434 67.5606 11.9887C66.8763 11.3607 66.8068 10.2473 68.0679 9.85715C68.4318 9.73639 68.8158 9.69381 69.1963 9.732C69.5768 9.7702 69.9457 9.88837 70.2804 10.0793C71.1623 9.35692 71.8077 8.48338 71.9215 7.29626C71.9802 6.68123 72.019 6.04381 71.9215 5.43905C71.6814 3.87675 70.6577 3.18613 69.5627 2.99201C67.4125 2.60937 65.3201 2.83522 63.3395 3.86742C62.9288 4.08207 62.519 4.29859 62.1038 4.50391C61.9089 4.61047 61.7034 4.69466 61.4908 4.75496C61.09 4.84829 60.6784 4.93135 60.4924 4.39939C60.3119 4.76056 60.1575 5.10494 59.9707 5.42598C59.3514 6.50858 58.4948 6.51884 57.5921 5.6929C57.2093 5.34386 56.8455 5.03401 56.3066 4.99948C55.6016 4.95468 54.9652 5.1068 54.4164 5.57811C53.7524 6.15715 53.2336 6.89357 52.9044 7.72463C52.1136 9.6621 51.6063 11.6696 51.6613 13.803C51.7074 15.5688 53.0353 17.342 54.7025 17.6798C55.6612 17.874 56.5495 17.5296 57.3835 17.0461C58.1211 16.6187 58.6771 15.9766 59.2269 15.3383C60.0456 14.3882 60.8228 13.3999 61.6262 12.4358C62.0382 11.9509 62.3511 11.3849 62.5461 10.7718C63.0877 9.07414 63.7196 7.41198 64.6548 5.89915C65.0691 5.22813 65.5891 4.6859 66.3943 4.51324C66.7012 4.44792 66.8691 4.56364 66.9359 4.83522C67.0084 5.10882 67.044 5.39149 67.0415 5.67517C66.9882 7.19547 66.7084 8.67937 66.3491 10.1549C66.0097 11.5548 65.6893 12.9547 65.3697 14.3546C65.3165 14.5943 65.2892 14.8394 65.2885 15.0853C65.2812 16.419 65.2767 17.7536 65.2885 19.0881C65.2975 20.1801 64.9175 20.9911 63.8902 21.4362C63.2971 21.6929 62.7474 22.0027 62.0613 21.9841C61.5378 21.971 61.2624 21.7853 61.1198 21.2888C60.97 20.769 60.9393 20.2127 60.8643 19.6705C60.8533 19.4912 60.8533 19.3113 60.8643 19.132C60.2451 19.5884 59.6827 20.0055 59.1185 20.419C58.1199 21.1369 56.9788 21.6152 55.7785 21.8189C54.6727 22.0214 53.5489 22.0793 52.4386 21.8553C50.4978 21.4652 49.0047 20.4386 48.0289 18.6504C47.9973 18.6051 47.9613 18.5632 47.9215 18.5254C47.7689 17.9729 47.61 17.4222 47.4701 16.867C47.3862 16.5506 47.3311 16.2267 47.2643 15.9057ZM71.9233 12.2743C72.0136 12.5188 72.1038 12.7251 72.1589 12.9407C72.455 14.0149 72.7222 15.0975 73.0435 16.1623C73.2212 16.7585 73.4502 17.3369 73.7278 17.8908C73.9607 18.3509 74.3497 18.4367 74.811 18.2379C74.9671 18.1798 75.1131 18.0959 75.2434 17.9897C75.7543 17.523 76.2635 17.0564 76.7473 16.5646C76.8814 16.4106 76.9692 16.2196 77.0001 16.0149C77.1616 15.0461 77.2853 14.0709 77.4442 13.1021C77.8585 10.5823 78.29 8.07181 78.6998 5.55571C78.799 4.93807 78.7192 4.3039 78.4706 3.73303C78.2133 3.1292 77.65 2.91268 77.103 3.22626C76.7103 3.45305 76.3619 3.76383 76.0197 4.01581C76.6688 6.87162 76.2057 10.2398 71.9233 12.2743Z" fill="white"/>
<path d="M47.2643 15.9056C47.3311 16.2267 47.3861 16.5505 47.4674 16.8669C47.61 17.4269 47.7689 17.9728 47.9187 18.5253C47.2101 18.8258 46.4916 18.964 45.7216 18.7941C45.3505 18.712 44.9579 18.7372 44.5535 18.7129C41.9609 22.1203 36.7587 21.9794 34.5859 19.5995C33.7175 20.3023 32.7805 20.894 31.6711 21.0834C31.2385 21.1679 30.7963 21.1862 30.3585 21.1376C30.1201 21.1105 29.8924 21.0201 29.6977 20.8752C29.503 20.7304 29.3479 20.5359 29.2473 20.3107C28.7317 19.1713 28.5572 17.8986 28.7463 16.656C28.9052 15.4969 29.0665 14.3381 29.2302 13.1796C29.2712 12.9767 29.3014 12.7717 29.3204 12.5655C29.3304 12.1296 29.2546 11.7461 28.7897 11.5482C28.3248 11.3503 27.9655 11.4605 27.6225 11.7694C26.885 12.4348 26.3894 13.2794 26.0247 14.2006C25.7277 14.9472 25.3477 15.6938 25.4605 16.5459C25.5309 17.0872 25.6564 17.6201 25.7665 18.1548C25.8351 18.4871 25.9669 18.8137 25.9832 19.1469C25.9967 19.4343 25.9832 19.8142 25.8144 20.0036C25.0417 20.893 24.0722 21.4287 22.8941 21.5146C22.737 21.5364 22.5774 21.502 22.4418 21.4171C22.3062 21.3322 22.2027 21.202 22.1485 21.048C21.9951 20.6485 21.8362 20.222 21.8217 19.802C21.7811 18.5645 21.7703 17.3233 21.8217 16.0867C21.8732 14.8977 22.0312 13.7143 22.1214 12.5272C22.1527 12.0709 22.156 11.613 22.1314 11.1562C22.1088 10.684 21.6466 10.3947 21.1835 10.4936C20.7502 10.5869 20.4614 10.8818 20.2158 11.2104C19.3971 12.3191 18.7264 13.5193 18.378 14.8762C18.1017 15.9495 18.257 17.0228 18.5341 18.0746C18.6244 18.4208 18.7562 18.7643 18.7842 19.117C18.8067 19.4035 18.7977 19.7806 18.6397 19.9803C17.9528 20.8529 17.0149 21.3401 15.9515 21.4987C15.2528 21.6042 14.8683 21.2309 14.7274 20.5057C14.6995 20.3648 14.676 20.2258 14.6372 20.0251C14.2472 20.2388 13.915 20.4283 13.5765 20.6047C12.8388 20.9917 12.0205 21.1859 11.1934 21.1702C10.7104 21.1618 10.3187 20.9584 10.0795 20.5589C9.80865 20.1128 9.62811 19.6126 9.41868 19.132C9.36975 18.9987 9.32964 18.8621 9.29862 18.7232C8.8572 19.1973 8.45009 19.6845 7.99152 20.1147C7.3414 20.7427 6.50854 21.1305 5.62284 21.2178C4.3067 21.341 2.97252 21.4782 1.79721 20.6028C0.657099 19.7526 0.0125732 18.6467 -6.45844e-05 17.1516C-0.00999426 15.8898 0.100135 14.6523 0.463922 13.4483C0.805208 12.3233 1.35732 11.2787 2.08878 10.3741C2.81697 9.46654 3.70533 8.71024 4.7066 8.14549C5.429 7.72917 6.23402 7.48941 7.05993 7.44461C7.62114 7.40774 8.18405 7.40774 8.74527 7.44461C9.17766 7.47727 9.60283 7.607 10.0822 7.70406C10.1128 7.69264 10.1396 7.6726 10.1598 7.64619C10.7014 6.92011 10.946 6.79785 11.7476 7.12636C12.6503 7.49967 13.3427 8.14269 13.6514 9.12823C13.7141 9.35957 13.6988 9.60606 13.6081 9.82725C13.368 10.3807 13.0665 10.9042 12.7957 11.4474C12.6819 11.6826 12.5393 11.9364 12.5294 12.1866C12.4689 13.6863 12.4156 15.188 12.422 16.6887C12.422 17.0937 12.4833 17.5753 12.9293 17.8375C13.553 17.6639 14.017 17.2309 14.4639 16.7848C14.5641 16.6849 14.5966 16.4805 14.6056 16.3181C14.6561 15.3895 14.6417 14.4516 14.7392 13.5323C14.9387 11.6518 15.4424 9.85805 16.364 8.21269C16.5211 7.93271 16.6755 7.65273 16.8569 7.39048C17.2857 6.77732 18.0972 6.41241 18.7643 7.22249C19.1886 7.73672 19.5442 8.31068 19.9378 8.87251C20.2574 8.59253 20.595 8.25189 20.9822 7.9831C22.5168 6.91638 24.4405 7.08716 25.6636 8.78198C25.9444 9.17116 26.0247 9.71526 26.2052 10.2146C26.2862 10.1586 26.3629 10.0962 26.4345 10.0279C27.59 8.84078 28.9558 8.21269 30.605 8.35455C31.8354 8.46094 32.7931 9.0713 33.1208 10.2855C33.2201 10.6532 33.193 11.0592 33.2111 11.4493C33.2842 13.3587 32.6505 15.1366 32.2497 16.9556C32.1874 17.2356 32.0484 17.6593 32.3698 17.7657C32.5873 17.8384 32.9538 17.6163 33.175 17.4278C33.2986 17.3233 33.3149 17.0106 33.2887 16.8034C33.0224 14.7409 33.342 12.8044 34.4026 11.0172C35.1465 9.77125 36.1078 8.74465 37.3942 8.08576C38.4106 7.56593 39.4966 7.33915 40.6321 7.31862C41.8273 7.29342 42.9792 7.43994 44.0317 8.06523C44.2913 8.20867 44.5337 8.38314 44.7539 8.58506C45.0761 8.90238 44.957 9.29622 44.5137 9.36808C44.0431 9.43949 43.5685 9.48064 43.0929 9.49127C42.3762 9.5146 41.6702 9.56127 40.9833 9.80765C38.862 10.5692 37.683 12.1138 37.4086 14.3975C37.3629 14.8816 37.3614 15.369 37.4041 15.8534C37.4862 17.0722 38.6291 18.2845 40.1212 18.2024C40.8614 18.1623 41.5773 18.0942 42.2615 17.6677C41.4419 17.0564 40.8226 16.3097 40.5735 15.3186C40.2882 14.1875 40.1664 13.0405 40.754 11.9588C41.4157 10.7503 42.3698 10.0195 43.779 10.0596C44.3477 10.0755 44.9308 10.0046 45.4399 10.3443C46.2587 10.8902 46.6252 11.7134 46.6947 12.6859C46.7703 13.6921 46.6265 14.7031 46.274 15.6443C46.2251 15.8065 46.1847 15.9713 46.153 16.138L47.2643 15.9056ZM9.53693 9.38114C7.70356 9.83658 6.28181 10.8016 5.19496 12.2892C4.53599 13.1898 4.21012 14.2407 4.12165 15.3494C4.07927 15.9356 4.11726 16.525 4.23449 17.1002C4.36628 17.7629 4.8745 18.2006 5.57951 18.2052C6.5156 18.2108 7.24047 17.816 7.85521 17.1254C8.46994 16.4348 8.94837 15.6322 9.06663 14.6849C9.17315 13.845 9.12982 12.9798 9.19842 12.1296C9.258 11.397 9.37896 10.67 9.47826 9.94111C9.49902 9.77872 9.51256 9.6126 9.53693 9.38114ZM44.279 15.2281C44.7494 14.4572 44.7593 13.6509 44.6916 12.8398C44.6699 12.5757 44.4785 12.4068 44.2141 12.3648C43.9496 12.3228 43.8656 12.5067 43.7672 12.6989C43.3836 13.4483 43.5704 14.4488 44.279 15.2281Z" fill="#C7C8CA"/>
<path d="M104.447 18.4788C104.266 16.8549 105.852 15.5436 107.176 15.5446C108.697 15.5446 109.986 16.8875 110 18.4246C110.014 19.8675 108.697 21.3402 107.194 21.3243C105.789 21.3047 104.298 19.9869 104.447 18.4788Z" fill="white"/>
</g>
<defs>
<clipPath id="clip0">
<rect width="110" height="22" fill="white"/>
</clipPath>
</defs>
</svg>
