<svg width="165" height="22" viewBox="0 0 165 22" fill="none" xmlns="http://www.w3.org/2000/svg">
<path d="M71.2258 14.3114H82.1277L76.3692 4.79597L65.7958 21.996L60.977 22L73.8482 1.34473C74.3942 0.504695 75.3363 0 76.3618 0C77.3745 0 78.3038 0.490106 78.8525 1.30815L91.767 21.9998L86.9457 21.9958L84.684 18.1515H73.6362L71.2258 14.3114ZM121.247 18.1555V0.215029H117.159V19.9093C117.159 20.4546 117.375 20.975 117.755 21.3642C118.155 21.7706 118.683 21.996 119.252 21.996H137.884L140.287 18.1557H121.247V18.1555ZM53.651 14.9444C57.617 14.9444 60.8338 11.6454 60.8338 7.57972C60.8338 3.51278 57.6172 0.215029 53.651 0.215029H35.7708V21.9958H39.8545V4.05384H53.3699C55.2736 4.05384 56.8078 5.63072 56.8078 7.57951C56.8078 9.52598 55.2738 11.1065 53.3699 11.1065L41.8553 11.1024L54.0488 21.9956H59.9851L51.7807 14.9402L53.651 14.9444ZM10.6246 21.9958C4.7586 21.9958 0 17.1226 0 11.1067C0 5.09071 4.7586 0.215029 10.6246 0.215029H22.9738C28.841 0.215029 33.5971 5.09071 33.5971 11.1067C33.5971 17.1239 28.841 21.9998 22.9738 21.9998L10.6246 21.9958ZM22.699 18.158C26.4988 18.158 29.5762 15.0019 29.5762 11.1065C29.5762 7.21119 26.4988 4.05511 22.699 4.05511L10.8982 4.05384C7.09974 4.05384 4.01961 7.21141 4.01961 11.1065C4.01961 15.0017 7.09974 18.158 10.8982 18.158H22.699ZM100.291 21.9958C94.426 21.9958 89.6659 17.1228 89.6659 11.1067C89.6659 5.09071 94.426 0.215029 100.291 0.215029H114.967L112.562 4.05532L100.567 4.05405C96.7657 4.05405 93.686 7.21162 93.686 11.1067C93.686 15.0019 96.7659 18.1582 100.567 18.1582H115.298L112.898 21.9958H100.291ZM150.271 18.158C147.127 18.158 144.468 15.9902 143.656 13.0333H161.121L163.527 9.19297L143.651 9.1917C144.464 6.22696 147.12 4.05384 150.271 4.05384L162.259 4.05511L164.668 0.214818H149.991C144.128 0.214818 139.368 5.0905 139.368 11.1065C139.368 17.1226 144.128 21.9956 149.991 21.9956H162.599L165 18.158H150.271Z" fill="white"/>
</svg>
