<svg width="146" height="32" viewBox="0 0 146 32" fill="none" xmlns="http://www.w3.org/2000/svg">
<path d="M92.6502 23.5909H107.824V20.199H97.8272C99.1661 14.665 107.646 13.5047 107.646 7.34584C107.646 4.04328 105.414 1.6333 100.683 1.6333C97.738 1.6333 95.2387 2.52588 93.4536 3.41847L94.5247 6.45325C96.1313 5.73919 97.9165 4.93586 100.148 4.93586C101.933 4.93586 103.54 5.64993 103.54 7.70287C103.451 12.3443 93.5428 12.7013 92.6502 23.5909ZM108.27 18.3246H118V23.5909H121.927V18.3246H125.14V15.1113H121.927V1.72256H119.071L108.36 15.6469V18.3246H108.27ZM112.644 15.1113L118.178 7.70287C118.178 8.32768 118 10.2021 118 11.9873V15.1113H115.411C114.608 15.1113 113.18 15.1113 112.644 15.1113Z" fill="#C7C8CA"/>
<path d="M3.92737 20.3776V13.5939H5.53402C6.96215 13.5939 8.21177 13.7724 9.10436 14.2187C9.99694 14.7543 10.5325 15.6469 10.5325 16.9858C10.5325 19.3065 9.10436 20.3776 5.89105 20.3776H3.92737ZM0 23.5909H5.8018C12.2284 23.5909 14.5491 20.7346 14.5491 16.8072C14.5491 14.1295 13.3888 12.3443 11.5143 11.3625C9.99694 10.5591 7.944 10.2914 5.62328 10.2914H4.01663V5.11438H12.764L13.8351 1.90108H0V23.5909ZM17.1376 23.5909H21.065V7.97065H17.1376V23.5909ZM19.1906 5.47142C20.6187 5.47142 21.6005 4.40032 21.6005 3.1507C21.6005 1.81182 20.5294 0.740723 19.1906 0.740723C17.7624 0.740723 16.7806 1.81182 16.7806 3.1507C16.7806 4.48958 17.7624 5.47142 19.1906 5.47142ZM27.7594 23.5909H31.6867V11.2732H36.3282L37.31 7.97065H23.0287V11.2732H27.7594V23.5909ZM38.7381 31.4456H42.6655V23.5909C43.3796 23.8587 44.2722 23.9479 45.0755 23.9479C49.9847 23.9479 53.198 20.5561 53.198 15.7361C53.198 10.7377 50.2525 7.61362 44.6292 7.61362C42.487 7.61362 40.4341 7.97065 38.7381 8.59546V31.4456ZM42.6655 20.2883V11.0947C43.2903 10.9162 43.8259 10.8269 44.5399 10.8269C47.3069 10.8269 49.1814 12.4336 49.1814 15.7361C49.1814 18.7709 47.664 20.6453 44.8077 20.6453C43.9151 20.6453 43.3796 20.5561 42.6655 20.2883ZM55.5187 23.5909H59.4461V7.97065H55.5187V23.5909ZM57.4824 5.47142C58.9105 5.47142 59.8924 4.40032 59.8924 3.1507C59.8924 1.81182 58.8213 0.740723 57.4824 0.740723C56.0543 0.740723 55.0724 1.81182 55.0724 3.1507C55.0724 4.48958 56.0543 5.47142 57.4824 5.47142ZM62.4809 23.5909H66.4082V17.1643H68.729C69.1753 17.1643 69.6216 17.6106 70.0678 18.6817L72.0315 23.6801H76.3159L73.4597 17.6998C72.9241 16.718 72.4778 16.0932 71.6745 15.8254V15.7361C73.0134 14.9328 73.1026 12.7013 73.906 11.6302C74.1737 11.2732 74.5308 11.0947 74.9771 11.0947C75.2448 11.0947 75.6019 11.0947 75.8696 11.184V7.88139C75.4233 7.70288 74.7093 7.61362 74.263 7.61362C72.9241 7.61362 72.0315 8.14917 71.4067 9.04175C70.1571 10.9162 70.1571 14.2187 68.1934 14.2187H66.4082V7.97065H62.4809V23.5909ZM85.1525 23.9479C87.2947 23.9479 89.2584 23.3231 90.508 22.4305L89.3477 19.7528C88.2766 20.3776 87.2055 20.8239 85.6881 20.8239C83.0103 20.8239 81.3144 19.0387 81.3144 15.9147C81.3144 13.0584 83.0103 10.8269 85.9558 10.8269C87.4732 10.8269 88.6336 11.2732 89.7047 12.0765V8.68472C88.9014 8.14917 87.4732 7.61362 85.5095 7.61362C80.8681 7.61362 77.2978 11.0947 77.2978 15.9147C77.2978 20.4668 80.0648 23.9479 85.1525 23.9479Z" fill="white"/>
<path d="M136.744 18.2353C140.939 18.2353 144.331 14.8435 144.331 10.6484C144.331 6.45322 140.939 3.0614 136.744 3.0614C132.549 3.0614 129.157 6.45322 129.157 10.6484C129.068 14.8435 132.459 18.2353 136.744 18.2353Z" stroke="#C7C8CA" stroke-width="1.7051"/>
<path d="M141.475 10.6484H137.279V6.45325H136.208V11.7195H141.475V10.6484Z" fill="#C7C8CA"/>
</svg>
