<svg width="144" height="20" viewBox="0 0 144 20" fill="none" xmlns="http://www.w3.org/2000/svg">
<path d="M112.789 7.02531H112.368V2.46441C112.509 2.39424 112.649 2.39424 112.86 2.32407C113.07 2.25391 113.351 2.25391 113.631 2.25391C113.912 2.25391 114.123 2.32407 114.333 2.39424C114.544 2.46441 114.754 2.60474 114.894 2.74508C115.035 2.88542 115.175 3.09592 115.245 3.30642C115.315 3.51693 115.386 3.7976 115.386 4.07827C115.386 4.35894 115.386 4.56944 115.315 4.77994C115.245 4.99045 115.175 5.20095 115.035 5.34129C114.894 5.48162 114.754 5.62196 114.544 5.69213C114.333 5.76229 114.123 5.83246 113.842 5.83246C113.631 5.83246 113.421 5.83246 113.21 5.76229C113.07 5.69213 112.93 5.62196 112.86 5.55179V7.02531H112.789ZM112.789 5.20095C112.86 5.20095 112.86 5.27112 112.93 5.27112C113 5.34129 113.07 5.34129 113.14 5.34129C113.21 5.34129 113.281 5.41145 113.421 5.41145C113.491 5.41145 113.631 5.41145 113.702 5.41145C113.912 5.41145 114.123 5.34129 114.263 5.27112C114.403 5.20095 114.544 5.06062 114.614 4.99045C114.684 4.85011 114.754 4.70978 114.824 4.56944C114.894 4.42911 114.894 4.2186 114.894 4.0081C114.894 3.51693 114.754 3.16609 114.544 2.95558C114.333 2.74508 113.982 2.60474 113.631 2.60474C113.421 2.60474 113.21 2.60474 113.14 2.60474C113 2.60474 112.93 2.67491 112.86 2.67491V5.20095H112.789Z" fill="#232323"/>
<path d="M118.26 2.25391C118.471 2.25391 118.681 2.25391 118.822 2.32407C118.962 2.39424 119.102 2.46441 119.243 2.60474C119.313 2.74508 119.383 2.88542 119.453 3.02575C119.453 3.16609 119.453 3.37659 119.453 3.51693V5.69213C119.383 5.69213 119.313 5.69213 119.243 5.76229C119.172 5.76229 119.032 5.76229 118.962 5.83246C118.822 5.83246 118.751 5.83246 118.611 5.90263C118.471 5.9728 118.33 5.90263 118.19 5.90263C117.98 5.90263 117.839 5.90263 117.699 5.83246C117.559 5.76229 117.418 5.76229 117.278 5.62196C117.138 5.55179 117.067 5.41145 116.997 5.27112C116.927 5.13078 116.927 4.99045 116.927 4.77994C116.927 4.56944 116.997 4.42911 117.067 4.28877C117.138 4.14843 117.208 4.0081 117.348 3.93793C117.488 3.86776 117.629 3.7976 117.839 3.72743C118.05 3.65726 118.19 3.65726 118.401 3.65726C118.471 3.65726 118.541 3.65726 118.611 3.65726C118.681 3.65726 118.751 3.65726 118.822 3.65726C118.892 3.65726 118.962 3.65726 118.962 3.65726C119.032 3.65726 119.032 3.65726 119.032 3.65726V3.58709C119.032 3.44676 119.032 3.37659 119.032 3.23625C119.032 3.09592 118.962 3.02575 118.892 2.95558C118.822 2.88542 118.751 2.81525 118.611 2.74508C118.471 2.67491 118.33 2.67491 118.19 2.67491C117.909 2.67491 117.769 2.67491 117.629 2.74508C117.488 2.81525 117.418 2.81525 117.348 2.81525L117.278 2.46441C117.348 2.39424 117.488 2.39424 117.629 2.39424C117.839 2.25391 117.98 2.25391 118.26 2.25391ZM118.26 5.48162C118.401 5.48162 118.611 5.48162 118.681 5.48162C118.822 5.48162 118.892 5.48162 119.032 5.41145V4.2186C118.962 4.2186 118.892 4.14843 118.822 4.14843C118.681 4.14843 118.541 4.07827 118.401 4.07827C118.26 4.07827 118.19 4.07827 118.05 4.07827C117.909 4.07827 117.839 4.14843 117.699 4.14843C117.629 4.2186 117.488 4.28877 117.488 4.35894C117.418 4.42911 117.418 4.56944 117.418 4.70978C117.418 4.85011 117.418 4.92028 117.488 5.06062C117.559 5.13078 117.559 5.20095 117.699 5.27112C117.769 5.34129 117.839 5.34129 117.98 5.41145C117.98 5.48162 118.12 5.48162 118.26 5.48162Z" fill="#232323"/>
<path d="M122.683 2.25391C122.823 2.25391 122.963 2.25391 123.104 2.25391C123.244 2.25391 123.314 2.32407 123.384 2.32407L123.314 2.67491C123.244 2.67491 123.174 2.60474 123.104 2.60474C123.033 2.60474 122.823 2.60474 122.683 2.60474C122.472 2.60474 122.332 2.60474 122.262 2.67491C122.121 2.67491 122.051 2.74508 122.051 2.74508V5.83246H121.63V2.46441C121.77 2.39424 121.911 2.39424 122.121 2.32407C122.121 2.25391 122.402 2.25391 122.683 2.25391Z" fill="#232323"/>
<path d="M125.278 2.32581H126.681V2.67665H125.278V4.50101C125.278 4.71151 125.278 4.85185 125.348 4.99218C125.348 5.13252 125.418 5.20269 125.488 5.27285C125.558 5.34302 125.628 5.41319 125.699 5.41319C125.769 5.41319 125.909 5.41319 125.979 5.41319C126.19 5.41319 126.33 5.41319 126.4 5.34302C126.541 5.27285 126.611 5.27285 126.681 5.20269L126.821 5.55352C126.751 5.62369 126.681 5.62369 126.47 5.69386C126.33 5.76403 126.12 5.76403 125.979 5.76403C125.769 5.76403 125.558 5.76403 125.418 5.69386C125.278 5.62369 125.137 5.55352 125.067 5.41319C124.997 5.27285 124.927 5.13252 124.857 4.99218C124.786 4.85185 124.786 4.64134 124.786 4.36067V1.27329L125.207 1.20312V2.32581H125.278Z" fill="#232323"/>
<path d="M128.368 2.46441C128.509 2.39424 128.649 2.39424 128.93 2.32407C129.14 2.25391 129.421 2.25391 129.772 2.25391C130.052 2.25391 130.263 2.32407 130.403 2.39424C130.614 2.46441 130.754 2.60474 130.824 2.74508C130.965 2.88542 131.035 3.02575 131.035 3.23625C131.105 3.44676 131.105 3.65726 131.105 3.86776V5.83246H130.684V4.0081C130.684 3.72743 130.684 3.51693 130.614 3.37659C130.614 3.23625 130.544 3.09592 130.473 2.95558C130.403 2.81525 130.263 2.74508 130.193 2.74508C130.052 2.67491 129.912 2.67491 129.702 2.67491C129.491 2.67491 129.351 2.67491 129.14 2.67491C129 2.67491 128.86 2.74508 128.86 2.74508V5.83246H128.439V2.46441H128.368Z" fill="#232323"/>
<path d="M139.101 2.25391C139.241 2.25391 139.381 2.25391 139.522 2.25391C139.662 2.25391 139.732 2.32407 139.802 2.32407L139.732 2.67491C139.662 2.67491 139.592 2.60474 139.522 2.60474C139.381 2.60474 139.241 2.60474 139.101 2.60474C138.89 2.60474 138.75 2.60474 138.68 2.67491C138.539 2.67491 138.469 2.74508 138.469 2.74508V5.83246H138.048V2.46441C138.188 2.39424 138.329 2.39424 138.539 2.32407C138.539 2.25391 138.82 2.25391 139.101 2.25391Z" fill="#232323"/>
<path d="M142.05 5.48148C142.331 5.48148 142.541 5.41131 142.681 5.34114C142.822 5.27097 142.962 5.13064 142.962 4.92014C142.962 4.84997 142.962 4.70963 142.892 4.70963C142.892 4.63946 142.822 4.5693 142.752 4.49913C142.681 4.42896 142.611 4.35879 142.471 4.35879C142.331 4.28863 142.19 4.21846 142.05 4.14829C141.91 4.07812 141.769 4.00795 141.699 4.00795C141.559 3.93779 141.489 3.86762 141.418 3.79745C141.348 3.72728 141.278 3.65712 141.208 3.51678C141.138 3.44661 141.138 3.30628 141.138 3.16594C141.138 2.88527 141.278 2.67477 141.489 2.46426C141.699 2.32393 141.98 2.18359 142.401 2.18359C142.611 2.18359 142.822 2.18359 142.962 2.25376C143.102 2.32393 143.243 2.32393 143.313 2.3941L143.102 2.8151C143.032 2.8151 142.962 2.74494 142.822 2.67477C142.681 2.6046 142.471 2.6046 142.26 2.6046C142.19 2.6046 142.05 2.6046 141.98 2.6046C141.91 2.6046 141.839 2.67477 141.769 2.67477C141.699 2.74494 141.629 2.74494 141.629 2.8151C141.629 2.88527 141.559 2.95544 141.559 3.02561C141.559 3.09577 141.559 3.23611 141.629 3.23611C141.699 3.30628 141.699 3.37645 141.769 3.44661C141.839 3.51678 141.91 3.51678 142.05 3.58695C142.12 3.65712 142.26 3.65712 142.401 3.72728C142.541 3.79745 142.681 3.86762 142.822 3.86762C142.962 3.93779 143.032 4.00795 143.173 4.07812C143.243 4.14829 143.313 4.21846 143.383 4.35879C143.453 4.49913 143.453 4.63946 143.453 4.7798C143.453 5.06047 143.313 5.34114 143.102 5.48148C142.892 5.62181 142.541 5.69198 142.12 5.69198C141.839 5.69198 141.559 5.69198 141.418 5.62181C141.278 5.55165 141.138 5.55165 141.068 5.48148L141.208 5.06047C141.208 5.06047 141.278 5.06047 141.278 5.13064C141.348 5.13064 141.418 5.20081 141.489 5.20081C141.559 5.20081 141.629 5.27097 141.769 5.27097C141.769 5.48148 141.91 5.48148 142.05 5.48148Z" fill="#232323"/>
<path d="M132.923 3.15234H135.94V3.50318H132.923V3.15234ZM132.923 4.62587H135.94V4.9767H132.923V4.62587Z" fill="#232323"/>
<path d="M47.6013 19.021L45.6366 14.5302H38.69L36.6552 19.021H33.638L42.1283 0.777344L50.6186 19.021H47.6013ZM39.7426 12.1445H44.6543L42.8299 8.14496C42.7598 7.86428 42.6194 7.58361 42.4791 7.23278C42.3388 6.88194 42.2686 6.5311 42.1283 6.11009C42.0581 6.46093 41.9178 6.88194 41.8476 7.16261C41.7073 7.51345 41.6371 7.79412 41.4968 8.07479L39.7426 12.1445Z" fill="#232323"/>
<path d="M53.2161 19.0185L58.8997 9.82652L53.9178 1.47656H56.935L59.461 5.75679C59.6014 5.9673 59.882 6.45847 60.2329 7.16015L60.4434 7.51099C60.5837 7.23032 60.724 7.01981 60.8644 6.73914C61.0047 6.45847 61.2152 6.1778 61.4257 5.82696L64.0921 1.54673H67.0391L61.9169 9.82652L67.4601 19.0185H64.3026L61.2152 14.0366L61.1451 13.9664C60.7942 13.3349 60.5135 12.7736 60.2329 12.2824C60.0925 12.5631 59.9522 12.8437 59.8119 13.1244C59.6715 13.4051 59.461 13.6857 59.3207 14.0366L56.2333 19.0185H53.2161Z" fill="#232323"/>
<path d="M87.8064 10.2504C87.8064 11.5134 87.5958 12.7063 87.1047 13.7588C86.6135 14.8815 85.982 15.8638 85.0698 16.7059C84.1576 17.5479 83.1753 18.2495 81.9824 18.7407C80.7896 19.2319 79.6669 19.4424 78.4039 19.4424C77.1409 19.4424 75.948 19.2319 74.8253 18.7407C73.7026 18.2495 72.6501 17.618 71.8081 16.776C70.8959 15.934 70.2644 14.9517 69.7732 13.829C69.2821 12.7063 69.0716 11.5134 69.0716 10.2504C69.0716 8.9874 69.2821 7.79455 69.7732 6.67187C70.2644 5.54918 70.8959 4.56684 71.8081 3.65465C72.7203 2.81264 73.7026 2.11097 74.8253 1.68996C75.948 1.26895 77.1409 0.988281 78.4039 0.988281C79.6669 0.988281 80.8597 1.19878 81.9824 1.68996C83.1051 2.11097 84.1576 2.81264 84.9996 3.65465C85.9118 4.56684 86.5433 5.54918 87.0345 6.67187C87.5958 7.86472 87.8064 9.05757 87.8064 10.2504ZM84.8593 10.2504C84.8593 9.33824 84.719 8.49623 84.3681 7.72438C84.0173 6.95254 83.5963 6.18069 82.9648 5.61935C82.4034 4.98784 81.7018 4.49667 80.9299 4.216C80.1581 3.86516 79.3161 3.72482 78.474 3.72482C77.632 3.72482 76.79 3.86516 76.0182 4.216C75.2463 4.56684 74.5446 4.98784 73.9131 5.61935C73.2816 6.25086 72.8606 6.95254 72.5098 7.72438C72.1589 8.49623 72.0186 9.33824 72.0186 10.2504C72.0186 11.1626 72.1589 12.0046 72.5098 12.7765C72.8606 13.5483 73.2816 14.25 73.9131 14.8815C74.5446 15.513 75.1762 16.0042 76.0182 16.2848C76.8602 16.5655 77.632 16.776 78.474 16.776C79.3161 16.776 80.1581 16.6357 80.9299 16.2848C81.7018 15.934 82.4034 15.513 83.0349 14.8815C83.6665 14.25 84.0875 13.5483 84.4383 12.7765C84.6488 12.0046 84.8593 11.1626 84.8593 10.2504Z" fill="#232323"/>
<path d="M90.6141 19.021V0.777344L101.771 11.513C102.051 11.7937 102.402 12.1445 102.683 12.4954C102.964 12.8462 103.314 13.197 103.665 13.6882V1.47902H106.332V19.7226L94.9645 8.77646C94.6839 8.49579 94.333 8.14495 94.0524 7.86428C93.7717 7.51344 93.491 7.16261 93.2103 6.81177V19.021H90.6141Z" fill="#232323"/>
<path d="M19.5354 0.0703125L17.1497 2.03501L25.2891 10.1043L17.3602 17.8929L19.3249 19.9979L29.429 9.96396L19.5354 0.0703125Z" fill="#E74C3C"/>
<path d="M12.9373 2.10503L10.9726 0L0.868408 10.034L10.7621 19.9276L13.1478 18.0331L5.0083 9.89365L12.9373 2.10503Z" fill="#E74C3C"/>
</svg>
