<svg width="144" height="21" viewBox="0 0 144 21" fill="none" xmlns="http://www.w3.org/2000/svg">
<path d="M112.53 7.52531H112.109V2.96441C112.25 2.89424 112.39 2.89424 112.601 2.82407C112.811 2.75391 113.092 2.75391 113.372 2.75391C113.653 2.75391 113.864 2.82407 114.074 2.89424C114.285 2.96441 114.495 3.10474 114.635 3.24508C114.776 3.38542 114.916 3.59592 114.986 3.80642C115.056 4.01693 115.127 4.2976 115.127 4.57827C115.127 4.85894 115.127 5.06944 115.056 5.27994C114.986 5.49045 114.916 5.70095 114.776 5.84129C114.635 5.98162 114.495 6.12196 114.285 6.19213C114.074 6.26229 113.864 6.33246 113.583 6.33246C113.372 6.33246 113.162 6.33246 112.951 6.26229C112.811 6.19213 112.671 6.12196 112.601 6.05179V7.52531H112.53ZM112.53 5.70095C112.601 5.70095 112.601 5.77112 112.671 5.77112C112.741 5.84129 112.811 5.84129 112.881 5.84129C112.951 5.84129 113.022 5.91145 113.162 5.91145C113.232 5.91145 113.372 5.91145 113.443 5.91145C113.653 5.91145 113.864 5.84129 114.004 5.77112C114.144 5.70095 114.285 5.56062 114.355 5.49045C114.425 5.35011 114.495 5.20978 114.565 5.06944C114.635 4.92911 114.635 4.7186 114.635 4.5081C114.635 4.01693 114.495 3.66609 114.285 3.45558C114.074 3.24508 113.723 3.10474 113.372 3.10474C113.162 3.10474 112.951 3.10474 112.881 3.10474C112.741 3.10474 112.671 3.17491 112.601 3.17491V5.70095H112.53Z" fill="white"/>
<path d="M118.004 2.75391C118.215 2.75391 118.425 2.75391 118.565 2.82407C118.706 2.89424 118.846 2.96441 118.986 3.10474C119.057 3.24508 119.127 3.38542 119.197 3.52575C119.197 3.66609 119.197 3.87659 119.197 4.01693V6.19213C119.127 6.19213 119.057 6.19213 118.986 6.26229C118.916 6.26229 118.776 6.26229 118.706 6.33246C118.565 6.33246 118.495 6.33246 118.355 6.40263C118.215 6.4728 118.074 6.40263 117.934 6.40263C117.723 6.40263 117.583 6.40263 117.443 6.33246C117.302 6.26229 117.162 6.26229 117.022 6.12196C116.881 6.05179 116.811 5.91145 116.741 5.77112C116.671 5.63078 116.671 5.49045 116.671 5.27994C116.671 5.06944 116.741 4.92911 116.811 4.78877C116.881 4.64843 116.952 4.5081 117.092 4.43793C117.232 4.36776 117.373 4.2976 117.583 4.22743C117.794 4.15726 117.934 4.15726 118.144 4.15726C118.215 4.15726 118.285 4.15726 118.355 4.15726C118.425 4.15726 118.495 4.15726 118.565 4.15726C118.636 4.15726 118.706 4.15726 118.706 4.15726C118.776 4.15726 118.776 4.15726 118.776 4.15726V4.08709C118.776 3.94676 118.776 3.87659 118.776 3.73625C118.776 3.59592 118.706 3.52575 118.636 3.45558C118.565 3.38542 118.495 3.31525 118.355 3.24508C118.215 3.17491 118.074 3.17491 117.934 3.17491C117.653 3.17491 117.513 3.17491 117.373 3.24508C117.232 3.31525 117.162 3.31525 117.092 3.31525L117.022 2.96441C117.092 2.89424 117.232 2.89424 117.373 2.89424C117.583 2.75391 117.723 2.75391 118.004 2.75391ZM118.004 5.98162C118.144 5.98162 118.355 5.98162 118.425 5.98162C118.565 5.98162 118.636 5.98162 118.776 5.91145V4.7186C118.706 4.7186 118.636 4.64843 118.565 4.64843C118.425 4.64843 118.285 4.57827 118.144 4.57827C118.004 4.57827 117.934 4.57827 117.794 4.57827C117.653 4.57827 117.583 4.64843 117.443 4.64843C117.373 4.7186 117.232 4.78877 117.232 4.85894C117.162 4.92911 117.162 5.06944 117.162 5.20978C117.162 5.35011 117.162 5.42028 117.232 5.56062C117.302 5.63078 117.302 5.70095 117.443 5.77112C117.513 5.84129 117.583 5.84129 117.723 5.91145C117.723 5.98162 117.864 5.98162 118.004 5.98162Z" fill="white"/>
<path d="M122.424 2.75391C122.564 2.75391 122.704 2.75391 122.845 2.75391C122.985 2.75391 123.055 2.82407 123.125 2.82407L123.055 3.17491C122.985 3.17491 122.915 3.10474 122.845 3.10474C122.774 3.10474 122.564 3.10474 122.424 3.10474C122.213 3.10474 122.073 3.10474 122.003 3.17491C121.862 3.17491 121.792 3.24508 121.792 3.24508V6.33246H121.371V2.96441C121.511 2.89424 121.652 2.89424 121.862 2.82407C121.862 2.75391 122.143 2.75391 122.424 2.75391Z" fill="white"/>
<path d="M125.019 2.82581H126.422V3.17665H125.019V5.00101C125.019 5.21151 125.019 5.35185 125.089 5.49218C125.089 5.63252 125.159 5.70269 125.229 5.77285C125.299 5.84302 125.369 5.91319 125.44 5.91319C125.51 5.91319 125.65 5.91319 125.72 5.91319C125.931 5.91319 126.071 5.91319 126.141 5.84302C126.282 5.77285 126.352 5.77285 126.422 5.70269L126.562 6.05352C126.492 6.12369 126.422 6.12369 126.211 6.19386C126.071 6.26403 125.861 6.26403 125.72 6.26403C125.51 6.26403 125.299 6.26403 125.159 6.19386C125.019 6.12369 124.878 6.05352 124.808 5.91319C124.738 5.77285 124.668 5.63252 124.598 5.49218C124.527 5.35185 124.527 5.14134 124.527 4.86067V1.77329L124.948 1.70312V2.82581H125.019Z" fill="white"/>
<path d="M128.109 2.96441C128.25 2.89424 128.39 2.89424 128.671 2.82407C128.881 2.75391 129.162 2.75391 129.513 2.75391C129.793 2.75391 130.004 2.82407 130.144 2.89424C130.355 2.96441 130.495 3.10474 130.565 3.24508C130.706 3.38542 130.776 3.52575 130.776 3.73625C130.846 3.94676 130.846 4.15726 130.846 4.36776V6.33246H130.425V4.5081C130.425 4.22743 130.425 4.01693 130.355 3.87659C130.355 3.73625 130.285 3.59592 130.214 3.45558C130.144 3.31525 130.004 3.24508 129.934 3.24508C129.793 3.17491 129.653 3.17491 129.443 3.17491C129.232 3.17491 129.092 3.17491 128.881 3.17491C128.741 3.17491 128.601 3.24508 128.601 3.24508V6.33246H128.18V2.96441H128.109Z" fill="white"/>
<path d="M138.842 2.75391C138.982 2.75391 139.122 2.75391 139.263 2.75391C139.403 2.75391 139.473 2.82407 139.543 2.82407L139.473 3.17491C139.403 3.17491 139.333 3.10474 139.263 3.10474C139.122 3.10474 138.982 3.10474 138.842 3.10474C138.631 3.10474 138.491 3.10474 138.421 3.17491C138.28 3.17491 138.21 3.24508 138.21 3.24508V6.33246H137.789V2.96441C137.929 2.89424 138.07 2.89424 138.28 2.82407C138.28 2.75391 138.561 2.75391 138.842 2.75391Z" fill="white"/>
<path d="M141.791 5.98148C142.072 5.98148 142.282 5.91131 142.422 5.84114C142.563 5.77097 142.703 5.63064 142.703 5.42014C142.703 5.34997 142.703 5.20963 142.633 5.20963C142.633 5.13946 142.563 5.0693 142.493 4.99913C142.422 4.92896 142.352 4.85879 142.212 4.85879C142.072 4.78863 141.931 4.71846 141.791 4.64829C141.651 4.57812 141.51 4.50795 141.44 4.50795C141.3 4.43779 141.23 4.36762 141.159 4.29745C141.089 4.22728 141.019 4.15712 140.949 4.01678C140.879 3.94661 140.879 3.80628 140.879 3.66594C140.879 3.38527 141.019 3.17477 141.23 2.96426C141.44 2.82393 141.721 2.68359 142.142 2.68359C142.352 2.68359 142.563 2.68359 142.703 2.75376C142.843 2.82393 142.984 2.82393 143.054 2.8941L142.843 3.3151C142.773 3.3151 142.703 3.24494 142.563 3.17477C142.422 3.1046 142.212 3.1046 142.001 3.1046C141.931 3.1046 141.791 3.1046 141.721 3.1046C141.651 3.1046 141.58 3.17477 141.51 3.17477C141.44 3.24494 141.37 3.24494 141.37 3.3151C141.37 3.38527 141.3 3.45544 141.3 3.52561C141.3 3.59577 141.3 3.73611 141.37 3.73611C141.44 3.80628 141.44 3.87645 141.51 3.94661C141.58 4.01678 141.651 4.01678 141.791 4.08695C141.861 4.15712 142.001 4.15712 142.142 4.22728C142.282 4.29745 142.422 4.36762 142.563 4.36762C142.703 4.43779 142.773 4.50795 142.914 4.57812C142.984 4.64829 143.054 4.71846 143.124 4.85879C143.194 4.99913 143.194 5.13946 143.194 5.2798C143.194 5.56047 143.054 5.84114 142.843 5.98148C142.633 6.12181 142.282 6.19198 141.861 6.19198C141.58 6.19198 141.3 6.19198 141.159 6.12181C141.019 6.05165 140.879 6.05165 140.809 5.98148L140.949 5.56047C140.949 5.56047 141.019 5.56047 141.019 5.63064C141.089 5.63064 141.159 5.70081 141.23 5.70081C141.3 5.70081 141.37 5.77097 141.51 5.77097C141.51 5.98148 141.651 5.98148 141.791 5.98148Z" fill="white"/>
<path d="M132.667 3.65234H135.684V4.00318H132.667V3.65234ZM132.667 5.12587H135.684V5.4767H132.667V5.12587Z" fill="white"/>
<path d="M47.3413 19.521L45.3766 15.0302H38.43L36.3951 19.521H33.3779L41.8682 1.27734L50.3585 19.521H47.3413ZM39.4825 12.6445H44.3943L42.5699 8.64496C42.4997 8.36428 42.3594 8.08361 42.2191 7.73278C42.0787 7.38194 42.0086 7.0311 41.8682 6.61009C41.7981 6.96093 41.6577 7.38194 41.5876 7.66261C41.4472 8.01345 41.3771 8.29412 41.2367 8.57479L39.4825 12.6445Z" fill="white"/>
<path d="M52.9561 19.5185L58.6396 10.3265L53.6577 1.97656H56.6749L59.201 6.25679C59.3413 6.4673 59.622 6.95847 59.9728 7.66015L60.1833 8.01099C60.3237 7.73032 60.464 7.51981 60.6043 7.23914C60.7447 6.95847 60.9552 6.6778 61.1657 6.32696L63.8321 2.04673H66.7791L61.6569 10.3265L67.2001 19.5185H64.0426L60.9552 14.5366L60.885 14.4664C60.5342 13.8349 60.2535 13.2736 59.9728 12.7824C59.8325 13.0631 59.6922 13.3437 59.5518 13.6244C59.4115 13.9051 59.201 14.1857 59.0607 14.5366L55.9733 19.5185H52.9561Z" fill="white"/>
<path d="M87.5463 10.7504C87.5463 12.0134 87.3358 13.2063 86.8446 14.2588C86.3535 15.3815 85.7219 16.3638 84.8098 17.2059C83.8976 18.0479 82.9152 18.7495 81.7224 19.2407C80.5295 19.7319 79.4069 19.9424 78.1438 19.9424C76.8808 19.9424 75.688 19.7319 74.5653 19.2407C73.4426 18.7495 72.3901 18.118 71.5481 17.276C70.6359 16.434 70.0044 15.4517 69.5132 14.329C69.022 13.2063 68.8115 12.0134 68.8115 10.7504C68.8115 9.4874 69.022 8.29455 69.5132 7.17187C70.0044 6.04918 70.6359 5.06684 71.5481 4.15465C72.4602 3.31264 73.4426 2.61097 74.5653 2.18996C75.688 1.76895 76.8808 1.48828 78.1438 1.48828C79.4069 1.48828 80.5997 1.69878 81.7224 2.18996C82.8451 2.61097 83.8976 3.31264 84.7396 4.15465C85.6518 5.06684 86.2833 6.04918 86.7745 7.17187C87.3358 8.36472 87.5463 9.55757 87.5463 10.7504ZM84.5993 10.7504C84.5993 9.83824 84.4589 8.99623 84.1081 8.22438C83.7573 7.45254 83.3362 6.68069 82.7047 6.11935C82.1434 5.48784 81.4417 4.99667 80.6699 4.716C79.898 4.36516 79.056 4.22482 78.214 4.22482C77.372 4.22482 76.53 4.36516 75.7581 4.716C74.9863 5.06684 74.2846 5.48784 73.6531 6.11935C73.0216 6.75086 72.6006 7.45254 72.2497 8.22438C71.8989 8.99623 71.7586 9.83824 71.7586 10.7504C71.7586 11.6626 71.8989 12.5046 72.2497 13.2765C72.6006 14.0483 73.0216 14.75 73.6531 15.3815C74.2846 16.013 74.9161 16.5042 75.7581 16.7848C76.6001 17.0655 77.372 17.276 78.214 17.276C79.056 17.276 79.898 17.1357 80.6699 16.7848C81.4417 16.434 82.1434 16.013 82.7749 15.3815C83.4064 14.75 83.8274 14.0483 84.1783 13.2765C84.3888 12.5046 84.5993 11.6626 84.5993 10.7504Z" fill="white"/>
<path d="M90.3542 19.521V1.27734L101.511 12.013C101.791 12.2937 102.142 12.6445 102.423 12.9954C102.704 13.3462 103.055 13.697 103.405 14.1882V1.97902H106.072V20.2226L94.7046 9.27646C94.4239 8.99579 94.073 8.64495 93.7924 8.36428C93.5117 8.01344 93.231 7.66261 92.9504 7.31177V19.521H90.3542Z" fill="white"/>
<path d="M19.2763 0.570312L16.8906 2.53501L25.0301 10.6043L17.1011 18.3929L19.0658 20.4979L29.17 10.464L19.2763 0.570312Z" fill="#E74C3C"/>
<path d="M12.6782 2.60503L10.7135 0.5L0.609375 10.534L10.503 20.4276L12.8887 18.5331L4.74927 10.3937L12.6782 2.60503Z" fill="#E74C3C"/>
</svg>
