<svg width="71" height="19" viewBox="0 0 71 19" fill="none" xmlns="http://www.w3.org/2000/svg">
<path d="M45.0112 0H42.1064C41.8233 0 41.5938 0.229505 41.5938 0.512613V2.60578C41.5938 2.88889 41.8233 3.11839 42.1064 3.11839H45.0112C45.2943 3.11839 45.5238 2.88889 45.5238 2.60578V0.512613C45.5238 0.229505 45.2943 0 45.0112 0Z" fill="#4D58BA"/>
<path d="M52.9994 0H50.0946C49.8115 0 49.582 0.229505 49.582 0.512613V2.60578C49.582 2.88889 49.8115 3.11839 50.0946 3.11839H52.9994C53.2826 3.11839 53.5121 2.88889 53.5121 2.60578V0.512613C53.5121 0.229505 53.2826 0 52.9994 0Z" fill="#4D58BA"/>
<path d="M36.8084 0H33.9036C33.7676 0 33.6372 0.0540073 33.5411 0.150141C33.4449 0.246274 33.3909 0.376659 33.3909 0.512613V8.62898H24.7192V0.512613C24.7192 0.376659 24.6652 0.246274 24.5691 0.150141C24.473 0.0540073 24.3426 0 24.2066 0L21.3018 0C21.1659 0 21.0355 0.0540073 20.9393 0.150141C20.8432 0.246274 20.7892 0.376659 20.7892 0.512613V17.9414C20.7892 18.0774 20.8432 18.2078 20.9393 18.3039C21.0355 18.4001 21.1659 18.4541 21.3018 18.4541H24.2066C24.3426 18.4541 24.473 18.4001 24.5691 18.3039C24.6652 18.2078 24.7192 18.0774 24.7192 17.9414V11.8755H33.3909V17.9414C33.3909 18.0774 33.4449 18.2078 33.5411 18.3039C33.6372 18.4001 33.7676 18.4541 33.9036 18.4541H36.8084C36.9443 18.4541 37.0747 18.4001 37.1708 18.3039C37.267 18.2078 37.321 18.0774 37.321 17.9414V0.512613C37.321 0.376659 37.267 0.246274 37.1708 0.150141C37.0747 0.0540073 36.9443 0 36.8084 0V0Z" fill="#4D58BA"/>
<path d="M45.0112 4.1875H42.1064C41.8233 4.1875 41.5938 4.417 41.5938 4.70011V17.9426C41.5938 18.2257 41.8233 18.4552 42.1064 18.4552H45.0112C45.2943 18.4552 45.5238 18.2257 45.5238 17.9426V4.70011C45.5238 4.417 45.2943 4.1875 45.0112 4.1875Z" fill="#4D58BA"/>
<path d="M52.9994 4.1875H50.0946C49.8115 4.1875 49.582 4.417 49.582 4.70011V17.9426C49.582 18.2257 49.8115 18.4552 50.0946 18.4552H52.9994C53.2826 18.4552 53.5121 18.2257 53.5121 17.9426V4.70011C53.5121 4.417 53.2826 4.1875 52.9994 4.1875Z" fill="#4D58BA"/>
<path d="M69.4893 15.1221H61.6292V0.512613C61.6292 0.376659 61.5752 0.246274 61.4791 0.150141C61.383 0.0540073 61.2526 0 61.1166 0L58.2118 0C58.0759 0 57.9455 0.0540073 57.8494 0.150141C57.7532 0.246274 57.6992 0.376659 57.6992 0.512613V17.9414C57.6992 18.0774 57.7532 18.2078 57.8494 18.3039C57.9455 18.4001 58.0759 18.4541 58.2118 18.4541H69.4893C69.6253 18.4541 69.7556 18.4001 69.8518 18.3039C69.9479 18.2078 70.0019 18.0774 70.0019 17.9414V15.6347C70.0019 15.4987 69.9479 15.3684 69.8518 15.2722C69.7556 15.1761 69.6253 15.1221 69.4893 15.1221Z" fill="#4D58BA"/>
<path d="M10.4207 10.0754C10.4207 10.0754 12.5565 15.4779 11.8303 17.3374C11.1131 19.196 8.19164 16.7393 8.19164 16.7393C8.19164 16.7393 8.99516 15.0191 9.38432 13.9042C9.90291 12.4432 9.79911 12.4864 10.4215 10.075" fill="#54A1FC"/>
<path d="M10.1367 8.72656C10.1367 8.72656 15.8852 10.9479 16.8186 12.8497C17.752 14.7515 13.7429 15.2615 13.7429 15.2615C13.7429 15.2615 12.974 13.3943 12.3858 12.2965C11.6079 10.8355 11.5648 10.9569 10.1384 8.72656" fill="#7EC8FF"/>
<path d="M9.625 7.75772C9.625 7.75772 15.0271 5.63123 16.887 6.33992C18.7542 7.05758 16.289 9.97904 16.289 9.97904C16.289 9.97904 14.5606 9.17509 13.4564 8.78636C11.9869 8.27631 12.0386 8.38012 9.62714 7.75772" fill="#A3E3FF"/>
<path d="M7.98438 8.13861C7.98438 8.13861 10.2057 2.39905 12.1075 1.45713C14.0093 0.523319 14.5189 4.54263 14.5189 4.54263C14.5189 4.54263 12.6607 5.31155 11.5543 5.89977C10.0848 6.66869 10.2057 6.71141 7.98438 8.13861Z" fill="#FFC3A4"/>
<path d="M7.11108 8.57809C7.11108 8.57809 4.97519 3.17557 5.70139 1.31607C6.41862 -0.551121 9.34051 1.91412 9.34051 1.91412C9.34051 1.91412 8.52888 3.63436 8.13886 4.7493C7.62881 6.21879 7.73262 6.1671 7.11022 8.57851" fill="#FF85B0"/>
<path d="M7.43074 10.1979C7.43074 10.1979 1.69119 7.97654 0.757803 6.07475C-0.175579 4.17295 3.8433 3.67188 3.8433 3.67188C3.8433 3.67188 4.61222 5.5301 5.1919 6.63649C5.96082 8.08889 6.00354 7.96757 7.43074 10.1979Z" fill="#FF85D7"/>
<path d="M7.95719 11.0695C7.95719 11.0695 2.55468 13.2054 0.69518 12.4792C-1.16347 11.762 1.29323 8.84009 1.29323 8.84009C1.29323 8.84009 3.01347 9.64404 4.1284 10.0332C5.59789 10.5518 5.54621 10.448 7.95762 11.0704" fill="#A974EE"/>
<path d="M9.56517 10.7061C9.56517 10.7061 7.34385 16.4456 5.44205 17.379C3.54026 18.3124 3.03918 14.3033 3.03918 14.3033C3.03918 14.3033 4.8974 13.5344 6.00379 12.9547C7.45619 12.1768 7.33488 12.1337 9.56517 10.7073" fill="#4D56BA"/>
</svg>
