<svg width="105" height="32" viewBox="0 0 105 32" fill="none" xmlns="http://www.w3.org/2000/svg">
<g clip-path="url(#clip0)">
<path fill-rule="evenodd" clip-rule="evenodd" d="M0 24C0 15.16 7.55279 8 16.869 8C26.1934 8 33.7441 15.16 33.7441 24C33.7441 32.84 26.1934 40 16.869 40C15.0294 40 13.2609 39.72 11.6046 39.208C12.8038 32.604 17.2004 27.218 23.0104 24.933C23.3669 25.3225 23.8046 25.6338 24.2945 25.8464C24.7843 26.059 25.3151 26.1679 25.8516 26.166C27.9218 26.166 29.5987 24.573 29.5987 22.606C29.5987 20.641 27.9218 19.048 25.8516 19.048C23.7804 19.048 22.1046 20.636 22.0994 22.599C14.6846 24.714 8.67691 29.623 5.62882 35.932C4.66205 35.1138 3.79635 34.1892 3.04912 33.177C3.22412 27.033 6.42868 21.664 11.2268 18.5C11.5826 18.8785 12.0159 19.1806 12.499 19.3867C12.9821 19.5929 13.5043 19.6985 14.0319 19.697C16.1041 19.697 17.7821 18.099 17.7821 16.137C17.7821 14.17 16.1041 12.578 14.0319 12.578C11.9576 12.578 10.2797 14.17 10.2797 16.138C10.2797 16.24 10.2869 16.345 10.2951 16.443C5.82647 17.93 2.15765 20.872 0.0113235 24.62C0.00102941 24.418 0 24.207 0 24Z" fill="#FCCF00"/>
<path fill-rule="evenodd" clip-rule="evenodd" d="M99.6251 28.4877V16.0397C99.6251 15.8757 99.5387 15.8047 99.3318 15.8047H95.8956C95.6948 15.8047 95.6084 15.8757 95.6084 16.0397V29.3817C95.6084 31.7817 96.7479 32.1947 99.3709 32.1947C99.4512 32.1947 99.517 32.1877 99.5768 32.1367C99.6365 32.0927 99.6251 31.9677 99.6251 31.9677V28.4877ZM45.7951 28.4857V16.0407C45.7951 15.8777 45.7025 15.8047 45.5007 15.8047H42.0687C41.8669 15.8047 41.7773 15.8777 41.7773 16.0407V29.3807C41.7773 31.7807 42.9169 32.1947 45.5337 32.1947C45.6212 32.1947 45.6809 32.1887 45.7447 32.1377C45.7993 32.0917 45.7951 31.9697 45.7951 31.9697V28.4857ZM54.3681 32.1947C54.1993 32.1947 54.1272 32.1247 54.1272 31.9597V23.2047C54.1272 23.1107 54.0788 23.0647 53.9841 23.0647H53.2635C53.0957 23.0647 53.0268 22.9967 53.0268 22.8307V20.8937C53.0268 20.7327 53.0957 20.6597 53.2635 20.6597H53.9841C54.0788 20.6597 54.1272 20.6137 54.1272 20.5217V19.7057C54.1272 16.9737 55.4243 15.8047 58.2037 15.8047H60.0144C60.1832 15.8047 60.2573 15.8757 60.2573 16.0397V18.1477C60.2573 18.3137 60.1832 18.3807 60.0144 18.3807H58.7812C57.7229 18.3807 57.4635 18.6377 57.4635 19.5967V20.5217C57.4635 20.6137 57.5109 20.6597 57.6045 20.6597H59.1353C59.3031 20.6597 59.3762 20.7327 59.3762 20.8937V22.8307C59.3762 22.9967 59.3031 23.0657 59.1353 23.0657H57.6045C57.5109 23.0657 57.4635 23.1107 57.4635 23.2047V31.9597C57.4635 32.1247 57.3884 32.1947 57.2226 32.1947H54.3681ZM47.6893 18.1457C47.4895 18.1457 47.401 18.0827 47.401 17.9337V16.0197C47.401 15.8697 47.4895 15.8047 47.6893 15.8047H51.1326C51.3313 15.8047 51.4188 15.8697 51.4188 16.0197V17.9337C51.4188 18.0837 51.3313 18.1457 51.1326 18.1457H47.6893ZM47.6893 32.1947C47.4895 32.1947 47.401 32.1237 47.401 31.9557V20.7237C47.401 20.5607 47.4895 20.4877 47.6893 20.4877H51.1326C51.3313 20.4877 51.4188 20.5607 51.4188 20.7237V31.9557C51.4188 32.1237 51.3313 32.1957 51.1326 32.1957H47.6893V32.1947ZM73.4369 29.0267C73.2001 28.3537 73.1116 27.4507 73.1116 26.3397C73.1116 25.2297 73.1991 24.3267 73.4369 23.6577C74.0998 21.5977 75.9209 20.4877 78.3822 20.4877C80.2701 20.4877 81.8554 21.3227 82.7057 22.5927C82.7757 22.7097 82.7757 22.8247 82.6594 22.9187L80.6006 24.2347C80.4596 24.3267 80.3401 24.3067 80.2485 24.1897C79.7719 23.5427 79.1594 23.2177 78.4265 23.2177C77.5031 23.2177 76.9142 23.6127 76.6528 24.4207C76.5107 24.8127 76.4418 25.4637 76.4418 26.3407C76.4418 27.2207 76.5107 27.8657 76.6528 28.2627C76.9142 29.0707 77.5031 29.4637 78.4265 29.4637C79.1594 29.4637 79.7719 29.1417 80.2485 28.4937C80.3412 28.3787 80.4596 28.3537 80.6006 28.4477L82.6594 29.7667C82.7757 29.8567 82.7757 29.9727 82.7057 30.0917C81.8554 31.3587 80.2701 32.1947 78.3822 32.1947C75.9209 32.1947 74.0998 31.0837 73.4369 29.0267ZM91.2406 25.1617C91.3435 25.1617 91.3888 25.1147 91.3919 25.0237C91.3919 24.7217 91.3445 24.4437 91.2653 24.1897C90.9647 23.3797 90.3419 22.9647 89.2785 22.9647C88.3356 22.9647 87.4719 23.3807 87.1682 24.1897C87.0931 24.4447 87.0447 24.7217 87.0447 25.0237C87.0447 25.1137 87.0931 25.1617 87.1919 25.1617H91.2406ZM83.9565 29.0047C83.6806 28.2147 83.557 27.3347 83.557 26.3397C83.557 25.3017 83.6518 24.3977 83.9318 23.6577C84.641 21.6447 86.5876 20.4877 89.191 20.4877C91.8448 20.4877 93.7688 21.6697 94.4801 23.6357C94.7529 24.4207 94.8054 25.5757 94.8054 27.0837C94.8054 27.2437 94.7045 27.3117 94.5234 27.3117H87.2588C87.1579 27.3117 87.1075 27.3617 87.1075 27.4507C87.1343 27.6827 87.1198 27.8907 87.1919 28.0747C87.5193 29.0707 88.3798 29.5557 89.7253 29.5577C90.7043 29.5597 91.4856 29.2747 91.9766 28.9627C92.4265 28.6757 92.4193 28.5757 92.6704 28.7627L94.5532 29.9977C94.7231 30.1107 94.7045 30.2057 94.5769 30.3197C93.2891 31.5707 91.569 32.1947 89.3681 32.1947C86.6123 32.1947 84.6657 31.0367 83.9565 29.0047ZM67.9409 25.1617C68.0438 25.1617 68.0932 25.1147 68.0932 25.0237C68.0932 24.7217 68.0438 24.4437 67.9656 24.1897C67.665 23.3797 67.0432 22.9647 65.9829 22.9647C65.0328 22.9647 64.1732 23.3807 63.8726 24.1897C63.7881 24.4601 63.7451 24.7411 63.745 25.0237C63.745 25.1137 63.7923 25.1617 63.8973 25.1617H67.9409ZM60.6568 29.0047C60.3809 28.2147 60.2573 27.3347 60.2573 26.3397C60.2573 25.3017 60.3531 24.3977 60.6331 23.6577C61.3413 21.6447 63.289 20.4877 65.8934 20.4877C68.5451 20.4877 70.4712 21.6697 71.1773 23.6357C71.4543 24.4207 71.5047 25.5757 71.5047 27.0837C71.5047 27.2437 71.4048 27.3117 71.2288 27.3117H63.9601C63.8593 27.3117 63.8119 27.3617 63.8119 27.4507C63.8315 27.6827 63.8222 27.8907 63.8973 28.0747C64.2237 29.0707 65.0812 29.5557 66.4256 29.5577C67.4097 29.5597 68.189 29.2747 68.682 28.9627C69.1288 28.6757 69.1237 28.5757 69.3718 28.7627L71.2556 29.9977C71.4223 30.1107 71.4069 30.2057 71.2823 30.3197C69.9894 31.5707 68.2734 32.1947 66.0735 32.1947C63.3137 32.1947 61.364 31.0367 60.6568 29.0047ZM104.446 28.4877V16.0397C104.446 15.8757 104.358 15.8047 104.154 15.8047H100.716C100.516 15.8047 100.428 15.8757 100.428 16.0397V29.3817C100.428 31.7817 101.568 32.1947 104.185 32.1947C104.267 32.1947 104.332 32.1877 104.395 32.1367C104.451 32.0927 104.445 31.9677 104.445 31.9677V28.4877H104.446Z" fill="#004D9E"/>
</g>
<defs>
<clipPath id="clip0">
<rect width="105" height="32" fill="white"/>
</clipPath>
</defs>
</svg>
