<svg width="113" height="24" viewBox="0 0 113 24" fill="none" xmlns="http://www.w3.org/2000/svg">
<path d="M39.8866 13.8259L39.2131 15.7236H39.157C39.0447 15.2957 38.8389 14.6445 38.5022 13.8631L34.8914 4.83986H31.3555V19.2213H33.694V10.3468C33.694 9.7887 33.694 9.15614 33.6753 8.37475C33.6566 7.98405 33.6192 7.68637 33.6005 7.46312H33.6566C33.7689 8.02126 33.8998 8.43056 33.9934 8.69102L38.3338 19.184H39.9801L44.2831 8.598C44.3767 8.35614 44.4702 7.87242 44.5637 7.46312H44.6199C44.5637 8.52358 44.5263 9.47242 44.5076 10.0492V19.1654H46.9959V4.80265H43.5909L39.8866 13.8259ZM49.3531 8.85847H51.7853V19.1654H49.3531V8.85847ZM50.5879 4.50498C50.1763 4.50498 49.8396 4.65382 49.5589 4.91428C49.2783 5.17475 49.1286 5.50963 49.1286 5.91893C49.1286 6.30963 49.2783 6.64451 49.5589 6.90498C49.8396 7.16544 50.1763 7.29568 50.5879 7.29568C50.9995 7.29568 51.355 7.14684 51.6169 6.90498C51.8975 6.64451 52.0472 6.30963 52.0472 5.91893C52.0472 5.52823 51.8975 5.19335 51.6169 4.91428C51.3737 4.65382 51.0182 4.50498 50.5879 4.50498ZM60.4099 8.76544C59.9609 8.67242 59.4932 8.61661 59.0442 8.61661C57.9404 8.61661 56.9301 8.85847 56.0882 9.34219C55.2464 9.82591 54.5728 10.4957 54.1425 11.3329C53.6935 12.1887 53.469 13.1747 53.469 14.3096C53.469 15.2957 53.6935 16.1701 54.1238 16.9701C54.5541 17.7515 55.1528 18.384 55.9573 18.812C56.7243 19.2399 57.6223 19.4631 58.6326 19.4631C59.7925 19.4631 60.7841 19.2213 61.5699 18.7747L61.5886 18.7561V16.5236L61.495 16.598C61.1396 16.8585 60.728 17.0817 60.3164 17.212C59.8861 17.3608 59.4932 17.4352 59.1565 17.4352C58.1836 17.4352 57.4166 17.1561 56.874 16.5422C56.3127 15.9468 56.0321 15.1282 56.0321 14.105C56.0321 13.0445 56.3127 12.2073 56.8927 11.5933C57.4727 10.9794 58.2397 10.6631 59.1752 10.6631C59.9609 10.6631 60.7654 10.9236 61.495 11.4445L61.5886 11.5189V9.15614L61.5699 9.13754C61.2518 9.0073 60.8964 8.85847 60.4099 8.76544ZM68.4359 8.69102C67.8372 8.69102 67.276 8.87707 66.7896 9.26777C66.378 9.60265 66.0973 10.0864 65.8541 10.6631H65.8354V8.85847H63.4033V19.1654H65.8354V13.9003C65.8354 13.0073 66.0225 12.2631 66.4341 11.7236C66.8457 11.1654 67.3695 10.8864 68.0056 10.8864C68.2301 10.8864 68.4546 10.9422 68.7353 10.9794C68.9972 11.0538 69.1843 11.1282 69.3152 11.2213L69.4088 11.2957V8.87707L69.3526 8.85847C69.1843 8.74684 68.8475 8.69102 68.4359 8.69102ZM75.0588 8.63521C73.3563 8.63521 71.9906 9.13754 71.0364 10.1236C70.0636 11.1096 69.5959 12.4678 69.5959 14.1794C69.5959 15.7794 70.0823 17.0817 71.0177 18.0306C71.9531 18.9608 73.2253 19.4445 74.8156 19.4445C76.4806 19.4445 77.8089 18.9422 78.7631 17.9375C79.7359 16.9329 80.2036 15.5934 80.2036 13.9375C80.2036 12.3003 79.7546 10.998 78.8379 10.0492C77.9586 9.10033 76.6677 8.63521 75.0588 8.63521ZM77.0045 16.5608C76.5555 17.1375 75.8445 17.4166 74.9652 17.4166C74.0859 17.4166 73.375 17.1375 72.8699 16.5236C72.3647 15.9468 72.1215 15.1096 72.1215 14.0492C72.1215 12.9515 72.3834 12.1143 72.8699 11.5189C73.375 10.9236 74.0672 10.6259 74.9465 10.6259C75.8071 10.6259 76.4806 10.905 76.967 11.4817C77.4535 12.0585 77.7154 12.8957 77.7154 13.9934C77.678 15.1096 77.4722 15.984 77.0045 16.5608ZM85.6291 13.1375C84.8621 12.8213 84.3756 12.5794 84.1511 12.3747C83.9641 12.1887 83.8705 11.9282 83.8705 11.5933C83.8705 11.3143 83.9828 11.0352 84.2634 10.8492C84.544 10.6631 84.8621 10.5701 85.3298 10.5701C85.7414 10.5701 86.1717 10.6445 86.5833 10.7561C86.9949 10.8678 87.369 11.0352 87.6684 11.2585L87.7619 11.3329V9.06312L87.7058 9.04451C87.4251 8.93288 87.051 8.82126 86.602 8.72823C86.153 8.65382 85.7414 8.61661 85.4046 8.61661C84.2447 8.61661 83.2906 8.89568 82.5422 9.50963C81.7939 10.0864 81.4384 10.8678 81.4384 11.7794C81.4384 12.2631 81.5132 12.691 81.6816 13.0445C81.85 13.398 82.0932 13.7329 82.43 14.012C82.7667 14.2724 83.2531 14.5701 83.9266 14.8492C84.4879 15.091 84.9182 15.2771 85.1801 15.4259C85.442 15.5747 85.6104 15.7422 85.7414 15.8724C85.8349 16.0213 85.891 16.2073 85.891 16.4492C85.891 17.1375 85.3672 17.4724 84.3008 17.4724C83.8892 17.4724 83.4589 17.398 82.9538 17.2306C82.4487 17.0631 81.9809 16.8213 81.5881 16.5422L81.4945 16.4678V18.8306L81.5506 18.8492C81.9061 19.0166 82.3364 19.1282 82.8603 19.2585C83.3841 19.3515 83.8518 19.4259 84.2634 19.4259C85.5169 19.4259 86.5458 19.1468 87.2755 18.5329C88.0238 17.9375 88.4167 17.1747 88.4167 16.1887C88.4167 15.5003 88.2296 14.8864 87.818 14.4213C87.2755 13.9747 86.602 13.5096 85.6291 13.1375ZM94.8338 8.63521C93.1313 8.63521 91.7655 9.13754 90.8114 10.1236C89.8573 11.1096 89.3708 12.4678 89.3708 14.1794C89.3708 15.7794 89.8573 17.0817 90.7927 18.0306C91.7281 18.9608 93.0003 19.4445 94.5905 19.4445C96.2556 19.4445 97.5839 18.9422 98.5381 17.9375C99.5109 16.9329 99.9786 15.5934 99.9786 13.9375C99.9786 12.3003 99.5296 10.998 98.6129 10.0492C97.7336 9.10033 96.4427 8.63521 94.8338 8.63521ZM96.7607 16.5608C96.3117 17.1375 95.6008 17.4166 94.7215 17.4166C93.8235 17.4166 93.1313 17.1375 92.6261 16.5236C92.121 15.9468 91.8778 15.1096 91.8778 14.0492C91.8778 12.9515 92.1397 12.1143 92.6261 11.5189C93.1313 10.9236 93.8235 10.6259 94.7028 10.6259C95.5447 10.6259 96.2369 10.905 96.7233 11.4817C97.2097 12.0585 97.4717 12.8957 97.4717 13.9934C97.4717 15.1096 97.2285 15.984 96.7607 16.5608ZM112.981 10.8492V8.85847H110.53V5.8073L110.455 5.82591L108.136 6.51428L108.079 6.53288V8.85847H104.413V7.55614C104.413 6.96079 104.562 6.49568 104.824 6.198C105.086 5.90033 105.479 5.75149 105.965 5.75149C106.302 5.75149 106.658 5.82591 107.05 5.99335L107.144 6.04916V3.94684L107.088 3.92823C106.751 3.81661 106.302 3.74219 105.722 3.74219C104.993 3.74219 104.356 3.90963 103.776 4.1887C103.197 4.50498 102.766 4.93289 102.448 5.50963C102.13 6.06777 101.962 6.70033 101.962 7.42591V8.85847H100.259V10.8306H101.962V19.1654H104.413V10.8492H108.079V16.1515C108.079 18.3282 109.108 19.4259 111.166 19.4259C111.503 19.4259 111.859 19.3701 112.195 19.3143C112.551 19.2399 112.813 19.1468 112.962 19.0724L112.981 19.0538V17.0631L112.888 17.1375C112.738 17.2306 112.607 17.305 112.382 17.3608C112.195 17.4166 112.027 17.4352 111.896 17.4352C111.41 17.4352 111.073 17.3236 110.83 17.0445C110.605 16.784 110.493 16.3561 110.493 15.7236V10.8492H112.981Z" fill="#737373"/>
<path d="M0 0H11.4684V11.4047H0V0Z" fill="#F25022"/>
<path d="M12.6641 0H24.1324V11.4047H12.6641V0Z" fill="#7FBA00"/>
<path d="M0 12.5938H11.4684V23.9984H0V12.5938Z" fill="#00A4EF"/>
<path d="M12.6641 12.5938H24.1324V23.9984H12.6641V12.5938Z" fill="#FFB900"/>
</svg>
