<svg width="88" height="29" viewBox="0 0 88 29" fill="none" xmlns="http://www.w3.org/2000/svg">
<path d="M48.7457 9.61155C48.7457 6.36636 48.7457 3.18318 48.7457 0C45.4824 0 42.3628 0 39.0995 0C39.0995 3.22452 39.0995 6.38703 39.0995 9.67356C35.8157 9.67356 32.6551 9.67356 29.4123 9.67356C29.4123 12.9394 29.4123 16.1226 29.4123 19.3058C26.1491 19.3058 23.0089 19.2851 19.7251 19.2851C19.7251 12.8154 19.7251 6.4077 19.7251 0C13.2396 0 6.87729 0 0.453369 0C0.453369 3.22452 0.453369 6.4077 0.453369 9.67356C3.63454 9.67356 6.77467 9.67356 9.97637 9.67356C9.97637 12.9187 9.97637 16.1019 9.97637 19.3678C6.77467 19.3678 3.61402 19.3678 0.453369 19.3678C0.453369 22.6336 0.453369 25.8168 0.453369 29C10.1406 29 19.7046 29 29.4123 29C29.4123 25.7755 29.4123 22.5303 29.4123 19.3264C32.6551 19.3264 35.8362 19.3264 39.079 19.3264C39.079 22.551 39.079 25.7962 39.079 29C42.3628 29 45.5234 29 48.8277 29C48.8277 25.7548 48.8277 22.5923 48.8277 19.3264C52.1115 19.3264 55.2927 19.3264 58.4534 19.3264C58.4534 16.1019 58.4534 12.8567 58.4534 9.63222C55.2722 9.61155 52.0705 9.61155 48.7457 9.61155Z" fill="#C62127"/>
<path d="M77.773 19.2919C77.773 12.7716 77.773 6.37545 77.773 0C71.2921 0 64.9138 0 58.5354 0C58.4944 0.186295 58.4739 0.289793 58.4739 0.393291C58.4739 3.45682 58.4534 6.52034 58.4534 9.58387C61.2631 9.60457 64.0934 9.62527 66.9032 9.64597C67.2723 9.64597 67.6415 9.64597 68.0722 9.64597C68.0722 12.8958 68.0722 16.0214 68.0722 19.3126C64.8727 19.3126 61.6733 19.3126 58.4534 19.3126C58.4534 22.5418 58.4534 25.7709 58.4534 29C68.1952 29 77.814 29 87.4534 29C87.4534 25.7709 87.4534 22.5832 87.4534 19.2712C84.2334 19.2919 81.0545 19.2919 77.773 19.2919Z" fill="#C62127"/>
</svg>
