<svg width="202" height="28" viewBox="0 0 202 28" fill="none" xmlns="http://www.w3.org/2000/svg">
<g clip-path="url(#clip0)">
<path d="M21.789 8.85613L21.7904 8.85403L21.7818 8.84843H21.7811C21.6332 8.76163 21.4088 8.71403 21.258 8.77773C20.2964 8.68813 19.378 8.69863 18.4041 8.70843H18.3752L18.3362 8.71053C17.8493 8.71543 17.345 8.72033 16.8407 8.71403C12.7632 8.63213 12.7632 8.63213 12.7632 8.63213C11.8088 8.60623 10.7598 8.61463 9.73248 8.65243C8.9721 8.65803 8.23335 8.67693 7.4809 8.69793C6.69671 8.71823 4.8246 8.72383 3.70783 8.72733C3.11193 8.72943 2.80027 8.72943 2.75915 8.73223C2.62713 8.73923 2.4677 8.91703 2.46409 9.06123C2.46192 9.14173 2.51098 9.23413 2.65382 9.24743C2.75843 9.25793 3.43441 9.26073 4.66445 9.25793L5.91829 9.25233C6.25231 9.24953 6.40742 9.25653 6.48028 9.24953L6.48822 9.24743C7.41092 9.15923 8.33868 9.16413 9.2347 9.16903H9.24624H9.30323C9.88254 9.17323 10.4835 9.17463 11.0873 9.15153C11.2114 9.17883 11.3442 9.15293 11.4718 9.12983L11.4913 9.12563C11.549 9.11583 11.6068 9.10323 11.663 9.09973C11.8001 9.13823 11.9574 9.13613 12.1226 9.13333C12.282 9.13053 12.4458 9.12633 12.5951 9.16063V9.16413H12.6204V9.15923C12.7509 9.11653 12.87 9.13963 12.9948 9.16413C12.9991 9.16413 13.0193 9.16693 13.0193 9.16693C13.0785 9.17883 13.1355 9.18793 13.1903 9.18933C14.3554 9.15853 15.6446 9.19983 17.2512 9.31883L18.0123 9.39863H18.0217C18.6962 9.33423 19.3953 9.38463 20.072 9.43083C20.0749 9.43293 20.09 9.43293 20.09 9.43293C20.5965 9.46933 21.0769 9.50363 21.5538 9.49383L21.5553 9.49873L21.5841 9.48823V9.48123L21.8359 9.28733H21.8373L21.8482 9.27473L21.846 9.27263C21.9326 9.14593 21.908 8.96043 21.789 8.85613Z" fill="#E2B900"/>
<path d="M15.0419 17.2628L15.0613 17.2488L15.0606 17.1998L15.044 15.6584V15.6556V15.6507C15.0137 15.4183 15.0087 15.1642 15.0029 14.8933C14.9971 14.5874 14.9892 14.2703 14.9474 13.9945C14.9401 13.5927 14.8572 13.165 14.7785 12.7513L14.7252 12.4706L14.7194 12.4426L14.6999 12.423C14.6379 12.3607 14.6155 12.2858 14.591 12.1934C14.5708 12.1178 14.5491 12.0415 14.5008 11.9673C14.3947 11.7783 14.2266 11.5949 14.078 11.4346L14.0687 11.4255C14.0311 11.3779 13.9886 11.3513 13.9503 11.3268C13.9287 11.3128 13.9078 11.3009 13.8832 11.2806L13.8501 11.2526L13.8291 11.2575L13.8024 11.2372C13.6683 11.1315 13.5427 11.0916 13.3963 11.0447L13.3948 11.0433C13.353 10.9866 13.2722 10.9775 13.2166 10.9754V10.9376L13.1416 10.9278L12.7896 10.8753L12.7369 10.869L12.7059 10.9082C12.6914 10.9257 12.6871 10.9292 12.6135 10.9033C12.5803 10.8928 12.5428 10.8788 12.501 10.8739L12.4599 10.8725L12.4404 10.89C12.4288 10.8837 12.4159 10.8746 12.4 10.8655L12.2521 10.8242L12.2406 10.89C12.1771 10.89 12.1201 10.9005 12.0732 10.9264H11.9996H11.8402L11.6245 10.9285L11.6497 11.0076L11.6468 11.0118C11.5501 10.9873 11.478 11.0447 11.4376 11.0769C11.4304 11.0846 11.4232 11.0895 11.4181 11.0923C11.3409 11.1063 11.2976 11.1364 11.2652 11.1602C11.2414 11.1756 11.2356 11.1826 11.2147 11.1826L11.1786 11.1861L11.1541 11.2134C11.1216 11.2519 11.0206 11.2967 10.9665 11.3198L10.846 11.3709L10.8727 11.3954C10.8532 11.4024 10.833 11.4164 10.8165 11.4318H10.7883H10.701V11.5179V11.52C10.6953 11.5179 10.6916 11.5179 10.688 11.5179L10.6217 11.492C10.6181 11.4885 10.5762 11.5445 10.5762 11.5445C10.5055 11.639 10.4153 11.7328 10.3179 11.8329C10.2076 11.947 10.0914 12.0681 10.0005 12.1976L9.97455 12.2375L9.99114 12.276C9.97022 12.2879 9.91467 12.3208 9.90601 12.3866C9.86201 12.4307 9.85263 12.4916 9.84541 12.5329C9.84325 12.5469 9.84108 12.5644 9.83676 12.5735C9.78986 12.6274 9.78048 12.6827 9.77183 12.724C9.76533 12.7562 9.76245 12.7758 9.74946 12.7933L9.69175 12.8626L9.71772 12.8815C9.70185 12.9228 9.70113 12.9662 9.70113 12.9921C9.70113 13.0047 9.69896 13.0187 9.69896 13.0264L9.66217 13.0509L9.67083 13.1062C9.6867 13.214 9.67227 13.3141 9.65712 13.4191C9.64269 13.5234 9.63043 13.6284 9.64053 13.7425C9.59652 13.8083 9.60662 13.8825 9.61528 13.9315C9.61744 13.9469 9.61961 13.97 9.61961 13.9798L9.56334 14.0225L9.60301 14.0883C9.63259 14.1387 9.61023 14.2164 9.58642 14.2927C9.56406 14.3648 9.53809 14.4551 9.56406 14.5314C9.55756 14.5377 9.55107 14.5454 9.54458 14.5538C9.5352 14.5657 9.52582 14.5888 9.52799 14.6182C9.52799 14.6763 9.52221 14.6952 9.52077 14.6994L9.47893 14.7841L9.47171 14.8163L9.54746 14.8688C9.53953 14.9164 9.5453 14.964 9.55251 15.0032C9.56117 15.0606 9.56406 15.083 9.5453 15.1061L9.49841 15.1908L9.5453 15.2447C9.5453 15.2482 9.5453 15.2531 9.5453 15.2587C9.54314 15.2944 9.53809 15.3644 9.58859 15.4127C9.58931 15.4225 9.59075 15.4316 9.59364 15.4407L9.50634 15.461L9.56478 15.5779C9.56334 15.587 9.55901 15.5975 9.55756 15.6087C9.54818 15.6409 9.53231 15.7102 9.57055 15.769C9.54241 15.8362 9.55901 15.9041 9.57127 15.9475C9.57416 15.9594 9.57849 15.9769 9.58065 15.9874C9.49841 16.07 9.53664 16.1806 9.55973 16.2401C9.52221 16.2968 9.53231 16.3619 9.53881 16.4039L9.42987 16.4424L9.54241 16.553C9.53736 16.5775 9.53736 16.6048 9.55396 16.6377C9.56766 16.6545 9.58426 16.6692 9.60085 16.6762L9.56694 16.686C9.56694 16.6902 9.57055 16.693 9.57271 16.6965H9.57055L9.61095 16.7966L9.60878 16.8078C9.59868 16.8659 9.61456 16.9233 9.64341 16.9681C9.63331 16.98 9.62754 16.9961 9.62393 17.015L9.57993 17.0577L9.62393 17.1186C9.65568 17.1627 9.64486 17.2243 9.61961 17.3195C9.59652 17.4021 9.57199 17.5092 9.62033 17.6016L9.55901 17.6597L9.63692 17.715C9.63476 17.7185 9.63259 17.7213 9.63115 17.7255C9.61239 17.7612 9.57488 17.827 9.61961 17.8998L9.616 17.8935C9.63259 17.9257 9.62538 17.9831 9.61672 18.0419C9.60662 18.128 9.59364 18.2337 9.64053 18.338L9.62754 18.4437L9.62971 18.4297C9.616 18.4696 9.62754 18.506 9.63981 18.5319L9.60518 18.5452L9.62971 18.6194C9.65496 18.6943 9.65496 18.7874 9.65496 18.884C9.65496 19.0709 9.65712 19.2823 9.82954 19.4412L9.86634 19.4748L9.91467 19.4608C10.0438 19.4251 10.0496 19.3012 10.0539 19.2333C10.0553 19.2179 10.0553 19.2053 10.0575 19.1948L10.0604 19.1745L10.0532 19.157C10.002 18.989 10.0243 18.7643 10.0431 18.569C10.0481 18.5151 10.0532 18.4661 10.0568 18.4185L10.0597 18.394L10.0481 18.3737C10.0128 18.3044 10.0214 18.2365 10.0315 18.1595C10.0402 18.0881 10.0481 18.009 10.0236 17.9257C10.0525 17.5638 10.0351 17.1389 10.0193 16.7616C10.0128 16.602 10.0056 16.4508 10.0056 16.3122L10.0048 16.308L10.0034 16.3045C9.98032 16.1246 9.98681 15.9349 9.99259 15.7515C9.99836 15.5849 10.0027 15.4141 9.98681 15.2566C10.0287 15.0774 10.025 14.9129 10.0214 14.7358C10.0207 14.6581 10.0193 14.5769 10.0214 14.4922L10.0229 14.4712L10.0171 14.46C10.0568 14.4124 10.0654 14.3641 10.046 14.3172C10.064 14.2521 10.0676 14.1891 10.0676 14.1324C10.0698 14.0876 10.0712 14.0449 10.0813 14.0043L10.0864 13.984L10.0799 13.963C10.0676 13.9231 10.0777 13.8818 10.0893 13.8349C10.103 13.7782 10.1188 13.7117 10.0936 13.6445C10.1628 13.5101 10.1787 13.3435 10.1917 13.1832L10.1982 13.1272C10.2025 13.0922 10.1895 13.06 10.1614 13.0306C10.1614 13.0264 10.1614 13.025 10.1614 13.025C10.1614 12.9543 10.2004 12.8969 10.248 12.8227C10.2992 12.7443 10.3576 12.6547 10.3728 12.5301L10.3757 12.5098L10.3742 12.5056C10.3793 12.5007 10.3879 12.4937 10.3937 12.4881C10.4254 12.4622 10.4752 12.4223 10.4738 12.3586C10.4738 12.346 10.4723 12.3362 10.468 12.3236C10.5293 12.2697 10.5668 12.2095 10.6 12.1542C10.6505 12.0709 10.688 12.0135 10.7854 11.9862L10.8338 11.9722L10.8453 11.926C10.8597 11.8721 10.9074 11.8427 10.9838 11.7958C11.0415 11.7608 11.1036 11.7209 11.1505 11.6621C11.2132 11.6691 11.2529 11.6516 11.276 11.6299C11.3525 11.6103 11.4109 11.5676 11.46 11.5298C11.5415 11.4654 11.5682 11.4493 11.6223 11.4759L11.6786 11.5004L11.7146 11.4668C11.7161 11.4668 11.7197 11.4633 11.7211 11.4633C11.7464 11.4584 11.7911 11.4458 11.8171 11.4045C11.8402 11.401 11.864 11.394 11.882 11.3877C11.926 11.3716 11.9383 11.3695 11.9541 11.3786C11.9693 11.3891 11.9996 11.3989 12.0378 11.3905L12.04 11.3954L12.1049 11.3891L12.1908 11.3772C12.444 11.3457 12.664 11.3191 12.8639 11.422L12.9346 11.4584L12.9771 11.3954C12.9865 11.4059 12.9952 11.4164 13.0031 11.4248C13.0543 11.4808 13.1445 11.5753 13.2736 11.555C13.3011 11.5788 13.3321 11.5984 13.3624 11.6131C13.3739 11.618 13.3876 11.6285 13.3977 11.6355V11.6397L13.4165 11.6614C13.4569 11.7139 13.5413 11.7398 13.6098 11.7412C13.7599 11.8938 13.9121 12.101 13.9121 12.1927V12.2788H13.977C13.977 12.2802 13.9785 12.2823 13.9785 12.2844C14.0037 12.3971 14.0369 12.5364 14.1271 12.6281C14.1018 12.6848 14.1235 12.7541 14.1343 12.7835C14.1357 12.7926 14.1394 12.8045 14.1415 12.8143L14.1199 12.8787L14.1783 12.9354L14.1906 12.9445C14.1862 13.0012 14.2151 13.0572 14.2346 13.0943C14.2389 13.1048 14.2454 13.1174 14.2497 13.1279L14.2353 13.1587C14.1567 13.3064 14.262 13.3883 14.3139 13.4268C14.3212 13.4324 14.3276 13.4373 14.3305 13.4408C14.2916 13.4702 14.2923 13.501 14.2851 13.5535L14.2923 13.6193L14.3197 13.6627C14.3197 13.6627 14.3197 13.6627 14.3212 13.6627C14.3212 13.6662 14.3226 13.6676 14.3248 13.6718C14.3298 13.6858 14.3349 13.7012 14.345 13.7215L14.3147 13.7495L14.2937 13.8279L14.3385 13.8881L14.3717 13.9056C14.3717 13.9406 14.3868 13.9714 14.3947 13.9924C14.3976 13.9966 14.3998 14.0015 14.402 14.0043L14.3926 14.0428C14.3637 14.1828 14.3276 14.3641 14.4164 14.5132C14.4135 14.5153 14.4106 14.5167 14.4092 14.5181C14.3673 14.5741 14.3774 14.635 14.3861 14.6798C14.3861 14.6931 14.3919 14.7183 14.3904 14.7267L14.3666 14.8142C14.3666 14.8177 14.394 14.8247 14.4222 14.8296C14.4185 14.8387 14.4149 14.8471 14.4128 14.8569L14.3933 14.9591H14.4279C14.4236 14.9934 14.4222 15.0249 14.4214 15.0557C14.42 15.1054 14.4164 15.139 14.3998 15.1663L14.3926 15.1782L14.3882 15.1922C14.3623 15.2846 14.3998 15.3721 14.4258 15.4414C14.4315 15.4547 14.4359 15.4673 14.4416 15.4813C14.4258 15.4967 14.4106 15.5212 14.4128 15.5534C14.4128 15.5625 14.4157 15.5667 14.4157 15.5737L14.3991 15.5933L14.4157 15.6416C14.425 15.671 14.4431 15.6885 14.4654 15.6983L14.4503 15.7046C14.4481 15.7046 14.4481 15.7697 14.4481 15.7697V15.7956L14.3919 15.8096L14.4185 15.8649C14.4056 15.8908 14.3919 15.9293 14.4063 15.9706L14.3666 16.0357C14.3688 16.0336 14.3738 16.0749 14.4077 16.091C14.3731 16.2093 14.4597 16.294 14.5138 16.3451C14.5347 16.3654 14.5498 16.3822 14.5592 16.3955H14.5152L14.5477 16.5047L14.5498 16.5082C14.5426 16.5152 14.534 16.5215 14.5253 16.5327L14.4525 16.567L14.4748 16.6636L14.4705 16.6846C14.4525 16.7343 14.4662 16.7693 14.4813 16.7882C14.4835 16.7931 14.4871 16.7952 14.4914 16.7987C14.464 16.8232 14.4351 16.861 14.4279 16.9177L14.4214 16.9989L14.4885 17.008C14.4835 17.0255 14.4777 17.0423 14.4734 17.0577C14.464 17.0885 14.4582 17.1144 14.4431 17.1361H14.4445C14.4416 17.1396 14.4387 17.1424 14.438 17.1466L14.5571 17.2096C14.539 17.2411 14.5304 17.2698 14.5224 17.2929C14.5181 17.3048 14.5131 17.3202 14.5087 17.3293C14.5066 17.3293 14.5051 17.3293 14.4993 17.3293H14.4005L14.4063 17.442C14.4121 17.4574 14.4157 17.4777 14.4157 17.4987C14.4193 17.519 14.4236 17.5435 14.4272 17.568V17.6793C14.4272 17.6947 14.4272 17.7164 14.433 17.7423L14.4193 17.7479L14.4294 17.8102C14.4337 17.841 14.433 17.8725 14.4294 17.904C14.4279 17.9194 14.425 17.9418 14.425 17.9614L14.3464 18.002L14.4445 18.1056L14.4431 18.1119C14.4315 18.1364 14.4157 18.1714 14.4157 18.2106H14.3478L14.4662 18.3506C14.4777 18.3625 14.4864 18.3947 14.4921 18.4178C14.4936 18.4199 14.4943 18.4234 14.4943 18.4269C14.4438 18.4717 14.438 18.541 14.4344 18.5781C14.4323 18.5935 14.4308 18.6166 14.425 18.6257L14.4272 18.6222L14.4575 18.66C14.4344 18.6782 14.4185 18.6957 14.4121 18.7118C14.4005 18.7391 14.3983 18.7692 14.402 18.793H14.2858L14.3818 18.8854L14.2916 18.9148L14.3659 18.975V19.2032C14.3659 19.2452 14.3861 19.2795 14.4222 19.2977C14.4236 19.2991 14.4265 19.3005 14.4265 19.3005C14.4734 19.3299 14.5275 19.3278 14.5679 19.3201V19.4118L14.6811 19.3796C14.7656 19.3572 14.8276 19.3523 14.8932 19.3663L14.9885 19.3831L15.0007 19.2914C15.0447 18.9491 15.0368 18.6166 15.0274 18.2974C15.0181 17.9838 15.0108 17.6884 15.0512 17.3972C15.0844 17.3419 15.057 17.2887 15.0419 17.2628Z" fill="#006935"/>
<path d="M8.27484 17.2628L8.29576 17.2488L8.29431 17.1998L8.27628 15.6584V15.6556V15.6507C8.24742 15.4183 8.24237 15.1642 8.2366 14.8933C8.22939 14.5874 8.22361 14.2703 8.17961 13.9945C8.17311 13.5927 8.09087 13.165 8.01151 12.7513L7.95813 12.4706L7.95308 12.4426L7.93288 12.423C7.86867 12.3607 7.84847 12.2858 7.82394 12.1934C7.80374 12.1178 7.7821 12.0415 7.73304 11.9673C7.62916 11.7783 7.45746 11.5949 7.31029 11.4346L7.30235 11.4255C7.26484 11.3779 7.22011 11.3513 7.18259 11.3268C7.16095 11.3128 7.14075 11.3009 7.11766 11.2806L7.08448 11.2526L7.06211 11.2575L7.0347 11.2372C6.90124 11.1315 6.77715 11.0916 6.6307 11.0447L6.62781 11.0433C6.58597 10.9866 6.50734 10.9775 6.45179 10.9754V10.9376L6.37459 10.9278L6.02254 10.8753L5.96987 10.869L5.93957 10.9082C5.92586 10.9257 5.92298 10.9292 5.84795 10.9033C5.81332 10.8928 5.77725 10.8788 5.73541 10.8739L5.69429 10.8725L5.67409 10.89C5.66326 10.8837 5.651 10.8746 5.63441 10.8655L5.48651 10.8242L5.47497 10.89C5.41004 10.89 5.35377 10.9005 5.30832 10.9264H5.23257H5.0753L4.85887 10.9285L4.88412 11.0076L4.87979 11.0118C4.78456 10.9873 4.71242 11.0447 4.67202 11.0769C4.66481 11.0846 4.65687 11.0895 4.6511 11.0923C4.57463 11.1063 4.53062 11.1364 4.50032 11.1602C4.47724 11.1756 4.46858 11.1826 4.44838 11.1826L4.41158 11.1861L4.3885 11.2134C4.35459 11.2519 4.25431 11.2967 4.19949 11.3198L4.08117 11.3709L4.10642 11.3954C4.08694 11.4024 4.06891 11.4164 4.05087 11.4318H4.02418H3.93544V11.5179V11.52C3.93039 11.5179 3.92606 11.5179 3.92173 11.5179L3.85753 11.492C3.85248 11.4885 3.81063 11.5445 3.81063 11.5445C3.7421 11.639 3.65048 11.7328 3.55381 11.8329C3.44126 11.947 3.32583 12.0681 3.23566 12.1976L3.20752 12.2375L3.22628 12.276C3.20463 12.2879 3.15053 12.3208 3.14259 12.3866C3.09714 12.4307 3.08776 12.4916 3.08055 12.5329C3.07838 12.5469 3.0755 12.5644 3.07333 12.5735C3.025 12.6274 3.01418 12.6827 3.00696 12.724C3.00191 12.7562 2.99831 12.7758 2.98388 12.7933L2.92905 12.8626L2.95358 12.8815C2.93698 12.9228 2.93482 12.9662 2.93482 12.9921C2.93482 13.0047 2.93482 13.0187 2.9341 13.0264L2.89586 13.0509L2.90596 13.1062C2.92111 13.214 2.90741 13.3141 2.89081 13.4191C2.87566 13.5234 2.86196 13.6284 2.87494 13.7425C2.83238 13.8083 2.84103 13.8825 2.84897 13.9315C2.85258 13.9469 2.85618 13.97 2.85402 13.9798L2.79703 14.0225L2.83743 14.0883C2.86773 14.1387 2.8432 14.2164 2.82083 14.2927C2.79919 14.3648 2.7725 14.4551 2.79991 14.5314C2.79342 14.5377 2.78548 14.5454 2.77899 14.5538C2.77106 14.5657 2.7624 14.5888 2.76384 14.6182C2.76384 14.6763 2.75807 14.6952 2.75446 14.6994L2.71334 14.7841L2.70613 14.8163L2.7826 14.8688C2.77394 14.9164 2.78043 14.964 2.78693 15.0032C2.79558 15.0606 2.79847 15.083 2.78043 15.1061L2.73354 15.1908L2.78043 15.2447C2.78043 15.2482 2.78043 15.2531 2.77827 15.2587C2.77683 15.2944 2.77394 15.3644 2.82228 15.4127C2.82372 15.4225 2.82588 15.4316 2.82733 15.4407L2.74076 15.461L2.79847 15.5779C2.79703 15.587 2.79342 15.5975 2.79126 15.6087C2.78188 15.6409 2.76673 15.7102 2.8028 15.769C2.77683 15.8362 2.79342 15.9041 2.80352 15.9475C2.80713 15.9594 2.81146 15.9769 2.8129 15.9874C2.73354 16.07 2.77178 16.1806 2.79342 16.2401C2.75591 16.2968 2.76528 16.3619 2.77322 16.4039L2.66284 16.4424L2.77394 16.553C2.76961 16.5775 2.76961 16.6048 2.78765 16.6377C2.80136 16.6545 2.81795 16.6692 2.83526 16.6762L2.80063 16.686C2.80136 16.6902 2.8028 16.693 2.8028 16.6965L2.84248 16.7966L2.84176 16.8078C2.83238 16.8659 2.84536 16.9233 2.87422 16.9681C2.86412 16.98 2.85763 16.9961 2.85546 17.015L2.8129 17.0577L2.85546 17.1186C2.88937 17.1627 2.87566 17.2243 2.85186 17.3195C2.83021 17.4021 2.80136 17.5092 2.85402 17.6016L2.79126 17.6597L2.86845 17.715C2.86701 17.7185 2.8634 17.7213 2.86123 17.7255C2.84248 17.7612 2.80785 17.827 2.85113 17.8998L2.84825 17.8935C2.86268 17.9257 2.85763 17.9831 2.84969 18.0419C2.83815 18.128 2.82444 18.2337 2.87278 18.338L2.85763 18.4437L2.86123 18.4297C2.84825 18.4696 2.85763 18.506 2.87206 18.5319L2.83598 18.5452L2.86123 18.6194C2.88648 18.6943 2.88793 18.7874 2.88793 18.884C2.88793 19.0709 2.88793 19.2823 3.06107 19.4412L3.09858 19.4748L3.14836 19.4608C3.27678 19.4251 3.28255 19.3012 3.28688 19.2333C3.28688 19.2179 3.2876 19.2053 3.28904 19.1948L3.29121 19.1745L3.28688 19.157C3.23421 18.989 3.2573 18.7643 3.27678 18.569C3.28111 18.5151 3.28688 18.4661 3.28976 18.4185L3.29193 18.394L3.28183 18.3737C3.24576 18.3044 3.25441 18.2365 3.26523 18.1595C3.27461 18.0881 3.28399 18.009 3.25658 17.9257C3.28616 17.5638 3.26812 17.1389 3.25369 16.7616C3.24792 16.602 3.23998 16.4508 3.23854 16.3122V16.308L3.2371 16.3045C3.21618 16.1246 3.22123 15.9349 3.227 15.7515C3.23205 15.5849 3.2371 15.4141 3.22123 15.2566C3.26235 15.0774 3.26018 14.9129 3.2573 14.7358C3.25586 14.6581 3.25441 14.5769 3.2573 14.4922V14.4712L3.25297 14.46C3.29121 14.4124 3.30131 14.3641 3.28111 14.3172C3.29986 14.2521 3.30203 14.1891 3.30347 14.1324C3.30491 14.0876 3.30636 14.0449 3.31646 14.0043L3.32078 13.984L3.31429 13.963C3.30419 13.9231 3.31429 13.8818 3.32583 13.8349C3.33954 13.7782 3.35325 13.7117 3.32944 13.6445C3.3987 13.5101 3.41313 13.3435 3.42683 13.1832L3.43405 13.1272C3.43838 13.0922 3.42683 13.06 3.39726 13.0306C3.39726 13.0264 3.39726 13.025 3.39726 13.025C3.39726 12.9543 3.43405 12.8969 3.48166 12.8227C3.53505 12.7443 3.59421 12.6547 3.60863 12.5301L3.61152 12.5098L3.6108 12.5056C3.61585 12.5007 3.62451 12.4937 3.631 12.4881C3.66346 12.4622 3.7118 12.4223 3.71036 12.3586C3.70891 12.346 3.70891 12.3362 3.70459 12.3236C3.76591 12.2697 3.80342 12.2095 3.83805 12.1542C3.88783 12.0709 3.9239 12.0135 4.02129 11.9862L4.06963 11.9722L4.08333 11.926C4.09704 11.8721 4.14393 11.8427 4.21969 11.7958C4.27812 11.7608 4.34088 11.7209 4.38778 11.6621C4.45126 11.6691 4.4895 11.6516 4.51186 11.6299C4.58906 11.6103 4.64749 11.5676 4.69799 11.5298C4.77735 11.4654 4.80549 11.4493 4.85887 11.4759L4.91586 11.5004L4.95121 11.4668C4.95338 11.4668 4.95843 11.4633 4.95843 11.4633C4.98512 11.4584 5.02913 11.4458 5.0551 11.4045C5.07963 11.401 5.10127 11.394 5.12003 11.3877C5.16548 11.3716 5.17558 11.3695 5.19073 11.3786C5.20732 11.3891 5.23762 11.3989 5.27369 11.3905L5.27586 11.3954L5.34151 11.3891L5.42736 11.3772C5.68202 11.3457 5.90061 11.3191 6.10045 11.422L6.17259 11.4584L6.21444 11.3954C6.22237 11.4059 6.23103 11.4164 6.24041 11.4248C6.29163 11.4808 6.38036 11.5753 6.50878 11.555C6.53836 11.5788 6.56866 11.5984 6.59824 11.6131C6.60906 11.618 6.62421 11.6285 6.63359 11.6355V11.6397L6.65234 11.6614C6.69202 11.7139 6.77715 11.7398 6.84496 11.7412C6.99358 11.8938 7.14652 12.101 7.14652 12.1927V12.2788H7.21145C7.21145 12.2802 7.21145 12.2823 7.21145 12.2844C7.2367 12.3971 7.27061 12.5364 7.36223 12.6281C7.33481 12.6848 7.3579 12.7541 7.368 12.7835C7.37161 12.7926 7.37521 12.8045 7.37666 12.8143L7.35501 12.8787L7.41345 12.9354L7.42716 12.9445C7.42283 13.0012 7.45024 13.0572 7.47044 13.0943C7.47477 13.1048 7.48054 13.1174 7.48415 13.1279L7.47044 13.1587C7.39253 13.3064 7.49786 13.3883 7.54908 13.4268C7.55846 13.4324 7.56206 13.4373 7.56928 13.4408C7.52816 13.4702 7.5296 13.501 7.52311 13.5535L7.5296 13.6193L7.55629 13.6627C7.55774 13.6627 7.55774 13.6627 7.55774 13.6627C7.55918 13.6662 7.55918 13.6676 7.56134 13.6718C7.56567 13.6858 7.57144 13.7012 7.58226 13.7215L7.55196 13.7495L7.53104 13.8279L7.57505 13.8881L7.60968 13.9056C7.60896 13.9406 7.62266 13.9714 7.63421 13.9924C7.63493 13.9966 7.63637 14.0015 7.63926 14.0043L7.6306 14.0428C7.6003 14.1828 7.56423 14.3641 7.65369 14.5132C7.65152 14.5153 7.64936 14.5167 7.64647 14.5181C7.60319 14.5741 7.61617 14.635 7.62122 14.6798C7.62411 14.6931 7.62771 14.7183 7.62771 14.7267L7.60246 14.8142C7.60246 14.8177 7.63349 14.8247 7.65801 14.8296C7.65657 14.8387 7.65224 14.8471 7.6508 14.8569L7.62988 14.9591H7.66739C7.66162 14.9934 7.65801 15.0249 7.65801 15.0557C7.65801 15.1054 7.65657 15.139 7.63709 15.1663L7.62916 15.1782L7.62411 15.1922C7.59886 15.2846 7.63421 15.3721 7.66162 15.4414C7.66811 15.4547 7.67244 15.4673 7.67749 15.4813C7.66162 15.4967 7.64791 15.5212 7.64936 15.5534C7.64936 15.5625 7.65152 15.5667 7.65513 15.5737L7.63493 15.5933L7.65152 15.6416C7.6609 15.671 7.67821 15.6885 7.70058 15.6983L7.68687 15.7046C7.68399 15.7046 7.68399 15.7697 7.68399 15.7697V15.7956L7.62627 15.8096L7.65513 15.8649C7.64142 15.8908 7.62627 15.9293 7.64142 15.9706L7.60391 16.0357C7.60463 16.0336 7.60968 16.0749 7.64359 16.091C7.60896 16.2093 7.69553 16.294 7.74819 16.3451C7.77128 16.3654 7.78643 16.3822 7.79436 16.3955H7.75036L7.78282 16.5047L7.78499 16.5082C7.77633 16.5152 7.76839 16.5215 7.75974 16.5327L7.68759 16.567L7.71068 16.6636L7.70419 16.6846C7.68759 16.7343 7.7013 16.7693 7.71429 16.7882C7.71934 16.7931 7.72222 16.7952 7.72583 16.7987C7.69914 16.8232 7.67028 16.861 7.66451 16.9177L7.65513 16.9989L7.72439 17.008C7.71861 17.0255 7.71284 17.0423 7.70924 17.0577C7.69986 17.0885 7.69264 17.1144 7.67677 17.1361H7.67821C7.67605 17.1396 7.67316 17.1424 7.67172 17.1466L7.79004 17.2096C7.772 17.2411 7.76406 17.2698 7.75757 17.2929C7.75396 17.3048 7.74819 17.3202 7.74242 17.3293C7.74242 17.3293 7.74098 17.3293 7.73521 17.3293H7.63565L7.64142 17.442C7.64719 17.4574 7.65008 17.4777 7.65152 17.4987C7.65441 17.519 7.65657 17.5435 7.66306 17.568V17.6793C7.66306 17.6947 7.66379 17.7164 7.66811 17.7423L7.65441 17.7479L7.66379 17.8102C7.66811 17.841 7.66595 17.8725 7.66379 17.904C7.66306 17.9194 7.6609 17.9418 7.6609 17.9614L7.58082 18.002L7.67894 18.1056C7.67821 18.1091 7.67677 18.1105 7.67677 18.1105C7.66595 18.1364 7.65152 18.1714 7.65152 18.2106H7.58299L7.70202 18.3506C7.7114 18.3625 7.72078 18.3947 7.72727 18.4178C7.72871 18.4199 7.72871 18.4234 7.72871 18.4269C7.68254 18.4717 7.67316 18.541 7.67028 18.5781C7.66667 18.5935 7.66523 18.6166 7.66162 18.6257C7.66162 18.6257 7.66162 18.6222 7.66379 18.6222L7.69336 18.66C7.671 18.6782 7.65585 18.6957 7.64791 18.7118C7.63565 18.7391 7.63421 18.7692 7.63781 18.793H7.52166L7.61761 18.8854L7.52744 18.9148L7.60174 18.975V19.2032C7.60174 19.2452 7.62122 19.2795 7.65801 19.2977C7.65874 19.2991 7.6609 19.3005 7.6609 19.3005C7.70924 19.3299 7.7619 19.3278 7.80374 19.3201V19.4111L7.91629 19.3789C7.99997 19.3565 8.06418 19.3516 8.12983 19.3656L8.22361 19.3824L8.2366 19.2907C8.28205 18.9484 8.27195 18.6159 8.26257 18.2967C8.25464 17.9831 8.24598 17.6877 8.28999 17.3965C8.31812 17.3419 8.29143 17.2887 8.27484 17.2628Z" fill="#004587"/>
<path d="M21.6927 17.3775L21.7129 17.3642V17.3173L21.6942 15.7759V15.7703V15.7668C21.666 15.5358 21.6588 15.2789 21.653 15.008C21.6473 14.7014 21.6408 14.3878 21.5968 14.1085C21.5895 13.7088 21.508 13.2804 21.4272 12.866L21.3738 12.5846L21.3695 12.5573L21.3508 12.5384C21.2858 12.4775 21.2649 12.4005 21.2397 12.3081C21.2209 12.2339 21.1985 12.1562 21.1509 12.0834C21.0427 11.8937 20.8739 11.711 20.7253 11.5486L20.7181 11.5409C20.6813 11.4919 20.6365 11.466 20.5983 11.4422C20.5781 11.4289 20.5572 11.4163 20.5334 11.3953L20.5002 11.3673L20.4785 11.3729L20.4526 11.3519C20.3184 11.2462 20.1929 11.207 20.0471 11.1594H20.0435C20.0002 11.1013 19.923 11.0929 19.8653 11.0901V11.0523L19.791 11.0418L19.4382 10.9893L19.387 10.983L19.3546 11.0243C19.3416 11.0397 19.3387 11.0425 19.2629 11.0173C19.2312 11.0075 19.1915 10.9935 19.1511 10.9893L19.1114 10.9844L19.0891 11.0047C19.079 10.9977 19.0653 10.9893 19.0494 10.9809L18.9029 10.9375L18.8914 11.0033C18.8258 11.0033 18.7688 11.0166 18.7226 11.0397H18.6504H18.491L18.2746 11.0418L18.3006 11.1216C18.2991 11.1237 18.2977 11.1251 18.2962 11.1272C18.1996 11.1027 18.1274 11.1594 18.0863 11.193C18.0805 11.1979 18.0726 11.2049 18.0668 11.2084C17.9903 11.221 17.9471 11.2518 17.9168 11.2763C17.8937 11.2917 17.8865 11.2966 17.8648 11.298L17.8302 11.3022L17.8049 11.3274C17.7725 11.3673 17.6722 11.4093 17.6166 11.4331L17.4976 11.4856L17.5243 11.5094C17.5041 11.5185 17.4839 11.5304 17.4673 11.5479H17.4406H17.3533V11.6326V11.6361C17.3475 11.6361 17.3432 11.634 17.3396 11.6326L17.2747 11.606C17.2696 11.6025 17.2285 11.6599 17.2285 11.6599C17.1578 11.7537 17.0684 11.8482 16.971 11.9448C16.8599 12.0631 16.7444 12.1821 16.6528 12.3137L16.6261 12.3515L16.6434 12.3921C16.6218 12.404 16.5677 12.4369 16.5576 12.4992C16.5136 12.5468 16.5049 12.6077 16.4963 12.6497C16.4955 12.6609 16.4919 12.6791 16.489 12.6854C16.4422 12.7428 16.4321 12.7981 16.4241 12.8394C16.4191 12.873 16.4147 12.8898 16.3996 12.9073L16.3455 12.9759L16.3693 12.9948C16.3527 13.0347 16.3527 13.0795 16.3527 13.1054C16.3527 13.118 16.3513 13.132 16.3498 13.1418L16.3145 13.1642L16.321 13.2195C16.3368 13.3266 16.3224 13.4274 16.3072 13.5345C16.2935 13.636 16.2813 13.7396 16.2921 13.8579C16.2495 13.9202 16.2596 13.9965 16.2661 14.0441C16.2683 14.0595 16.2733 14.084 16.2712 14.0931L16.2142 14.1358L16.2546 14.2009C16.2849 14.2513 16.2618 14.329 16.238 14.4067C16.2171 14.4774 16.1911 14.5698 16.2171 14.6454C16.2099 14.651 16.2034 14.6573 16.1983 14.6664C16.1882 14.6776 16.1796 14.7021 16.181 14.7301C16.181 14.7882 16.1752 14.8085 16.1738 14.8127L16.1334 14.8946L16.1254 14.9282L16.2012 14.9807C16.1933 15.0311 16.1998 15.0773 16.2062 15.1158C16.2149 15.1725 16.2178 15.1949 16.2012 15.2194L16.1529 15.3013L16.1998 15.3566C16.1998 15.3601 16.1998 15.3643 16.1998 15.3706C16.1969 15.4091 16.1933 15.4763 16.2416 15.5246C16.2438 15.5351 16.2452 15.5435 16.2474 15.5519L16.1608 15.5736L16.2178 15.6905C16.2163 15.6989 16.2127 15.7094 16.2106 15.7199C16.2034 15.7521 16.186 15.8214 16.2221 15.8816C16.1954 15.9495 16.2113 16.0153 16.2236 16.0587C16.2279 16.0727 16.2308 16.0881 16.2329 16.1007C16.1507 16.1833 16.1911 16.2946 16.2127 16.3513C16.1759 16.408 16.1839 16.4759 16.1925 16.5158L16.0807 16.5515L16.194 16.6642C16.1889 16.6887 16.1889 16.7181 16.2077 16.7468C16.22 16.7657 16.2365 16.779 16.2539 16.7867L16.2207 16.7972C16.2214 16.8007 16.2236 16.8042 16.2243 16.8091H16.2236L16.2647 16.9092L16.2632 16.919C16.2539 16.9785 16.2683 17.0338 16.2964 17.0786C16.287 17.0905 16.2806 17.1059 16.2791 17.1269L16.2351 17.1682L16.2784 17.2284C16.3101 17.2753 16.2979 17.3341 16.2741 17.4307C16.2524 17.514 16.2264 17.619 16.2762 17.7114L16.2142 17.7695L16.2928 17.8248C16.2892 17.8297 16.2878 17.8339 16.2863 17.8353C16.2661 17.871 16.2293 17.9403 16.2748 18.0096L16.2719 18.0033C16.2885 18.0362 16.2806 18.0929 16.2719 18.1538C16.2618 18.2399 16.2503 18.3449 16.2971 18.4471L16.282 18.5535L16.2856 18.5409C16.2719 18.5822 16.2834 18.6151 16.2964 18.641L16.2611 18.6571L16.2863 18.7306C16.3109 18.8048 16.3109 18.8986 16.3109 18.9966C16.3109 19.1814 16.3109 19.3928 16.4847 19.5517L16.5215 19.5867L16.572 19.5741C16.6997 19.5356 16.7062 19.411 16.7112 19.3438C16.712 19.3298 16.712 19.3158 16.7134 19.306L16.7149 19.2878L16.7105 19.2689C16.6571 19.0995 16.6788 18.8769 16.699 18.6795C16.704 18.6277 16.7091 18.578 16.7134 18.529L16.7149 18.5059L16.7033 18.4849C16.6687 18.4156 16.6773 18.3477 16.6874 18.2707C16.6968 18.2 16.704 18.1202 16.6795 18.0369C16.7098 17.675 16.691 17.2501 16.6759 16.8728C16.6694 16.7139 16.6644 16.5634 16.6607 16.4255V16.4206L16.66 16.4143C16.6369 16.2386 16.6442 16.0482 16.6485 15.8613C16.6543 15.6975 16.6579 15.5267 16.6434 15.3692C16.6831 15.1893 16.6809 15.0248 16.6766 14.8519C16.6766 14.7721 16.6752 14.6902 16.6766 14.6048L16.6788 14.5845L16.6716 14.5726C16.7127 14.5257 16.7199 14.4788 16.7011 14.4305C16.7206 14.3626 16.7235 14.3024 16.7257 14.2457C16.7271 14.2002 16.7293 14.1568 16.7372 14.1169L16.7423 14.0966L16.7372 14.0756C16.7264 14.0385 16.7358 13.9937 16.7473 13.9475C16.761 13.8901 16.774 13.8229 16.7502 13.7578C16.8195 13.6227 16.8339 13.4568 16.8476 13.2958L16.8541 13.2419C16.8584 13.2069 16.8454 13.1726 16.8173 13.1432V13.1383C16.8173 13.0662 16.8548 13.0095 16.9031 12.9367C16.9558 12.8576 17.0142 12.7673 17.0308 12.6441L17.0316 12.6238L17.0308 12.621C17.0359 12.614 17.0453 12.6084 17.051 12.6028C17.0828 12.5748 17.1311 12.5356 17.1304 12.4712C17.1304 12.4593 17.129 12.4488 17.1246 12.4369C17.1845 12.3837 17.2235 12.3221 17.2566 12.2668C17.3079 12.1856 17.3439 12.1261 17.4413 12.0995L17.4897 12.0855L17.5012 12.0386C17.5156 11.9847 17.5633 11.9553 17.6404 11.9105C17.6974 11.8741 17.7595 11.8363 17.8064 11.7782C17.8706 11.7831 17.9088 11.7663 17.9305 11.7432C18.0091 11.7243 18.0668 11.6809 18.1159 11.6431C18.1981 11.5773 18.2248 11.5647 18.2796 11.5892L18.3352 11.6151L18.3698 11.5787C18.3734 11.5787 18.3756 11.5766 18.3792 11.5766C18.4037 11.5717 18.447 11.5591 18.4751 11.5199C18.4982 11.5143 18.5206 11.5073 18.5386 11.501C18.5841 11.4856 18.5942 11.4835 18.6108 11.494C18.6274 11.5031 18.6555 11.5136 18.6916 11.5045L18.6959 11.5122L18.7608 11.5031L18.8467 11.4912C19.1013 11.4597 19.3214 11.4324 19.519 11.536L19.5897 11.5745L19.633 11.5143C19.6439 11.5227 19.6525 11.5332 19.6597 11.5402C19.7109 11.5948 19.7997 11.69 19.9303 11.6697C19.957 11.6942 19.9901 11.7131 20.0183 11.7285C20.0284 11.7348 20.0457 11.7439 20.0551 11.7509V11.7544L20.0717 11.7761C20.1121 11.8286 20.1994 11.8545 20.2657 11.8566C20.4143 12.0092 20.5673 12.2164 20.5673 12.3074V12.3935H20.6329L20.6344 12.3998C20.6596 12.5125 20.6914 12.6518 20.7823 12.7435C20.757 12.8002 20.7779 12.8695 20.7888 12.901C20.7916 12.9087 20.7953 12.9199 20.7989 12.9304L20.7772 12.9941L20.8342 13.0515L20.8494 13.0585C20.8436 13.1173 20.871 13.1726 20.8912 13.2125C20.8948 13.2209 20.9013 13.2328 20.9064 13.244L20.8934 13.2748C20.8133 13.4239 20.9186 13.5051 20.9691 13.5429C20.9778 13.5492 20.9843 13.5534 20.99 13.5597C20.9504 13.5891 20.9504 13.6199 20.9439 13.6717L20.9511 13.7354L20.9778 13.7788H20.9799C20.9814 13.7823 20.9835 13.7851 20.9835 13.7879C20.9879 13.8005 20.9929 13.8194 21.0045 13.8376L20.9727 13.8649L20.9518 13.9433L20.9958 14.0035L21.0319 14.021C21.0304 14.056 21.0434 14.0868 21.0528 14.1085C21.0542 14.112 21.0579 14.1162 21.06 14.1211L21.0514 14.1596C21.0211 14.2996 20.985 14.4816 21.0759 14.6293C21.073 14.6314 21.0701 14.6328 21.0701 14.6328C21.0261 14.6895 21.0384 14.7525 21.0441 14.7973C21.0456 14.8106 21.0521 14.8344 21.0485 14.8435L21.0261 14.931C21.0261 14.9352 21.055 14.9415 21.0817 14.9471C21.0773 14.9555 21.0737 14.966 21.073 14.9744L21.0528 15.0773H21.0889C21.0817 15.1109 21.0817 15.1445 21.0795 15.1718C21.0781 15.2236 21.0773 15.2586 21.0593 15.2859L21.0506 15.2957L21.0463 15.3097C21.0196 15.4021 21.0557 15.4896 21.0838 15.5603C21.0889 15.5743 21.0939 15.5862 21.099 15.5988C21.0838 15.6142 21.0687 15.6387 21.0716 15.6709C21.0716 15.68 21.0744 15.6849 21.0759 15.6919L21.0586 15.7108L21.073 15.7612C21.0831 15.7906 21.1004 15.8081 21.1235 15.8186L21.1084 15.8221C21.104 15.8221 21.104 15.8879 21.104 15.8879V15.911L21.0492 15.9292L21.0766 15.9845C21.0629 16.0083 21.0485 16.0468 21.0629 16.0902L21.0239 16.156C21.0239 16.156 21.0326 16.1938 21.0665 16.2113C21.0312 16.3275 21.1177 16.4115 21.1704 16.464C21.1913 16.4864 21.2065 16.4997 21.2166 16.5137H21.1718L21.2036 16.6243L21.2057 16.6264C21.1985 16.6355 21.1899 16.6418 21.1812 16.6509L21.1091 16.6859L21.1322 16.7804L21.1235 16.8049C21.1084 16.8525 21.1221 16.8875 21.1372 16.9085C21.1401 16.9127 21.143 16.9148 21.1473 16.9176C21.1206 16.9435 21.0903 16.982 21.086 17.0373L21.0766 17.1178L21.1444 17.1269C21.1387 17.1458 21.1329 17.1605 21.1286 17.1773C21.1199 17.2102 21.1148 17.2361 21.099 17.255H21.0997C21.0975 17.2599 21.0946 17.262 21.0946 17.2655L21.2101 17.3285C21.1949 17.36 21.1841 17.3915 21.1783 17.4132C21.174 17.4258 21.169 17.4391 21.1646 17.4482C21.1646 17.4482 21.1603 17.4482 21.156 17.4482H21.0571L21.0622 17.5609C21.0687 17.5784 21.0701 17.5952 21.0723 17.619C21.0744 17.64 21.0773 17.6624 21.0831 17.6883V17.7982C21.0831 17.8122 21.0845 17.8367 21.0882 17.8605L21.0752 17.8675L21.0853 17.9277C21.0896 17.9585 21.0867 17.9907 21.0853 18.0215C21.0838 18.039 21.0831 18.0572 21.0838 18.0796L21.0023 18.1202L21.0997 18.2238C21.0997 18.2259 21.099 18.228 21.0983 18.2301C21.0867 18.256 21.0737 18.2903 21.0737 18.3288H21.003L21.1213 18.4709C21.1322 18.4814 21.1415 18.5143 21.1473 18.5367C21.1495 18.5395 21.1495 18.5409 21.1516 18.5444C21.1019 18.5892 21.0939 18.6585 21.0896 18.6949C21.0889 18.7103 21.086 18.7348 21.0824 18.7411L21.0831 18.7397L21.1134 18.7782C21.0903 18.7957 21.0752 18.8139 21.0687 18.8321C21.0557 18.8601 21.0557 18.8881 21.0579 18.9112H20.9417L21.0369 19.005L20.9482 19.033L21.0218 19.0932V19.3242C21.0218 19.3641 21.0427 19.3998 21.0773 19.4152C21.0773 19.4152 21.0831 19.4166 21.0845 19.4187C21.13 19.4488 21.1812 19.4488 21.2245 19.4376V19.5328L21.3385 19.4992C21.4222 19.4754 21.4842 19.4712 21.5491 19.4838L21.6451 19.5034L21.6559 19.4117C21.7014 19.0694 21.6927 18.7355 21.6848 18.4156C21.6761 18.1027 21.6682 17.8066 21.7086 17.5147C21.736 17.4573 21.7086 17.4055 21.6927 17.3775Z" fill="#ED6B06"/>
<path d="M23.0755 24.5734H1.28332V3.42849H23.0755V24.5734ZM-0.000823975 2.17969V25.8201H24.3647V2.17969H-0.000823975Z" fill="#ED6B06"/>
<path d="M188.84 12.2739C188.84 8.93976 188.84 8.32586 188.885 7.62306C188.929 6.85586 189.11 6.48346 189.721 6.37286C189.993 6.32946 190.128 6.30776 190.354 6.30776C190.535 6.30776 190.67 6.26366 190.67 6.10966C190.67 5.95566 190.512 5.91086 190.198 5.91086C189.428 5.91086 188.003 5.97666 187.46 5.97666C186.919 5.97666 185.496 5.91086 184.296 5.91086C183.958 5.91086 183.8 5.95566 183.8 6.10966C183.8 6.26366 183.935 6.30776 184.184 6.30776C184.499 6.30776 184.884 6.33016 185.065 6.37286C185.81 6.52686 185.992 6.87756 186.036 7.62306C186.081 8.32586 186.081 8.93906 186.081 12.2739V16.1344C186.081 18.1525 186.081 19.8871 185.968 20.8069C185.878 21.4432 185.764 21.9262 185.314 22.0137C185.109 22.0564 184.838 22.0998 184.498 22.0998C184.227 22.0998 184.138 22.1656 184.138 22.2762C184.138 22.4302 184.296 22.4967 184.589 22.4967C185.495 22.4967 186.919 22.4309 187.438 22.4309C188.003 22.4309 189.427 22.4967 190.692 22.4967C190.942 22.4967 191.122 22.4309 191.122 22.2762C191.122 22.1663 191.011 22.0998 190.83 22.0998C190.536 22.0998 190.039 22.0564 189.721 22.0137C189.155 21.9255 188.953 21.4425 188.908 20.8293C188.841 19.8857 188.841 18.1518 188.841 16.1337V14.138H188.954L189.203 14.4663C189.677 15.1026 194.128 20.1706 195.126 21.0267C196.096 21.8597 196.708 22.3427 197.929 22.454C198.404 22.4967 198.809 22.4967 199.488 22.4967H201.455C201.885 22.4967 201.999 22.4309 201.999 22.2762C201.999 22.1474 201.862 22.0998 201.702 22.0998C201.432 22.0998 200.98 22.0347 200.302 21.7729C199.081 21.3116 198.066 20.326 197.069 19.4027C196.189 18.5893 191.758 13.9637 190.943 12.9312C191.71 12.1423 195.126 8.85296 195.826 8.19356C196.798 7.27306 197.567 6.81246 198.267 6.54926C198.696 6.39526 199.263 6.30706 199.578 6.30706C199.803 6.30706 199.917 6.26296 199.917 6.10896C199.917 5.95496 199.76 5.91016 199.534 5.91016C198.831 5.91016 197.587 5.97596 196.887 5.97596C196.278 5.97596 195.033 5.91016 194.559 5.91016C194.31 5.91016 194.198 5.95496 194.198 6.10896C194.198 6.24126 194.288 6.28396 194.492 6.32876C194.717 6.37216 194.808 6.52546 194.808 6.76626C194.808 7.14006 194.31 7.68816 193.678 8.41336C193.023 9.15886 189.722 12.4258 188.955 13.2385H188.841L188.84 12.2739Z" fill="#006935"/>
<path d="M171.179 12.8829C171.111 12.8829 171.043 12.8388 171.043 12.7296V12.269C171.043 8.93696 171.043 8.32306 171.088 7.62096C171.134 6.85376 171.315 6.48136 171.925 6.37146C172.196 6.32736 172.399 6.30566 172.58 6.30566C172.851 6.30566 172.987 6.26156 172.987 6.10826C172.987 5.95496 172.828 5.91086 172.512 5.91086C171.631 5.91086 170.208 5.97666 169.665 5.97666C169.055 5.97666 167.631 5.91086 166.411 5.91086C166.095 5.91086 165.937 5.95426 165.937 6.10826C165.937 6.26156 166.072 6.30566 166.32 6.30566C166.636 6.30566 167.02 6.32806 167.202 6.37146C167.947 6.52476 168.128 6.87546 168.173 7.62096C168.219 8.32236 168.219 8.93626 168.219 12.269V16.1281C168.219 18.1441 168.219 19.8766 168.105 20.7978C168.015 21.4334 167.902 21.9157 167.45 22.0032C167.246 22.0473 166.976 22.0907 166.636 22.0907C166.366 22.0907 166.275 22.1565 166.275 22.2664C166.275 22.4197 166.433 22.4862 166.727 22.4862C167.631 22.4862 169.054 22.4204 169.574 22.4204C170.207 22.4204 171.63 22.4862 173.099 22.4862C173.37 22.4862 173.551 22.4204 173.551 22.2664C173.551 22.1565 173.438 22.0907 173.189 22.0907C172.85 22.0907 172.353 22.0473 172.037 22.0032C171.359 21.9157 171.224 21.4327 171.156 20.8188C171.043 19.8766 171.043 18.1441 171.043 16.1274V14.1982C171.043 14.0883 171.111 14.0673 171.179 14.0673H179.81C179.877 14.0673 179.945 14.1107 179.945 14.1982V16.1274C179.945 18.1434 179.945 19.8759 179.832 20.7971C179.742 21.4327 179.629 21.915 179.176 22.0025C178.973 22.0466 178.702 22.09 178.363 22.09C178.092 22.09 178.002 22.1558 178.002 22.2657C178.002 22.419 178.16 22.4855 178.477 22.4855C179.358 22.4855 180.781 22.4197 181.301 22.4197C181.934 22.4197 183.358 22.4855 184.826 22.4855C185.097 22.4855 185.277 22.4197 185.277 22.2657C185.277 22.1558 185.165 22.09 184.916 22.09C184.577 22.09 184.08 22.0466 183.764 22.0025C183.086 21.915 182.95 21.432 182.882 20.8181C182.77 19.8759 182.77 18.1434 182.77 16.1267V12.2683C182.77 8.93626 182.77 8.32236 182.815 7.62026C182.86 6.85306 183.042 6.48066 183.651 6.37076C183.923 6.32666 184.125 6.30496 184.307 6.30496C184.578 6.30496 184.713 6.26086 184.713 6.10756C184.713 5.95426 184.555 5.91016 184.239 5.91016C183.358 5.91016 181.934 5.97596 181.392 5.97596C180.782 5.97596 179.358 5.91016 178.138 5.91016C177.821 5.91016 177.663 5.95356 177.663 6.10756C177.663 6.26086 177.799 6.30496 178.047 6.30496C178.364 6.30496 178.749 6.32736 178.928 6.37076C179.674 6.52406 179.855 6.87476 179.9 7.62026C179.945 8.32166 179.945 8.93556 179.945 12.2683V12.7289C179.945 12.8388 179.877 12.8822 179.81 12.8822L171.179 12.8829Z" fill="#006935"/>
<path d="M148.651 13.3881C148.001 13.211 146.569 13.0556 145.828 13.0234C145.284 12.9996 144.971 12.9653 144.769 12.9226C144.736 12.9149 144.706 12.9037 144.681 12.8848V12.4788C144.681 9.65637 144.681 8.13457 145.158 7.73837C145.544 7.40797 146.345 7.35057 148.117 7.35057C149.321 7.35057 150.208 7.37227 150.777 7.96797C151.049 8.25427 151.322 8.87167 151.367 9.29097C151.39 9.48907 151.435 9.62137 151.618 9.62137C151.777 9.62137 151.8 9.51147 151.8 9.24617C151.8 9.00327 151.64 7.34987 151.459 6.71007C151.323 6.22497 151.209 6.11507 150.027 6.11507C148.391 6.11507 147 6.06117 145.977 6.08357C145.853 6.08917 145.732 6.09407 145.614 6.09827V6.08357C144.926 6.09687 144.143 6.14587 143.191 6.14587C142.741 6.14587 141.321 6.08007 140.127 6.08007C139.79 6.08007 139.632 6.12277 139.632 6.27747C139.632 6.43007 139.767 6.47277 140.015 6.47277C140.331 6.47277 140.713 6.49587 140.894 6.54067C141.636 6.69117 141.817 7.04187 141.862 7.78597C141.907 8.48457 141.907 9.09708 141.907 12.4193V16.2651C141.907 18.2769 141.907 20.0024 141.795 20.9208C141.706 21.555 141.592 22.0366 141.142 22.1248C140.938 22.1682 140.668 22.2109 140.331 22.2109C140.061 22.2109 139.97 22.2767 139.97 22.3859C139.97 22.5385 140.127 22.6036 140.421 22.6036C140.871 22.6036 141.456 22.5602 141.975 22.5602C142.515 22.5385 143.012 22.5385 143.259 22.5385C143.598 22.5385 144.272 22.5602 144.948 22.6036C145.602 22.626 146.255 22.6694 146.525 22.6694C150.67 22.6694 152.541 20.2446 152.541 17.9045C152.541 15.3488 150.497 13.9985 148.651 13.3881ZM147.043 21.6866C146.525 21.6866 146.006 21.6642 145.398 21.4234C144.677 21.1399 144.611 20.7675 144.611 19.3255V14.1462C144.611 14.0356 144.655 13.9922 144.745 13.9922C145.082 13.9922 145.307 13.9922 145.714 14.0139C146.592 14.058 147.11 14.212 147.584 14.5389C149.296 15.6953 149.768 17.5314 149.768 18.888C149.769 21.1623 148.055 21.6866 147.043 21.6866Z" fill="#006935"/>
<path d="M173.46 22.1363L167.602 22.179V21.9879C167.553 22.0131 167.5 22.0257 167.444 22.0257C166.58 22.0257 166.331 21.486 165.549 19.673C164.1 16.3403 160.484 7.38727 159.936 6.17977C159.711 5.67507 159.576 5.48047 159.373 5.48047C159.147 5.48047 159.009 5.72197 158.735 6.35617L153.064 20.1378C152.611 21.2291 152.18 21.9753 151.141 22.109C150.958 22.1314 150.943 22.1496 150.735 22.1496C150.553 22.1496 150.468 22.1972 150.468 22.3267C150.468 22.5017 150.603 22.5437 150.898 22.5437C152.068 22.5437 153.018 22.4807 153.266 22.4807C153.97 22.4807 154.939 22.5437 155.662 22.5437C155.914 22.5437 156.045 22.5024 156.045 22.3267C156.045 22.1972 155.98 22.1496 155.711 22.1496H155.369C154.669 22.1496 154.463 21.8675 154.463 21.4727C154.463 21.2088 154.583 20.6831 154.803 20.1385L156.027 16.9976C156.071 16.866 156.115 16.8198 156.229 16.8198H161.269C161.38 16.8198 161.453 16.8667 161.501 16.9738L163.309 21.6239C163.418 21.8885 163.264 22.0894 163.103 22.1328C162.876 22.151 162.786 22.1979 162.786 22.3281C162.786 22.4821 163.058 22.4821 163.464 22.5031C165.274 22.5444 166.924 22.5444 167.738 22.5444C168.246 22.5444 171.516 22.5311 172.982 22.5311C173.301 22.5311 173.551 22.4443 173.551 22.2693C173.551 22.207 173.518 22.1643 173.46 22.1363ZM160.843 15.7292H156.684C156.591 15.7292 156.57 15.6578 156.591 15.5696L158.669 10.174C158.697 10.0858 158.735 9.97377 158.806 9.97377C158.872 9.97377 158.897 10.0865 158.919 10.174L160.955 15.5906C160.975 15.6578 160.955 15.7292 160.843 15.7292Z" fill="#006935"/>
<path d="M52.1092 12.2515C52.1092 8.95236 52.1092 8.34476 52.0645 7.65036C52.0198 6.91256 51.8409 6.56536 51.1028 6.41346C50.9239 6.37006 50.5437 6.34836 50.2306 6.34836C49.9846 6.34836 49.8504 6.30496 49.8504 6.15306C49.8504 6.00116 50.007 5.95776 50.3424 5.95776C51.5285 5.95776 52.9374 6.02286 53.5636 6.02286C54.4806 6.02286 55.7777 5.95776 56.8072 5.95776C59.6034 5.95776 60.6105 6.86916 60.9684 7.19466C61.4604 7.65036 62.0866 8.62686 62.0866 9.77766C62.0866 12.8598 59.76 15.0298 56.5835 15.0298C56.4717 15.0298 56.2257 15.0298 56.1139 15.0088C56.0021 14.9871 55.8455 14.9654 55.8455 14.8135C55.8455 14.6399 56.0021 14.5748 56.4717 14.5748C57.7248 14.5748 59.4692 13.207 59.4692 10.9936C59.4692 10.2768 59.4021 8.82286 58.149 7.73786C57.3432 7.02176 56.4263 6.89156 55.9119 6.89156C55.5764 6.89156 55.2409 6.91326 55.0397 6.97836C54.9278 7.02176 54.8608 7.15196 54.8608 7.39066V16.0728C54.8608 18.0699 54.8608 19.7849 54.9726 20.718C55.0397 21.3256 55.1739 21.803 55.8448 21.8898C56.1579 21.9332 56.6506 21.9766 56.9861 21.9766C57.2321 21.9766 57.3439 22.0417 57.3439 22.1502C57.3439 22.3021 57.165 22.3672 56.919 22.3672C55.4422 22.3672 54.0333 22.3021 53.4518 22.3021C52.9374 22.3021 51.5278 22.3672 50.6332 22.3672C50.3424 22.3672 50.1859 22.3021 50.1859 22.1502C50.1859 22.0417 50.2754 21.9766 50.5437 21.9766C50.8792 21.9766 51.1476 21.9332 51.3496 21.8898C51.7968 21.803 51.9087 21.3256 51.9981 20.6963C52.11 19.7849 52.11 18.0699 52.11 16.0728L52.1092 12.2515Z" fill="#006935"/>
<path d="M64.0946 16.7022C63.9828 16.7022 63.9381 16.7463 63.8934 16.8758L62.685 19.9796C62.4613 20.5221 62.3495 21.0436 62.3495 21.304C62.3495 21.6946 62.5508 21.9767 63.2441 21.9767H63.5795C63.8479 21.9767 63.915 22.0201 63.915 22.1503C63.915 22.3239 63.7808 22.3673 63.5348 22.3673C62.8191 22.3673 61.8575 22.3022 61.1635 22.3022C60.9175 22.3022 60.1066 22.3673 58.9436 22.3673C58.6529 22.3673 58.5187 22.3239 58.5187 22.1503C58.5187 22.0201 58.6096 22.0005 58.7871 21.9767C59.0771 21.9375 59.1478 21.9109 59.3253 21.8822C60.1484 21.752 60.5149 21.0653 60.9622 19.9796L66.5771 6.34847C66.8454 5.71917 66.9796 5.48047 67.2033 5.48047C67.4045 5.48047 67.5387 5.67577 67.7624 6.17487C68.2991 7.36837 71.8788 16.2248 73.3102 19.5239C74.16 21.4769 74.8086 21.7814 75.2789 21.8899C75.6144 21.955 75.9506 21.9767 76.219 21.9767C76.3972 21.9767 76.5097 21.9984 76.5097 22.1503C76.5097 22.3239 76.3084 22.3673 75.4809 22.3673C74.6751 22.3673 73.0425 22.3673 71.2526 22.3239C70.8501 22.3022 70.5817 22.3022 70.5817 22.1503C70.5817 22.0201 70.6712 21.9767 70.8948 21.955C71.0514 21.9116 71.2079 21.7163 71.0961 21.4559L69.307 16.8548C69.2622 16.7463 69.1951 16.7022 69.0833 16.7022H64.0946ZM68.6584 15.6165C68.7702 15.6165 68.7926 15.5514 68.7702 15.4863L66.7567 10.125C66.7343 10.0382 66.712 9.92967 66.6449 9.92967C66.5778 9.92967 66.5331 10.0382 66.5107 10.125L64.4525 15.4653C64.4301 15.5514 64.4525 15.6165 64.5419 15.6165H68.6584Z" fill="#006935"/>
<path d="M77.3205 12.2507C77.3205 8.95163 77.3205 8.34403 77.2757 7.64963C77.231 6.91183 77.0521 6.56463 76.3141 6.41273C76.1352 6.36933 75.755 6.34763 75.4419 6.34763C75.1959 6.34763 75.0617 6.30423 75.0617 6.15233C75.0617 6.00043 75.2182 5.95703 75.5537 5.95703C76.739 5.95703 78.1487 6.02213 78.596 6.02213C79.6925 6.02213 80.5647 5.95703 81.3251 5.95703C85.3738 5.95703 86.0902 8.06263 86.0902 9.21273C86.0902 10.9928 85.0383 12.0561 83.8083 13.0109C85.6429 13.6192 87.8793 15.1599 87.8793 17.6995C87.8793 20.0221 86.0231 22.4315 81.9066 22.4315C81.6382 22.4315 80.9897 22.3881 80.3411 22.3664C79.6702 22.323 78.9992 22.3013 78.6638 22.3013C78.4178 22.3013 77.9257 22.3013 77.3883 22.323C76.8739 22.323 76.2924 22.3664 75.8451 22.3664C75.5544 22.3664 75.3979 22.3013 75.3979 22.1494C75.3979 22.0409 75.4873 21.9758 75.7557 21.9758C76.0912 21.9758 76.3602 21.9324 76.5608 21.889C77.0081 21.8022 77.1199 21.3248 77.2094 20.6955C77.3212 19.7841 77.3212 18.0691 77.3212 16.072L77.3205 12.2507ZM80.0042 12.6203C80.0042 12.7939 80.0713 12.8366 80.1607 12.859C80.362 12.9024 80.6975 12.9241 81.2119 12.9241C81.9506 12.9241 82.4426 12.8366 82.8228 12.5118C83.4043 12.0554 83.7397 11.2742 83.7397 10.2109C83.7397 8.75703 82.8668 6.84673 80.9435 6.84673C80.6304 6.84673 80.4291 6.84673 80.2055 6.89013C80.0489 6.93353 80.0042 7.02033 80.0042 7.25903V12.6203ZM82.957 14.3563C82.4873 14.0308 81.973 13.8789 81.1 13.8348C80.6975 13.8131 80.4738 13.8131 80.1384 13.8131C80.0489 13.8131 80.0042 13.8565 80.0042 13.965V19.1093C80.0042 20.5422 80.0713 20.9111 80.7869 21.1932C81.3908 21.4319 81.9052 21.4536 82.4202 21.4536C83.4266 21.4536 85.127 20.9328 85.127 18.6753C85.127 17.3299 84.6574 15.5064 82.957 14.3563Z" fill="#006935"/>
<path d="M104.606 13.2062H104.718C105.477 12.4033 108.744 9.16863 109.392 8.43083C110.019 7.71473 110.511 7.17223 110.511 6.80333C110.511 6.56463 110.421 6.41273 110.198 6.36933C109.996 6.32593 109.907 6.28253 109.907 6.15233C109.907 6.00043 110.019 5.95703 110.265 5.95703C110.734 5.95703 111.964 6.02213 112.569 6.02213C113.262 6.02213 114.493 5.95703 115.186 5.95703C115.41 5.95703 115.566 6.00043 115.566 6.15233C115.566 6.30423 115.455 6.34763 115.23 6.34763C114.917 6.34763 114.358 6.43443 113.933 6.58633C113.24 6.84673 112.479 7.30313 111.517 8.21453C110.824 8.86553 107.445 12.1212 106.685 12.9031C107.491 13.923 111.875 18.5031 112.747 19.306C113.731 20.2174 114.738 21.1939 115.946 21.6503C116.617 21.9107 117.064 21.9758 117.332 21.9758C117.49 21.9758 117.624 22.0192 117.624 22.1494C117.624 22.3013 117.512 22.3664 117.086 22.3664H115.141C114.47 22.3664 114.067 22.3664 113.598 22.323C112.39 22.2145 111.786 21.7364 110.824 20.9118C109.839 20.0648 105.433 15.0514 104.963 14.4221L104.717 14.0959H104.605V16.0713C104.605 18.0684 104.605 19.7834 104.672 20.7165C104.718 21.3241 104.918 21.8015 105.477 21.8883C105.791 21.9317 106.283 21.9751 106.574 21.9751C106.753 21.9751 106.865 22.0402 106.865 22.1487C106.865 22.3006 106.686 22.3657 106.44 22.3657C105.187 22.3657 103.778 22.3006 103.219 22.3006C102.705 22.3006 101.295 22.3657 100.4 22.3657C100.109 22.3657 99.9526 22.3006 99.9526 22.1487C99.9526 22.0402 100.041 21.9751 100.31 21.9751C100.646 21.9751 100.915 21.9317 101.115 21.8883C101.563 21.8015 101.675 21.3241 101.764 20.6948C101.876 19.7834 101.876 18.0684 101.876 16.0713V12.2507C101.876 8.95163 101.876 8.34403 101.831 7.64963C101.786 6.91183 101.608 6.56463 100.869 6.41273C100.691 6.36933 100.31 6.34763 99.9966 6.34763C99.7505 6.34763 99.6164 6.30423 99.6164 6.15233C99.6164 6.00043 99.7729 5.95703 100.108 5.95703C101.294 5.95703 102.703 6.02213 103.24 6.02213C103.778 6.02213 105.187 5.95703 105.947 5.95703C106.26 5.95703 106.417 6.00043 106.417 6.15233C106.417 6.30423 106.283 6.34763 106.104 6.34763C105.88 6.34763 105.746 6.36933 105.477 6.41273C104.873 6.52053 104.695 6.89013 104.65 7.64963C104.605 8.34403 104.605 8.95163 104.605 12.2507V13.2062H104.606Z" fill="#006935"/>
<path d="M118.809 20.3033C116.617 18.4364 116.034 16.0053 116.034 13.9004C116.034 12.4241 116.505 9.86284 118.652 7.95324C120.262 6.52034 122.388 5.65234 125.721 5.65234C127.107 5.65234 127.935 5.73914 128.964 5.86934C129.814 5.97784 130.531 6.17314 131.202 6.23824C131.448 6.25994 131.537 6.36844 131.537 6.49864C131.537 6.67224 131.47 6.93264 131.425 7.69214C131.381 8.40824 131.403 9.60244 131.358 10.0364C131.336 10.3619 131.291 10.5355 131.09 10.5355C130.911 10.5355 130.866 10.3619 130.866 10.0581C130.844 9.38544 130.553 8.62594 129.993 8.06104C129.255 7.30154 127.51 6.71564 125.453 6.71564C123.507 6.71564 122.231 7.19304 121.247 8.06104C119.613 9.51494 119.188 11.5778 119.188 13.6827C119.188 18.8487 123.237 21.41 126.235 21.41C128.225 21.41 129.433 21.1923 130.328 20.1941C130.708 19.7818 130.999 19.1525 131.089 18.7619C131.156 18.4147 131.201 18.3279 131.38 18.3279C131.536 18.3279 131.581 18.4798 131.581 18.6534C131.581 18.9138 131.313 20.8024 131.089 21.5402C130.977 21.9091 130.888 22.0176 130.508 22.1695C129.613 22.5167 127.913 22.6686 126.481 22.6686C123.417 22.6693 120.845 22.0183 118.809 20.3033Z" fill="#006935"/>
<path d="M49.0183 21.9758C48.6829 21.9758 48.1909 21.9324 47.8778 21.889C47.2068 21.8022 47.0503 21.4116 46.9825 20.825C46.893 19.8919 46.893 18.1769 46.893 16.0713V12.2507C46.893 8.95163 46.893 8.34403 46.9377 7.64963C46.9825 6.89013 47.1614 6.52053 47.7652 6.41273C48.0336 6.36933 48.2125 6.34763 48.4361 6.34763C48.6598 6.34763 48.794 6.30423 48.794 6.13063C48.794 6.00043 48.6151 5.95703 48.3243 5.95703C47.4745 5.95703 32.7725 5.95703 31.9226 5.95703C31.5648 5.95703 31.3859 6.00043 31.3859 6.13063C31.3859 6.30423 31.5201 6.34763 31.7437 6.34763C32.0121 6.34763 32.3036 6.36933 32.5496 6.43443C33.0416 6.54293 33.2652 6.91183 33.3099 7.65033C33.3547 8.34473 33.3547 8.95233 33.3547 12.2514V16.072C33.3547 18.1776 33.3547 19.8926 33.2429 20.804C33.1758 21.4333 33.0416 21.8022 32.5943 21.8897C32.393 21.9331 32.1239 21.9765 31.7885 21.9765C31.5201 21.9765 31.4306 22.0416 31.4306 22.1501C31.4306 22.302 31.5872 22.3671 31.8779 22.3671C32.7725 22.3671 34.1822 22.302 34.6965 22.302C35.3011 22.302 36.71 22.3671 38.1868 22.3671C38.4328 22.3671 38.6117 22.302 38.6117 22.1501C38.6117 22.0416 38.4999 21.9765 38.2539 21.9765C37.9184 21.9765 37.4264 21.9331 37.1126 21.8897C36.4417 21.8029 36.2851 21.4123 36.218 20.8257C36.1286 19.8926 36.1286 18.1776 36.1286 16.072V12.2514C36.1286 8.95233 36.1394 8.50363 36.1841 7.80923C36.2288 7.04973 36.4078 6.80193 37.0116 6.69343C37.1631 6.66893 37.2857 6.65213 37.4041 6.64163H42.8472C43.0124 6.65423 43.1762 6.67593 43.3241 6.71583C43.8161 6.82433 44.0398 7.07213 44.0845 7.80993C44.1292 8.50433 44.1184 8.95303 44.1184 12.2521V16.0727C44.1184 18.1783 44.1184 19.8933 44.0066 20.8047C43.9395 21.434 43.8053 21.8029 43.358 21.8904C43.1567 21.9338 42.8884 21.9772 42.5522 21.9772C42.2838 21.9772 42.1943 22.0423 42.1943 22.1508C42.1943 22.3027 42.3509 22.3678 42.6416 22.3678C43.5362 22.3678 44.9459 22.3027 45.4602 22.3027C46.0648 22.3027 47.4738 22.3678 48.9505 22.3678C49.1965 22.3678 49.3754 22.3027 49.3754 22.1508C49.3762 22.0409 49.2643 21.9758 49.0183 21.9758Z" fill="#006935"/>
<path d="M90.1176 12.2693C90.1176 8.9758 90.1176 8.3696 90.0729 7.6759C90.0282 6.9395 89.85 6.5923 89.1127 6.4411C88.9345 6.3977 88.5543 6.376 88.2419 6.376C87.9966 6.376 87.8625 6.3319 87.8625 6.1807C87.8625 6.0288 88.019 5.9854 88.3537 5.9854C88.9569 5.9854 89.604 6.0064 90.1631 6.0064C90.7438 6.0281 91.2568 6.0505 91.5699 6.0505C92.2841 6.0505 96.7281 6.0505 97.1523 6.0288C97.5765 5.9861 97.9343 5.942 98.1125 5.8986C98.2243 5.8776 98.3578 5.8125 98.4696 5.8125C98.5814 5.8125 98.6038 5.8986 98.6038 6.0071C98.6038 6.159 98.492 6.4187 98.4256 7.4155C98.4032 7.6325 98.3585 8.5859 98.3138 8.8449C98.2914 8.9534 98.2467 9.0836 98.0902 9.0836C97.9343 9.0836 97.8889 8.9751 97.8889 8.7798C97.8889 8.6286 97.8672 8.2604 97.7547 8C97.5981 7.6094 97.3752 7.3497 96.2584 7.2202C95.879 7.1768 93.5343 7.1341 93.087 7.1341C92.9752 7.1341 92.9312 7.1992 92.9312 7.3504V12.8321C92.9312 12.984 92.9536 13.0701 93.087 13.0701C93.5783 13.0701 96.1466 13.0701 96.6603 13.0267C97.1956 12.9833 97.531 12.9189 97.7323 12.7019C97.8882 12.529 97.9776 12.4205 98.0894 12.4205C98.1789 12.4205 98.246 12.4632 98.246 12.5934C98.246 12.7236 98.1565 13.0701 98.0671 14.1754C98.0447 14.6087 97.9776 15.4746 97.9776 15.6272C97.9776 15.8001 97.9776 16.0388 97.7763 16.0388C97.6205 16.0388 97.5758 15.9527 97.5758 15.8435C97.5534 15.6272 97.5534 15.3444 97.4856 15.063C97.3745 14.6304 97.0614 14.3056 96.2354 14.2174C95.8112 14.1747 93.6 14.1523 93.064 14.1523C92.9529 14.1523 92.9305 14.2398 92.9305 14.37V16.0836C92.9305 16.8207 92.9081 18.8136 92.9305 19.4408C92.9752 20.9367 93.3323 21.2615 95.6099 21.2615C96.1906 21.2615 97.1285 21.2615 97.7092 21.0011C98.29 20.7414 98.5576 20.2857 98.7142 19.3981C98.7589 19.1594 98.8036 19.0733 98.9595 19.0733C99.1384 19.0733 99.1384 19.2455 99.1384 19.4632C99.1384 19.9609 98.9595 21.4351 98.8477 21.8677C98.6911 22.4319 98.4898 22.4319 97.6421 22.4319C95.967 22.4319 94.7391 22.3885 93.7789 22.3668C92.8187 22.3234 92.1261 22.3017 91.4566 22.3017C91.2113 22.3017 90.72 22.3017 90.184 22.3234C89.6704 22.3234 89.0896 22.3668 88.6438 22.3668C88.353 22.3668 88.1965 22.3017 88.1965 22.1491C88.1965 22.042 88.2859 21.9762 88.5536 21.9762C88.8891 21.9762 89.156 21.9328 89.3573 21.8908C89.8038 21.8033 89.9156 21.3273 90.0051 20.698C90.1162 19.7887 90.1162 18.0772 90.1162 16.0836L90.1176 12.2693Z" fill="#006935"/>
</g>
<defs>
<clipPath id="clip0">
<rect width="202" height="28" fill="white"/>
</clipPath>
</defs>
</svg>
