<svg width="44" height="44" viewBox="0 0 44 44" fill="none" xmlns="http://www.w3.org/2000/svg">
<g clip-path="url(#clip0)">
<path d="M22.0457 8C34.1206 8 44 17.9 44 30C44 42.1917 34.1206 52 22.0457 52C9.92516 52 0 42.1458 0 30C0 17.9 9.92516 8 22.0457 8Z" fill="#D13239"/>
<path d="M38.7411 22.3008H38.9698C38.8783 22.9424 38.6039 23.4008 38.1922 23.6758C37.6891 23.9508 37.1403 24.1341 36.2712 24.1341H35.4937C32.6579 23.9508 32.0633 26.9758 32.3835 29.1758C32.6122 30.5508 33.1153 32.0174 33.9386 33.0258C34.6704 33.8049 35.7681 34.3091 36.6829 33.53C37.4604 32.8883 37.6891 31.4216 37.6891 30.5508C37.6891 29.0383 37.1403 26.7008 35.265 26.7008C34.7161 26.7008 34.213 26.9299 33.8014 27.4799C33.4812 27.8924 33.344 28.6716 33.344 29.4508H32.9781C32.7494 27.6174 33.6184 26.1049 35.5394 26.0591C37.8263 26.0591 39.1985 27.8924 39.1985 30.1841C39.1985 32.4758 37.7806 34.6299 35.448 34.6299C34.213 34.6299 33.2525 34.1716 32.5207 33.2549C31.7889 32.3841 31.4688 30.9633 31.4688 29.1299C31.4688 26.8383 31.8347 25.5091 32.5207 24.4091C33.2525 23.3549 34.213 22.8508 35.5852 22.8508H36.7286C37.4604 22.9424 37.9636 22.8508 38.238 22.8049C38.4667 22.6674 38.6954 22.5299 38.7411 22.3008Z" fill="white"/>
<path d="M22.6875 26.1484L25.4775 32.3359L28.0389 26.6526L28.2676 26.1484H30.3715V26.4234H30.1886C29.9141 26.4234 29.594 26.7443 29.594 27.0651V31.7859V33.6651C29.594 34.0318 29.9141 34.3068 30.1886 34.3068H30.3715V34.5359H28.9536H27.4443V34.3068H27.673C27.9474 34.3068 28.2676 34.0318 28.2676 33.6651V31.7859V27.5693L25.1574 34.5359H24.9744L21.91 27.4318V33.6193C21.91 33.9859 22.1844 34.2609 22.4588 34.2609H22.6875V34.4901H21.2696H20.5378V34.2609H20.7665C21.0867 34.2609 21.3611 33.9859 21.3611 33.6193V27.0651C21.3611 26.7443 21.1782 26.4234 20.7208 26.4234C20.3549 26.4234 19.9432 26.7901 19.7145 27.2943L16.7873 33.8026C16.5129 34.3526 16.147 34.5359 15.6439 34.5359H14.9578L14.8206 33.6651C15.1407 33.8943 15.3694 34.0318 15.4609 34.0776C15.8268 34.2609 16.1012 34.0318 16.1927 33.7568L16.5586 32.9318L13.9058 27.4318C13.5856 26.8359 13.357 26.5609 12.9453 26.4693V26.1943H14.4547H15.5981V26.4693H15.3694C15.1407 26.4693 15.0493 26.7901 15.2322 27.1109L17.2447 31.4193L19.1199 27.2484C19.3486 26.8359 19.1657 26.5151 18.8455 26.4693V26.1484H22.6875Z" fill="white"/>
<path d="M10.5174 31.7859V27.0651V26.7443H6.76688V27.0651V31.7859V33.6651C6.76688 34.0318 7.0413 34.3068 7.31573 34.3068H7.54442V34.5359H6.12654H4.61719V34.3068H4.84588C5.16604 34.3068 5.44047 34.0318 5.44047 33.6651V31.7859V27.0651C5.44047 26.6984 5.16604 26.4234 4.84588 26.4234H4.61719V26.1484H6.12654H6.35523H7.59016H9.78559H10.8833H11.2949H12.7128V26.4234H12.4841C12.164 26.4234 11.8895 26.7443 11.8895 27.0651V31.7859V33.6651C11.8895 34.0318 12.164 34.3068 12.4841 34.3068H12.7128V34.5359H11.2949H9.78559V34.3068H10.0143C10.2887 34.3068 10.5631 34.0318 10.5631 33.6651V31.7859H10.5174Z" fill="white"/>
</g>
<defs>
<clipPath id="clip0">
<rect width="44" height="44" fill="white"/>
</clipPath>
</defs>
</svg>
