<svg width="95" height="36" viewBox="0 0 95 36" fill="none" xmlns="http://www.w3.org/2000/svg">
<path d="M85.5409 14.3073C85.493 14.2998 85.4442 14.3024 85.3974 14.3149C85.3507 14.3274 85.3071 14.3495 85.2694 14.3799C85.2317 14.4103 85.2008 14.4482 85.1787 14.4913C85.1566 14.5343 85.1437 14.5815 85.1409 14.6298C85.1409 14.6298 84.6331 15.8207 83.7355 16.2803C83.3266 16.4898 83.154 16.6003 82.2233 16.5736H77.541C75.0094 16.3933 74.7478 13.7449 74.7478 13.7449C74.7478 13.4224 74.7135 12.9933 74.7135 12.8092V9.80273C74.7821 7.09463 76.8833 6.47252 76.8833 6.47252C77.2092 6.39827 77.5433 6.36585 77.8774 6.37603H82.5611C84.6851 6.44586 85.245 8.76291 85.245 8.76291C85.2758 8.84438 85.3295 8.91524 85.3995 8.96703C85.4695 9.01882 85.553 9.04933 85.6399 9.05493H94.1463C94.2333 9.05426 94.3165 9.01914 94.3777 8.95727C94.4388 8.8954 94.473 8.81182 94.4726 8.72483V7.81451C94.3457 1.51973 88.626 -0.00507817 87.4389 0.0241231C87.119 0.0241231 86.6772 0 86.4931 0H73.2662C69.2389 0.0177747 66.9549 2.98742 66.1436 5.02389C65.8851 5.65773 65.725 6.32735 65.6688 7.00957C65.6523 7.37776 65.6218 7.96813 65.6218 8.15223V15.1351C65.9874 21.7968 71.7668 22.9141 72.6352 22.9433C72.9272 22.9535 73.416 22.9712 73.5975 22.9712H86.8219C92.8628 22.6487 94.4218 17.3544 94.4472 15.6608C94.4472 15.1694 94.4637 14.979 94.4637 14.7974V14.6476C94.4644 14.6041 94.4565 14.5609 94.4405 14.5204C94.4244 14.4799 94.4006 14.443 94.3703 14.4118C94.34 14.3805 94.3038 14.3556 94.2639 14.3383C94.2239 14.321 94.181 14.3118 94.1374 14.3112L85.5409 14.3073Z" fill="#373F5F"/>
<path d="M33.9194 0.595433C34.0121 0.435461 33.9384 0.311038 33.7581 0.311038H0.839455C0.752799 0.310699 0.669539 0.344714 0.607907 0.405631C0.546276 0.466549 0.511294 0.549408 0.510623 0.636062V6.96892C0.510455 7.01221 0.518838 7.05511 0.535288 7.09515C0.551739 7.13519 0.575934 7.17159 0.606485 7.20226C0.637037 7.23293 0.673344 7.25727 0.713323 7.27387C0.753301 7.29048 0.796166 7.29902 0.839455 7.29902H8.9117C8.95488 7.29919 8.99761 7.30786 9.03744 7.32454C9.07727 7.34122 9.11342 7.36558 9.14384 7.39623C9.17426 7.42689 9.19834 7.46323 9.21471 7.50319C9.23108 7.54315 9.23942 7.58594 9.23926 7.62912V22.2996C9.23959 22.387 9.27448 22.4708 9.33631 22.5326C9.39814 22.5945 9.48191 22.6293 9.56936 22.6297H22.2757C22.3632 22.6293 22.4469 22.5945 22.5088 22.5326C22.5706 22.4708 22.6055 22.387 22.6058 22.2996V7.6342C22.6055 7.59108 22.6137 7.54832 22.6299 7.50836C22.6461 7.46841 22.6701 7.43206 22.7004 7.40139C22.7307 7.37072 22.7668 7.34634 22.8066 7.32964C22.8463 7.31295 22.889 7.30427 22.9321 7.3041H29.5963C29.6953 7.2977 29.7915 7.26875 29.8775 7.21945C29.9636 7.17016 30.0372 7.10184 30.0928 7.01971L33.9194 0.595433Z" fill="#373F5F"/>
<path d="M39.2318 0.316172C39.0246 0.326006 38.8285 0.412951 38.6821 0.559939C38.6821 0.559939 32.8418 6.36337 32.8609 14.4305C32.8672 19.4138 34.9049 22.3695 34.9049 22.3695C35.0407 22.5235 35.232 22.6175 35.4369 22.631H43.7618C43.9421 22.631 43.9954 22.5167 43.8811 22.3771C43.8811 22.3771 41.1959 18.9555 41.2442 14.3036C41.2835 10.1316 43.7466 7.51111 43.7466 7.51111C43.8114 7.43383 43.8914 7.37065 43.9816 7.32545C44.0717 7.28025 44.1702 7.25399 44.2709 7.24829H49.503C49.5461 7.24829 49.5888 7.25681 49.6287 7.27335C49.6685 7.28989 49.7047 7.31413 49.7351 7.34468C49.7655 7.37524 49.7896 7.4115 49.806 7.45138C49.8224 7.49127 49.8308 7.534 49.8306 7.57713V22.3047C49.8306 22.3481 49.8391 22.391 49.8557 22.431C49.8723 22.4711 49.8966 22.5075 49.9273 22.5381C49.9579 22.5688 49.9943 22.5931 50.0344 22.6097C50.0744 22.6263 50.1173 22.6348 50.1607 22.6348H61.9973C62.0409 22.635 62.084 22.6266 62.1243 22.6101C62.1645 22.5936 62.2011 22.5693 62.232 22.5387C62.2629 22.508 62.2875 22.4716 62.3043 22.4314C62.3211 22.3913 62.3298 22.3482 62.33 22.3047V0.641194C62.3287 0.554088 62.2929 0.471041 62.2306 0.410158C62.1683 0.349274 62.0845 0.315492 61.9973 0.316172H39.2318Z" fill="#373F5F"/>
<path d="M41.2438 14.3073C41.243 15.1839 41.3302 16.0584 41.5041 16.9176H58.5004L60.7337 13.4033H41.2831C41.259 13.6953 41.2438 13.9975 41.2438 14.306" fill="#C64D4F"/>
<path d="M41.842 10.8108C41.5971 11.5082 41.4244 12.2289 41.3265 12.9615H61.0158L62.3832 10.8108H41.842Z" fill="#C64D4F"/>
<path d="M0.472678 26.2544C0.472676 26.1676 0.50697 26.0843 0.56809 26.0227C0.62921 25.9611 0.712199 25.9262 0.79897 25.9255H94.102C94.189 25.9262 94.2723 25.9611 94.3338 26.0226C94.3953 26.0841 94.4302 26.1674 94.4309 26.2544V34.9932C94.431 35.0364 94.4227 35.0793 94.4062 35.1194C94.3897 35.1594 94.3656 35.1958 94.335 35.2265C94.3045 35.2572 94.2681 35.2815 94.2282 35.2981C94.1882 35.3147 94.1453 35.3233 94.102 35.3233H0.79897C0.755798 35.3233 0.713055 35.3147 0.673217 35.2981C0.633379 35.2814 0.597238 35.2571 0.566889 35.2263C0.536539 35.1956 0.512586 35.1592 0.496414 35.1192C0.480242 35.0792 0.472175 35.0363 0.472678 34.9932V26.2544Z" fill="#373F5F"/>
<path d="M9.157 28.8317H7.74391V33.6689H6.81074V28.8317H5.39258V28.0547H9.27761L9.157 28.8317Z" fill="white"/>
<path d="M15.7754 31.4128C15.5215 30.566 15.2955 29.7623 15.1101 28.9815C14.874 29.8233 14.6289 30.632 14.3991 31.4128H15.7754ZM16.4407 33.6689L15.9849 32.1924H14.1693L13.7174 33.6702H12.7499L14.5883 28.0547H15.665L17.4577 33.6689H16.4407Z" fill="white"/>
<path d="M24.1613 33.7504C23.8225 33.7608 23.4858 33.6928 23.1775 33.5519C22.8693 33.411 22.5976 33.2008 22.3838 32.9378C21.9623 32.43 21.7388 31.7431 21.7388 30.9598C21.7228 30.3711 21.8537 29.7877 22.1197 29.2623C22.3111 28.8769 22.6059 28.5522 22.9711 28.3247C23.3363 28.0971 23.7576 27.9756 24.1879 27.9736C24.7351 27.9736 25.2519 28.1349 25.5845 28.4129L25.1528 29.0198C24.8785 28.8093 24.5413 28.6975 24.1955 28.7024C23.9649 28.7007 23.7383 28.763 23.5411 28.8825C23.3438 29.002 23.1836 29.1739 23.0783 29.3791C22.8828 29.7181 22.785 30.1891 22.785 30.848C22.785 31.507 22.8574 31.9095 23.0034 32.2269C23.1075 32.4697 23.2827 32.6753 23.5059 32.8168C23.7291 32.9582 23.9899 33.0287 24.2539 33.0191C24.6211 33.0303 24.9793 32.904 25.2582 32.6649L25.6975 33.2552C25.2568 33.5907 24.7149 33.7658 24.1613 33.7517" fill="white"/>
<path d="M34.5148 28.621L34.2609 28.687C34.1435 28.7008 34.033 28.7495 33.9435 28.8267C33.8584 28.9324 33.7996 29.0569 33.7721 29.1898L33.6274 29.7725C33.5728 30.01 33.5233 30.2436 33.296 30.4556C33.1819 30.559 33.0468 30.6366 32.8999 30.6829V30.6994C33.0282 30.7436 33.1471 30.8117 33.2503 30.9C33.4296 31.0758 33.5533 31.3006 33.6058 31.5462L33.8597 32.4464C33.8852 32.5924 33.9497 32.7288 34.0463 32.8412C34.1456 32.9234 34.2625 32.9816 34.3879 33.0113L34.6316 33.0837L34.4602 33.7464L34.153 33.7096C33.8851 33.6855 33.5182 33.636 33.2643 33.396C33.0535 33.1815 33.0103 32.9009 32.9646 32.6647L32.778 31.8014C32.7374 31.6351 32.6739 31.3926 32.5164 31.2529C32.3608 31.1285 32.1642 31.0669 31.9654 31.0802H31.4309V33.6703H30.499V28.0547H31.4309V30.3185H32.0467C32.2525 30.3365 32.4571 30.2722 32.6155 30.1395C32.7602 29.9935 32.7996 29.7713 32.8402 29.6126L32.9951 28.927C33.0308 28.6906 33.135 28.47 33.2947 28.2922C33.4864 28.103 33.6934 28.0789 34.0184 28.0319L34.3498 27.9836L34.5288 28.6185L34.5148 28.621Z" fill="white"/>
<path d="M41.2833 28.687C40.3159 28.687 39.9578 29.4487 39.9578 30.7895C39.9578 32.233 40.326 33.0354 41.3062 33.0354C42.1416 33.0354 42.5758 32.4184 42.5758 30.9088C42.5758 29.544 42.2927 28.687 41.2897 28.687H41.2833ZM41.3125 33.7502C39.7141 33.7502 38.9256 32.5149 38.9256 30.8555C38.9256 29.012 39.8664 27.9722 41.2719 27.9722C42.8538 27.9722 43.6143 29.2278 43.6143 30.8606C43.6143 32.6139 42.7688 33.7502 41.3112 33.7502" fill="white"/>
<path d="M53.1263 33.6691L52.8647 30.1891C52.8432 29.8311 52.8254 29.3842 52.8254 29.2166C52.786 29.4007 52.7124 29.7562 52.607 30.1142L51.5824 33.6691H50.7889L49.8557 30.2678C49.7504 29.8958 49.6425 29.3918 49.6094 29.2064C49.6094 29.3931 49.579 29.9314 49.5574 30.2754L49.3035 33.6691H48.3881L48.8959 28.0549H50.1376L50.9971 31.2289C51.0827 31.5442 51.1517 31.8638 51.2041 32.1862C51.232 32.0161 51.3044 31.6327 51.411 31.2454L52.2998 28.0498H53.5415L54.0391 33.6641L53.1263 33.6691Z" fill="white"/>
<path d="M60.8023 32.9021C61.225 32.9021 61.4701 32.7751 61.5983 32.6482C61.6826 32.5592 61.7478 32.454 61.79 32.3389C61.8321 32.2239 61.8503 32.1014 61.8433 31.9791C61.8516 31.8568 61.8341 31.7342 61.7919 31.6191C61.7497 31.504 61.6837 31.3992 61.5983 31.3113C61.3761 31.1056 61.0562 31.0662 60.8023 31.0662H60.0087V32.897L60.8023 32.9021ZM62.4528 28.056L62.3258 28.8177H60.0049V30.3045H60.7807C61.2047 30.3045 61.9233 30.3045 62.4236 30.792C62.8184 31.1818 62.8768 31.7074 62.8768 32.0261C62.8879 32.2288 62.8586 32.4318 62.7906 32.6232C62.7226 32.8145 62.6172 32.9905 62.4807 33.1408C62.0147 33.6245 61.2847 33.6626 60.7426 33.6626H59.0705V28.0547L62.4528 28.056Z" fill="white"/>
<path d="M70.1874 31.4128C69.9335 30.566 69.7075 29.7623 69.5234 28.9815C69.286 29.8233 69.0448 30.632 68.8061 31.4128H70.1874ZM70.8489 33.6689L70.3944 32.1911H68.5776L68.123 33.6689H67.1594L69.0016 28.0547H70.0808L71.8735 33.6689H70.8489Z" fill="white"/>
<path d="M79.2486 33.6689V31.07H77.334V33.6689H76.4008V28.0547H77.334V30.3095H79.2486V28.0547H80.1792V33.6689H79.2486Z" fill="white"/>
<path d="M89.4058 28.621L89.1442 28.687C89.028 28.7009 88.9187 28.7495 88.8307 28.8267C88.7429 28.9307 88.6838 29.0559 88.6593 29.1898L88.5094 29.7725C88.4548 30.01 88.4053 30.2436 88.1755 30.4556C88.0634 30.5604 87.9288 30.6381 87.7819 30.6829V30.6994C87.9112 30.7433 88.031 30.8113 88.1349 30.9C88.3153 31.0746 88.4384 31.3 88.4879 31.5462L88.7418 32.4464C88.7665 32.5929 88.8315 32.7296 88.9297 32.8412C89.0284 32.9243 89.1454 32.9826 89.2712 33.0113L89.5137 33.0837L89.3423 33.7464L89.0351 33.7096C88.7672 33.6855 88.3939 33.636 88.1463 33.396C87.9356 33.1815 87.8924 32.9009 87.8442 32.6647L87.6588 31.8014C87.6182 31.6351 87.5547 31.3926 87.4049 31.2529C87.2488 31.1285 87.0518 31.0669 86.8526 31.0802H86.3168V33.6703H85.3836V28.0547H86.3168V30.3185H86.9313C87.0334 30.3276 87.1363 30.3165 87.2342 30.2858C87.332 30.255 87.4228 30.2053 87.5014 30.1395C87.6231 29.9876 87.7013 29.8055 87.7274 29.6126L87.8848 28.927C87.9176 28.6898 88.0222 28.4683 88.1844 28.2922C88.3711 28.103 88.5805 28.0789 88.903 28.0319L89.2395 27.9836L89.4185 28.6185L89.4058 28.621Z" fill="white"/>
</svg>
