<svg width="29" height="30" viewBox="0 0 29 30" fill="none" xmlns="http://www.w3.org/2000/svg">
<path d="M18.4675 10.1508L22.7987 0H18.7384L14.4072 10.1508L18.7384 20.3021H22.7987L18.4675 10.1508Z" fill="#B4B5B7"/>
<path d="M5.47572 0L12.1078 15.5436L9.80691 20.3021L1.14453 0H5.47572Z" fill="#B4B5B7"/>
<path d="M1.33162 29.4196L2.22222 26.8828H2.67094L1.51709 29.9597H1.15384L0 26.8828H0.446581L1.33162 29.4196Z" fill="#B4B5B7"/>
<path d="M5.2215 29.1516H3.91723L3.62449 29.9558H3.20312L4.39159 26.8789H4.75056L5.93816 29.9558H5.5168L5.2215 29.1516ZM4.04116 28.8199H5.0997L4.57064 27.3819L4.04116 28.8199Z" fill="#B4B5B7"/>
<path d="M7.85605 28.587C7.50391 28.487 7.2475 28.3641 7.08682 28.2182C7.00986 28.1513 6.94846 28.0683 6.9069 27.9752C6.86534 27.882 6.84463 27.7809 6.84622 27.6789C6.84465 27.5627 6.87045 27.4478 6.92153 27.3434C6.9726 27.239 7.04753 27.1481 7.14024 27.0781C7.33653 26.9194 7.59138 26.84 7.90477 26.84C8.10224 26.8366 8.29788 26.8785 8.47656 26.9627C8.6353 27.0369 8.77014 27.154 8.86588 27.3007C8.95637 27.4408 9.00418 27.6041 9.00348 27.7708H8.58981C8.58981 27.5845 8.52998 27.4379 8.41032 27.3311C8.29066 27.2242 8.12257 27.1711 7.90605 27.1717C7.70348 27.1717 7.54565 27.2158 7.43254 27.3041C7.37659 27.347 7.33182 27.4028 7.30206 27.4667C7.2723 27.5306 7.25842 27.6008 7.2616 27.6712C7.26136 27.7336 7.27587 27.795 7.30395 27.8507C7.33203 27.9063 7.37287 27.9545 7.42314 27.9913C7.53055 28.0768 7.7136 28.1561 7.97229 28.2294C8.18397 28.2825 8.38804 28.3623 8.57955 28.467C8.71107 28.5401 8.82271 28.6442 8.90476 28.7704C8.97719 28.8938 9.01374 29.035 9.01032 29.1781C9.01343 29.2942 8.98821 29.4094 8.93683 29.5137C8.88546 29.6179 8.80947 29.7081 8.71545 29.7764C8.51773 29.9254 8.25477 29.9999 7.92656 29.9999C7.72087 30.0013 7.51713 29.96 7.32827 29.8785C7.15803 29.8088 7.0102 29.6936 6.90092 29.5456C6.80073 29.406 6.74786 29.2379 6.75007 29.0661H7.16289C7.15959 29.1509 7.17684 29.2353 7.21315 29.312C7.24946 29.3887 7.30376 29.4555 7.37143 29.5067C7.51046 29.6144 7.69565 29.6682 7.92699 29.6682C8.1438 29.6682 8.30975 29.6245 8.42485 29.537C8.48071 29.4963 8.52573 29.4424 8.55598 29.3802C8.58622 29.318 8.60077 29.2493 8.59835 29.1802C8.60167 29.1133 8.5888 29.0466 8.56083 28.9857C8.53285 28.9249 8.4906 28.8717 8.43767 28.8306C8.33055 28.7486 8.13667 28.6674 7.85605 28.587Z" fill="#B4B5B7"/>
<path d="M10.5548 29.9558H10.1445V26.8789H10.5548V29.9558Z" fill="#B4B5B7"/>
<path d="M12.2952 29.6246H13.7704V29.9558H11.8828V26.8789H12.2952V29.6246Z" fill="#B4B5B7"/>
<path d="M17.2676 28.5263L16.8872 28.9169V29.9558H16.4766V26.8789H16.8872V28.3998L18.2706 26.8789H18.7663L17.5415 28.237L18.8625 29.9558H18.371L17.2676 28.5263Z" fill="#B4B5B7"/>
<path d="M20.2423 29.9558H19.832V26.8789H20.2423V29.9558Z" fill="#B4B5B7"/>
<path d="M22.4872 28.587C22.1351 28.487 21.8787 28.3641 21.718 28.2182C21.641 28.1513 21.5795 28.0684 21.5379 27.9752C21.4964 27.8821 21.4757 27.7809 21.4774 27.6789C21.4757 27.5627 21.5015 27.4477 21.5525 27.3433C21.6036 27.239 21.6786 27.1481 21.7714 27.0781C21.9671 26.9194 22.2218 26.84 22.5355 26.84C22.733 26.8366 22.9286 26.8785 23.1073 26.9627C23.2661 27.0367 23.401 27.1539 23.4966 27.3007C23.5874 27.4406 23.6352 27.604 23.6342 27.7708H23.2218C23.2218 27.5845 23.162 27.4379 23.0423 27.3311C22.9227 27.2242 22.7537 27.1708 22.5355 27.1708C22.3332 27.1708 22.1754 27.215 22.062 27.3033C22.0061 27.3463 21.9614 27.402 21.9317 27.4659C21.9019 27.5298 21.888 27.6 21.8911 27.6704C21.8911 27.7324 21.9057 27.7936 21.9338 27.8489C21.9619 27.9042 22.0026 27.9521 22.0526 27.9888C22.1603 28.0742 22.3435 28.1536 22.6022 28.2268C22.8137 28.2799 23.0177 28.3597 23.209 28.4644C23.3406 28.5374 23.4523 28.6416 23.5342 28.7678C23.6068 28.8912 23.6434 29.0324 23.6398 29.1755C23.6429 29.2917 23.6177 29.4069 23.5663 29.5111C23.5149 29.6153 23.4389 29.7055 23.3449 29.7738C23.1483 29.9234 22.8854 29.9983 22.556 29.9986C22.3503 30 22.1466 29.9587 21.9577 29.8772C21.7875 29.8074 21.6397 29.6922 21.5304 29.5443C21.4303 29.4047 21.3776 29.2366 21.3799 29.0648H21.7923C21.7891 29.1496 21.8064 29.2339 21.8427 29.3106C21.879 29.3873 21.9333 29.4542 22.0009 29.5054C22.1399 29.6131 22.3251 29.667 22.5564 29.667C22.773 29.667 22.9391 29.6232 23.0547 29.5358C23.1101 29.4947 23.1547 29.4408 23.1845 29.3786C23.2143 29.3164 23.2284 29.2478 23.2257 29.1789C23.229 29.1121 23.2162 29.0454 23.1883 28.9845C23.1604 28.9237 23.1183 28.8704 23.0654 28.8294C22.9609 28.7482 22.7681 28.6674 22.4872 28.587Z" fill="#B4B5B7"/>
<path d="M25.1841 29.9558H24.7734V26.8789H25.1841V29.9558Z" fill="#B4B5B7"/>
<path d="M26.9284 29.6246H28.4032V29.9558H26.5156V26.8789H26.9284V29.6246Z" fill="#B4B5B7"/>
</svg>
